%TF.GenerationSoftware,KiCad,Pcbnew,9.0.2*%
%TF.CreationDate,2025-07-07T19:43:33+05:30*%
%TF.ProjectId,Atmega328p_based,41746d65-6761-4333-9238-705f62617365,rev?*%
%TF.SameCoordinates,Original*%
%TF.FileFunction,Copper,L1,Top*%
%TF.FilePolarity,Positive*%
%FSLAX46Y46*%
G04 Gerber Fmt 4.6, Leading zero omitted, Abs format (unit mm)*
G04 Created by KiCad (PCBNEW 9.0.2) date 2025-07-07 19:43:33*
%MOMM*%
%LPD*%
G01*
G04 APERTURE LIST*
G04 Aperture macros list*
%AMRoundRect*
0 Rectangle with rounded corners*
0 $1 Rounding radius*
0 $2 $3 $4 $5 $6 $7 $8 $9 X,Y pos of 4 corners*
0 Add a 4 corners polygon primitive as box body*
4,1,4,$2,$3,$4,$5,$6,$7,$8,$9,$2,$3,0*
0 Add four circle primitives for the rounded corners*
1,1,$1+$1,$2,$3*
1,1,$1+$1,$4,$5*
1,1,$1+$1,$6,$7*
1,1,$1+$1,$8,$9*
0 Add four rect primitives between the rounded corners*
20,1,$1+$1,$2,$3,$4,$5,0*
20,1,$1+$1,$4,$5,$6,$7,0*
20,1,$1+$1,$6,$7,$8,$9,0*
20,1,$1+$1,$8,$9,$2,$3,0*%
G04 Aperture macros list end*
%TA.AperFunction,ComponentPad*%
%ADD10R,1.700000X1.700000*%
%TD*%
%TA.AperFunction,ComponentPad*%
%ADD11C,1.700000*%
%TD*%
%TA.AperFunction,SMDPad,CuDef*%
%ADD12RoundRect,0.250000X-0.250000X-0.475000X0.250000X-0.475000X0.250000X0.475000X-0.250000X0.475000X0*%
%TD*%
%TA.AperFunction,SMDPad,CuDef*%
%ADD13RoundRect,0.250000X-0.262500X-0.450000X0.262500X-0.450000X0.262500X0.450000X-0.262500X0.450000X0*%
%TD*%
%TA.AperFunction,ComponentPad*%
%ADD14RoundRect,0.250000X-0.550000X-0.550000X0.550000X-0.550000X0.550000X0.550000X-0.550000X0.550000X0*%
%TD*%
%TA.AperFunction,ComponentPad*%
%ADD15C,1.600000*%
%TD*%
%TA.AperFunction,SMDPad,CuDef*%
%ADD16RoundRect,0.150000X0.150000X-0.825000X0.150000X0.825000X-0.150000X0.825000X-0.150000X-0.825000X0*%
%TD*%
%TA.AperFunction,SMDPad,CuDef*%
%ADD17RoundRect,0.250000X-0.475000X0.250000X-0.475000X-0.250000X0.475000X-0.250000X0.475000X0.250000X0*%
%TD*%
%TA.AperFunction,ComponentPad*%
%ADD18C,1.500000*%
%TD*%
%TA.AperFunction,SMDPad,CuDef*%
%ADD19RoundRect,0.250000X0.475000X-0.250000X0.475000X0.250000X-0.475000X0.250000X-0.475000X-0.250000X0*%
%TD*%
%TA.AperFunction,ComponentPad*%
%ADD20C,2.000000*%
%TD*%
%TA.AperFunction,SMDPad,CuDef*%
%ADD21RoundRect,0.250000X0.250000X0.475000X-0.250000X0.475000X-0.250000X-0.475000X0.250000X-0.475000X0*%
%TD*%
%TA.AperFunction,SMDPad,CuDef*%
%ADD22RoundRect,0.250001X-0.462499X-0.624999X0.462499X-0.624999X0.462499X0.624999X-0.462499X0.624999X0*%
%TD*%
%TA.AperFunction,ViaPad*%
%ADD23C,0.600000*%
%TD*%
%TA.AperFunction,Conductor*%
%ADD24C,0.500000*%
%TD*%
%TA.AperFunction,Conductor*%
%ADD25C,0.300000*%
%TD*%
G04 APERTURE END LIST*
D10*
%TO.P,J3,1,Pin_1*%
%TO.N,/A0*%
X166750000Y-106200000D03*
D11*
%TO.P,J3,2,Pin_2*%
%TO.N,/A1*%
X166750000Y-103660000D03*
%TO.P,J3,3,Pin_3*%
%TO.N,/A2*%
X166750000Y-101120000D03*
%TO.P,J3,4,Pin_4*%
%TO.N,/A3*%
X166750000Y-98580000D03*
%TO.P,J3,5,Pin_5*%
%TO.N,/A4*%
X166750000Y-96040000D03*
%TO.P,J3,6,Pin_6*%
%TO.N,/A5*%
X166750000Y-93500000D03*
%TO.P,J3,7,Pin_7*%
%TO.N,/AREF*%
X166750000Y-90960000D03*
%TO.P,J3,8,Pin_8*%
%TO.N,unconnected-(J3-Pin_8-Pad8)*%
X166750000Y-88420000D03*
%TO.P,J3,9,Pin_9*%
%TO.N,unconnected-(J3-Pin_9-Pad9)*%
X166750000Y-85880000D03*
%TO.P,J3,10,Pin_10*%
%TO.N,GND*%
X166750000Y-83340000D03*
%TO.P,J3,11,Pin_11*%
X166750000Y-80800000D03*
%TO.P,J3,12,Pin_12*%
%TO.N,+5V*%
X166750000Y-78260000D03*
%TO.P,J3,13,Pin_13*%
%TO.N,Vin*%
X166750000Y-75720000D03*
%TO.P,J3,14,Pin_14*%
%TO.N,/RST *%
X166750000Y-73180000D03*
%TD*%
D12*
%TO.P,C2,1*%
%TO.N,/PB6*%
X141050000Y-90250000D03*
%TO.P,C2,2*%
%TO.N,GND*%
X142950000Y-90250000D03*
%TD*%
D13*
%TO.P,R1,1*%
%TO.N,+5V*%
X141587500Y-70750000D03*
%TO.P,R1,2*%
%TO.N,/RST *%
X143412500Y-70750000D03*
%TD*%
D14*
%TO.P,U1,1,~{RESET}/PC6*%
%TO.N,/RST *%
X145880000Y-70600000D03*
D15*
%TO.P,U1,2,PD0*%
%TO.N,/RX*%
X145880000Y-73140000D03*
%TO.P,U1,3,PD1*%
%TO.N,/TX*%
X145880000Y-75680000D03*
%TO.P,U1,4,PD2*%
%TO.N,/D2*%
X145880000Y-78220000D03*
%TO.P,U1,5,PD3*%
%TO.N,/D3*%
X145880000Y-80760000D03*
%TO.P,U1,6,PD4*%
%TO.N,/D4*%
X145880000Y-83300000D03*
%TO.P,U1,7,VCC*%
%TO.N,+5V*%
X145880000Y-85840000D03*
%TO.P,U1,8,GND*%
%TO.N,GND*%
X145880000Y-88380000D03*
%TO.P,U1,9,XTAL1/PB6*%
%TO.N,/PB6*%
X145880000Y-90920000D03*
%TO.P,U1,10,XTAL2/PB7*%
%TO.N,/PB7*%
X145880000Y-93460000D03*
%TO.P,U1,11,PD5*%
%TO.N,/D5*%
X145880000Y-96000000D03*
%TO.P,U1,12,PD6*%
%TO.N,/D6*%
X145880000Y-98540000D03*
%TO.P,U1,13,PD7*%
%TO.N,/D7*%
X145880000Y-101080000D03*
%TO.P,U1,14,PB0*%
%TO.N,/D8*%
X145880000Y-103620000D03*
%TO.P,U1,15,PB1*%
%TO.N,/D9*%
X153500000Y-103620000D03*
%TO.P,U1,16,PB2*%
%TO.N,/D10*%
X153500000Y-101080000D03*
%TO.P,U1,17,PB3*%
%TO.N,/ MOSI*%
X153500000Y-98540000D03*
%TO.P,U1,18,PB4*%
%TO.N,/MISO*%
X153500000Y-96000000D03*
%TO.P,U1,19,PB5*%
%TO.N,/SCK*%
X153500000Y-93460000D03*
%TO.P,U1,20,AVCC*%
%TO.N,+5V*%
X153500000Y-90920000D03*
%TO.P,U1,21,AREF*%
%TO.N,/AREF*%
X153500000Y-88380000D03*
%TO.P,U1,22,GND*%
%TO.N,GND*%
X153500000Y-85840000D03*
%TO.P,U1,23,PC0*%
%TO.N,/A0*%
X153500000Y-83300000D03*
%TO.P,U1,24,PC1*%
%TO.N,/A1*%
X153500000Y-80760000D03*
%TO.P,U1,25,PC2*%
%TO.N,/A2*%
X153500000Y-78220000D03*
%TO.P,U1,26,PC3*%
%TO.N,/A3*%
X153500000Y-75680000D03*
%TO.P,U1,27,PC4*%
%TO.N,/SDA*%
X153500000Y-73140000D03*
%TO.P,U1,28,PC5*%
%TO.N,/SCL*%
X153500000Y-70600000D03*
%TD*%
D16*
%TO.P,U2,1,GND*%
%TO.N,GND*%
X157595000Y-103225000D03*
%TO.P,U2,2,VO*%
%TO.N,+5V*%
X158865000Y-103225000D03*
%TO.P,U2,3,VO*%
X160135000Y-103225000D03*
%TO.P,U2,4,VI*%
%TO.N,Vin*%
X161405000Y-103225000D03*
%TO.P,U2,5,NC*%
%TO.N,unconnected-(U2-NC-Pad5)*%
X161405000Y-98275000D03*
%TO.P,U2,6,VO*%
%TO.N,+5V*%
X160135000Y-98275000D03*
%TO.P,U2,7,VO*%
X158865000Y-98275000D03*
%TO.P,U2,8,NC*%
%TO.N,unconnected-(U2-NC-Pad8)*%
X157595000Y-98275000D03*
%TD*%
D17*
%TO.P,C7,1*%
%TO.N,Vin*%
X155750000Y-101800000D03*
%TO.P,C7,2*%
%TO.N,GND*%
X155750000Y-103700000D03*
%TD*%
D12*
%TO.P,C4,1*%
%TO.N,+5V*%
X141100000Y-79000000D03*
%TO.P,C4,2*%
%TO.N,GND*%
X143000000Y-79000000D03*
%TD*%
D18*
%TO.P,Y1,1,1*%
%TO.N,/PB7*%
X159250000Y-78500000D03*
%TO.P,Y1,2,2*%
%TO.N,/PB6*%
X159250000Y-73620000D03*
%TD*%
D13*
%TO.P,R2,1*%
%TO.N,+5V*%
X141100000Y-96750000D03*
%TO.P,R2,2*%
%TO.N,/LED*%
X142925000Y-96750000D03*
%TD*%
D10*
%TO.P,J1,1,MISO*%
%TO.N,/MISO*%
X142340000Y-108500000D03*
D11*
%TO.P,J1,2,VCC*%
%TO.N,+5V*%
X144880000Y-108500000D03*
%TO.P,J1,3,SCK*%
%TO.N,/SCK*%
X147420000Y-108500000D03*
%TO.P,J1,4,MOSI*%
%TO.N,/ MOSI*%
X149960000Y-108500000D03*
%TO.P,J1,5,~{RST}*%
%TO.N,/RST *%
X152500000Y-108500000D03*
%TO.P,J1,6,GND*%
%TO.N,GND*%
X155040000Y-108500000D03*
%TD*%
D10*
%TO.P,J2,1,Pin_1*%
%TO.N,/RX*%
X131500000Y-74920000D03*
D11*
%TO.P,J2,2,Pin_2*%
%TO.N,/TX*%
X131500000Y-77460000D03*
%TO.P,J2,3,Pin_3*%
%TO.N,/D2*%
X131500000Y-80000000D03*
%TO.P,J2,4,Pin_4*%
%TO.N,/D3*%
X131500000Y-82540000D03*
%TO.P,J2,5,Pin_5*%
%TO.N,/D4*%
X131500000Y-85080000D03*
%TO.P,J2,6,Pin_6*%
%TO.N,/D5*%
X131500000Y-87620000D03*
%TO.P,J2,7,Pin_7*%
%TO.N,/D6*%
X131500000Y-90160000D03*
%TO.P,J2,8,Pin_8*%
%TO.N,/D7*%
X131500000Y-92700000D03*
%TO.P,J2,9,Pin_9*%
%TO.N,/D8*%
X131500000Y-95240000D03*
%TO.P,J2,10,Pin_10*%
%TO.N,/D9*%
X131500000Y-97780000D03*
%TO.P,J2,11,Pin_11*%
%TO.N,/D10*%
X131500000Y-100320000D03*
%TO.P,J2,12,Pin_12*%
%TO.N,/ MOSI*%
X131500000Y-102860000D03*
%TO.P,J2,13,Pin_13*%
%TO.N,/ MISO*%
X131500000Y-105400000D03*
%TO.P,J2,14,Pin_14*%
%TO.N,/SCK*%
X131500000Y-107940000D03*
%TD*%
D19*
%TO.P,C8,1*%
%TO.N,+5V*%
X155750000Y-99700000D03*
%TO.P,C8,2*%
%TO.N,GND*%
X155750000Y-97800000D03*
%TD*%
D12*
%TO.P,C1,1*%
%TO.N,/PB7*%
X141050000Y-93250000D03*
%TO.P,C1,2*%
%TO.N,GND*%
X142950000Y-93250000D03*
%TD*%
D20*
%TO.P,SW1,1,1*%
%TO.N,/RST *%
X134500000Y-70750000D03*
X134500000Y-64250000D03*
%TO.P,SW1,2,2*%
%TO.N,GND*%
X139000000Y-70750000D03*
X139000000Y-64250000D03*
%TD*%
D12*
%TO.P,C6,1*%
%TO.N,GND*%
X141250000Y-84000000D03*
%TO.P,C6,2*%
%TO.N,/AREF*%
X143150000Y-84000000D03*
%TD*%
D10*
%TO.P,J5,1,Pin_1*%
%TO.N,GND*%
X144340000Y-64500000D03*
D11*
%TO.P,J5,2,Pin_2*%
%TO.N,+5V*%
X146880000Y-64500000D03*
%TO.P,J5,3,Pin_3*%
%TO.N,/RX*%
X149420000Y-64500000D03*
%TO.P,J5,4,Pin_4*%
%TO.N,/TX*%
X151960000Y-64500000D03*
%TO.P,J5,5,Pin_5*%
%TO.N,/CTS - AVR*%
X154500000Y-64500000D03*
%TO.P,J5,6,Pin_6*%
%TO.N,/DTR - AVR*%
X157040000Y-64500000D03*
%TD*%
D12*
%TO.P,C3,1*%
%TO.N,+5V*%
X141600000Y-75500000D03*
%TO.P,C3,2*%
%TO.N,GND*%
X143500000Y-75500000D03*
%TD*%
D21*
%TO.P,C5,1*%
%TO.N,/RST *%
X156950000Y-67750000D03*
%TO.P,C5,2*%
%TO.N,/DTR - AVR*%
X155050000Y-67750000D03*
%TD*%
D22*
%TO.P,D1,1,K*%
%TO.N,GND*%
X140525000Y-100000000D03*
%TO.P,D1,2,A*%
%TO.N,/LED*%
X143500000Y-100000000D03*
%TD*%
D23*
%TO.N,GND*%
X163945700Y-85840000D03*
X144168300Y-72129800D03*
%TO.N,+5V*%
X151352000Y-87426400D03*
X163224600Y-83994500D03*
X139497000Y-88732100D03*
X159221200Y-94836100D03*
%TO.N,/RST *%
X157875000Y-106125000D03*
%TO.N,/AREF*%
X144168800Y-87018200D03*
%TO.N,/D7*%
X147840300Y-95181900D03*
%TO.N,/D8*%
X142734400Y-98287500D03*
%TO.N,/A3*%
X164654200Y-80736100D03*
%TO.N,/A0*%
X164434500Y-82786900D03*
%TO.N,/A2*%
X154346000Y-100077300D03*
%TO.N,/A1*%
X162089500Y-101974200D03*
%TO.N,Vin*%
X161212200Y-100950700D03*
X156019000Y-100763100D03*
%TO.N,/PB7*%
X151509200Y-79166300D03*
%TD*%
D24*
%TO.N,GND*%
X139000000Y-64250000D02*
X139000000Y-70750000D01*
X143000000Y-79000000D02*
X143000000Y-82419700D01*
X155750000Y-103700000D02*
X157120000Y-103700000D01*
X144168300Y-72129800D02*
X143500000Y-72798100D01*
X155040000Y-108500000D02*
X155750000Y-107790000D01*
X143500000Y-72798100D02*
X143500000Y-75500000D01*
X138682400Y-71067600D02*
X139000000Y-70750000D01*
X144010000Y-90250000D02*
X142950000Y-90250000D01*
X145880000Y-88380000D02*
X144010000Y-90250000D01*
X140085800Y-94049400D02*
X140085800Y-89206400D01*
X141419700Y-84000000D02*
X141250000Y-84000000D01*
X163945700Y-102586700D02*
X161838300Y-104694100D01*
X141721400Y-94478600D02*
X140515000Y-94478600D01*
X161838300Y-104694100D02*
X158437100Y-104694100D01*
X158437100Y-104694100D02*
X157595000Y-103852000D01*
X155750000Y-107790000D02*
X155750000Y-103700000D01*
X166750000Y-80800000D02*
X166750000Y-83340000D01*
X143000000Y-79000000D02*
X143500000Y-78500000D01*
X138682400Y-98157400D02*
X138682400Y-71067600D01*
X155750000Y-88090000D02*
X153500000Y-85840000D01*
X142950000Y-93250000D02*
X141721400Y-94478600D01*
X141250000Y-88042200D02*
X141250000Y-84000000D01*
X157120000Y-103700000D02*
X157595000Y-103225000D01*
X163945700Y-85840000D02*
X163945700Y-102586700D01*
X157595000Y-103852000D02*
X157595000Y-103225000D01*
X140525000Y-100000000D02*
X138682400Y-98157400D01*
X141419700Y-88719700D02*
X142950000Y-90250000D01*
X140515000Y-94478600D02*
X140085800Y-94049400D01*
X143000000Y-82419700D02*
X141419700Y-84000000D01*
X143500000Y-78500000D02*
X143500000Y-75500000D01*
X141419700Y-84000000D02*
X141419700Y-88719700D01*
X140085800Y-89206400D02*
X141250000Y-88042200D01*
X155750000Y-97800000D02*
X155750000Y-88090000D01*
%TO.N,+5V*%
X158865000Y-98275000D02*
X159221200Y-98275000D01*
X141100000Y-96750000D02*
X141100000Y-97340600D01*
X151352000Y-88772000D02*
X151352000Y-87426400D01*
X141100000Y-96750000D02*
X139384100Y-95034100D01*
X141600000Y-75500000D02*
X141587500Y-75487500D01*
X153500000Y-90920000D02*
X151352000Y-88772000D01*
X141600000Y-78500000D02*
X141100000Y-79000000D01*
X141100000Y-79000000D02*
X139497000Y-80603000D01*
X146880000Y-65457500D02*
X146880000Y-64500000D01*
X158013500Y-99761600D02*
X158865000Y-98910100D01*
X139384100Y-95034100D02*
X139384100Y-88845000D01*
X159221200Y-103225000D02*
X159221200Y-98275000D01*
X155750000Y-99700000D02*
X155811600Y-99761600D01*
X141600000Y-75500000D02*
X141600000Y-78500000D01*
X165975100Y-78260000D02*
X163224700Y-81010400D01*
X158865000Y-98910100D02*
X158865000Y-98275000D01*
X139497000Y-80603000D02*
X139497000Y-88732100D01*
X141100000Y-97340600D02*
X141961300Y-98201900D01*
X159221200Y-98275000D02*
X159221200Y-94836100D01*
X163224700Y-81010400D02*
X163224700Y-83994500D01*
X141587500Y-75487500D02*
X141587500Y-70750000D01*
X155811600Y-99761600D02*
X158013500Y-99761600D01*
X159221200Y-98275000D02*
X160135000Y-98275000D01*
X166750000Y-78260000D02*
X165975100Y-78260000D01*
X159221200Y-103225000D02*
X160135000Y-103225000D01*
X163224700Y-83994500D02*
X163224600Y-83994500D01*
X141961300Y-105581300D02*
X144880000Y-108500000D01*
X141587500Y-70750000D02*
X146880000Y-65457500D01*
X158865000Y-103225000D02*
X159221200Y-103225000D01*
X141961300Y-98201900D02*
X141961300Y-105581300D01*
X139384100Y-88845000D02*
X139497000Y-88732100D01*
D25*
%TO.N,/RST *%
X156950000Y-67750000D02*
X162380000Y-73180000D01*
X157875000Y-106125000D02*
X157750000Y-106000000D01*
X134500000Y-64250000D02*
X134500000Y-70750000D01*
X168295000Y-106758700D02*
X168295000Y-74725000D01*
X159151000Y-107401000D02*
X157875000Y-106125000D01*
X168295000Y-74725000D02*
X166750000Y-73180000D01*
X167951000Y-107401000D02*
X159151000Y-107401000D01*
X168295000Y-107057000D02*
X167951000Y-107401000D01*
X162380000Y-73180000D02*
X166750000Y-73180000D01*
X168295000Y-106758700D02*
X168295000Y-107057000D01*
X143412500Y-70750000D02*
X145730000Y-70750000D01*
X145730000Y-70750000D02*
X145880000Y-70600000D01*
%TO.N,/AREF*%
X144168800Y-87018200D02*
X143150000Y-85999400D01*
X143150000Y-85999400D02*
X143150000Y-84000000D01*
%TO.N,/DTR - AVR*%
X157040000Y-64500000D02*
X157040000Y-65760000D01*
X157040000Y-65760000D02*
X155050000Y-67750000D01*
%TO.N,/D7*%
X145880000Y-101080000D02*
X145880000Y-100168800D01*
X147840300Y-98208500D02*
X147840300Y-95181900D01*
X145880000Y-100168800D02*
X147840300Y-98208500D01*
%TO.N,/D8*%
X144728300Y-96988600D02*
X143437000Y-95697300D01*
X142059800Y-97449500D02*
X142413000Y-97802700D01*
X143437000Y-95697300D02*
X142413000Y-95697300D01*
X145880000Y-103620000D02*
X144728300Y-102468300D01*
X142413000Y-95697300D02*
X142059800Y-96050500D01*
X142059800Y-96050500D02*
X142059800Y-97449500D01*
X142413100Y-97802700D02*
X142734400Y-98124000D01*
X142734400Y-98124000D02*
X142734400Y-98287500D01*
X144728300Y-102468300D02*
X144728300Y-96988600D01*
X142413000Y-97802700D02*
X142413100Y-97802700D01*
%TO.N,/A3*%
X165410200Y-97240200D02*
X166750000Y-98580000D01*
X164654200Y-80736100D02*
X165410200Y-81492100D01*
X165410200Y-81492100D02*
X165410200Y-97240200D01*
%TO.N,/A0*%
X166750000Y-106200000D02*
X166750000Y-104998300D01*
X166750000Y-104998300D02*
X166374500Y-104998300D01*
X166374500Y-104998300D02*
X164597400Y-103221200D01*
X164597400Y-103221200D02*
X164597400Y-82949800D01*
X164597400Y-82949800D02*
X164434500Y-82786900D01*
%TO.N,/A2*%
X154651700Y-90406400D02*
X154651700Y-99771600D01*
X153500000Y-78220000D02*
X152341700Y-79378300D01*
X153895300Y-89650000D02*
X154651700Y-90406400D01*
X153140400Y-89650000D02*
X153895300Y-89650000D01*
X152341700Y-79378300D02*
X152341700Y-88851300D01*
X154651700Y-99771600D02*
X154346000Y-100077300D01*
X152341700Y-88851300D02*
X153140400Y-89650000D01*
%TO.N,/A1*%
X162089500Y-89349500D02*
X162089500Y-101974200D01*
X153500000Y-80760000D02*
X162089500Y-89349500D01*
D24*
%TO.N,Vin*%
X156019000Y-101531000D02*
X155750000Y-101800000D01*
X162841200Y-84674100D02*
X162841200Y-102285600D01*
X161901800Y-103225000D02*
X161405000Y-103225000D01*
X156019000Y-100763100D02*
X156019000Y-101531000D01*
X166750000Y-75720000D02*
X162457400Y-80012600D01*
X162457400Y-84290300D02*
X162841200Y-84674100D01*
X161212200Y-103032200D02*
X161212200Y-100950700D01*
X162841200Y-102285600D02*
X161901800Y-103225000D01*
X161405000Y-103225000D02*
X161212200Y-103032200D01*
X162457400Y-80012600D02*
X162457400Y-84290300D01*
D25*
%TO.N,/PB7*%
X145502500Y-93082500D02*
X145880000Y-93460000D01*
X144704400Y-92143900D02*
X145502500Y-92942000D01*
X149615700Y-81059800D02*
X151509200Y-79166300D01*
X145502500Y-92942000D02*
X145502500Y-93082500D01*
X142156100Y-92143900D02*
X144704400Y-92143900D01*
X141050000Y-93250000D02*
X142156100Y-92143900D01*
X149615700Y-88828800D02*
X149615700Y-81059800D01*
X145502500Y-92942000D02*
X149615700Y-88828800D01*
%TO.N,/PB6*%
X155920000Y-76950000D02*
X152804000Y-76950000D01*
X148937400Y-80816600D02*
X148937400Y-87862600D01*
X148937400Y-87862600D02*
X145880000Y-90920000D01*
X145880000Y-90920000D02*
X145465000Y-91335000D01*
X142135000Y-91335000D02*
X141050000Y-90250000D01*
X152804000Y-76950000D02*
X148937400Y-80816600D01*
X159250000Y-73620000D02*
X155920000Y-76950000D01*
X145465000Y-91335000D02*
X142135000Y-91335000D01*
%TO.N,/LED*%
X143500000Y-100000000D02*
X143500000Y-97325000D01*
X143500000Y-97325000D02*
X142925000Y-96750000D01*
%TO.N,/SCK*%
X147420000Y-108500000D02*
X147420000Y-99540000D01*
X147420000Y-99540000D02*
X153500000Y-93460000D01*
%TO.N,/ MOSI*%
X149960000Y-108500000D02*
X149960000Y-102080000D01*
X149960000Y-102080000D02*
X153500000Y-98540000D01*
%TO.N,/MISO*%
X142340000Y-108500000D02*
X143541700Y-108500000D01*
X148690000Y-108948400D02*
X147936700Y-109701700D01*
X143541700Y-108875600D02*
X143541700Y-108500000D01*
X148690000Y-100810000D02*
X148690000Y-108948400D01*
X153500000Y-96000000D02*
X148690000Y-100810000D01*
X147936700Y-109701700D02*
X144367800Y-109701700D01*
X144367800Y-109701700D02*
X143541700Y-108875600D01*
%TO.N,/TX*%
X151960000Y-69600000D02*
X145880000Y-75680000D01*
X151960000Y-64500000D02*
X151960000Y-69600000D01*
%TO.N,/RX*%
X149420000Y-69600000D02*
X145880000Y-73140000D01*
X149420000Y-64500000D02*
X149420000Y-69600000D01*
%TD*%
%TA.AperFunction,Conductor*%
%TO.N,GND*%
G36*
X168442539Y-62520185D02*
G01*
X168488294Y-62572989D01*
X168499500Y-62624500D01*
X168499500Y-73710192D01*
X168479815Y-73777231D01*
X168427011Y-73822986D01*
X168357853Y-73832930D01*
X168294297Y-73803905D01*
X168287819Y-73797873D01*
X168100657Y-73610711D01*
X168067172Y-73549388D01*
X168067689Y-73501245D01*
X168066484Y-73501055D01*
X168100500Y-73286286D01*
X168100500Y-73073713D01*
X168067246Y-72863760D01*
X168067246Y-72863757D01*
X168001557Y-72661588D01*
X167905051Y-72472184D01*
X167905049Y-72472181D01*
X167905048Y-72472179D01*
X167780109Y-72300213D01*
X167629786Y-72149890D01*
X167457820Y-72024951D01*
X167268414Y-71928444D01*
X167268413Y-71928443D01*
X167268412Y-71928443D01*
X167066243Y-71862754D01*
X167066241Y-71862753D01*
X167066240Y-71862753D01*
X166889825Y-71834812D01*
X166856287Y-71829500D01*
X166643713Y-71829500D01*
X166610175Y-71834812D01*
X166433760Y-71862753D01*
X166231585Y-71928444D01*
X166042179Y-72024951D01*
X165870213Y-72149890D01*
X165719890Y-72300213D01*
X165592085Y-72476125D01*
X165590740Y-72475148D01*
X165544295Y-72517166D01*
X165490382Y-72529500D01*
X162700808Y-72529500D01*
X162633769Y-72509815D01*
X162613127Y-72493181D01*
X157986818Y-67866872D01*
X157953333Y-67805549D01*
X157950499Y-67779191D01*
X157950499Y-67224998D01*
X157950498Y-67224981D01*
X157939999Y-67122203D01*
X157939998Y-67122200D01*
X157884814Y-66955666D01*
X157792712Y-66806344D01*
X157668656Y-66682288D01*
X157519334Y-66590186D01*
X157417550Y-66556458D01*
X157360106Y-66516685D01*
X157333283Y-66452169D01*
X157345598Y-66383393D01*
X157368870Y-66351075D01*
X157545277Y-66174669D01*
X157616465Y-66068127D01*
X157665501Y-65949744D01*
X157674391Y-65905051D01*
X157690500Y-65824069D01*
X157690500Y-65752875D01*
X157691230Y-65746179D01*
X157702165Y-65719888D01*
X157710185Y-65692578D01*
X157715819Y-65687063D01*
X157718064Y-65681667D01*
X157729227Y-65673940D01*
X157744592Y-65658902D01*
X157743874Y-65657914D01*
X157747811Y-65655053D01*
X157747816Y-65655051D01*
X157919792Y-65530104D01*
X158070104Y-65379792D01*
X158070106Y-65379788D01*
X158070109Y-65379786D01*
X158195048Y-65207820D01*
X158195047Y-65207820D01*
X158195051Y-65207816D01*
X158291557Y-65018412D01*
X158332074Y-64893713D01*
X162149500Y-64893713D01*
X162149500Y-65106286D01*
X162175178Y-65268414D01*
X162182754Y-65316243D01*
X162228755Y-65457820D01*
X162248444Y-65518414D01*
X162344951Y-65707820D01*
X162469890Y-65879786D01*
X162620213Y-66030109D01*
X162792179Y-66155048D01*
X162792181Y-66155049D01*
X162792184Y-66155051D01*
X162981588Y-66251557D01*
X163183757Y-66317246D01*
X163393713Y-66350500D01*
X163393714Y-66350500D01*
X163606286Y-66350500D01*
X163606287Y-66350500D01*
X163816243Y-66317246D01*
X164018412Y-66251557D01*
X164207816Y-66155051D01*
X164282900Y-66100500D01*
X164379786Y-66030109D01*
X164379788Y-66030106D01*
X164379792Y-66030104D01*
X164530104Y-65879792D01*
X164530106Y-65879788D01*
X164530109Y-65879786D01*
X164655048Y-65707820D01*
X164655047Y-65707820D01*
X164655051Y-65707816D01*
X164751557Y-65518412D01*
X164817246Y-65316243D01*
X164850500Y-65106287D01*
X164850500Y-64893713D01*
X164817246Y-64683757D01*
X164751557Y-64481588D01*
X164655051Y-64292184D01*
X164655049Y-64292181D01*
X164655048Y-64292179D01*
X164530109Y-64120213D01*
X164379786Y-63969890D01*
X164207820Y-63844951D01*
X164018414Y-63748444D01*
X164018413Y-63748443D01*
X164018412Y-63748443D01*
X163816243Y-63682754D01*
X163816241Y-63682753D01*
X163816240Y-63682753D01*
X163654957Y-63657208D01*
X163606287Y-63649500D01*
X163393713Y-63649500D01*
X163345042Y-63657208D01*
X163183760Y-63682753D01*
X162981585Y-63748444D01*
X162792179Y-63844951D01*
X162620213Y-63969890D01*
X162469890Y-64120213D01*
X162344951Y-64292179D01*
X162248444Y-64481585D01*
X162182753Y-64683760D01*
X162149500Y-64893713D01*
X158332074Y-64893713D01*
X158357246Y-64816243D01*
X158390500Y-64606287D01*
X158390500Y-64393713D01*
X158357246Y-64183757D01*
X158291557Y-63981588D01*
X158195051Y-63792184D01*
X158195049Y-63792181D01*
X158195048Y-63792179D01*
X158070109Y-63620213D01*
X157919786Y-63469890D01*
X157747820Y-63344951D01*
X157558414Y-63248444D01*
X157558413Y-63248443D01*
X157558412Y-63248443D01*
X157356243Y-63182754D01*
X157356241Y-63182753D01*
X157356240Y-63182753D01*
X157194957Y-63157208D01*
X157146287Y-63149500D01*
X156933713Y-63149500D01*
X156885042Y-63157208D01*
X156723760Y-63182753D01*
X156521585Y-63248444D01*
X156332179Y-63344951D01*
X156160213Y-63469890D01*
X156009890Y-63620213D01*
X155884949Y-63792182D01*
X155880484Y-63800946D01*
X155832509Y-63851742D01*
X155764688Y-63868536D01*
X155698553Y-63845998D01*
X155659516Y-63800946D01*
X155655050Y-63792182D01*
X155530109Y-63620213D01*
X155379786Y-63469890D01*
X155207820Y-63344951D01*
X155018414Y-63248444D01*
X155018413Y-63248443D01*
X155018412Y-63248443D01*
X154816243Y-63182754D01*
X154816241Y-63182753D01*
X154816240Y-63182753D01*
X154654957Y-63157208D01*
X154606287Y-63149500D01*
X154393713Y-63149500D01*
X154345042Y-63157208D01*
X154183760Y-63182753D01*
X153981585Y-63248444D01*
X153792179Y-63344951D01*
X153620213Y-63469890D01*
X153469890Y-63620213D01*
X153344949Y-63792182D01*
X153340484Y-63800946D01*
X153292509Y-63851742D01*
X153224688Y-63868536D01*
X153158553Y-63845998D01*
X153119516Y-63800946D01*
X153115050Y-63792182D01*
X152990109Y-63620213D01*
X152839786Y-63469890D01*
X152667820Y-63344951D01*
X152478414Y-63248444D01*
X152478413Y-63248443D01*
X152478412Y-63248443D01*
X152276243Y-63182754D01*
X152276241Y-63182753D01*
X152276240Y-63182753D01*
X152114957Y-63157208D01*
X152066287Y-63149500D01*
X151853713Y-63149500D01*
X151805042Y-63157208D01*
X151643760Y-63182753D01*
X151441585Y-63248444D01*
X151252179Y-63344951D01*
X151080213Y-63469890D01*
X150929890Y-63620213D01*
X150804949Y-63792182D01*
X150800484Y-63800946D01*
X150752509Y-63851742D01*
X150684688Y-63868536D01*
X150618553Y-63845998D01*
X150579516Y-63800946D01*
X150575050Y-63792182D01*
X150450109Y-63620213D01*
X150299786Y-63469890D01*
X150127820Y-63344951D01*
X149938414Y-63248444D01*
X149938413Y-63248443D01*
X149938412Y-63248443D01*
X149736243Y-63182754D01*
X149736241Y-63182753D01*
X149736240Y-63182753D01*
X149574957Y-63157208D01*
X149526287Y-63149500D01*
X149313713Y-63149500D01*
X149265042Y-63157208D01*
X149103760Y-63182753D01*
X148901585Y-63248444D01*
X148712179Y-63344951D01*
X148540213Y-63469890D01*
X148389890Y-63620213D01*
X148264949Y-63792182D01*
X148260484Y-63800946D01*
X148212509Y-63851742D01*
X148144688Y-63868536D01*
X148078553Y-63845998D01*
X148039516Y-63800946D01*
X148035050Y-63792182D01*
X147910109Y-63620213D01*
X147759786Y-63469890D01*
X147587820Y-63344951D01*
X147398414Y-63248444D01*
X147398413Y-63248443D01*
X147398412Y-63248443D01*
X147196243Y-63182754D01*
X147196241Y-63182753D01*
X147196240Y-63182753D01*
X147034957Y-63157208D01*
X146986287Y-63149500D01*
X146773713Y-63149500D01*
X146725042Y-63157208D01*
X146563760Y-63182753D01*
X146361585Y-63248444D01*
X146172179Y-63344951D01*
X146000215Y-63469889D01*
X145886285Y-63583819D01*
X145824962Y-63617303D01*
X145755270Y-63612319D01*
X145699337Y-63570447D01*
X145682422Y-63539470D01*
X145633354Y-63407913D01*
X145633350Y-63407906D01*
X145547190Y-63292812D01*
X145547187Y-63292809D01*
X145432093Y-63206649D01*
X145432086Y-63206645D01*
X145297379Y-63156403D01*
X145297372Y-63156401D01*
X145237844Y-63150000D01*
X144590000Y-63150000D01*
X144590000Y-64066988D01*
X144532993Y-64034075D01*
X144405826Y-64000000D01*
X144274174Y-64000000D01*
X144147007Y-64034075D01*
X144090000Y-64066988D01*
X144090000Y-63150000D01*
X143442155Y-63150000D01*
X143382627Y-63156401D01*
X143382620Y-63156403D01*
X143247913Y-63206645D01*
X143247906Y-63206649D01*
X143132812Y-63292809D01*
X143132809Y-63292812D01*
X143046649Y-63407906D01*
X143046645Y-63407913D01*
X142996403Y-63542620D01*
X142996401Y-63542627D01*
X142990000Y-63602155D01*
X142990000Y-64250000D01*
X143906988Y-64250000D01*
X143874075Y-64307007D01*
X143840000Y-64434174D01*
X143840000Y-64565826D01*
X143874075Y-64692993D01*
X143906988Y-64750000D01*
X142990000Y-64750000D01*
X142990000Y-65397844D01*
X142996401Y-65457372D01*
X142996403Y-65457379D01*
X143046645Y-65592086D01*
X143046649Y-65592093D01*
X143132809Y-65707187D01*
X143132812Y-65707190D01*
X143247906Y-65793350D01*
X143247913Y-65793354D01*
X143382620Y-65843596D01*
X143382627Y-65843598D01*
X143442155Y-65849999D01*
X143442172Y-65850000D01*
X144090000Y-65850000D01*
X144090000Y-64933012D01*
X144147007Y-64965925D01*
X144274174Y-65000000D01*
X144405826Y-65000000D01*
X144532993Y-64965925D01*
X144590000Y-64933012D01*
X144590000Y-65850000D01*
X145126770Y-65850000D01*
X145193809Y-65869685D01*
X145239564Y-65922489D01*
X145249508Y-65991647D01*
X145220483Y-66055203D01*
X145214451Y-66061681D01*
X141762949Y-69513181D01*
X141701626Y-69546666D01*
X141675268Y-69549500D01*
X141274998Y-69549500D01*
X141274980Y-69549501D01*
X141172203Y-69560000D01*
X141172200Y-69560001D01*
X141005668Y-69615185D01*
X141005663Y-69615187D01*
X140856342Y-69707289D01*
X140732289Y-69831342D01*
X140640187Y-69980663D01*
X140640186Y-69980666D01*
X140596172Y-70113491D01*
X140556399Y-70170935D01*
X140491883Y-70197758D01*
X140423107Y-70185443D01*
X140371907Y-70137899D01*
X140367981Y-70130781D01*
X140282914Y-69963828D01*
X140222658Y-69880894D01*
X140222658Y-69880893D01*
X139523787Y-70579765D01*
X139512518Y-70537708D01*
X139440110Y-70412292D01*
X139337708Y-70309890D01*
X139212292Y-70237482D01*
X139170234Y-70226212D01*
X139869105Y-69527340D01*
X139869104Y-69527338D01*
X139786174Y-69467087D01*
X139575802Y-69359897D01*
X139351247Y-69286934D01*
X139351248Y-69286934D01*
X139118052Y-69250000D01*
X138881948Y-69250000D01*
X138648752Y-69286934D01*
X138424197Y-69359897D01*
X138213830Y-69467084D01*
X138130894Y-69527340D01*
X138829766Y-70226212D01*
X138787708Y-70237482D01*
X138662292Y-70309890D01*
X138559890Y-70412292D01*
X138487482Y-70537708D01*
X138476212Y-70579766D01*
X137777340Y-69880894D01*
X137717084Y-69963830D01*
X137609897Y-70174197D01*
X137536934Y-70398752D01*
X137500000Y-70631947D01*
X137500000Y-70868052D01*
X137536934Y-71101247D01*
X137609897Y-71325802D01*
X137717087Y-71536174D01*
X137777338Y-71619104D01*
X137777340Y-71619105D01*
X138476212Y-70920233D01*
X138487482Y-70962292D01*
X138559890Y-71087708D01*
X138662292Y-71190110D01*
X138787708Y-71262518D01*
X138829765Y-71273787D01*
X138130893Y-71972658D01*
X138213828Y-72032914D01*
X138424197Y-72140102D01*
X138648752Y-72213065D01*
X138648751Y-72213065D01*
X138881948Y-72250000D01*
X139118052Y-72250000D01*
X139351247Y-72213065D01*
X139575802Y-72140102D01*
X139786163Y-72032918D01*
X139786169Y-72032914D01*
X139869104Y-71972658D01*
X139869105Y-71972658D01*
X139170233Y-71273787D01*
X139212292Y-71262518D01*
X139337708Y-71190110D01*
X139440110Y-71087708D01*
X139512518Y-70962292D01*
X139523787Y-70920234D01*
X140222658Y-71619105D01*
X140222658Y-71619104D01*
X140282914Y-71536169D01*
X140282921Y-71536158D01*
X140367981Y-71369219D01*
X140415955Y-71318422D01*
X140483776Y-71301627D01*
X140549911Y-71324164D01*
X140593363Y-71378879D01*
X140596172Y-71386509D01*
X140640185Y-71519331D01*
X140640187Y-71519336D01*
X140732289Y-71668657D01*
X140800681Y-71737049D01*
X140834166Y-71798372D01*
X140837000Y-71824730D01*
X140837000Y-74425270D01*
X140817315Y-74492309D01*
X140800681Y-74512951D01*
X140757289Y-74556342D01*
X140665187Y-74705663D01*
X140665185Y-74705668D01*
X140665115Y-74705880D01*
X140610001Y-74872203D01*
X140610001Y-74872204D01*
X140610000Y-74872204D01*
X140599500Y-74974983D01*
X140599500Y-76025001D01*
X140599501Y-76025019D01*
X140610000Y-76127796D01*
X140610001Y-76127799D01*
X140642877Y-76227011D01*
X140665186Y-76294334D01*
X140757096Y-76443345D01*
X140757289Y-76443657D01*
X140813181Y-76499549D01*
X140846666Y-76560872D01*
X140849500Y-76587230D01*
X140849500Y-77657465D01*
X140829815Y-77724504D01*
X140777011Y-77770259D01*
X140738102Y-77780823D01*
X140697202Y-77785001D01*
X140697200Y-77785001D01*
X140530668Y-77840185D01*
X140530663Y-77840187D01*
X140381342Y-77932289D01*
X140257289Y-78056342D01*
X140165187Y-78205663D01*
X140165185Y-78205668D01*
X140164686Y-78207174D01*
X140110001Y-78372203D01*
X140110001Y-78372204D01*
X140110000Y-78372204D01*
X140099500Y-78474983D01*
X140099500Y-78887769D01*
X140079815Y-78954808D01*
X140063181Y-78975450D01*
X138914052Y-80124578D01*
X138914046Y-80124585D01*
X138869604Y-80191098D01*
X138869605Y-80191099D01*
X138831914Y-80247508D01*
X138775343Y-80384082D01*
X138775340Y-80384092D01*
X138746500Y-80529079D01*
X138746500Y-88410757D01*
X138726815Y-88477796D01*
X138725609Y-88479636D01*
X138719773Y-88488372D01*
X138719014Y-88489508D01*
X138662443Y-88626082D01*
X138662440Y-88626092D01*
X138633600Y-88771079D01*
X138633600Y-88771082D01*
X138633600Y-95108018D01*
X138633600Y-95108020D01*
X138633599Y-95108020D01*
X138662440Y-95253007D01*
X138662443Y-95253017D01*
X138719012Y-95389588D01*
X138719016Y-95389595D01*
X138741692Y-95423532D01*
X138741693Y-95423535D01*
X138801146Y-95512514D01*
X138801152Y-95512521D01*
X140050681Y-96762049D01*
X140084166Y-96823372D01*
X140087000Y-96849730D01*
X140087000Y-97250001D01*
X140087001Y-97250019D01*
X140097500Y-97352796D01*
X140097501Y-97352799D01*
X140152685Y-97519331D01*
X140152686Y-97519334D01*
X140244788Y-97668656D01*
X140368844Y-97792712D01*
X140518166Y-97884814D01*
X140587004Y-97907624D01*
X140635680Y-97937648D01*
X140900610Y-98202578D01*
X141111352Y-98413319D01*
X141144837Y-98474642D01*
X141139853Y-98544333D01*
X141097982Y-98600267D01*
X141032517Y-98624684D01*
X141023671Y-98625000D01*
X140775000Y-98625000D01*
X140775000Y-101375000D01*
X141037473Y-101375000D01*
X141037480Y-101374999D01*
X141074195Y-101371248D01*
X141142888Y-101384016D01*
X141193774Y-101431895D01*
X141210800Y-101494606D01*
X141210800Y-105655218D01*
X141210800Y-105655220D01*
X141210799Y-105655220D01*
X141239640Y-105800207D01*
X141239643Y-105800217D01*
X141296214Y-105936792D01*
X141296215Y-105936794D01*
X141296216Y-105936795D01*
X141312219Y-105960746D01*
X141329112Y-105986027D01*
X141329113Y-105986030D01*
X141378346Y-106059714D01*
X141378352Y-106059721D01*
X142256451Y-106937819D01*
X142289936Y-106999142D01*
X142284952Y-107068833D01*
X142243080Y-107124767D01*
X142177616Y-107149184D01*
X142168770Y-107149500D01*
X141442129Y-107149500D01*
X141442123Y-107149501D01*
X141382516Y-107155908D01*
X141247671Y-107206202D01*
X141247664Y-107206206D01*
X141132455Y-107292452D01*
X141132452Y-107292455D01*
X141046206Y-107407664D01*
X141046202Y-107407671D01*
X140995908Y-107542517D01*
X140989501Y-107602116D01*
X140989500Y-107602135D01*
X140989500Y-109397870D01*
X140989501Y-109397876D01*
X140995908Y-109457483D01*
X141046202Y-109592328D01*
X141046206Y-109592335D01*
X141132452Y-109707544D01*
X141132455Y-109707547D01*
X141247664Y-109793793D01*
X141247671Y-109793797D01*
X141382517Y-109844091D01*
X141382516Y-109844091D01*
X141389444Y-109844835D01*
X141442127Y-109850500D01*
X143237872Y-109850499D01*
X143297483Y-109844091D01*
X143432331Y-109793796D01*
X143432335Y-109793792D01*
X143436048Y-109792408D01*
X143505740Y-109787424D01*
X143567060Y-109820906D01*
X143567063Y-109820909D01*
X143953125Y-110206972D01*
X143953126Y-110206973D01*
X143953129Y-110206975D01*
X143953131Y-110206977D01*
X144051041Y-110272397D01*
X144095847Y-110326009D01*
X144104554Y-110395334D01*
X144074400Y-110458362D01*
X144014957Y-110495082D01*
X143982151Y-110499500D01*
X137459029Y-110499500D01*
X137391990Y-110479815D01*
X137346235Y-110427011D01*
X137336291Y-110357853D01*
X137365316Y-110294297D01*
X137378493Y-110281214D01*
X137379789Y-110280106D01*
X137379788Y-110280106D01*
X137379792Y-110280104D01*
X137530104Y-110129792D01*
X137530106Y-110129788D01*
X137530109Y-110129786D01*
X137655048Y-109957820D01*
X137655047Y-109957820D01*
X137655051Y-109957816D01*
X137751557Y-109768412D01*
X137817246Y-109566243D01*
X137850500Y-109356287D01*
X137850500Y-109143713D01*
X137817246Y-108933757D01*
X137751557Y-108731588D01*
X137655051Y-108542184D01*
X137655049Y-108542181D01*
X137655048Y-108542179D01*
X137530109Y-108370213D01*
X137379786Y-108219890D01*
X137207820Y-108094951D01*
X137018414Y-107998444D01*
X137018413Y-107998443D01*
X137018412Y-107998443D01*
X136816243Y-107932754D01*
X136816241Y-107932753D01*
X136816240Y-107932753D01*
X136649043Y-107906272D01*
X136606287Y-107899500D01*
X136393713Y-107899500D01*
X136350957Y-107906272D01*
X136183760Y-107932753D01*
X135981585Y-107998444D01*
X135792179Y-108094951D01*
X135620213Y-108219890D01*
X135469890Y-108370213D01*
X135344951Y-108542179D01*
X135248444Y-108731585D01*
X135182753Y-108933760D01*
X135157208Y-109095048D01*
X135149500Y-109143713D01*
X135149500Y-109356287D01*
X135156087Y-109397876D01*
X135169146Y-109480330D01*
X135182754Y-109566243D01*
X135242966Y-109751557D01*
X135248444Y-109768414D01*
X135344951Y-109957820D01*
X135469890Y-110129786D01*
X135620210Y-110280106D01*
X135621507Y-110281214D01*
X135621862Y-110281758D01*
X135623653Y-110283549D01*
X135623276Y-110283925D01*
X135659698Y-110339723D01*
X135660193Y-110409591D01*
X135622836Y-110468635D01*
X135559488Y-110498110D01*
X135540971Y-110499500D01*
X129624500Y-110499500D01*
X129557461Y-110479815D01*
X129511706Y-110427011D01*
X129500500Y-110375500D01*
X129500500Y-74022135D01*
X130149500Y-74022135D01*
X130149500Y-75817870D01*
X130149501Y-75817876D01*
X130155908Y-75877483D01*
X130206202Y-76012328D01*
X130206206Y-76012335D01*
X130292452Y-76127544D01*
X130292455Y-76127547D01*
X130407664Y-76213793D01*
X130407671Y-76213797D01*
X130539082Y-76262810D01*
X130595016Y-76304681D01*
X130619433Y-76370145D01*
X130604582Y-76438418D01*
X130583431Y-76466673D01*
X130469889Y-76580215D01*
X130344951Y-76752179D01*
X130248444Y-76941585D01*
X130182753Y-77143760D01*
X130169111Y-77229896D01*
X130149500Y-77353713D01*
X130149500Y-77566287D01*
X130159534Y-77629644D01*
X130180627Y-77762818D01*
X130182754Y-77776243D01*
X130233456Y-77932288D01*
X130248444Y-77978414D01*
X130344951Y-78167820D01*
X130469890Y-78339786D01*
X130620213Y-78490109D01*
X130792182Y-78615050D01*
X130800946Y-78619516D01*
X130851742Y-78667491D01*
X130868536Y-78735312D01*
X130845998Y-78801447D01*
X130800946Y-78840484D01*
X130792182Y-78844949D01*
X130620213Y-78969890D01*
X130469890Y-79120213D01*
X130344951Y-79292179D01*
X130248444Y-79481585D01*
X130182753Y-79683760D01*
X130165342Y-79793692D01*
X130149500Y-79893713D01*
X130149500Y-80106287D01*
X130153187Y-80129564D01*
X130179524Y-80295853D01*
X130182754Y-80316243D01*
X130245213Y-80508472D01*
X130248444Y-80518414D01*
X130344951Y-80707820D01*
X130469890Y-80879786D01*
X130620213Y-81030109D01*
X130792182Y-81155050D01*
X130800946Y-81159516D01*
X130851742Y-81207491D01*
X130868536Y-81275312D01*
X130845998Y-81341447D01*
X130800946Y-81380484D01*
X130792182Y-81384949D01*
X130620213Y-81509890D01*
X130469890Y-81660213D01*
X130344951Y-81832179D01*
X130248444Y-82021585D01*
X130182753Y-82223760D01*
X130149500Y-82433713D01*
X130149500Y-82646286D01*
X130180210Y-82840186D01*
X130182754Y-82856243D01*
X130247873Y-83056659D01*
X130248444Y-83058414D01*
X130344951Y-83247820D01*
X130469890Y-83419786D01*
X130620213Y-83570109D01*
X130792182Y-83695050D01*
X130800946Y-83699516D01*
X130851742Y-83747491D01*
X130868536Y-83815312D01*
X130845998Y-83881447D01*
X130800946Y-83920484D01*
X130792182Y-83924949D01*
X130620213Y-84049890D01*
X130469890Y-84200213D01*
X130344951Y-84372179D01*
X130248444Y-84561585D01*
X130182753Y-84763760D01*
X130154310Y-84943342D01*
X130149500Y-84973713D01*
X130149500Y-85186287D01*
X130155631Y-85224998D01*
X130173969Y-85340781D01*
X130182754Y-85396243D01*
X130247137Y-85594394D01*
X130248444Y-85598414D01*
X130344951Y-85787820D01*
X130469890Y-85959786D01*
X130620213Y-86110109D01*
X130792182Y-86235050D01*
X130800946Y-86239516D01*
X130851742Y-86287491D01*
X130868536Y-86355312D01*
X130845998Y-86421447D01*
X130800946Y-86460484D01*
X130792182Y-86464949D01*
X130620213Y-86589890D01*
X130469890Y-86740213D01*
X130344951Y-86912179D01*
X130248444Y-87101585D01*
X130182753Y-87303760D01*
X130166781Y-87404604D01*
X130149500Y-87513713D01*
X130149500Y-87726287D01*
X130156355Y-87769567D01*
X130173969Y-87880781D01*
X130182754Y-87936243D01*
X130247137Y-88134394D01*
X130248444Y-88138414D01*
X130344951Y-88327820D01*
X130469890Y-88499786D01*
X130620213Y-88650109D01*
X130792182Y-88775050D01*
X130800946Y-88779516D01*
X130851742Y-88827491D01*
X130868536Y-88895312D01*
X130845998Y-88961447D01*
X130800946Y-89000484D01*
X130792182Y-89004949D01*
X130620213Y-89129890D01*
X130469890Y-89280213D01*
X130344951Y-89452179D01*
X130248444Y-89641585D01*
X130182753Y-89843760D01*
X130149500Y-90053713D01*
X130149500Y-90266286D01*
X130175035Y-90427511D01*
X130182754Y-90476243D01*
X130241321Y-90656494D01*
X130248444Y-90678414D01*
X130344951Y-90867820D01*
X130469890Y-91039786D01*
X130620213Y-91190109D01*
X130792182Y-91315050D01*
X130800946Y-91319516D01*
X130851742Y-91367491D01*
X130868536Y-91435312D01*
X130845998Y-91501447D01*
X130800946Y-91540484D01*
X130792182Y-91544949D01*
X130620213Y-91669890D01*
X130469890Y-91820213D01*
X130344951Y-91992179D01*
X130248444Y-92181585D01*
X130182753Y-92383760D01*
X130149500Y-92593713D01*
X130149500Y-92806286D01*
X130173969Y-92960781D01*
X130182754Y-93016243D01*
X130227990Y-93155465D01*
X130248444Y-93218414D01*
X130344951Y-93407820D01*
X130469890Y-93579786D01*
X130620213Y-93730109D01*
X130792182Y-93855050D01*
X130800946Y-93859516D01*
X130851742Y-93907491D01*
X130868536Y-93975312D01*
X130845998Y-94041447D01*
X130800946Y-94080484D01*
X130792182Y-94084949D01*
X130620213Y-94209890D01*
X130469890Y-94360213D01*
X130344951Y-94532179D01*
X130248444Y-94721585D01*
X130182753Y-94923760D01*
X130149500Y-95133713D01*
X130149500Y-95346286D01*
X130179318Y-95534554D01*
X130182754Y-95556243D01*
X130244381Y-95745912D01*
X130248444Y-95758414D01*
X130344951Y-95947820D01*
X130469890Y-96119786D01*
X130620213Y-96270109D01*
X130792182Y-96395050D01*
X130800946Y-96399516D01*
X130851742Y-96447491D01*
X130868536Y-96515312D01*
X130845998Y-96581447D01*
X130800946Y-96620484D01*
X130792182Y-96624949D01*
X130620213Y-96749890D01*
X130469890Y-96900213D01*
X130344951Y-97072179D01*
X130248444Y-97261585D01*
X130182753Y-97463760D01*
X130149500Y-97673713D01*
X130149500Y-97886286D01*
X130174310Y-98042934D01*
X130182754Y-98096243D01*
X130217304Y-98202578D01*
X130248444Y-98298414D01*
X130344951Y-98487820D01*
X130469890Y-98659786D01*
X130620213Y-98810109D01*
X130792182Y-98935050D01*
X130800946Y-98939516D01*
X130851742Y-98987491D01*
X130868536Y-99055312D01*
X130845998Y-99121447D01*
X130800946Y-99160484D01*
X130792182Y-99164949D01*
X130620213Y-99289890D01*
X130469890Y-99440213D01*
X130344951Y-99612179D01*
X130248444Y-99801585D01*
X130248443Y-99801587D01*
X130248443Y-99801588D01*
X130226720Y-99868443D01*
X130182753Y-100003760D01*
X130159558Y-100150208D01*
X130149500Y-100213713D01*
X130149500Y-100426287D01*
X130151737Y-100440411D01*
X130182527Y-100634814D01*
X130182754Y-100636243D01*
X130236015Y-100800164D01*
X130248444Y-100838414D01*
X130344951Y-101027820D01*
X130469890Y-101199786D01*
X130620213Y-101350109D01*
X130792182Y-101475050D01*
X130800946Y-101479516D01*
X130851742Y-101527491D01*
X130868536Y-101595312D01*
X130845998Y-101661447D01*
X130800946Y-101700484D01*
X130792182Y-101704949D01*
X130620213Y-101829890D01*
X130469890Y-101980213D01*
X130344951Y-102152179D01*
X130248444Y-102341585D01*
X130248443Y-102341587D01*
X130248443Y-102341588D01*
X130226720Y-102408443D01*
X130182753Y-102543760D01*
X130149500Y-102753713D01*
X130149500Y-102966286D01*
X130173969Y-103120781D01*
X130182754Y-103176243D01*
X130227990Y-103315465D01*
X130248444Y-103378414D01*
X130344951Y-103567820D01*
X130469890Y-103739786D01*
X130620213Y-103890109D01*
X130792182Y-104015050D01*
X130800946Y-104019516D01*
X130851742Y-104067491D01*
X130868536Y-104135312D01*
X130845998Y-104201447D01*
X130800946Y-104240484D01*
X130792182Y-104244949D01*
X130620213Y-104369890D01*
X130469890Y-104520213D01*
X130344951Y-104692179D01*
X130248444Y-104881585D01*
X130182753Y-105083760D01*
X130149500Y-105293713D01*
X130149500Y-105506286D01*
X130173088Y-105655218D01*
X130182754Y-105716243D01*
X130239698Y-105891499D01*
X130248444Y-105918414D01*
X130344951Y-106107820D01*
X130469890Y-106279786D01*
X130620213Y-106430109D01*
X130792182Y-106555050D01*
X130800946Y-106559516D01*
X130851742Y-106607491D01*
X130868536Y-106675312D01*
X130845998Y-106741447D01*
X130800946Y-106780484D01*
X130792182Y-106784949D01*
X130620213Y-106909890D01*
X130469890Y-107060213D01*
X130344951Y-107232179D01*
X130248444Y-107421585D01*
X130182753Y-107623760D01*
X130156037Y-107792440D01*
X130149500Y-107833713D01*
X130149500Y-108046287D01*
X130154243Y-108076233D01*
X130172760Y-108193147D01*
X130182754Y-108256243D01*
X130219785Y-108370213D01*
X130248444Y-108458414D01*
X130344951Y-108647820D01*
X130469890Y-108819786D01*
X130620213Y-108970109D01*
X130792179Y-109095048D01*
X130792181Y-109095049D01*
X130792184Y-109095051D01*
X130981588Y-109191557D01*
X131183757Y-109257246D01*
X131393713Y-109290500D01*
X131393714Y-109290500D01*
X131606286Y-109290500D01*
X131606287Y-109290500D01*
X131816243Y-109257246D01*
X132018412Y-109191557D01*
X132207816Y-109095051D01*
X132268172Y-109051200D01*
X132379786Y-108970109D01*
X132379788Y-108970106D01*
X132379792Y-108970104D01*
X132530104Y-108819792D01*
X132530106Y-108819788D01*
X132530109Y-108819786D01*
X132655048Y-108647820D01*
X132655047Y-108647820D01*
X132655051Y-108647816D01*
X132751557Y-108458412D01*
X132817246Y-108256243D01*
X132850500Y-108046287D01*
X132850500Y-107833713D01*
X132817246Y-107623757D01*
X132751557Y-107421588D01*
X132655051Y-107232184D01*
X132655049Y-107232181D01*
X132655048Y-107232179D01*
X132530109Y-107060213D01*
X132379786Y-106909890D01*
X132207820Y-106784951D01*
X132207115Y-106784591D01*
X132199054Y-106780485D01*
X132148259Y-106732512D01*
X132131463Y-106664692D01*
X132153999Y-106598556D01*
X132199054Y-106559515D01*
X132207816Y-106555051D01*
X132277836Y-106504179D01*
X132379786Y-106430109D01*
X132379788Y-106430106D01*
X132379792Y-106430104D01*
X132530104Y-106279792D01*
X132530106Y-106279788D01*
X132530109Y-106279786D01*
X132655048Y-106107820D01*
X132655047Y-106107820D01*
X132655051Y-106107816D01*
X132751557Y-105918412D01*
X132817246Y-105716243D01*
X132850500Y-105506287D01*
X132850500Y-105293713D01*
X132817246Y-105083757D01*
X132751557Y-104881588D01*
X132655051Y-104692184D01*
X132655049Y-104692181D01*
X132655048Y-104692179D01*
X132530109Y-104520213D01*
X132379786Y-104369890D01*
X132207820Y-104244951D01*
X132207115Y-104244591D01*
X132199054Y-104240485D01*
X132148259Y-104192512D01*
X132131463Y-104124692D01*
X132153999Y-104058556D01*
X132199054Y-104019515D01*
X132207816Y-104015051D01*
X132332403Y-103924534D01*
X132379786Y-103890109D01*
X132379788Y-103890106D01*
X132379792Y-103890104D01*
X132530104Y-103739792D01*
X132530106Y-103739788D01*
X132530109Y-103739786D01*
X132655048Y-103567820D01*
X132655047Y-103567820D01*
X132655051Y-103567816D01*
X132751557Y-103378412D01*
X132817246Y-103176243D01*
X132850500Y-102966287D01*
X132850500Y-102753713D01*
X132817246Y-102543757D01*
X132751557Y-102341588D01*
X132655051Y-102152184D01*
X132655049Y-102152181D01*
X132655048Y-102152179D01*
X132530109Y-101980213D01*
X132379786Y-101829890D01*
X132207820Y-101704951D01*
X132207115Y-101704591D01*
X132199054Y-101700485D01*
X132148259Y-101652512D01*
X132131463Y-101584692D01*
X132153999Y-101518556D01*
X132199054Y-101479515D01*
X132207816Y-101475051D01*
X132267216Y-101431895D01*
X132379786Y-101350109D01*
X132379788Y-101350106D01*
X132379792Y-101350104D01*
X132530104Y-101199792D01*
X132530106Y-101199788D01*
X132530109Y-101199786D01*
X132655048Y-101027820D01*
X132655047Y-101027820D01*
X132655051Y-101027816D01*
X132751557Y-100838412D01*
X132804658Y-100674985D01*
X139312500Y-100674985D01*
X139322993Y-100777689D01*
X139322994Y-100777696D01*
X139378141Y-100944118D01*
X139378143Y-100944123D01*
X139470184Y-101093344D01*
X139594155Y-101217315D01*
X139743376Y-101309356D01*
X139743381Y-101309358D01*
X139909803Y-101364505D01*
X139909810Y-101364506D01*
X140012514Y-101374999D01*
X140012527Y-101375000D01*
X140275000Y-101375000D01*
X140275000Y-100250000D01*
X139312500Y-100250000D01*
X139312500Y-100674985D01*
X132804658Y-100674985D01*
X132817246Y-100636243D01*
X132850500Y-100426287D01*
X132850500Y-100213713D01*
X132817246Y-100003757D01*
X132751557Y-99801588D01*
X132655051Y-99612184D01*
X132655049Y-99612181D01*
X132655048Y-99612179D01*
X132530109Y-99440213D01*
X132414910Y-99325014D01*
X139312500Y-99325014D01*
X139312500Y-99750000D01*
X140275000Y-99750000D01*
X140275000Y-98625000D01*
X140012514Y-98625000D01*
X139909810Y-98635493D01*
X139909803Y-98635494D01*
X139743381Y-98690641D01*
X139743376Y-98690643D01*
X139594155Y-98782684D01*
X139470184Y-98906655D01*
X139378143Y-99055876D01*
X139378141Y-99055881D01*
X139322994Y-99222303D01*
X139322993Y-99222310D01*
X139312500Y-99325014D01*
X132414910Y-99325014D01*
X132379786Y-99289890D01*
X132207820Y-99164951D01*
X132207115Y-99164591D01*
X132199054Y-99160485D01*
X132148259Y-99112512D01*
X132131463Y-99044692D01*
X132153999Y-98978556D01*
X132199054Y-98939515D01*
X132207816Y-98935051D01*
X132286697Y-98877741D01*
X132379786Y-98810109D01*
X132379788Y-98810106D01*
X132379792Y-98810104D01*
X132530104Y-98659792D01*
X132530106Y-98659788D01*
X132530109Y-98659786D01*
X132655048Y-98487820D01*
X132655047Y-98487820D01*
X132655051Y-98487816D01*
X132751557Y-98298412D01*
X132817246Y-98096243D01*
X132850500Y-97886287D01*
X132850500Y-97673713D01*
X132817246Y-97463757D01*
X132751557Y-97261588D01*
X132655051Y-97072184D01*
X132655049Y-97072181D01*
X132655048Y-97072179D01*
X132530109Y-96900213D01*
X132379786Y-96749890D01*
X132207820Y-96624951D01*
X132207115Y-96624591D01*
X132199054Y-96620485D01*
X132148259Y-96572512D01*
X132131463Y-96504692D01*
X132153999Y-96438556D01*
X132199054Y-96399515D01*
X132207816Y-96395051D01*
X132332403Y-96304534D01*
X132379786Y-96270109D01*
X132379788Y-96270106D01*
X132379792Y-96270104D01*
X132530104Y-96119792D01*
X132530106Y-96119788D01*
X132530109Y-96119786D01*
X132655048Y-95947820D01*
X132655047Y-95947820D01*
X132655051Y-95947816D01*
X132751557Y-95758412D01*
X132817246Y-95556243D01*
X132850500Y-95346287D01*
X132850500Y-95133713D01*
X132817246Y-94923757D01*
X132751557Y-94721588D01*
X132655051Y-94532184D01*
X132655049Y-94532181D01*
X132655048Y-94532179D01*
X132530109Y-94360213D01*
X132379786Y-94209890D01*
X132207820Y-94084951D01*
X132207115Y-94084591D01*
X132199054Y-94080485D01*
X132148259Y-94032512D01*
X132131463Y-93964692D01*
X132153999Y-93898556D01*
X132199054Y-93859515D01*
X132207816Y-93855051D01*
X132286697Y-93797741D01*
X132379786Y-93730109D01*
X132379788Y-93730106D01*
X132379792Y-93730104D01*
X132530104Y-93579792D01*
X132530106Y-93579788D01*
X132530109Y-93579786D01*
X132655048Y-93407820D01*
X132655047Y-93407820D01*
X132655051Y-93407816D01*
X132751557Y-93218412D01*
X132817246Y-93016243D01*
X132850500Y-92806287D01*
X132850500Y-92593713D01*
X132817246Y-92383757D01*
X132751557Y-92181588D01*
X132655051Y-91992184D01*
X132655049Y-91992181D01*
X132655048Y-91992179D01*
X132530109Y-91820213D01*
X132379786Y-91669890D01*
X132207820Y-91544951D01*
X132207115Y-91544591D01*
X132199054Y-91540485D01*
X132148259Y-91492512D01*
X132131463Y-91424692D01*
X132153999Y-91358556D01*
X132199054Y-91319515D01*
X132207816Y-91315051D01*
X132332403Y-91224534D01*
X132379786Y-91190109D01*
X132379788Y-91190106D01*
X132379792Y-91190104D01*
X132530104Y-91039792D01*
X132530106Y-91039788D01*
X132530109Y-91039786D01*
X132655048Y-90867820D01*
X132655047Y-90867820D01*
X132655051Y-90867816D01*
X132751557Y-90678412D01*
X132817246Y-90476243D01*
X132850500Y-90266287D01*
X132850500Y-90053713D01*
X132817246Y-89843757D01*
X132751557Y-89641588D01*
X132655051Y-89452184D01*
X132655049Y-89452181D01*
X132655048Y-89452179D01*
X132530109Y-89280213D01*
X132379786Y-89129890D01*
X132207820Y-89004951D01*
X132207115Y-89004591D01*
X132199054Y-89000485D01*
X132148259Y-88952512D01*
X132131463Y-88884692D01*
X132153999Y-88818556D01*
X132199054Y-88779515D01*
X132207816Y-88775051D01*
X132238523Y-88752741D01*
X132379786Y-88650109D01*
X132379788Y-88650106D01*
X132379792Y-88650104D01*
X132530104Y-88499792D01*
X132530106Y-88499788D01*
X132530109Y-88499786D01*
X132655048Y-88327820D01*
X132655047Y-88327820D01*
X132655051Y-88327816D01*
X132751557Y-88138412D01*
X132817246Y-87936243D01*
X132850500Y-87726287D01*
X132850500Y-87513713D01*
X132817246Y-87303757D01*
X132751557Y-87101588D01*
X132655051Y-86912184D01*
X132655049Y-86912181D01*
X132655048Y-86912179D01*
X132530109Y-86740213D01*
X132379786Y-86589890D01*
X132207820Y-86464951D01*
X132207115Y-86464591D01*
X132199054Y-86460485D01*
X132148259Y-86412512D01*
X132131463Y-86344692D01*
X132153999Y-86278556D01*
X132199054Y-86239515D01*
X132207816Y-86235051D01*
X132238523Y-86212741D01*
X132379786Y-86110109D01*
X132379788Y-86110106D01*
X132379792Y-86110104D01*
X132530104Y-85959792D01*
X132530106Y-85959788D01*
X132530109Y-85959786D01*
X132655048Y-85787820D01*
X132655047Y-85787820D01*
X132655051Y-85787816D01*
X132751557Y-85598412D01*
X132817246Y-85396243D01*
X132850500Y-85186287D01*
X132850500Y-84973713D01*
X132817246Y-84763757D01*
X132751557Y-84561588D01*
X132655051Y-84372184D01*
X132655049Y-84372181D01*
X132655048Y-84372179D01*
X132530109Y-84200213D01*
X132379786Y-84049890D01*
X132207820Y-83924951D01*
X132207115Y-83924591D01*
X132199054Y-83920485D01*
X132148259Y-83872512D01*
X132131463Y-83804692D01*
X132153999Y-83738556D01*
X132199054Y-83699515D01*
X132207816Y-83695051D01*
X132229789Y-83679086D01*
X132379786Y-83570109D01*
X132379788Y-83570106D01*
X132379792Y-83570104D01*
X132530104Y-83419792D01*
X132530106Y-83419788D01*
X132530109Y-83419786D01*
X132655048Y-83247820D01*
X132655047Y-83247820D01*
X132655051Y-83247816D01*
X132751557Y-83058412D01*
X132817246Y-82856243D01*
X132850500Y-82646287D01*
X132850500Y-82433713D01*
X132817246Y-82223757D01*
X132751557Y-82021588D01*
X132655051Y-81832184D01*
X132655049Y-81832181D01*
X132655048Y-81832179D01*
X132530109Y-81660213D01*
X132379786Y-81509890D01*
X132207820Y-81384951D01*
X132199294Y-81380607D01*
X132199054Y-81380485D01*
X132148259Y-81332512D01*
X132131463Y-81264692D01*
X132153999Y-81198556D01*
X132199054Y-81159515D01*
X132207816Y-81155051D01*
X132229789Y-81139086D01*
X132379786Y-81030109D01*
X132379788Y-81030106D01*
X132379792Y-81030104D01*
X132530104Y-80879792D01*
X132530106Y-80879788D01*
X132530109Y-80879786D01*
X132655048Y-80707820D01*
X132655047Y-80707820D01*
X132655051Y-80707816D01*
X132751557Y-80518412D01*
X132817246Y-80316243D01*
X132850500Y-80106287D01*
X132850500Y-79893713D01*
X132817246Y-79683757D01*
X132751557Y-79481588D01*
X132655051Y-79292184D01*
X132655049Y-79292181D01*
X132655048Y-79292179D01*
X132530109Y-79120213D01*
X132379786Y-78969890D01*
X132207820Y-78844951D01*
X132207115Y-78844591D01*
X132199054Y-78840485D01*
X132148259Y-78792512D01*
X132131463Y-78724692D01*
X132153999Y-78658556D01*
X132199054Y-78619515D01*
X132207816Y-78615051D01*
X132332403Y-78524534D01*
X132379786Y-78490109D01*
X132379788Y-78490106D01*
X132379792Y-78490104D01*
X132530104Y-78339792D01*
X132530106Y-78339788D01*
X132530109Y-78339786D01*
X132655048Y-78167820D01*
X132655047Y-78167820D01*
X132655051Y-78167816D01*
X132751557Y-77978412D01*
X132817246Y-77776243D01*
X132850500Y-77566287D01*
X132850500Y-77353713D01*
X132817246Y-77143757D01*
X132751557Y-76941588D01*
X132655051Y-76752184D01*
X132655049Y-76752181D01*
X132655048Y-76752179D01*
X132530109Y-76580213D01*
X132416569Y-76466673D01*
X132383084Y-76405350D01*
X132388068Y-76335658D01*
X132429940Y-76279725D01*
X132460915Y-76262810D01*
X132592331Y-76213796D01*
X132707546Y-76127546D01*
X132793796Y-76012331D01*
X132844091Y-75877483D01*
X132850500Y-75817873D01*
X132850499Y-74022128D01*
X132844091Y-73962517D01*
X132827510Y-73918062D01*
X132793797Y-73827671D01*
X132793793Y-73827664D01*
X132707547Y-73712455D01*
X132707544Y-73712452D01*
X132592335Y-73626206D01*
X132592328Y-73626202D01*
X132457482Y-73575908D01*
X132457483Y-73575908D01*
X132397883Y-73569501D01*
X132397881Y-73569500D01*
X132397873Y-73569500D01*
X132397864Y-73569500D01*
X130602129Y-73569500D01*
X130602123Y-73569501D01*
X130542516Y-73575908D01*
X130407671Y-73626202D01*
X130407664Y-73626206D01*
X130292455Y-73712452D01*
X130292452Y-73712455D01*
X130206206Y-73827664D01*
X130206202Y-73827671D01*
X130155908Y-73962517D01*
X130149501Y-74022116D01*
X130149501Y-74022123D01*
X130149500Y-74022135D01*
X129500500Y-74022135D01*
X129500500Y-65936494D01*
X129520185Y-65869455D01*
X129572989Y-65823700D01*
X129642147Y-65813756D01*
X129697385Y-65836176D01*
X129792184Y-65905051D01*
X129981588Y-66001557D01*
X130183757Y-66067246D01*
X130393713Y-66100500D01*
X130393714Y-66100500D01*
X130606286Y-66100500D01*
X130606287Y-66100500D01*
X130816243Y-66067246D01*
X131018412Y-66001557D01*
X131207816Y-65905051D01*
X131242591Y-65879786D01*
X131379786Y-65780109D01*
X131379788Y-65780106D01*
X131379792Y-65780104D01*
X131530104Y-65629792D01*
X131530106Y-65629788D01*
X131530109Y-65629786D01*
X131655048Y-65457820D01*
X131655047Y-65457820D01*
X131655051Y-65457816D01*
X131751557Y-65268412D01*
X131817246Y-65066243D01*
X131850500Y-64856287D01*
X131850500Y-64643713D01*
X131817246Y-64433757D01*
X131751557Y-64231588D01*
X131731892Y-64192993D01*
X131726969Y-64183331D01*
X131700787Y-64131947D01*
X131700764Y-64131902D01*
X132999500Y-64131902D01*
X132999500Y-64368097D01*
X133036446Y-64601368D01*
X133109433Y-64825996D01*
X133147191Y-64900099D01*
X133216657Y-65036433D01*
X133355483Y-65227510D01*
X133522490Y-65394517D01*
X133609619Y-65457820D01*
X133713568Y-65533344D01*
X133781794Y-65568106D01*
X133832590Y-65616080D01*
X133849500Y-65678591D01*
X133849500Y-69321407D01*
X133829815Y-69388446D01*
X133781796Y-69431891D01*
X133713569Y-69466655D01*
X133684583Y-69487715D01*
X133522490Y-69605483D01*
X133522488Y-69605485D01*
X133522487Y-69605485D01*
X133355485Y-69772487D01*
X133355485Y-69772488D01*
X133355483Y-69772490D01*
X133312723Y-69831344D01*
X133216657Y-69963566D01*
X133109433Y-70174003D01*
X133036446Y-70398631D01*
X132999500Y-70631902D01*
X132999500Y-70868097D01*
X133036446Y-71101368D01*
X133109433Y-71325996D01*
X133207943Y-71519331D01*
X133216657Y-71536433D01*
X133355483Y-71727510D01*
X133522490Y-71894517D01*
X133713567Y-72033343D01*
X133805093Y-72079978D01*
X133924003Y-72140566D01*
X133924005Y-72140566D01*
X133924008Y-72140568D01*
X133952717Y-72149896D01*
X134148631Y-72213553D01*
X134381903Y-72250500D01*
X134381908Y-72250500D01*
X134618097Y-72250500D01*
X134851368Y-72213553D01*
X134852870Y-72213065D01*
X135075992Y-72140568D01*
X135286433Y-72033343D01*
X135477510Y-71894517D01*
X135644517Y-71727510D01*
X135783343Y-71536433D01*
X135890568Y-71325992D01*
X135963553Y-71101368D01*
X135965717Y-71087708D01*
X136000500Y-70868097D01*
X136000500Y-70631902D01*
X135963553Y-70398631D01*
X135890566Y-70174003D01*
X135809381Y-70014669D01*
X135783343Y-69963567D01*
X135644517Y-69772490D01*
X135477510Y-69605483D01*
X135286433Y-69466657D01*
X135286432Y-69466656D01*
X135286430Y-69466655D01*
X135218204Y-69431891D01*
X135167408Y-69383916D01*
X135150500Y-69321407D01*
X135150500Y-65678591D01*
X135170185Y-65611552D01*
X135218206Y-65568106D01*
X135286431Y-65533344D01*
X135286430Y-65533344D01*
X135286433Y-65533343D01*
X135477510Y-65394517D01*
X135644517Y-65227510D01*
X135783343Y-65036433D01*
X135890568Y-64825992D01*
X135963553Y-64601368D01*
X135969182Y-64565826D01*
X136000500Y-64368097D01*
X136000500Y-64131947D01*
X137500000Y-64131947D01*
X137500000Y-64368052D01*
X137536934Y-64601247D01*
X137609897Y-64825802D01*
X137717087Y-65036174D01*
X137777338Y-65119104D01*
X137777340Y-65119105D01*
X138476212Y-64420233D01*
X138487482Y-64462292D01*
X138559890Y-64587708D01*
X138662292Y-64690110D01*
X138787708Y-64762518D01*
X138829765Y-64773787D01*
X138130893Y-65472658D01*
X138213828Y-65532914D01*
X138424197Y-65640102D01*
X138648752Y-65713065D01*
X138648751Y-65713065D01*
X138881948Y-65750000D01*
X139118052Y-65750000D01*
X139351247Y-65713065D01*
X139575802Y-65640102D01*
X139786163Y-65532918D01*
X139786169Y-65532914D01*
X139869104Y-65472658D01*
X139869105Y-65472658D01*
X139170233Y-64773787D01*
X139212292Y-64762518D01*
X139337708Y-64690110D01*
X139440110Y-64587708D01*
X139512518Y-64462292D01*
X139523787Y-64420234D01*
X140222658Y-65119105D01*
X140222658Y-65119104D01*
X140282914Y-65036169D01*
X140282918Y-65036163D01*
X140390102Y-64825802D01*
X140443872Y-64660320D01*
X140463065Y-64601248D01*
X140500000Y-64368052D01*
X140500000Y-64131947D01*
X140463065Y-63898752D01*
X140390101Y-63674194D01*
X140380397Y-63655147D01*
X140380396Y-63655146D01*
X140282914Y-63463828D01*
X140222658Y-63380894D01*
X140222658Y-63380893D01*
X139523787Y-64079765D01*
X139512518Y-64037708D01*
X139440110Y-63912292D01*
X139337708Y-63809890D01*
X139212292Y-63737482D01*
X139170234Y-63726212D01*
X139869105Y-63027340D01*
X139869104Y-63027338D01*
X139786174Y-62967087D01*
X139575802Y-62859897D01*
X139351247Y-62786934D01*
X139351248Y-62786934D01*
X139118052Y-62750000D01*
X138881948Y-62750000D01*
X138648752Y-62786934D01*
X138424197Y-62859897D01*
X138213830Y-62967084D01*
X138130894Y-63027340D01*
X138829766Y-63726212D01*
X138787708Y-63737482D01*
X138662292Y-63809890D01*
X138559890Y-63912292D01*
X138487482Y-64037708D01*
X138476212Y-64079766D01*
X137777340Y-63380894D01*
X137717084Y-63463830D01*
X137609897Y-63674197D01*
X137536934Y-63898752D01*
X137500000Y-64131947D01*
X136000500Y-64131947D01*
X136000500Y-64131902D01*
X135963553Y-63898631D01*
X135899013Y-63700000D01*
X135890568Y-63674008D01*
X135890566Y-63674005D01*
X135890566Y-63674003D01*
X135822017Y-63539470D01*
X135783343Y-63463567D01*
X135644517Y-63272490D01*
X135477510Y-63105483D01*
X135286433Y-62966657D01*
X135075996Y-62859433D01*
X134851368Y-62786446D01*
X134618097Y-62749500D01*
X134618092Y-62749500D01*
X134381908Y-62749500D01*
X134381903Y-62749500D01*
X134148631Y-62786446D01*
X133924003Y-62859433D01*
X133713566Y-62966657D01*
X133630047Y-63027338D01*
X133522490Y-63105483D01*
X133522488Y-63105485D01*
X133522487Y-63105485D01*
X133355485Y-63272487D01*
X133355485Y-63272488D01*
X133355483Y-63272490D01*
X133302838Y-63344949D01*
X133216657Y-63463566D01*
X133109433Y-63674003D01*
X133036446Y-63898631D01*
X132999500Y-64131902D01*
X131700764Y-64131902D01*
X131655051Y-64042184D01*
X131611024Y-63981585D01*
X131530109Y-63870213D01*
X131379786Y-63719890D01*
X131207820Y-63594951D01*
X131018414Y-63498444D01*
X131018413Y-63498443D01*
X131018412Y-63498443D01*
X130816243Y-63432754D01*
X130816241Y-63432753D01*
X130816240Y-63432753D01*
X130654957Y-63407208D01*
X130606287Y-63399500D01*
X130393713Y-63399500D01*
X130345042Y-63407208D01*
X130183760Y-63432753D01*
X129981585Y-63498444D01*
X129792179Y-63594951D01*
X129697385Y-63663823D01*
X129631578Y-63687303D01*
X129563525Y-63671477D01*
X129514830Y-63621371D01*
X129500500Y-63563505D01*
X129500500Y-62624500D01*
X129520185Y-62557461D01*
X129572989Y-62511706D01*
X129624500Y-62500500D01*
X168375500Y-62500500D01*
X168442539Y-62520185D01*
G37*
%TD.AperFunction*%
%TA.AperFunction,Conductor*%
G36*
X163841941Y-84585721D02*
G01*
X163866234Y-84587459D01*
X163875202Y-84594172D01*
X163886058Y-84596931D01*
X163902672Y-84614737D01*
X163922167Y-84629331D01*
X163926081Y-84639824D01*
X163933724Y-84648016D01*
X163938074Y-84671979D01*
X163946584Y-84694795D01*
X163946900Y-84703641D01*
X163946900Y-103285269D01*
X163946900Y-103285271D01*
X163946899Y-103285271D01*
X163971897Y-103410938D01*
X163971899Y-103410944D01*
X164020934Y-103529325D01*
X164092126Y-103635873D01*
X164092127Y-103635874D01*
X165429116Y-104972862D01*
X165462601Y-105034185D01*
X165457617Y-105103875D01*
X165405909Y-105242514D01*
X165405908Y-105242516D01*
X165399501Y-105302116D01*
X165399500Y-105302127D01*
X165399500Y-106022069D01*
X165399501Y-106626500D01*
X165379816Y-106693539D01*
X165327013Y-106739294D01*
X165275501Y-106750500D01*
X159471808Y-106750500D01*
X159404769Y-106730815D01*
X159384127Y-106714181D01*
X158692015Y-106022069D01*
X158658530Y-105960746D01*
X158658093Y-105958652D01*
X158644737Y-105891503D01*
X158611083Y-105810255D01*
X158584397Y-105745827D01*
X158584390Y-105745814D01*
X158496789Y-105614711D01*
X158496786Y-105614707D01*
X158385292Y-105503213D01*
X158385288Y-105503210D01*
X158254185Y-105415609D01*
X158254172Y-105415602D01*
X158108501Y-105355264D01*
X158108489Y-105355261D01*
X157953845Y-105324500D01*
X157953842Y-105324500D01*
X157796158Y-105324500D01*
X157796156Y-105324500D01*
X157641506Y-105355262D01*
X157641500Y-105355264D01*
X157638486Y-105356512D01*
X157615245Y-105363560D01*
X157560260Y-105374497D01*
X157560255Y-105374499D01*
X157441874Y-105423534D01*
X157335326Y-105494726D01*
X157244726Y-105585326D01*
X157173534Y-105691874D01*
X157124499Y-105810255D01*
X157124497Y-105810260D01*
X157113560Y-105865245D01*
X157106512Y-105888486D01*
X157105264Y-105891500D01*
X157105262Y-105891506D01*
X157074500Y-106046155D01*
X157074500Y-106203846D01*
X157105261Y-106358489D01*
X157105264Y-106358501D01*
X157165602Y-106504172D01*
X157165609Y-106504185D01*
X157253210Y-106635288D01*
X157253213Y-106635292D01*
X157364707Y-106746786D01*
X157364711Y-106746789D01*
X157495814Y-106834390D01*
X157495827Y-106834397D01*
X157583230Y-106870599D01*
X157641503Y-106894737D01*
X157708580Y-106908079D01*
X157770488Y-106940461D01*
X157772068Y-106942014D01*
X158736325Y-107906272D01*
X158736332Y-107906278D01*
X158842863Y-107977459D01*
X158842867Y-107977461D01*
X158842874Y-107977466D01*
X158893518Y-107998443D01*
X158961256Y-108026501D01*
X158961260Y-108026501D01*
X158961261Y-108026502D01*
X159086928Y-108051500D01*
X159086931Y-108051500D01*
X159086932Y-108051500D01*
X159215069Y-108051500D01*
X160989242Y-108051500D01*
X161056281Y-108071185D01*
X161102036Y-108123989D01*
X161111980Y-108193147D01*
X161082955Y-108256703D01*
X161076923Y-108263181D01*
X160969894Y-108370209D01*
X160969890Y-108370213D01*
X160844951Y-108542179D01*
X160748444Y-108731585D01*
X160682753Y-108933760D01*
X160657208Y-109095048D01*
X160649500Y-109143713D01*
X160649500Y-109356287D01*
X160656087Y-109397876D01*
X160669146Y-109480330D01*
X160682754Y-109566243D01*
X160742966Y-109751557D01*
X160748444Y-109768414D01*
X160844951Y-109957820D01*
X160969890Y-110129786D01*
X161120210Y-110280106D01*
X161121507Y-110281214D01*
X161121862Y-110281758D01*
X161123653Y-110283549D01*
X161123276Y-110283925D01*
X161159698Y-110339723D01*
X161160193Y-110409591D01*
X161122836Y-110468635D01*
X161059488Y-110498110D01*
X161040971Y-110499500D01*
X148322349Y-110499500D01*
X148255310Y-110479815D01*
X148209555Y-110427011D01*
X148199611Y-110357853D01*
X148228636Y-110294297D01*
X148253457Y-110272398D01*
X148351369Y-110206977D01*
X148975224Y-109583121D01*
X149036545Y-109549638D01*
X149106236Y-109554622D01*
X149135788Y-109570486D01*
X149252179Y-109655048D01*
X149252181Y-109655049D01*
X149252184Y-109655051D01*
X149441588Y-109751557D01*
X149643757Y-109817246D01*
X149853713Y-109850500D01*
X149853714Y-109850500D01*
X150066286Y-109850500D01*
X150066287Y-109850500D01*
X150276243Y-109817246D01*
X150478412Y-109751557D01*
X150667816Y-109655051D01*
X150754138Y-109592335D01*
X150839786Y-109530109D01*
X150839788Y-109530106D01*
X150839792Y-109530104D01*
X150990104Y-109379792D01*
X150990106Y-109379788D01*
X150990109Y-109379786D01*
X151115048Y-109207820D01*
X151115047Y-109207820D01*
X151115051Y-109207816D01*
X151119514Y-109199054D01*
X151167488Y-109148259D01*
X151235308Y-109131463D01*
X151301444Y-109153999D01*
X151340486Y-109199056D01*
X151344951Y-109207820D01*
X151469890Y-109379786D01*
X151620213Y-109530109D01*
X151792179Y-109655048D01*
X151792181Y-109655049D01*
X151792184Y-109655051D01*
X151981588Y-109751557D01*
X152183757Y-109817246D01*
X152393713Y-109850500D01*
X152393714Y-109850500D01*
X152606286Y-109850500D01*
X152606287Y-109850500D01*
X152816243Y-109817246D01*
X153018412Y-109751557D01*
X153207816Y-109655051D01*
X153294138Y-109592335D01*
X153379786Y-109530109D01*
X153379788Y-109530106D01*
X153379792Y-109530104D01*
X153530104Y-109379792D01*
X153530106Y-109379788D01*
X153530109Y-109379786D01*
X153615890Y-109261717D01*
X153655051Y-109207816D01*
X153659793Y-109198508D01*
X153707763Y-109147711D01*
X153775583Y-109130911D01*
X153841719Y-109153445D01*
X153880763Y-109198500D01*
X153885373Y-109207547D01*
X153924728Y-109261716D01*
X154557037Y-108629408D01*
X154574075Y-108692993D01*
X154639901Y-108807007D01*
X154732993Y-108900099D01*
X154847007Y-108965925D01*
X154910590Y-108982962D01*
X154278282Y-109615269D01*
X154278282Y-109615270D01*
X154332449Y-109654624D01*
X154521782Y-109751095D01*
X154723870Y-109816757D01*
X154933754Y-109850000D01*
X155146246Y-109850000D01*
X155356127Y-109816757D01*
X155356130Y-109816757D01*
X155558217Y-109751095D01*
X155747554Y-109654622D01*
X155801716Y-109615270D01*
X155801717Y-109615270D01*
X155169408Y-108982962D01*
X155232993Y-108965925D01*
X155347007Y-108900099D01*
X155440099Y-108807007D01*
X155505925Y-108692993D01*
X155522962Y-108629408D01*
X156155270Y-109261717D01*
X156155270Y-109261716D01*
X156194622Y-109207554D01*
X156291095Y-109018217D01*
X156356757Y-108816130D01*
X156356757Y-108816127D01*
X156390000Y-108606246D01*
X156390000Y-108393753D01*
X156356757Y-108183872D01*
X156356757Y-108183869D01*
X156291095Y-107981782D01*
X156194624Y-107792449D01*
X156155270Y-107738282D01*
X156155269Y-107738282D01*
X155522962Y-108370590D01*
X155505925Y-108307007D01*
X155440099Y-108192993D01*
X155347007Y-108099901D01*
X155232993Y-108034075D01*
X155169409Y-108017037D01*
X155801716Y-107384728D01*
X155747550Y-107345375D01*
X155558217Y-107248904D01*
X155356129Y-107183242D01*
X155146246Y-107150000D01*
X154933754Y-107150000D01*
X154723872Y-107183242D01*
X154723869Y-107183242D01*
X154521782Y-107248904D01*
X154332439Y-107345380D01*
X154278282Y-107384727D01*
X154278282Y-107384728D01*
X154910591Y-108017037D01*
X154847007Y-108034075D01*
X154732993Y-108099901D01*
X154639901Y-108192993D01*
X154574075Y-108307007D01*
X154557037Y-108370591D01*
X153924728Y-107738282D01*
X153924727Y-107738282D01*
X153885380Y-107792440D01*
X153885376Y-107792446D01*
X153880760Y-107801505D01*
X153832781Y-107852297D01*
X153764959Y-107869087D01*
X153698826Y-107846543D01*
X153659794Y-107801493D01*
X153655051Y-107792184D01*
X153655049Y-107792181D01*
X153655048Y-107792179D01*
X153530109Y-107620213D01*
X153379786Y-107469890D01*
X153207820Y-107344951D01*
X153018414Y-107248444D01*
X153018413Y-107248443D01*
X153018412Y-107248443D01*
X152816243Y-107182754D01*
X152816241Y-107182753D01*
X152816240Y-107182753D01*
X152654957Y-107157208D01*
X152606287Y-107149500D01*
X152393713Y-107149500D01*
X152345042Y-107157208D01*
X152183760Y-107182753D01*
X151981585Y-107248444D01*
X151792179Y-107344951D01*
X151620213Y-107469890D01*
X151469890Y-107620213D01*
X151344949Y-107792182D01*
X151340484Y-107800946D01*
X151292509Y-107851742D01*
X151224688Y-107868536D01*
X151158553Y-107845998D01*
X151119516Y-107800946D01*
X151115050Y-107792182D01*
X150990109Y-107620213D01*
X150839786Y-107469890D01*
X150663875Y-107342085D01*
X150664851Y-107340740D01*
X150622834Y-107294295D01*
X150610500Y-107240382D01*
X150610500Y-102400807D01*
X150630185Y-102333768D01*
X150646814Y-102313131D01*
X151987819Y-100972125D01*
X152049142Y-100938641D01*
X152118834Y-100943625D01*
X152174767Y-100985497D01*
X152199184Y-101050961D01*
X152199500Y-101059807D01*
X152199500Y-101182351D01*
X152231522Y-101384534D01*
X152294781Y-101579223D01*
X152355539Y-101698466D01*
X152387306Y-101760812D01*
X152387715Y-101761613D01*
X152508028Y-101927213D01*
X152652786Y-102071971D01*
X152785487Y-102168382D01*
X152818390Y-102192287D01*
X152909840Y-102238883D01*
X152911080Y-102239515D01*
X152961876Y-102287490D01*
X152978671Y-102355311D01*
X152956134Y-102421446D01*
X152911080Y-102460485D01*
X152818386Y-102507715D01*
X152652786Y-102628028D01*
X152508028Y-102772786D01*
X152387715Y-102938386D01*
X152294781Y-103120776D01*
X152231522Y-103315465D01*
X152199500Y-103517648D01*
X152199500Y-103722351D01*
X152231522Y-103924534D01*
X152294781Y-104119223D01*
X152387715Y-104301613D01*
X152508028Y-104467213D01*
X152652786Y-104611971D01*
X152775068Y-104700812D01*
X152818390Y-104732287D01*
X152886014Y-104766743D01*
X153000776Y-104825218D01*
X153000778Y-104825218D01*
X153000781Y-104825220D01*
X153075507Y-104849500D01*
X153195465Y-104888477D01*
X153296557Y-104904488D01*
X153397648Y-104920500D01*
X153397649Y-104920500D01*
X153602351Y-104920500D01*
X153602352Y-104920500D01*
X153804534Y-104888477D01*
X153999219Y-104825220D01*
X154181610Y-104732287D01*
X154274590Y-104664732D01*
X154347213Y-104611971D01*
X154347215Y-104611968D01*
X154347219Y-104611966D01*
X154491966Y-104467219D01*
X154507449Y-104445908D01*
X154562777Y-104403241D01*
X154632390Y-104397260D01*
X154694186Y-104429864D01*
X154695449Y-104431110D01*
X154806654Y-104542315D01*
X154955875Y-104634356D01*
X154955880Y-104634358D01*
X155122302Y-104689505D01*
X155122309Y-104689506D01*
X155225019Y-104699999D01*
X155499999Y-104699999D01*
X155500000Y-104699998D01*
X155500000Y-103824000D01*
X155519685Y-103756961D01*
X155572489Y-103711206D01*
X155624000Y-103700000D01*
X155876000Y-103700000D01*
X155943039Y-103719685D01*
X155988794Y-103772489D01*
X156000000Y-103824000D01*
X156000000Y-104699999D01*
X156274972Y-104699999D01*
X156274986Y-104699998D01*
X156377697Y-104689505D01*
X156544119Y-104634358D01*
X156544124Y-104634356D01*
X156693342Y-104542317D01*
X156768028Y-104467631D01*
X156829351Y-104434146D01*
X156899043Y-104439130D01*
X156943391Y-104467631D01*
X157043438Y-104567678D01*
X157043447Y-104567685D01*
X157184801Y-104651281D01*
X157342514Y-104697100D01*
X157342511Y-104697100D01*
X157344998Y-104697295D01*
X157345000Y-104697295D01*
X157345000Y-101752703D01*
X157342503Y-101752900D01*
X157184806Y-101798716D01*
X157184801Y-101798718D01*
X157162618Y-101811837D01*
X157094894Y-101829018D01*
X157028632Y-101806858D01*
X156984870Y-101752391D01*
X156975499Y-101705104D01*
X156975499Y-101499998D01*
X156975498Y-101499981D01*
X156964999Y-101397203D01*
X156964998Y-101397200D01*
X156954868Y-101366630D01*
X156909814Y-101230666D01*
X156817712Y-101081344D01*
X156817710Y-101081342D01*
X156816615Y-101079957D01*
X156816159Y-101078827D01*
X156813920Y-101075197D01*
X156814540Y-101074814D01*
X156790476Y-101015161D01*
X156792266Y-100978856D01*
X156819500Y-100841944D01*
X156819500Y-100684256D01*
X156814733Y-100660293D01*
X156820960Y-100590701D01*
X156863822Y-100535523D01*
X156929712Y-100512278D01*
X156936350Y-100512100D01*
X158087420Y-100512100D01*
X158184962Y-100492696D01*
X158232413Y-100483258D01*
X158299248Y-100455573D01*
X158368716Y-100448105D01*
X158431196Y-100479380D01*
X158466848Y-100539469D01*
X158470700Y-100570135D01*
X158470700Y-101718007D01*
X158467807Y-101727857D01*
X158469070Y-101738046D01*
X158458130Y-101760812D01*
X158451015Y-101785046D01*
X158442451Y-101793444D01*
X158438810Y-101801023D01*
X158414162Y-101821187D01*
X158411691Y-101823611D01*
X158410758Y-101824184D01*
X158313135Y-101881919D01*
X158307037Y-101888016D01*
X158294637Y-101895648D01*
X158274363Y-101901173D01*
X158255913Y-101911230D01*
X158241330Y-101910175D01*
X158227226Y-101914020D01*
X158207184Y-101907707D01*
X158186225Y-101906193D01*
X158170730Y-101896226D01*
X158160583Y-101893031D01*
X158154607Y-101885856D01*
X158153992Y-101885461D01*
X158152722Y-101887100D01*
X158146552Y-101882314D01*
X158005196Y-101798717D01*
X158005193Y-101798716D01*
X157847494Y-101752900D01*
X157847497Y-101752900D01*
X157845000Y-101752703D01*
X157845000Y-104697295D01*
X157845001Y-104697295D01*
X157847486Y-104697100D01*
X158005198Y-104651281D01*
X158146550Y-104567686D01*
X158152717Y-104562903D01*
X158154630Y-104565369D01*
X158203222Y-104538802D01*
X158272917Y-104543749D01*
X158305762Y-104564853D01*
X158306969Y-104563298D01*
X158313132Y-104568078D01*
X158313135Y-104568081D01*
X158454602Y-104651744D01*
X158496224Y-104663836D01*
X158612426Y-104697597D01*
X158612429Y-104697597D01*
X158612431Y-104697598D01*
X158649306Y-104700500D01*
X158649314Y-104700500D01*
X159080686Y-104700500D01*
X159080694Y-104700500D01*
X159117569Y-104697598D01*
X159117571Y-104697597D01*
X159117573Y-104697597D01*
X159193988Y-104675396D01*
X159275398Y-104651744D01*
X159416865Y-104568081D01*
X159416870Y-104568075D01*
X159423031Y-104563298D01*
X159424933Y-104565750D01*
X159473579Y-104539155D01*
X159543274Y-104544104D01*
X159575695Y-104564940D01*
X159576969Y-104563298D01*
X159583132Y-104568078D01*
X159583135Y-104568081D01*
X159724602Y-104651744D01*
X159766224Y-104663836D01*
X159882426Y-104697597D01*
X159882429Y-104697597D01*
X159882431Y-104697598D01*
X159919306Y-104700500D01*
X159919314Y-104700500D01*
X160350686Y-104700500D01*
X160350694Y-104700500D01*
X160387569Y-104697598D01*
X160387571Y-104697597D01*
X160387573Y-104697597D01*
X160463988Y-104675396D01*
X160545398Y-104651744D01*
X160686865Y-104568081D01*
X160686870Y-104568075D01*
X160693031Y-104563298D01*
X160694933Y-104565750D01*
X160743579Y-104539155D01*
X160813274Y-104544104D01*
X160845695Y-104564940D01*
X160846969Y-104563298D01*
X160853132Y-104568078D01*
X160853135Y-104568081D01*
X160994602Y-104651744D01*
X161036224Y-104663836D01*
X161152426Y-104697597D01*
X161152429Y-104697597D01*
X161152431Y-104697598D01*
X161189306Y-104700500D01*
X161189314Y-104700500D01*
X161620686Y-104700500D01*
X161620694Y-104700500D01*
X161657569Y-104697598D01*
X161657571Y-104697597D01*
X161657573Y-104697597D01*
X161733988Y-104675396D01*
X161815398Y-104651744D01*
X161956865Y-104568081D01*
X162073081Y-104451865D01*
X162156744Y-104310398D01*
X162202598Y-104152569D01*
X162205500Y-104115694D01*
X162205500Y-103990971D01*
X162207736Y-103983356D01*
X162206466Y-103975520D01*
X162217440Y-103950307D01*
X162225185Y-103923932D01*
X162231893Y-103917102D01*
X162234351Y-103911456D01*
X162260602Y-103887873D01*
X162306529Y-103857186D01*
X162380216Y-103807952D01*
X163424151Y-102764016D01*
X163506284Y-102641095D01*
X163562858Y-102504513D01*
X163572296Y-102457062D01*
X163591700Y-102359520D01*
X163591700Y-84778244D01*
X163593602Y-84771766D01*
X163592396Y-84765123D01*
X163603321Y-84738664D01*
X163611385Y-84711205D01*
X163617116Y-84705258D01*
X163619064Y-84700543D01*
X163641148Y-84680324D01*
X163644869Y-84676465D01*
X163645823Y-84675800D01*
X163734889Y-84616289D01*
X163743015Y-84608162D01*
X163752069Y-84601862D01*
X163775168Y-84594145D01*
X163796542Y-84582475D01*
X163807715Y-84583274D01*
X163818340Y-84579725D01*
X163841941Y-84585721D01*
G37*
%TD.AperFunction*%
%TA.AperFunction,Conductor*%
G36*
X155005703Y-83186095D02*
G01*
X155012181Y-83192127D01*
X161402681Y-89582627D01*
X161436166Y-89643950D01*
X161439000Y-89670308D01*
X161439000Y-96675500D01*
X161419315Y-96742539D01*
X161366511Y-96788294D01*
X161315000Y-96799500D01*
X161189298Y-96799500D01*
X161152432Y-96802401D01*
X161152426Y-96802402D01*
X160994606Y-96848254D01*
X160994603Y-96848255D01*
X160853137Y-96931917D01*
X160846969Y-96936702D01*
X160845072Y-96934256D01*
X160796358Y-96960857D01*
X160726666Y-96955873D01*
X160694296Y-96935069D01*
X160693031Y-96936702D01*
X160686862Y-96931917D01*
X160574798Y-96865643D01*
X160545398Y-96848256D01*
X160545397Y-96848255D01*
X160545396Y-96848255D01*
X160545393Y-96848254D01*
X160387573Y-96802402D01*
X160387567Y-96802401D01*
X160350701Y-96799500D01*
X160350694Y-96799500D01*
X160095700Y-96799500D01*
X160028661Y-96779815D01*
X159982906Y-96727011D01*
X159971700Y-96675500D01*
X159971700Y-95140704D01*
X159981139Y-95093251D01*
X159990937Y-95069597D01*
X160021700Y-94914942D01*
X160021700Y-94757258D01*
X160021700Y-94757255D01*
X160021699Y-94757253D01*
X160004715Y-94671870D01*
X159990937Y-94602603D01*
X159973337Y-94560113D01*
X159930597Y-94456927D01*
X159930590Y-94456914D01*
X159842989Y-94325811D01*
X159842986Y-94325807D01*
X159731492Y-94214313D01*
X159731488Y-94214310D01*
X159600385Y-94126709D01*
X159600372Y-94126702D01*
X159454701Y-94066364D01*
X159454689Y-94066361D01*
X159300045Y-94035600D01*
X159300042Y-94035600D01*
X159142358Y-94035600D01*
X159142355Y-94035600D01*
X158987710Y-94066361D01*
X158987698Y-94066364D01*
X158842027Y-94126702D01*
X158842014Y-94126709D01*
X158710911Y-94214310D01*
X158710907Y-94214313D01*
X158599413Y-94325807D01*
X158599410Y-94325811D01*
X158511809Y-94456914D01*
X158511802Y-94456927D01*
X158451464Y-94602598D01*
X158451461Y-94602610D01*
X158420700Y-94757253D01*
X158420700Y-94914946D01*
X158451461Y-95069589D01*
X158451463Y-95069597D01*
X158461261Y-95093251D01*
X158470700Y-95140704D01*
X158470700Y-96768007D01*
X158467792Y-96777907D01*
X158469053Y-96788149D01*
X158458116Y-96810861D01*
X158451015Y-96835046D01*
X158442411Y-96843476D01*
X158438740Y-96851101D01*
X158413957Y-96871357D01*
X158411602Y-96873666D01*
X158410726Y-96874203D01*
X158313135Y-96931919D01*
X158307350Y-96937703D01*
X158294902Y-96945350D01*
X158274714Y-96950833D01*
X158256358Y-96960857D01*
X158241677Y-96959807D01*
X158227475Y-96963665D01*
X158207531Y-96957365D01*
X158186666Y-96955873D01*
X158171064Y-96945846D01*
X158160851Y-96942620D01*
X158154890Y-96935451D01*
X158154296Y-96935069D01*
X158153031Y-96936702D01*
X158146862Y-96931917D01*
X158034798Y-96865643D01*
X158005398Y-96848256D01*
X158005397Y-96848255D01*
X158005396Y-96848255D01*
X158005393Y-96848254D01*
X157847573Y-96802402D01*
X157847567Y-96802401D01*
X157810701Y-96799500D01*
X157810694Y-96799500D01*
X157379306Y-96799500D01*
X157379298Y-96799500D01*
X157342432Y-96802401D01*
X157342426Y-96802402D01*
X157184606Y-96848254D01*
X157184603Y-96848255D01*
X157043137Y-96931917D01*
X157043129Y-96931923D01*
X156943038Y-97032015D01*
X156881715Y-97065500D01*
X156812023Y-97060516D01*
X156767676Y-97032015D01*
X156693345Y-96957684D01*
X156544124Y-96865643D01*
X156544119Y-96865641D01*
X156377697Y-96810494D01*
X156377690Y-96810493D01*
X156274986Y-96800000D01*
X156000000Y-96800000D01*
X156000000Y-97676000D01*
X155980315Y-97743039D01*
X155927511Y-97788794D01*
X155876000Y-97800000D01*
X155624000Y-97800000D01*
X155556961Y-97780315D01*
X155511206Y-97727511D01*
X155500000Y-97676000D01*
X155500000Y-96800000D01*
X155426200Y-96800000D01*
X155359161Y-96780315D01*
X155313406Y-96727511D01*
X155302200Y-96676000D01*
X155302200Y-90342328D01*
X155277202Y-90216661D01*
X155277201Y-90216660D01*
X155277201Y-90216656D01*
X155228165Y-90098273D01*
X155228164Y-90098272D01*
X155228161Y-90098266D01*
X155156977Y-89991732D01*
X155156976Y-89991731D01*
X155066369Y-89901124D01*
X154806830Y-89641585D01*
X154524981Y-89359735D01*
X154491496Y-89298412D01*
X154496480Y-89228720D01*
X154512338Y-89199178D01*
X154612287Y-89061610D01*
X154705220Y-88879219D01*
X154768477Y-88684534D01*
X154800500Y-88482352D01*
X154800500Y-88277648D01*
X154792178Y-88225105D01*
X154768477Y-88075465D01*
X154723239Y-87936239D01*
X154705220Y-87880781D01*
X154705218Y-87880778D01*
X154705218Y-87880776D01*
X154657914Y-87787938D01*
X154612287Y-87698390D01*
X154601506Y-87683551D01*
X154491971Y-87532786D01*
X154347213Y-87388028D01*
X154181611Y-87267713D01*
X154088369Y-87220203D01*
X154037574Y-87172229D01*
X154020779Y-87104407D01*
X154043317Y-87038273D01*
X154088371Y-86999234D01*
X154181346Y-86951861D01*
X154181347Y-86951861D01*
X154225921Y-86919474D01*
X153546447Y-86240000D01*
X153552661Y-86240000D01*
X153654394Y-86212741D01*
X153745606Y-86160080D01*
X153820080Y-86085606D01*
X153872741Y-85994394D01*
X153900000Y-85892661D01*
X153900000Y-85886447D01*
X154579474Y-86565921D01*
X154611859Y-86521349D01*
X154704755Y-86339031D01*
X154767990Y-86144417D01*
X154800000Y-85942317D01*
X154800000Y-85737682D01*
X154767990Y-85535582D01*
X154704755Y-85340968D01*
X154611859Y-85158650D01*
X154579474Y-85114077D01*
X154579474Y-85114076D01*
X153900000Y-85793551D01*
X153900000Y-85787339D01*
X153872741Y-85685606D01*
X153820080Y-85594394D01*
X153745606Y-85519920D01*
X153654394Y-85467259D01*
X153552661Y-85440000D01*
X153546446Y-85440000D01*
X154225922Y-84760524D01*
X154225921Y-84760523D01*
X154181359Y-84728147D01*
X154181350Y-84728141D01*
X154088369Y-84680765D01*
X154037573Y-84632790D01*
X154020778Y-84564969D01*
X154043315Y-84498835D01*
X154088370Y-84459795D01*
X154088920Y-84459515D01*
X154181610Y-84412287D01*
X154234750Y-84373679D01*
X154347213Y-84291971D01*
X154347215Y-84291968D01*
X154347219Y-84291966D01*
X154491966Y-84147219D01*
X154491968Y-84147215D01*
X154491971Y-84147213D01*
X154562679Y-84049890D01*
X154612287Y-83981610D01*
X154705220Y-83799219D01*
X154768477Y-83604534D01*
X154800500Y-83402352D01*
X154800500Y-83279808D01*
X154820185Y-83212769D01*
X154872989Y-83167014D01*
X154942147Y-83157070D01*
X155005703Y-83186095D01*
G37*
%TD.AperFunction*%
%TA.AperFunction,Conductor*%
G36*
X144450631Y-92814085D02*
G01*
X144471273Y-92830719D01*
X144603036Y-92962482D01*
X144636521Y-93023805D01*
X144633287Y-93088479D01*
X144611522Y-93155466D01*
X144579500Y-93357648D01*
X144579500Y-93562351D01*
X144611522Y-93764534D01*
X144674781Y-93959223D01*
X144767715Y-94141613D01*
X144888028Y-94307213D01*
X145032786Y-94451971D01*
X145181630Y-94560110D01*
X145198390Y-94572287D01*
X145289840Y-94618883D01*
X145291080Y-94619515D01*
X145341876Y-94667490D01*
X145358671Y-94735311D01*
X145336134Y-94801446D01*
X145291080Y-94840485D01*
X145198386Y-94887715D01*
X145032786Y-95008028D01*
X144888028Y-95152786D01*
X144767715Y-95318386D01*
X144674781Y-95500776D01*
X144611170Y-95696550D01*
X144571732Y-95754225D01*
X144507373Y-95781423D01*
X144438527Y-95769508D01*
X144405558Y-95745912D01*
X143851674Y-95192027D01*
X143851673Y-95192026D01*
X143851669Y-95192023D01*
X143745127Y-95120835D01*
X143745122Y-95120833D01*
X143626744Y-95071799D01*
X143615674Y-95069597D01*
X143615634Y-95069589D01*
X143501071Y-95046800D01*
X143501069Y-95046800D01*
X142348931Y-95046800D01*
X142348929Y-95046800D01*
X142234366Y-95069589D01*
X142234326Y-95069597D01*
X142223256Y-95071799D01*
X142223255Y-95071799D01*
X142104875Y-95120833D01*
X142104866Y-95120838D01*
X141998331Y-95192023D01*
X141998327Y-95192026D01*
X141655798Y-95534554D01*
X141594475Y-95568039D01*
X141529112Y-95564579D01*
X141515297Y-95560001D01*
X141502448Y-95558688D01*
X141412516Y-95549500D01*
X141412509Y-95549500D01*
X141012230Y-95549500D01*
X140945191Y-95529815D01*
X140924549Y-95513181D01*
X140170919Y-94759551D01*
X140137434Y-94698228D01*
X140134600Y-94671870D01*
X140134600Y-94418272D01*
X140154285Y-94351233D01*
X140207089Y-94305478D01*
X140276247Y-94295534D01*
X140323898Y-94316025D01*
X140325197Y-94313920D01*
X140331342Y-94317710D01*
X140331344Y-94317712D01*
X140480666Y-94409814D01*
X140647203Y-94464999D01*
X140749991Y-94475500D01*
X141350008Y-94475499D01*
X141350016Y-94475498D01*
X141350019Y-94475498D01*
X141406302Y-94469748D01*
X141452797Y-94464999D01*
X141619334Y-94409814D01*
X141768656Y-94317712D01*
X141892712Y-94193656D01*
X141894752Y-94190347D01*
X141896745Y-94188555D01*
X141897193Y-94187989D01*
X141897289Y-94188065D01*
X141946694Y-94143623D01*
X142015656Y-94132395D01*
X142079740Y-94160234D01*
X142105829Y-94190339D01*
X142107681Y-94193341D01*
X142107683Y-94193344D01*
X142231654Y-94317315D01*
X142380875Y-94409356D01*
X142380880Y-94409358D01*
X142547302Y-94464505D01*
X142547309Y-94464506D01*
X142650019Y-94474999D01*
X143200000Y-94474999D01*
X143249972Y-94474999D01*
X143249986Y-94474998D01*
X143352697Y-94464505D01*
X143519119Y-94409358D01*
X143519124Y-94409356D01*
X143668345Y-94317315D01*
X143792315Y-94193345D01*
X143884356Y-94044124D01*
X143884358Y-94044119D01*
X143939505Y-93877697D01*
X143939506Y-93877690D01*
X143949999Y-93774986D01*
X143950000Y-93774973D01*
X143950000Y-93500000D01*
X143200000Y-93500000D01*
X143200000Y-94474999D01*
X142650019Y-94474999D01*
X142699999Y-94474998D01*
X142700000Y-94474998D01*
X142700000Y-93374000D01*
X142719685Y-93306961D01*
X142772489Y-93261206D01*
X142824000Y-93250000D01*
X142950000Y-93250000D01*
X142950000Y-93124000D01*
X142969685Y-93056961D01*
X143022489Y-93011206D01*
X143074000Y-93000000D01*
X143949999Y-93000000D01*
X143949999Y-92918400D01*
X143969684Y-92851361D01*
X144022488Y-92805606D01*
X144073999Y-92794400D01*
X144383592Y-92794400D01*
X144450631Y-92814085D01*
G37*
%TD.AperFunction*%
%TA.AperFunction,Conductor*%
G36*
X140323898Y-91316025D02*
G01*
X140325197Y-91313920D01*
X140331342Y-91317710D01*
X140331344Y-91317712D01*
X140480666Y-91409814D01*
X140647203Y-91464999D01*
X140749991Y-91475500D01*
X141304191Y-91475499D01*
X141333637Y-91484145D01*
X141363618Y-91490667D01*
X141368631Y-91494419D01*
X141371230Y-91495183D01*
X141391872Y-91511818D01*
X141542372Y-91662318D01*
X141575857Y-91723641D01*
X141570873Y-91793333D01*
X141542373Y-91837680D01*
X141476115Y-91903938D01*
X141391871Y-91988182D01*
X141330549Y-92021666D01*
X141304191Y-92024500D01*
X140749998Y-92024500D01*
X140749980Y-92024501D01*
X140647203Y-92035000D01*
X140647200Y-92035001D01*
X140480668Y-92090185D01*
X140480663Y-92090187D01*
X140384368Y-92149582D01*
X140331344Y-92182288D01*
X140331342Y-92182289D01*
X140325197Y-92186080D01*
X140323752Y-92183737D01*
X140270711Y-92205134D01*
X140202069Y-92192091D01*
X140151376Y-92144009D01*
X140134600Y-92081727D01*
X140134600Y-91418272D01*
X140154285Y-91351233D01*
X140207089Y-91305478D01*
X140276247Y-91295534D01*
X140323898Y-91316025D01*
G37*
%TD.AperFunction*%
%TA.AperFunction,Conductor*%
G36*
X144601131Y-71420185D02*
G01*
X144639636Y-71464271D01*
X144641395Y-71463187D01*
X144645185Y-71469332D01*
X144645186Y-71469334D01*
X144737288Y-71618656D01*
X144861344Y-71742712D01*
X145010666Y-71834814D01*
X145092570Y-71861954D01*
X145150015Y-71901727D01*
X145176838Y-71966243D01*
X145164523Y-72035018D01*
X145126451Y-72079978D01*
X145032787Y-72148028D01*
X145032782Y-72148032D01*
X144888028Y-72292786D01*
X144767715Y-72458386D01*
X144674781Y-72640776D01*
X144611522Y-72835465D01*
X144579500Y-73037648D01*
X144579500Y-73242351D01*
X144611522Y-73444534D01*
X144674781Y-73639223D01*
X144715133Y-73718417D01*
X144755618Y-73797873D01*
X144767715Y-73821613D01*
X144888028Y-73987213D01*
X145032786Y-74131971D01*
X145140336Y-74210109D01*
X145198390Y-74252287D01*
X145289840Y-74298883D01*
X145291080Y-74299515D01*
X145341876Y-74347490D01*
X145358671Y-74415311D01*
X145336134Y-74481446D01*
X145291080Y-74520485D01*
X145198386Y-74567715D01*
X145032786Y-74688028D01*
X144888028Y-74832786D01*
X144767715Y-74998386D01*
X144734484Y-75063605D01*
X144686509Y-75114401D01*
X144618688Y-75131196D01*
X144552553Y-75108658D01*
X144509102Y-75053943D01*
X144499999Y-75007310D01*
X144499999Y-74975028D01*
X144499998Y-74975012D01*
X144489505Y-74872302D01*
X144434358Y-74705880D01*
X144434356Y-74705875D01*
X144342315Y-74556654D01*
X144218345Y-74432684D01*
X144069124Y-74340643D01*
X144069119Y-74340641D01*
X143902697Y-74285494D01*
X143902690Y-74285493D01*
X143799986Y-74275000D01*
X143750000Y-74275000D01*
X143750000Y-76724999D01*
X143799972Y-76724999D01*
X143799986Y-76724998D01*
X143902697Y-76714505D01*
X144069119Y-76659358D01*
X144069124Y-76659356D01*
X144218345Y-76567315D01*
X144342315Y-76443345D01*
X144434356Y-76294124D01*
X144434359Y-76294117D01*
X144458776Y-76220430D01*
X144498547Y-76162985D01*
X144563063Y-76136161D01*
X144631839Y-76148475D01*
X144683040Y-76196018D01*
X144686967Y-76203138D01*
X144767715Y-76361613D01*
X144888028Y-76527213D01*
X145032786Y-76671971D01*
X145187749Y-76784556D01*
X145198390Y-76792287D01*
X145289840Y-76838883D01*
X145291080Y-76839515D01*
X145341876Y-76887490D01*
X145358671Y-76955311D01*
X145336134Y-77021446D01*
X145291080Y-77060485D01*
X145198386Y-77107715D01*
X145032786Y-77228028D01*
X144888028Y-77372786D01*
X144767715Y-77538386D01*
X144674781Y-77720776D01*
X144611522Y-77915465D01*
X144579500Y-78117648D01*
X144579500Y-78322351D01*
X144611522Y-78524534D01*
X144674781Y-78719223D01*
X144767715Y-78901613D01*
X144888028Y-79067213D01*
X145032786Y-79211971D01*
X145174109Y-79314646D01*
X145198390Y-79332287D01*
X145289840Y-79378883D01*
X145291080Y-79379515D01*
X145341876Y-79427490D01*
X145358671Y-79495311D01*
X145336134Y-79561446D01*
X145291080Y-79600485D01*
X145198386Y-79647715D01*
X145032786Y-79768028D01*
X144888028Y-79912786D01*
X144767715Y-80078386D01*
X144674781Y-80260776D01*
X144611522Y-80455465D01*
X144579500Y-80657648D01*
X144579500Y-80862351D01*
X144611522Y-81064534D01*
X144674781Y-81259223D01*
X144733287Y-81374045D01*
X144760794Y-81428031D01*
X144767715Y-81441613D01*
X144888028Y-81607213D01*
X145032786Y-81751971D01*
X145187749Y-81864556D01*
X145198390Y-81872287D01*
X145289840Y-81918883D01*
X145291080Y-81919515D01*
X145341876Y-81967490D01*
X145358671Y-82035311D01*
X145336134Y-82101446D01*
X145291080Y-82140485D01*
X145198386Y-82187715D01*
X145032786Y-82308028D01*
X144888028Y-82452786D01*
X144767715Y-82618386D01*
X144674781Y-82800776D01*
X144611522Y-82995465D01*
X144579500Y-83197648D01*
X144579500Y-83402351D01*
X144611522Y-83604534D01*
X144674781Y-83799223D01*
X144767715Y-83981613D01*
X144888028Y-84147213D01*
X145032786Y-84291971D01*
X145145250Y-84373679D01*
X145198390Y-84412287D01*
X145289840Y-84458883D01*
X145291080Y-84459515D01*
X145341876Y-84507490D01*
X145358671Y-84575311D01*
X145336134Y-84641446D01*
X145291080Y-84680485D01*
X145198386Y-84727715D01*
X145032786Y-84848028D01*
X144888028Y-84992786D01*
X144767715Y-85158386D01*
X144674781Y-85340776D01*
X144611522Y-85535465D01*
X144579500Y-85737648D01*
X144579500Y-85942351D01*
X144609191Y-86129816D01*
X144609173Y-86129954D01*
X144609233Y-86130081D01*
X144604683Y-86164697D01*
X144600236Y-86199110D01*
X144600146Y-86199216D01*
X144600128Y-86199355D01*
X144577800Y-86225761D01*
X144555240Y-86252562D01*
X144555104Y-86252603D01*
X144555016Y-86252709D01*
X144521857Y-86262883D01*
X144488488Y-86273201D01*
X144488309Y-86273177D01*
X144488220Y-86273205D01*
X144487595Y-86273084D01*
X144453227Y-86268606D01*
X144446101Y-86266607D01*
X144402297Y-86248463D01*
X144330521Y-86234185D01*
X144325920Y-86232895D01*
X144300190Y-86216796D01*
X144273309Y-86202735D01*
X144271730Y-86201184D01*
X143836819Y-85766273D01*
X143803334Y-85704950D01*
X143800500Y-85678592D01*
X143800500Y-85178957D01*
X143820185Y-85111918D01*
X143859407Y-85073416D01*
X143868656Y-85067712D01*
X143992712Y-84943656D01*
X144084814Y-84794334D01*
X144139999Y-84627797D01*
X144150500Y-84525009D01*
X144150499Y-83474992D01*
X144139999Y-83372203D01*
X144084814Y-83205666D01*
X143992712Y-83056344D01*
X143868656Y-82932288D01*
X143719334Y-82840186D01*
X143552797Y-82785001D01*
X143552795Y-82785000D01*
X143450010Y-82774500D01*
X142849998Y-82774500D01*
X142849980Y-82774501D01*
X142747203Y-82785000D01*
X142747200Y-82785001D01*
X142580668Y-82840185D01*
X142580663Y-82840187D01*
X142431342Y-82932289D01*
X142307288Y-83056343D01*
X142307283Y-83056349D01*
X142305241Y-83059661D01*
X142303247Y-83061453D01*
X142302807Y-83062011D01*
X142302711Y-83061935D01*
X142253291Y-83106383D01*
X142184328Y-83117602D01*
X142120247Y-83089755D01*
X142094168Y-83059656D01*
X142092319Y-83056659D01*
X142092316Y-83056655D01*
X141968345Y-82932684D01*
X141819124Y-82840643D01*
X141819119Y-82840641D01*
X141652697Y-82785494D01*
X141652690Y-82785493D01*
X141549986Y-82775000D01*
X141500000Y-82775000D01*
X141500000Y-85224999D01*
X141549972Y-85224999D01*
X141549986Y-85224998D01*
X141652697Y-85214505D01*
X141819119Y-85159358D01*
X141819124Y-85159356D01*
X141968345Y-85067315D01*
X142092318Y-84943342D01*
X142094165Y-84940348D01*
X142095969Y-84938724D01*
X142096798Y-84937677D01*
X142096976Y-84937818D01*
X142146110Y-84893621D01*
X142215073Y-84882396D01*
X142279156Y-84910236D01*
X142286814Y-84917189D01*
X142297420Y-84927658D01*
X142307288Y-84943656D01*
X142431344Y-85067712D01*
X142452586Y-85080813D01*
X142462608Y-85090706D01*
X142472995Y-85109438D01*
X142487318Y-85125360D01*
X142491133Y-85142146D01*
X142496492Y-85151810D01*
X142495789Y-85162629D01*
X142499500Y-85178957D01*
X142499500Y-86063471D01*
X142512725Y-86129954D01*
X142521056Y-86171835D01*
X142524499Y-86189144D01*
X142550828Y-86252709D01*
X142573535Y-86307527D01*
X142643683Y-86412512D01*
X142644726Y-86414073D01*
X142644727Y-86414074D01*
X143351784Y-87121130D01*
X143385269Y-87182453D01*
X143385720Y-87184620D01*
X143399061Y-87251689D01*
X143399064Y-87251701D01*
X143459402Y-87397372D01*
X143459409Y-87397385D01*
X143547010Y-87528488D01*
X143547013Y-87528492D01*
X143658507Y-87639986D01*
X143658511Y-87639989D01*
X143789614Y-87727590D01*
X143789627Y-87727597D01*
X143935298Y-87787935D01*
X143935303Y-87787937D01*
X144089953Y-87818699D01*
X144089956Y-87818700D01*
X144089958Y-87818700D01*
X144247644Y-87818700D01*
X144247645Y-87818699D01*
X144402297Y-87787937D01*
X144504120Y-87745760D01*
X144573587Y-87738292D01*
X144636067Y-87769567D01*
X144671719Y-87829656D01*
X144669502Y-87898640D01*
X144612010Y-88075578D01*
X144612010Y-88075581D01*
X144580000Y-88277682D01*
X144580000Y-88482317D01*
X144612009Y-88684417D01*
X144675244Y-88879031D01*
X144768141Y-89061350D01*
X144768147Y-89061359D01*
X144800523Y-89105921D01*
X144800524Y-89105922D01*
X145480000Y-88426446D01*
X145480000Y-88432661D01*
X145507259Y-88534394D01*
X145559920Y-88625606D01*
X145634394Y-88700080D01*
X145725606Y-88752741D01*
X145827339Y-88780000D01*
X145833553Y-88780000D01*
X145154076Y-89459474D01*
X145198652Y-89491861D01*
X145291628Y-89539234D01*
X145342425Y-89587208D01*
X145359220Y-89655029D01*
X145336683Y-89721164D01*
X145291630Y-89760203D01*
X145198388Y-89807713D01*
X145032786Y-89928028D01*
X144888028Y-90072786D01*
X144767715Y-90238386D01*
X144674781Y-90420778D01*
X144616932Y-90598818D01*
X144577494Y-90656494D01*
X144513136Y-90683692D01*
X144499001Y-90684500D01*
X144074000Y-90684500D01*
X144006961Y-90664815D01*
X143961206Y-90612011D01*
X143950000Y-90560500D01*
X143950000Y-90500000D01*
X143074000Y-90500000D01*
X143006961Y-90480315D01*
X142961206Y-90427511D01*
X142950000Y-90376000D01*
X142950000Y-90250000D01*
X142824000Y-90250000D01*
X142756961Y-90230315D01*
X142711206Y-90177511D01*
X142700000Y-90126000D01*
X142700000Y-90000000D01*
X143200000Y-90000000D01*
X143949999Y-90000000D01*
X143949999Y-89725028D01*
X143949998Y-89725013D01*
X143939505Y-89622302D01*
X143884358Y-89455880D01*
X143884356Y-89455875D01*
X143792315Y-89306654D01*
X143668345Y-89182684D01*
X143519124Y-89090643D01*
X143519119Y-89090641D01*
X143352697Y-89035494D01*
X143352690Y-89035493D01*
X143249986Y-89025000D01*
X143200000Y-89025000D01*
X143200000Y-90000000D01*
X142700000Y-90000000D01*
X142700000Y-89025000D01*
X142699999Y-89024999D01*
X142650029Y-89025000D01*
X142650011Y-89025001D01*
X142547302Y-89035494D01*
X142380880Y-89090641D01*
X142380875Y-89090643D01*
X142231654Y-89182684D01*
X142107683Y-89306655D01*
X142107679Y-89306660D01*
X142105826Y-89309665D01*
X142104018Y-89311290D01*
X142103202Y-89312323D01*
X142103025Y-89312183D01*
X142053874Y-89356385D01*
X141984911Y-89367601D01*
X141920831Y-89339752D01*
X141894753Y-89309653D01*
X141894737Y-89309628D01*
X141892712Y-89306344D01*
X141768656Y-89182288D01*
X141675888Y-89125069D01*
X141619336Y-89090187D01*
X141619331Y-89090185D01*
X141617862Y-89089698D01*
X141452797Y-89035001D01*
X141452795Y-89035000D01*
X141350010Y-89024500D01*
X140749998Y-89024500D01*
X140749980Y-89024501D01*
X140647203Y-89035000D01*
X140647200Y-89035001D01*
X140480668Y-89090185D01*
X140480661Y-89090188D01*
X140449871Y-89109180D01*
X140382478Y-89127619D01*
X140315815Y-89106695D01*
X140271047Y-89053053D01*
X140262386Y-88983722D01*
X140266118Y-88967637D01*
X140266733Y-88965604D01*
X140266737Y-88965597D01*
X140297500Y-88810942D01*
X140297500Y-88653258D01*
X140297500Y-88653255D01*
X140297499Y-88653253D01*
X140266739Y-88498611D01*
X140266738Y-88498608D01*
X140266737Y-88498603D01*
X140256937Y-88474944D01*
X140247500Y-88427496D01*
X140247500Y-85082523D01*
X140267185Y-85015484D01*
X140319989Y-84969729D01*
X140389147Y-84959785D01*
X140452703Y-84988810D01*
X140459181Y-84994842D01*
X140531654Y-85067315D01*
X140680875Y-85159356D01*
X140680880Y-85159358D01*
X140847302Y-85214505D01*
X140847309Y-85214506D01*
X140950019Y-85224999D01*
X140999999Y-85224998D01*
X141000000Y-85224998D01*
X141000000Y-82775000D01*
X140999999Y-82774999D01*
X140950029Y-82775000D01*
X140950011Y-82775001D01*
X140847302Y-82785494D01*
X140680880Y-82840641D01*
X140680875Y-82840643D01*
X140531654Y-82932684D01*
X140459181Y-83005158D01*
X140397858Y-83038643D01*
X140328166Y-83033659D01*
X140272233Y-82991787D01*
X140247816Y-82926323D01*
X140247500Y-82917477D01*
X140247500Y-80965228D01*
X140267185Y-80898189D01*
X140283815Y-80877551D01*
X140899548Y-80261817D01*
X140960871Y-80228333D01*
X140987229Y-80225499D01*
X141400002Y-80225499D01*
X141400008Y-80225499D01*
X141502797Y-80214999D01*
X141669334Y-80159814D01*
X141818656Y-80067712D01*
X141942712Y-79943656D01*
X141944752Y-79940347D01*
X141946745Y-79938555D01*
X141947193Y-79937989D01*
X141947289Y-79938065D01*
X141996694Y-79893623D01*
X142065656Y-79882395D01*
X142129740Y-79910234D01*
X142155829Y-79940339D01*
X142157681Y-79943341D01*
X142157683Y-79943344D01*
X142281654Y-80067315D01*
X142430875Y-80159356D01*
X142430880Y-80159358D01*
X142597302Y-80214505D01*
X142597309Y-80214506D01*
X142700019Y-80224999D01*
X143250000Y-80224999D01*
X143299972Y-80224999D01*
X143299986Y-80224998D01*
X143402697Y-80214505D01*
X143569119Y-80159358D01*
X143569124Y-80159356D01*
X143718345Y-80067315D01*
X143842315Y-79943345D01*
X143934356Y-79794124D01*
X143934358Y-79794119D01*
X143989505Y-79627697D01*
X143989506Y-79627690D01*
X143999999Y-79524986D01*
X144000000Y-79524973D01*
X144000000Y-79250000D01*
X143250000Y-79250000D01*
X143250000Y-80224999D01*
X142700019Y-80224999D01*
X142749999Y-80224998D01*
X142750000Y-80224998D01*
X142750000Y-78750000D01*
X143250000Y-78750000D01*
X143999999Y-78750000D01*
X143999999Y-78475028D01*
X143999998Y-78475013D01*
X143989505Y-78372302D01*
X143934358Y-78205880D01*
X143934356Y-78205875D01*
X143842315Y-78056654D01*
X143718345Y-77932684D01*
X143569124Y-77840643D01*
X143569119Y-77840641D01*
X143402697Y-77785494D01*
X143402690Y-77785493D01*
X143299986Y-77775000D01*
X143250000Y-77775000D01*
X143250000Y-78750000D01*
X142750000Y-78750000D01*
X142750000Y-77775000D01*
X142749999Y-77774999D01*
X142700029Y-77775000D01*
X142700011Y-77775001D01*
X142597302Y-77785494D01*
X142513504Y-77813262D01*
X142443675Y-77815664D01*
X142383633Y-77779932D01*
X142352441Y-77717411D01*
X142350500Y-77695556D01*
X142350500Y-76587230D01*
X142358506Y-76559962D01*
X142363487Y-76531985D01*
X142368953Y-76524385D01*
X142370185Y-76520191D01*
X142383548Y-76502947D01*
X142385153Y-76501214D01*
X142442712Y-76443656D01*
X142451112Y-76430036D01*
X142459341Y-76421157D01*
X142479361Y-76409214D01*
X142496694Y-76393623D01*
X142508806Y-76391650D01*
X142519346Y-76385364D01*
X142542645Y-76386141D01*
X142565656Y-76382395D01*
X142576911Y-76387284D01*
X142589177Y-76387694D01*
X142608357Y-76400945D01*
X142629740Y-76410234D01*
X142641581Y-76423897D01*
X142646662Y-76427408D01*
X142648552Y-76431942D01*
X142655829Y-76440339D01*
X142657681Y-76443341D01*
X142657683Y-76443344D01*
X142781654Y-76567315D01*
X142930875Y-76659356D01*
X142930880Y-76659358D01*
X143097302Y-76714505D01*
X143097309Y-76714506D01*
X143200019Y-76724999D01*
X143249999Y-76724998D01*
X143250000Y-76724998D01*
X143250000Y-74275000D01*
X143249999Y-74274999D01*
X143200029Y-74275000D01*
X143200011Y-74275001D01*
X143097302Y-74285494D01*
X142930880Y-74340641D01*
X142930875Y-74340643D01*
X142781654Y-74432684D01*
X142657683Y-74556655D01*
X142657679Y-74556660D01*
X142655826Y-74559665D01*
X142654018Y-74561290D01*
X142653202Y-74562323D01*
X142653025Y-74562183D01*
X142603874Y-74606385D01*
X142534911Y-74617601D01*
X142470831Y-74589752D01*
X142459781Y-74579315D01*
X142451283Y-74570239D01*
X142442712Y-74556344D01*
X142372872Y-74486504D01*
X142371488Y-74485026D01*
X142356636Y-74455567D01*
X142340834Y-74426628D01*
X142340505Y-74423572D01*
X142340034Y-74422637D01*
X142340216Y-74420888D01*
X142338000Y-74400270D01*
X142338000Y-71824730D01*
X142357685Y-71757691D01*
X142374319Y-71737049D01*
X142412319Y-71699049D01*
X142473642Y-71665564D01*
X142543334Y-71670548D01*
X142587681Y-71699049D01*
X142681344Y-71792712D01*
X142830666Y-71884814D01*
X142997203Y-71939999D01*
X143099991Y-71950500D01*
X143725008Y-71950499D01*
X143725016Y-71950498D01*
X143725019Y-71950498D01*
X143781302Y-71944748D01*
X143827797Y-71939999D01*
X143994334Y-71884814D01*
X144143656Y-71792712D01*
X144267712Y-71668656D01*
X144359814Y-71519334D01*
X144371028Y-71485494D01*
X144384897Y-71465462D01*
X144395020Y-71443297D01*
X144404432Y-71437248D01*
X144410801Y-71428050D01*
X144433299Y-71418696D01*
X144453798Y-71405523D01*
X144470901Y-71403063D01*
X144475317Y-71401228D01*
X144488733Y-71400500D01*
X144534092Y-71400500D01*
X144601131Y-71420185D01*
G37*
%TD.AperFunction*%
%TA.AperFunction,Conductor*%
G36*
X152105398Y-70462664D02*
G01*
X152118834Y-70463625D01*
X152136560Y-70476895D01*
X152156703Y-70486094D01*
X152163985Y-70497425D01*
X152174767Y-70505497D01*
X152182504Y-70526242D01*
X152194477Y-70544872D01*
X152197628Y-70566790D01*
X152199184Y-70570961D01*
X152199500Y-70579807D01*
X152199500Y-70702352D01*
X152203878Y-70729995D01*
X152231522Y-70904534D01*
X152294781Y-71099223D01*
X152387715Y-71281613D01*
X152508028Y-71447213D01*
X152652786Y-71591971D01*
X152800169Y-71699049D01*
X152818390Y-71712287D01*
X152907500Y-71757691D01*
X152911080Y-71759515D01*
X152961876Y-71807490D01*
X152978671Y-71875311D01*
X152956134Y-71941446D01*
X152911080Y-71980485D01*
X152818386Y-72027715D01*
X152652786Y-72148028D01*
X152508028Y-72292786D01*
X152387715Y-72458386D01*
X152294781Y-72640776D01*
X152231522Y-72835465D01*
X152199500Y-73037648D01*
X152199500Y-73242351D01*
X152231522Y-73444534D01*
X152294781Y-73639223D01*
X152335133Y-73718417D01*
X152375618Y-73797873D01*
X152387715Y-73821613D01*
X152508028Y-73987213D01*
X152652786Y-74131971D01*
X152760336Y-74210109D01*
X152818390Y-74252287D01*
X152909840Y-74298883D01*
X152911080Y-74299515D01*
X152961876Y-74347490D01*
X152978671Y-74415311D01*
X152956134Y-74481446D01*
X152911080Y-74520485D01*
X152818386Y-74567715D01*
X152652786Y-74688028D01*
X152508028Y-74832786D01*
X152387715Y-74998386D01*
X152294781Y-75180776D01*
X152231522Y-75375465D01*
X152199500Y-75577648D01*
X152199500Y-75782351D01*
X152231522Y-75984534D01*
X152294781Y-76179223D01*
X152375413Y-76337469D01*
X152388309Y-76406138D01*
X152362033Y-76470878D01*
X152352609Y-76481445D01*
X148432127Y-80401925D01*
X148432124Y-80401928D01*
X148372598Y-80491017D01*
X148360935Y-80508472D01*
X148311899Y-80626855D01*
X148311897Y-80626861D01*
X148286900Y-80752528D01*
X148286900Y-87541791D01*
X148267215Y-87608830D01*
X148250581Y-87629472D01*
X147391681Y-88488372D01*
X147330358Y-88521857D01*
X147260666Y-88516873D01*
X147204733Y-88475001D01*
X147180316Y-88409537D01*
X147180000Y-88400691D01*
X147180000Y-88277682D01*
X147147990Y-88075582D01*
X147084755Y-87880968D01*
X146991859Y-87698650D01*
X146959474Y-87654077D01*
X146959474Y-87654076D01*
X146280000Y-88333553D01*
X146280000Y-88327339D01*
X146252741Y-88225606D01*
X146200080Y-88134394D01*
X146125606Y-88059920D01*
X146034394Y-88007259D01*
X145932661Y-87980000D01*
X145926446Y-87980000D01*
X146605922Y-87300524D01*
X146605921Y-87300523D01*
X146561359Y-87268147D01*
X146561350Y-87268141D01*
X146468369Y-87220765D01*
X146417573Y-87172790D01*
X146400778Y-87104969D01*
X146423315Y-87038835D01*
X146468370Y-86999795D01*
X146469471Y-86999234D01*
X146561610Y-86952287D01*
X146611408Y-86916107D01*
X146727213Y-86831971D01*
X146727215Y-86831968D01*
X146727219Y-86831966D01*
X146871966Y-86687219D01*
X146871968Y-86687215D01*
X146871971Y-86687213D01*
X146960093Y-86565921D01*
X146992287Y-86521610D01*
X147085220Y-86339219D01*
X147148477Y-86144534D01*
X147180500Y-85942352D01*
X147180500Y-85737648D01*
X147158447Y-85598412D01*
X147148477Y-85535465D01*
X147103239Y-85396239D01*
X147085220Y-85340781D01*
X147085218Y-85340778D01*
X147085218Y-85340776D01*
X147026226Y-85224999D01*
X146992287Y-85158390D01*
X146980485Y-85142146D01*
X146871971Y-84992786D01*
X146727213Y-84848028D01*
X146561614Y-84727715D01*
X146529211Y-84711205D01*
X146468917Y-84680483D01*
X146418123Y-84632511D01*
X146401328Y-84564690D01*
X146423865Y-84498555D01*
X146468917Y-84459516D01*
X146561610Y-84412287D01*
X146614750Y-84373679D01*
X146727213Y-84291971D01*
X146727215Y-84291968D01*
X146727219Y-84291966D01*
X146871966Y-84147219D01*
X146871968Y-84147215D01*
X146871971Y-84147213D01*
X146942679Y-84049890D01*
X146992287Y-83981610D01*
X147085220Y-83799219D01*
X147148477Y-83604534D01*
X147180500Y-83402352D01*
X147180500Y-83197648D01*
X147159005Y-83061935D01*
X147148477Y-82995465D01*
X147085218Y-82800776D01*
X147006501Y-82646287D01*
X146992287Y-82618390D01*
X146984556Y-82607749D01*
X146871971Y-82452786D01*
X146727213Y-82308028D01*
X146561614Y-82187715D01*
X146555006Y-82184348D01*
X146468917Y-82140483D01*
X146418123Y-82092511D01*
X146401328Y-82024690D01*
X146423865Y-81958555D01*
X146468917Y-81919516D01*
X146561610Y-81872287D01*
X146582770Y-81856913D01*
X146727213Y-81751971D01*
X146727215Y-81751968D01*
X146727219Y-81751966D01*
X146871966Y-81607219D01*
X146871968Y-81607215D01*
X146871971Y-81607213D01*
X146924732Y-81534590D01*
X146992287Y-81441610D01*
X147085220Y-81259219D01*
X147148477Y-81064534D01*
X147180500Y-80862352D01*
X147180500Y-80657648D01*
X147156873Y-80508473D01*
X147148477Y-80455465D01*
X147109035Y-80334075D01*
X147085220Y-80260781D01*
X147085218Y-80260778D01*
X147085218Y-80260776D01*
X147049715Y-80191098D01*
X146992287Y-80078390D01*
X146961099Y-80035463D01*
X146871971Y-79912786D01*
X146727213Y-79768028D01*
X146561614Y-79647715D01*
X146555006Y-79644348D01*
X146468917Y-79600483D01*
X146418123Y-79552511D01*
X146401328Y-79484690D01*
X146423865Y-79418555D01*
X146468917Y-79379516D01*
X146561610Y-79332287D01*
X146585891Y-79314646D01*
X146727213Y-79211971D01*
X146727215Y-79211968D01*
X146727219Y-79211966D01*
X146871966Y-79067219D01*
X146871968Y-79067215D01*
X146871971Y-79067213D01*
X146935316Y-78980025D01*
X146992287Y-78901610D01*
X147085220Y-78719219D01*
X147148477Y-78524534D01*
X147180500Y-78322352D01*
X147180500Y-78117648D01*
X147151142Y-77932289D01*
X147148477Y-77915465D01*
X147115269Y-77813262D01*
X147085220Y-77720781D01*
X147085218Y-77720778D01*
X147085218Y-77720776D01*
X147051503Y-77654607D01*
X146992287Y-77538390D01*
X146983623Y-77526465D01*
X146871971Y-77372786D01*
X146727213Y-77228028D01*
X146561614Y-77107715D01*
X146555006Y-77104348D01*
X146468917Y-77060483D01*
X146418123Y-77012511D01*
X146401328Y-76944690D01*
X146423865Y-76878555D01*
X146468917Y-76839516D01*
X146561610Y-76792287D01*
X146582770Y-76776913D01*
X146727213Y-76671971D01*
X146727215Y-76671968D01*
X146727219Y-76671966D01*
X146871966Y-76527219D01*
X146871968Y-76527215D01*
X146871971Y-76527213D01*
X146932677Y-76443657D01*
X146992287Y-76361610D01*
X147085220Y-76179219D01*
X147148477Y-75984534D01*
X147180500Y-75782352D01*
X147180500Y-75577648D01*
X147152345Y-75399886D01*
X147161300Y-75330593D01*
X147187134Y-75292810D01*
X151987819Y-70492126D01*
X152007255Y-70481513D01*
X152023989Y-70467013D01*
X152037320Y-70465096D01*
X152049142Y-70458641D01*
X152071228Y-70460220D01*
X152093147Y-70457069D01*
X152105398Y-70462664D01*
G37*
%TD.AperFunction*%
%TD*%
M02*
