%TF.GenerationSoftware,KiCad,Pcbnew,9.0.2*%
%TF.CreationDate,2025-07-07T19:43:33+05:30*%
%TF.ProjectId,Atmega328p_based,41746d65-6761-4333-9238-705f62617365,rev?*%
%TF.SameCoordinates,Original*%
%TF.FileFunction,Soldermask,Top*%
%TF.FilePolarity,Negative*%
%FSLAX46Y46*%
G04 Gerber Fmt 4.6, Leading zero omitted, Abs format (unit mm)*
G04 Created by KiCad (PCBNEW 9.0.2) date 2025-07-07 19:43:33*
%MOMM*%
%LPD*%
G01*
G04 APERTURE LIST*
G04 Aperture macros list*
%AMRoundRect*
0 Rectangle with rounded corners*
0 $1 Rounding radius*
0 $2 $3 $4 $5 $6 $7 $8 $9 X,Y pos of 4 corners*
0 Add a 4 corners polygon primitive as box body*
4,1,4,$2,$3,$4,$5,$6,$7,$8,$9,$2,$3,0*
0 Add four circle primitives for the rounded corners*
1,1,$1+$1,$2,$3*
1,1,$1+$1,$4,$5*
1,1,$1+$1,$6,$7*
1,1,$1+$1,$8,$9*
0 Add four rect primitives between the rounded corners*
20,1,$1+$1,$2,$3,$4,$5,0*
20,1,$1+$1,$4,$5,$6,$7,0*
20,1,$1+$1,$6,$7,$8,$9,0*
20,1,$1+$1,$8,$9,$2,$3,0*%
G04 Aperture macros list end*
%ADD10R,1.700000X1.700000*%
%ADD11C,1.700000*%
%ADD12RoundRect,0.250000X-0.250000X-0.475000X0.250000X-0.475000X0.250000X0.475000X-0.250000X0.475000X0*%
%ADD13RoundRect,0.250000X-0.262500X-0.450000X0.262500X-0.450000X0.262500X0.450000X-0.262500X0.450000X0*%
%ADD14RoundRect,0.250000X-0.550000X-0.550000X0.550000X-0.550000X0.550000X0.550000X-0.550000X0.550000X0*%
%ADD15C,1.600000*%
%ADD16RoundRect,0.150000X0.150000X-0.825000X0.150000X0.825000X-0.150000X0.825000X-0.150000X-0.825000X0*%
%ADD17RoundRect,0.250000X-0.475000X0.250000X-0.475000X-0.250000X0.475000X-0.250000X0.475000X0.250000X0*%
%ADD18C,2.200000*%
%ADD19C,1.500000*%
%ADD20RoundRect,0.250000X0.475000X-0.250000X0.475000X0.250000X-0.475000X0.250000X-0.475000X-0.250000X0*%
%ADD21C,2.000000*%
%ADD22RoundRect,0.250000X0.250000X0.475000X-0.250000X0.475000X-0.250000X-0.475000X0.250000X-0.475000X0*%
%ADD23RoundRect,0.250001X-0.462499X-0.624999X0.462499X-0.624999X0.462499X0.624999X-0.462499X0.624999X0*%
G04 APERTURE END LIST*
D10*
%TO.C,J3*%
X166750000Y-106200000D03*
D11*
X166750000Y-103660000D03*
X166750000Y-101120000D03*
X166750000Y-98580000D03*
X166750000Y-96040000D03*
X166750000Y-93500000D03*
X166750000Y-90960000D03*
X166750000Y-88420000D03*
X166750000Y-85880000D03*
X166750000Y-83340000D03*
X166750000Y-80800000D03*
X166750000Y-78260000D03*
X166750000Y-75720000D03*
X166750000Y-73180000D03*
%TD*%
D12*
%TO.C,C2*%
X141050000Y-90250000D03*
X142950000Y-90250000D03*
%TD*%
D13*
%TO.C,R1*%
X141587500Y-70750000D03*
X143412500Y-70750000D03*
%TD*%
D14*
%TO.C,U1*%
X145880000Y-70600000D03*
D15*
X145880000Y-73140000D03*
X145880000Y-75680000D03*
X145880000Y-78220000D03*
X145880000Y-80760000D03*
X145880000Y-83300000D03*
X145880000Y-85840000D03*
X145880000Y-88380000D03*
X145880000Y-90920000D03*
X145880000Y-93460000D03*
X145880000Y-96000000D03*
X145880000Y-98540000D03*
X145880000Y-101080000D03*
X145880000Y-103620000D03*
X153500000Y-103620000D03*
X153500000Y-101080000D03*
X153500000Y-98540000D03*
X153500000Y-96000000D03*
X153500000Y-93460000D03*
X153500000Y-90920000D03*
X153500000Y-88380000D03*
X153500000Y-85840000D03*
X153500000Y-83300000D03*
X153500000Y-80760000D03*
X153500000Y-78220000D03*
X153500000Y-75680000D03*
X153500000Y-73140000D03*
X153500000Y-70600000D03*
%TD*%
D16*
%TO.C,U2*%
X157595000Y-103225000D03*
X158865000Y-103225000D03*
X160135000Y-103225000D03*
X161405000Y-103225000D03*
X161405000Y-98275000D03*
X160135000Y-98275000D03*
X158865000Y-98275000D03*
X157595000Y-98275000D03*
%TD*%
D17*
%TO.C,C7*%
X155750000Y-101800000D03*
X155750000Y-103700000D03*
%TD*%
D12*
%TO.C,C4*%
X141100000Y-79000000D03*
X143000000Y-79000000D03*
%TD*%
D18*
%TO.C,H4*%
X162000000Y-109250000D03*
%TD*%
D19*
%TO.C,Y1*%
X159250000Y-78500000D03*
X159250000Y-73620000D03*
%TD*%
D18*
%TO.C,H1*%
X163500000Y-65000000D03*
%TD*%
D13*
%TO.C,R2*%
X141100000Y-96750000D03*
X142925000Y-96750000D03*
%TD*%
D10*
%TO.C,J1*%
X142340000Y-108500000D03*
D11*
X144880000Y-108500000D03*
X147420000Y-108500000D03*
X149960000Y-108500000D03*
X152500000Y-108500000D03*
X155040000Y-108500000D03*
%TD*%
D18*
%TO.C,H3*%
X136500000Y-109250000D03*
%TD*%
%TO.C,H2*%
X130500000Y-64750000D03*
%TD*%
D10*
%TO.C,J2*%
X131500000Y-74920000D03*
D11*
X131500000Y-77460000D03*
X131500000Y-80000000D03*
X131500000Y-82540000D03*
X131500000Y-85080000D03*
X131500000Y-87620000D03*
X131500000Y-90160000D03*
X131500000Y-92700000D03*
X131500000Y-95240000D03*
X131500000Y-97780000D03*
X131500000Y-100320000D03*
X131500000Y-102860000D03*
X131500000Y-105400000D03*
X131500000Y-107940000D03*
%TD*%
D20*
%TO.C,C8*%
X155750000Y-99700000D03*
X155750000Y-97800000D03*
%TD*%
D12*
%TO.C,C1*%
X141050000Y-93250000D03*
X142950000Y-93250000D03*
%TD*%
D21*
%TO.C,SW1*%
X134500000Y-70750000D03*
X134500000Y-64250000D03*
X139000000Y-70750000D03*
X139000000Y-64250000D03*
%TD*%
D12*
%TO.C,C6*%
X141250000Y-84000000D03*
X143150000Y-84000000D03*
%TD*%
D10*
%TO.C,J5*%
X144340000Y-64500000D03*
D11*
X146880000Y-64500000D03*
X149420000Y-64500000D03*
X151960000Y-64500000D03*
X154500000Y-64500000D03*
X157040000Y-64500000D03*
%TD*%
D12*
%TO.C,C3*%
X141600000Y-75500000D03*
X143500000Y-75500000D03*
%TD*%
D22*
%TO.C,C5*%
X156950000Y-67750000D03*
X155050000Y-67750000D03*
%TD*%
D23*
%TO.C,D1*%
X140525000Y-100000000D03*
X143500000Y-100000000D03*
%TD*%
M02*
