%TF.GenerationSoftware,KiCad,Pcbnew,9.0.2*%
%TF.CreationDate,2025-07-07T19:43:33+05:30*%
%TF.ProjectId,Atmega328p_based,41746d65-6761-4333-9238-705f62617365,rev?*%
%TF.SameCoordinates,Original*%
%TF.FileFunction,Legend,Top*%
%TF.FilePolarity,Positive*%
%FSLAX46Y46*%
G04 Gerber Fmt 4.6, Leading zero omitted, Abs format (unit mm)*
G04 Created by KiCad (PCBNEW 9.0.2) date 2025-07-07 19:43:33*
%MOMM*%
%LPD*%
G01*
G04 APERTURE LIST*
%ADD10C,0.100000*%
%ADD11C,0.200000*%
%ADD12C,0.150000*%
%ADD13C,0.000000*%
%ADD14C,0.120000*%
G04 APERTURE END LIST*
D10*
X163125312Y-73372419D02*
X162791979Y-72896228D01*
X162553884Y-73372419D02*
X162553884Y-72372419D01*
X162553884Y-72372419D02*
X162934836Y-72372419D01*
X162934836Y-72372419D02*
X163030074Y-72420038D01*
X163030074Y-72420038D02*
X163077693Y-72467657D01*
X163077693Y-72467657D02*
X163125312Y-72562895D01*
X163125312Y-72562895D02*
X163125312Y-72705752D01*
X163125312Y-72705752D02*
X163077693Y-72800990D01*
X163077693Y-72800990D02*
X163030074Y-72848609D01*
X163030074Y-72848609D02*
X162934836Y-72896228D01*
X162934836Y-72896228D02*
X162553884Y-72896228D01*
X163506265Y-73324800D02*
X163649122Y-73372419D01*
X163649122Y-73372419D02*
X163887217Y-73372419D01*
X163887217Y-73372419D02*
X163982455Y-73324800D01*
X163982455Y-73324800D02*
X164030074Y-73277180D01*
X164030074Y-73277180D02*
X164077693Y-73181942D01*
X164077693Y-73181942D02*
X164077693Y-73086704D01*
X164077693Y-73086704D02*
X164030074Y-72991466D01*
X164030074Y-72991466D02*
X163982455Y-72943847D01*
X163982455Y-72943847D02*
X163887217Y-72896228D01*
X163887217Y-72896228D02*
X163696741Y-72848609D01*
X163696741Y-72848609D02*
X163601503Y-72800990D01*
X163601503Y-72800990D02*
X163553884Y-72753371D01*
X163553884Y-72753371D02*
X163506265Y-72658133D01*
X163506265Y-72658133D02*
X163506265Y-72562895D01*
X163506265Y-72562895D02*
X163553884Y-72467657D01*
X163553884Y-72467657D02*
X163601503Y-72420038D01*
X163601503Y-72420038D02*
X163696741Y-72372419D01*
X163696741Y-72372419D02*
X163934836Y-72372419D01*
X163934836Y-72372419D02*
X164077693Y-72420038D01*
X164363408Y-72372419D02*
X164934836Y-72372419D01*
X164649122Y-73372419D02*
X164649122Y-72372419D01*
X133530074Y-105622419D02*
X133530074Y-104622419D01*
X133530074Y-104622419D02*
X133744360Y-104622419D01*
X133744360Y-104622419D02*
X133872931Y-104670038D01*
X133872931Y-104670038D02*
X133958646Y-104765276D01*
X133958646Y-104765276D02*
X134001503Y-104860514D01*
X134001503Y-104860514D02*
X134044360Y-105050990D01*
X134044360Y-105050990D02*
X134044360Y-105193847D01*
X134044360Y-105193847D02*
X134001503Y-105384323D01*
X134001503Y-105384323D02*
X133958646Y-105479561D01*
X133958646Y-105479561D02*
X133872931Y-105574800D01*
X133872931Y-105574800D02*
X133744360Y-105622419D01*
X133744360Y-105622419D02*
X133530074Y-105622419D01*
X134901503Y-105622419D02*
X134387217Y-105622419D01*
X134644360Y-105622419D02*
X134644360Y-104622419D01*
X134644360Y-104622419D02*
X134558646Y-104765276D01*
X134558646Y-104765276D02*
X134472931Y-104860514D01*
X134472931Y-104860514D02*
X134387217Y-104908133D01*
X135244360Y-104717657D02*
X135287217Y-104670038D01*
X135287217Y-104670038D02*
X135372932Y-104622419D01*
X135372932Y-104622419D02*
X135587217Y-104622419D01*
X135587217Y-104622419D02*
X135672932Y-104670038D01*
X135672932Y-104670038D02*
X135715789Y-104717657D01*
X135715789Y-104717657D02*
X135758646Y-104812895D01*
X135758646Y-104812895D02*
X135758646Y-104908133D01*
X135758646Y-104908133D02*
X135715789Y-105050990D01*
X135715789Y-105050990D02*
X135201503Y-105622419D01*
X135201503Y-105622419D02*
X135758646Y-105622419D01*
X136787217Y-104574800D02*
X136015789Y-105860514D01*
X137087217Y-105622419D02*
X137087217Y-104622419D01*
X137087217Y-104622419D02*
X137387217Y-105336704D01*
X137387217Y-105336704D02*
X137687217Y-104622419D01*
X137687217Y-104622419D02*
X137687217Y-105622419D01*
X138287217Y-104622419D02*
X138458645Y-104622419D01*
X138458645Y-104622419D02*
X138544360Y-104670038D01*
X138544360Y-104670038D02*
X138630074Y-104765276D01*
X138630074Y-104765276D02*
X138672931Y-104955752D01*
X138672931Y-104955752D02*
X138672931Y-105289085D01*
X138672931Y-105289085D02*
X138630074Y-105479561D01*
X138630074Y-105479561D02*
X138544360Y-105574800D01*
X138544360Y-105574800D02*
X138458645Y-105622419D01*
X138458645Y-105622419D02*
X138287217Y-105622419D01*
X138287217Y-105622419D02*
X138201503Y-105574800D01*
X138201503Y-105574800D02*
X138115788Y-105479561D01*
X138115788Y-105479561D02*
X138072931Y-105289085D01*
X138072931Y-105289085D02*
X138072931Y-104955752D01*
X138072931Y-104955752D02*
X138115788Y-104765276D01*
X138115788Y-104765276D02*
X138201503Y-104670038D01*
X138201503Y-104670038D02*
X138287217Y-104622419D01*
X139015788Y-105574800D02*
X139144360Y-105622419D01*
X139144360Y-105622419D02*
X139358645Y-105622419D01*
X139358645Y-105622419D02*
X139444360Y-105574800D01*
X139444360Y-105574800D02*
X139487217Y-105527180D01*
X139487217Y-105527180D02*
X139530074Y-105431942D01*
X139530074Y-105431942D02*
X139530074Y-105336704D01*
X139530074Y-105336704D02*
X139487217Y-105241466D01*
X139487217Y-105241466D02*
X139444360Y-105193847D01*
X139444360Y-105193847D02*
X139358645Y-105146228D01*
X139358645Y-105146228D02*
X139187217Y-105098609D01*
X139187217Y-105098609D02*
X139101502Y-105050990D01*
X139101502Y-105050990D02*
X139058645Y-105003371D01*
X139058645Y-105003371D02*
X139015788Y-104908133D01*
X139015788Y-104908133D02*
X139015788Y-104812895D01*
X139015788Y-104812895D02*
X139058645Y-104717657D01*
X139058645Y-104717657D02*
X139101502Y-104670038D01*
X139101502Y-104670038D02*
X139187217Y-104622419D01*
X139187217Y-104622419D02*
X139401502Y-104622419D01*
X139401502Y-104622419D02*
X139530074Y-104670038D01*
X139915788Y-105622419D02*
X139915788Y-104622419D01*
X163256265Y-106336704D02*
X163732455Y-106336704D01*
X163161027Y-106622419D02*
X163494360Y-105622419D01*
X163494360Y-105622419D02*
X163827693Y-106622419D01*
X164351503Y-105622419D02*
X164446741Y-105622419D01*
X164446741Y-105622419D02*
X164541979Y-105670038D01*
X164541979Y-105670038D02*
X164589598Y-105717657D01*
X164589598Y-105717657D02*
X164637217Y-105812895D01*
X164637217Y-105812895D02*
X164684836Y-106003371D01*
X164684836Y-106003371D02*
X164684836Y-106241466D01*
X164684836Y-106241466D02*
X164637217Y-106431942D01*
X164637217Y-106431942D02*
X164589598Y-106527180D01*
X164589598Y-106527180D02*
X164541979Y-106574800D01*
X164541979Y-106574800D02*
X164446741Y-106622419D01*
X164446741Y-106622419D02*
X164351503Y-106622419D01*
X164351503Y-106622419D02*
X164256265Y-106574800D01*
X164256265Y-106574800D02*
X164208646Y-106527180D01*
X164208646Y-106527180D02*
X164161027Y-106431942D01*
X164161027Y-106431942D02*
X164113408Y-106241466D01*
X164113408Y-106241466D02*
X164113408Y-106003371D01*
X164113408Y-106003371D02*
X164161027Y-105812895D01*
X164161027Y-105812895D02*
X164208646Y-105717657D01*
X164208646Y-105717657D02*
X164256265Y-105670038D01*
X164256265Y-105670038D02*
X164351503Y-105622419D01*
X162553884Y-86622419D02*
X162553884Y-85622419D01*
X162553884Y-85622419D02*
X163125312Y-86622419D01*
X163125312Y-86622419D02*
X163125312Y-85622419D01*
X164172931Y-86527180D02*
X164125312Y-86574800D01*
X164125312Y-86574800D02*
X163982455Y-86622419D01*
X163982455Y-86622419D02*
X163887217Y-86622419D01*
X163887217Y-86622419D02*
X163744360Y-86574800D01*
X163744360Y-86574800D02*
X163649122Y-86479561D01*
X163649122Y-86479561D02*
X163601503Y-86384323D01*
X163601503Y-86384323D02*
X163553884Y-86193847D01*
X163553884Y-86193847D02*
X163553884Y-86050990D01*
X163553884Y-86050990D02*
X163601503Y-85860514D01*
X163601503Y-85860514D02*
X163649122Y-85765276D01*
X163649122Y-85765276D02*
X163744360Y-85670038D01*
X163744360Y-85670038D02*
X163887217Y-85622419D01*
X163887217Y-85622419D02*
X163982455Y-85622419D01*
X163982455Y-85622419D02*
X164125312Y-85670038D01*
X164125312Y-85670038D02*
X164172931Y-85717657D01*
X162303884Y-78741466D02*
X163065789Y-78741466D01*
X162684836Y-79122419D02*
X162684836Y-78360514D01*
X164018169Y-78122419D02*
X163541979Y-78122419D01*
X163541979Y-78122419D02*
X163494360Y-78598609D01*
X163494360Y-78598609D02*
X163541979Y-78550990D01*
X163541979Y-78550990D02*
X163637217Y-78503371D01*
X163637217Y-78503371D02*
X163875312Y-78503371D01*
X163875312Y-78503371D02*
X163970550Y-78550990D01*
X163970550Y-78550990D02*
X164018169Y-78598609D01*
X164018169Y-78598609D02*
X164065788Y-78693847D01*
X164065788Y-78693847D02*
X164065788Y-78931942D01*
X164065788Y-78931942D02*
X164018169Y-79027180D01*
X164018169Y-79027180D02*
X163970550Y-79074800D01*
X163970550Y-79074800D02*
X163875312Y-79122419D01*
X163875312Y-79122419D02*
X163637217Y-79122419D01*
X163637217Y-79122419D02*
X163541979Y-79074800D01*
X163541979Y-79074800D02*
X163494360Y-79027180D01*
X164399122Y-78455752D02*
X164637217Y-79122419D01*
X164637217Y-79122419D02*
X164875312Y-78455752D01*
X133530074Y-103122419D02*
X133530074Y-102122419D01*
X133530074Y-102122419D02*
X133744360Y-102122419D01*
X133744360Y-102122419D02*
X133872931Y-102170038D01*
X133872931Y-102170038D02*
X133958646Y-102265276D01*
X133958646Y-102265276D02*
X134001503Y-102360514D01*
X134001503Y-102360514D02*
X134044360Y-102550990D01*
X134044360Y-102550990D02*
X134044360Y-102693847D01*
X134044360Y-102693847D02*
X134001503Y-102884323D01*
X134001503Y-102884323D02*
X133958646Y-102979561D01*
X133958646Y-102979561D02*
X133872931Y-103074800D01*
X133872931Y-103074800D02*
X133744360Y-103122419D01*
X133744360Y-103122419D02*
X133530074Y-103122419D01*
X134901503Y-103122419D02*
X134387217Y-103122419D01*
X134644360Y-103122419D02*
X134644360Y-102122419D01*
X134644360Y-102122419D02*
X134558646Y-102265276D01*
X134558646Y-102265276D02*
X134472931Y-102360514D01*
X134472931Y-102360514D02*
X134387217Y-102408133D01*
X135758646Y-103122419D02*
X135244360Y-103122419D01*
X135501503Y-103122419D02*
X135501503Y-102122419D01*
X135501503Y-102122419D02*
X135415789Y-102265276D01*
X135415789Y-102265276D02*
X135330074Y-102360514D01*
X135330074Y-102360514D02*
X135244360Y-102408133D01*
X136787217Y-102074800D02*
X136015789Y-103360514D01*
X137087217Y-103122419D02*
X137087217Y-102122419D01*
X137087217Y-102122419D02*
X137387217Y-102836704D01*
X137387217Y-102836704D02*
X137687217Y-102122419D01*
X137687217Y-102122419D02*
X137687217Y-103122419D01*
X138287217Y-102122419D02*
X138458645Y-102122419D01*
X138458645Y-102122419D02*
X138544360Y-102170038D01*
X138544360Y-102170038D02*
X138630074Y-102265276D01*
X138630074Y-102265276D02*
X138672931Y-102455752D01*
X138672931Y-102455752D02*
X138672931Y-102789085D01*
X138672931Y-102789085D02*
X138630074Y-102979561D01*
X138630074Y-102979561D02*
X138544360Y-103074800D01*
X138544360Y-103074800D02*
X138458645Y-103122419D01*
X138458645Y-103122419D02*
X138287217Y-103122419D01*
X138287217Y-103122419D02*
X138201503Y-103074800D01*
X138201503Y-103074800D02*
X138115788Y-102979561D01*
X138115788Y-102979561D02*
X138072931Y-102789085D01*
X138072931Y-102789085D02*
X138072931Y-102455752D01*
X138072931Y-102455752D02*
X138115788Y-102265276D01*
X138115788Y-102265276D02*
X138201503Y-102170038D01*
X138201503Y-102170038D02*
X138287217Y-102122419D01*
X139015788Y-103074800D02*
X139144360Y-103122419D01*
X139144360Y-103122419D02*
X139358645Y-103122419D01*
X139358645Y-103122419D02*
X139444360Y-103074800D01*
X139444360Y-103074800D02*
X139487217Y-103027180D01*
X139487217Y-103027180D02*
X139530074Y-102931942D01*
X139530074Y-102931942D02*
X139530074Y-102836704D01*
X139530074Y-102836704D02*
X139487217Y-102741466D01*
X139487217Y-102741466D02*
X139444360Y-102693847D01*
X139444360Y-102693847D02*
X139358645Y-102646228D01*
X139358645Y-102646228D02*
X139187217Y-102598609D01*
X139187217Y-102598609D02*
X139101502Y-102550990D01*
X139101502Y-102550990D02*
X139058645Y-102503371D01*
X139058645Y-102503371D02*
X139015788Y-102408133D01*
X139015788Y-102408133D02*
X139015788Y-102312895D01*
X139015788Y-102312895D02*
X139058645Y-102217657D01*
X139058645Y-102217657D02*
X139101502Y-102170038D01*
X139101502Y-102170038D02*
X139187217Y-102122419D01*
X139187217Y-102122419D02*
X139401502Y-102122419D01*
X139401502Y-102122419D02*
X139530074Y-102170038D01*
X139915788Y-103122419D02*
X139915788Y-102122419D01*
X133803884Y-93122419D02*
X133803884Y-92122419D01*
X133803884Y-92122419D02*
X134041979Y-92122419D01*
X134041979Y-92122419D02*
X134184836Y-92170038D01*
X134184836Y-92170038D02*
X134280074Y-92265276D01*
X134280074Y-92265276D02*
X134327693Y-92360514D01*
X134327693Y-92360514D02*
X134375312Y-92550990D01*
X134375312Y-92550990D02*
X134375312Y-92693847D01*
X134375312Y-92693847D02*
X134327693Y-92884323D01*
X134327693Y-92884323D02*
X134280074Y-92979561D01*
X134280074Y-92979561D02*
X134184836Y-93074800D01*
X134184836Y-93074800D02*
X134041979Y-93122419D01*
X134041979Y-93122419D02*
X133803884Y-93122419D01*
X134708646Y-92122419D02*
X135375312Y-92122419D01*
X135375312Y-92122419D02*
X134946741Y-93122419D01*
X161506265Y-91086704D02*
X161982455Y-91086704D01*
X161411027Y-91372419D02*
X161744360Y-90372419D01*
X161744360Y-90372419D02*
X162077693Y-91372419D01*
X162982455Y-91372419D02*
X162649122Y-90896228D01*
X162411027Y-91372419D02*
X162411027Y-90372419D01*
X162411027Y-90372419D02*
X162791979Y-90372419D01*
X162791979Y-90372419D02*
X162887217Y-90420038D01*
X162887217Y-90420038D02*
X162934836Y-90467657D01*
X162934836Y-90467657D02*
X162982455Y-90562895D01*
X162982455Y-90562895D02*
X162982455Y-90705752D01*
X162982455Y-90705752D02*
X162934836Y-90800990D01*
X162934836Y-90800990D02*
X162887217Y-90848609D01*
X162887217Y-90848609D02*
X162791979Y-90896228D01*
X162791979Y-90896228D02*
X162411027Y-90896228D01*
X163411027Y-90848609D02*
X163744360Y-90848609D01*
X163887217Y-91372419D02*
X163411027Y-91372419D01*
X163411027Y-91372419D02*
X163411027Y-90372419D01*
X163411027Y-90372419D02*
X163887217Y-90372419D01*
X164649122Y-90848609D02*
X164315789Y-90848609D01*
X164315789Y-91372419D02*
X164315789Y-90372419D01*
X164315789Y-90372419D02*
X164791979Y-90372419D01*
D11*
X150203006Y-66843409D02*
X149869673Y-66843409D01*
X149869673Y-67367219D02*
X149869673Y-66367219D01*
X149869673Y-66367219D02*
X150345863Y-66367219D01*
X150583959Y-66367219D02*
X151155387Y-66367219D01*
X150869673Y-67367219D02*
X150869673Y-66367219D01*
X151488721Y-67367219D02*
X151488721Y-66367219D01*
X151488721Y-66367219D02*
X151726816Y-66367219D01*
X151726816Y-66367219D02*
X151869673Y-66414838D01*
X151869673Y-66414838D02*
X151964911Y-66510076D01*
X151964911Y-66510076D02*
X152012530Y-66605314D01*
X152012530Y-66605314D02*
X152060149Y-66795790D01*
X152060149Y-66795790D02*
X152060149Y-66938647D01*
X152060149Y-66938647D02*
X152012530Y-67129123D01*
X152012530Y-67129123D02*
X151964911Y-67224361D01*
X151964911Y-67224361D02*
X151869673Y-67319600D01*
X151869673Y-67319600D02*
X151726816Y-67367219D01*
X151726816Y-67367219D02*
X151488721Y-67367219D01*
X152488721Y-67367219D02*
X152488721Y-66367219D01*
D10*
X133803884Y-80622419D02*
X133803884Y-79622419D01*
X133803884Y-79622419D02*
X134041979Y-79622419D01*
X134041979Y-79622419D02*
X134184836Y-79670038D01*
X134184836Y-79670038D02*
X134280074Y-79765276D01*
X134280074Y-79765276D02*
X134327693Y-79860514D01*
X134327693Y-79860514D02*
X134375312Y-80050990D01*
X134375312Y-80050990D02*
X134375312Y-80193847D01*
X134375312Y-80193847D02*
X134327693Y-80384323D01*
X134327693Y-80384323D02*
X134280074Y-80479561D01*
X134280074Y-80479561D02*
X134184836Y-80574800D01*
X134184836Y-80574800D02*
X134041979Y-80622419D01*
X134041979Y-80622419D02*
X133803884Y-80622419D01*
X134756265Y-79717657D02*
X134803884Y-79670038D01*
X134803884Y-79670038D02*
X134899122Y-79622419D01*
X134899122Y-79622419D02*
X135137217Y-79622419D01*
X135137217Y-79622419D02*
X135232455Y-79670038D01*
X135232455Y-79670038D02*
X135280074Y-79717657D01*
X135280074Y-79717657D02*
X135327693Y-79812895D01*
X135327693Y-79812895D02*
X135327693Y-79908133D01*
X135327693Y-79908133D02*
X135280074Y-80050990D01*
X135280074Y-80050990D02*
X134708646Y-80622419D01*
X134708646Y-80622419D02*
X135327693Y-80622419D01*
X162827693Y-80670038D02*
X162732455Y-80622419D01*
X162732455Y-80622419D02*
X162589598Y-80622419D01*
X162589598Y-80622419D02*
X162446741Y-80670038D01*
X162446741Y-80670038D02*
X162351503Y-80765276D01*
X162351503Y-80765276D02*
X162303884Y-80860514D01*
X162303884Y-80860514D02*
X162256265Y-81050990D01*
X162256265Y-81050990D02*
X162256265Y-81193847D01*
X162256265Y-81193847D02*
X162303884Y-81384323D01*
X162303884Y-81384323D02*
X162351503Y-81479561D01*
X162351503Y-81479561D02*
X162446741Y-81574800D01*
X162446741Y-81574800D02*
X162589598Y-81622419D01*
X162589598Y-81622419D02*
X162684836Y-81622419D01*
X162684836Y-81622419D02*
X162827693Y-81574800D01*
X162827693Y-81574800D02*
X162875312Y-81527180D01*
X162875312Y-81527180D02*
X162875312Y-81193847D01*
X162875312Y-81193847D02*
X162684836Y-81193847D01*
X163303884Y-81622419D02*
X163303884Y-80622419D01*
X163303884Y-80622419D02*
X163875312Y-81622419D01*
X163875312Y-81622419D02*
X163875312Y-80622419D01*
X164351503Y-81622419D02*
X164351503Y-80622419D01*
X164351503Y-80622419D02*
X164589598Y-80622419D01*
X164589598Y-80622419D02*
X164732455Y-80670038D01*
X164732455Y-80670038D02*
X164827693Y-80765276D01*
X164827693Y-80765276D02*
X164875312Y-80860514D01*
X164875312Y-80860514D02*
X164922931Y-81050990D01*
X164922931Y-81050990D02*
X164922931Y-81193847D01*
X164922931Y-81193847D02*
X164875312Y-81384323D01*
X164875312Y-81384323D02*
X164827693Y-81479561D01*
X164827693Y-81479561D02*
X164732455Y-81574800D01*
X164732455Y-81574800D02*
X164589598Y-81622419D01*
X164589598Y-81622419D02*
X164351503Y-81622419D01*
D11*
X148119673Y-106867219D02*
X148119673Y-105867219D01*
X148548244Y-106819600D02*
X148691101Y-106867219D01*
X148691101Y-106867219D02*
X148929196Y-106867219D01*
X148929196Y-106867219D02*
X149024434Y-106819600D01*
X149024434Y-106819600D02*
X149072053Y-106771980D01*
X149072053Y-106771980D02*
X149119672Y-106676742D01*
X149119672Y-106676742D02*
X149119672Y-106581504D01*
X149119672Y-106581504D02*
X149072053Y-106486266D01*
X149072053Y-106486266D02*
X149024434Y-106438647D01*
X149024434Y-106438647D02*
X148929196Y-106391028D01*
X148929196Y-106391028D02*
X148738720Y-106343409D01*
X148738720Y-106343409D02*
X148643482Y-106295790D01*
X148643482Y-106295790D02*
X148595863Y-106248171D01*
X148595863Y-106248171D02*
X148548244Y-106152933D01*
X148548244Y-106152933D02*
X148548244Y-106057695D01*
X148548244Y-106057695D02*
X148595863Y-105962457D01*
X148595863Y-105962457D02*
X148643482Y-105914838D01*
X148643482Y-105914838D02*
X148738720Y-105867219D01*
X148738720Y-105867219D02*
X148976815Y-105867219D01*
X148976815Y-105867219D02*
X149119672Y-105914838D01*
X149548244Y-106867219D02*
X149548244Y-105867219D01*
X149548244Y-105867219D02*
X149929196Y-105867219D01*
X149929196Y-105867219D02*
X150024434Y-105914838D01*
X150024434Y-105914838D02*
X150072053Y-105962457D01*
X150072053Y-105962457D02*
X150119672Y-106057695D01*
X150119672Y-106057695D02*
X150119672Y-106200552D01*
X150119672Y-106200552D02*
X150072053Y-106295790D01*
X150072053Y-106295790D02*
X150024434Y-106343409D01*
X150024434Y-106343409D02*
X149929196Y-106391028D01*
X149929196Y-106391028D02*
X149548244Y-106391028D01*
D10*
X133803884Y-85872419D02*
X133803884Y-84872419D01*
X133803884Y-84872419D02*
X134041979Y-84872419D01*
X134041979Y-84872419D02*
X134184836Y-84920038D01*
X134184836Y-84920038D02*
X134280074Y-85015276D01*
X134280074Y-85015276D02*
X134327693Y-85110514D01*
X134327693Y-85110514D02*
X134375312Y-85300990D01*
X134375312Y-85300990D02*
X134375312Y-85443847D01*
X134375312Y-85443847D02*
X134327693Y-85634323D01*
X134327693Y-85634323D02*
X134280074Y-85729561D01*
X134280074Y-85729561D02*
X134184836Y-85824800D01*
X134184836Y-85824800D02*
X134041979Y-85872419D01*
X134041979Y-85872419D02*
X133803884Y-85872419D01*
X135232455Y-85205752D02*
X135232455Y-85872419D01*
X134994360Y-84824800D02*
X134756265Y-85539085D01*
X134756265Y-85539085D02*
X135375312Y-85539085D01*
X133803884Y-75122419D02*
X133803884Y-74122419D01*
X133803884Y-74122419D02*
X134041979Y-74122419D01*
X134041979Y-74122419D02*
X134184836Y-74170038D01*
X134184836Y-74170038D02*
X134280074Y-74265276D01*
X134280074Y-74265276D02*
X134327693Y-74360514D01*
X134327693Y-74360514D02*
X134375312Y-74550990D01*
X134375312Y-74550990D02*
X134375312Y-74693847D01*
X134375312Y-74693847D02*
X134327693Y-74884323D01*
X134327693Y-74884323D02*
X134280074Y-74979561D01*
X134280074Y-74979561D02*
X134184836Y-75074800D01*
X134184836Y-75074800D02*
X134041979Y-75122419D01*
X134041979Y-75122419D02*
X133803884Y-75122419D01*
X134994360Y-74122419D02*
X135089598Y-74122419D01*
X135089598Y-74122419D02*
X135184836Y-74170038D01*
X135184836Y-74170038D02*
X135232455Y-74217657D01*
X135232455Y-74217657D02*
X135280074Y-74312895D01*
X135280074Y-74312895D02*
X135327693Y-74503371D01*
X135327693Y-74503371D02*
X135327693Y-74741466D01*
X135327693Y-74741466D02*
X135280074Y-74931942D01*
X135280074Y-74931942D02*
X135232455Y-75027180D01*
X135232455Y-75027180D02*
X135184836Y-75074800D01*
X135184836Y-75074800D02*
X135089598Y-75122419D01*
X135089598Y-75122419D02*
X134994360Y-75122419D01*
X134994360Y-75122419D02*
X134899122Y-75074800D01*
X134899122Y-75074800D02*
X134851503Y-75027180D01*
X134851503Y-75027180D02*
X134803884Y-74931942D01*
X134803884Y-74931942D02*
X134756265Y-74741466D01*
X134756265Y-74741466D02*
X134756265Y-74503371D01*
X134756265Y-74503371D02*
X134803884Y-74312895D01*
X134803884Y-74312895D02*
X134851503Y-74217657D01*
X134851503Y-74217657D02*
X134899122Y-74170038D01*
X134899122Y-74170038D02*
X134994360Y-74122419D01*
X136470550Y-74074800D02*
X135613408Y-75360514D01*
X137375312Y-75122419D02*
X137041979Y-74646228D01*
X136803884Y-75122419D02*
X136803884Y-74122419D01*
X136803884Y-74122419D02*
X137184836Y-74122419D01*
X137184836Y-74122419D02*
X137280074Y-74170038D01*
X137280074Y-74170038D02*
X137327693Y-74217657D01*
X137327693Y-74217657D02*
X137375312Y-74312895D01*
X137375312Y-74312895D02*
X137375312Y-74455752D01*
X137375312Y-74455752D02*
X137327693Y-74550990D01*
X137327693Y-74550990D02*
X137280074Y-74598609D01*
X137280074Y-74598609D02*
X137184836Y-74646228D01*
X137184836Y-74646228D02*
X136803884Y-74646228D01*
X137708646Y-74122419D02*
X138375312Y-75122419D01*
X138375312Y-74122419D02*
X137708646Y-75122419D01*
X132372419Y-70624687D02*
X131896228Y-70958020D01*
X132372419Y-71196115D02*
X131372419Y-71196115D01*
X131372419Y-71196115D02*
X131372419Y-70815163D01*
X131372419Y-70815163D02*
X131420038Y-70719925D01*
X131420038Y-70719925D02*
X131467657Y-70672306D01*
X131467657Y-70672306D02*
X131562895Y-70624687D01*
X131562895Y-70624687D02*
X131705752Y-70624687D01*
X131705752Y-70624687D02*
X131800990Y-70672306D01*
X131800990Y-70672306D02*
X131848609Y-70719925D01*
X131848609Y-70719925D02*
X131896228Y-70815163D01*
X131896228Y-70815163D02*
X131896228Y-71196115D01*
X131848609Y-70196115D02*
X131848609Y-69862782D01*
X132372419Y-69719925D02*
X132372419Y-70196115D01*
X132372419Y-70196115D02*
X131372419Y-70196115D01*
X131372419Y-70196115D02*
X131372419Y-69719925D01*
X132324800Y-69338972D02*
X132372419Y-69196115D01*
X132372419Y-69196115D02*
X132372419Y-68958020D01*
X132372419Y-68958020D02*
X132324800Y-68862782D01*
X132324800Y-68862782D02*
X132277180Y-68815163D01*
X132277180Y-68815163D02*
X132181942Y-68767544D01*
X132181942Y-68767544D02*
X132086704Y-68767544D01*
X132086704Y-68767544D02*
X131991466Y-68815163D01*
X131991466Y-68815163D02*
X131943847Y-68862782D01*
X131943847Y-68862782D02*
X131896228Y-68958020D01*
X131896228Y-68958020D02*
X131848609Y-69148496D01*
X131848609Y-69148496D02*
X131800990Y-69243734D01*
X131800990Y-69243734D02*
X131753371Y-69291353D01*
X131753371Y-69291353D02*
X131658133Y-69338972D01*
X131658133Y-69338972D02*
X131562895Y-69338972D01*
X131562895Y-69338972D02*
X131467657Y-69291353D01*
X131467657Y-69291353D02*
X131420038Y-69243734D01*
X131420038Y-69243734D02*
X131372419Y-69148496D01*
X131372419Y-69148496D02*
X131372419Y-68910401D01*
X131372419Y-68910401D02*
X131420038Y-68767544D01*
X131848609Y-68338972D02*
X131848609Y-68005639D01*
X132372419Y-67862782D02*
X132372419Y-68338972D01*
X132372419Y-68338972D02*
X131372419Y-68338972D01*
X131372419Y-68338972D02*
X131372419Y-67862782D01*
X131372419Y-67577067D02*
X131372419Y-67005639D01*
X132372419Y-67291353D02*
X131372419Y-67291353D01*
X133803884Y-78122419D02*
X133803884Y-77122419D01*
X133803884Y-77122419D02*
X134041979Y-77122419D01*
X134041979Y-77122419D02*
X134184836Y-77170038D01*
X134184836Y-77170038D02*
X134280074Y-77265276D01*
X134280074Y-77265276D02*
X134327693Y-77360514D01*
X134327693Y-77360514D02*
X134375312Y-77550990D01*
X134375312Y-77550990D02*
X134375312Y-77693847D01*
X134375312Y-77693847D02*
X134327693Y-77884323D01*
X134327693Y-77884323D02*
X134280074Y-77979561D01*
X134280074Y-77979561D02*
X134184836Y-78074800D01*
X134184836Y-78074800D02*
X134041979Y-78122419D01*
X134041979Y-78122419D02*
X133803884Y-78122419D01*
X135327693Y-78122419D02*
X134756265Y-78122419D01*
X135041979Y-78122419D02*
X135041979Y-77122419D01*
X135041979Y-77122419D02*
X134946741Y-77265276D01*
X134946741Y-77265276D02*
X134851503Y-77360514D01*
X134851503Y-77360514D02*
X134756265Y-77408133D01*
X136470550Y-77074800D02*
X135613408Y-78360514D01*
X136661027Y-77122419D02*
X137232455Y-77122419D01*
X136946741Y-78122419D02*
X136946741Y-77122419D01*
X137470551Y-77122419D02*
X138137217Y-78122419D01*
X138137217Y-77122419D02*
X137470551Y-78122419D01*
X133803884Y-83122419D02*
X133803884Y-82122419D01*
X133803884Y-82122419D02*
X134041979Y-82122419D01*
X134041979Y-82122419D02*
X134184836Y-82170038D01*
X134184836Y-82170038D02*
X134280074Y-82265276D01*
X134280074Y-82265276D02*
X134327693Y-82360514D01*
X134327693Y-82360514D02*
X134375312Y-82550990D01*
X134375312Y-82550990D02*
X134375312Y-82693847D01*
X134375312Y-82693847D02*
X134327693Y-82884323D01*
X134327693Y-82884323D02*
X134280074Y-82979561D01*
X134280074Y-82979561D02*
X134184836Y-83074800D01*
X134184836Y-83074800D02*
X134041979Y-83122419D01*
X134041979Y-83122419D02*
X133803884Y-83122419D01*
X134708646Y-82122419D02*
X135327693Y-82122419D01*
X135327693Y-82122419D02*
X134994360Y-82503371D01*
X134994360Y-82503371D02*
X135137217Y-82503371D01*
X135137217Y-82503371D02*
X135232455Y-82550990D01*
X135232455Y-82550990D02*
X135280074Y-82598609D01*
X135280074Y-82598609D02*
X135327693Y-82693847D01*
X135327693Y-82693847D02*
X135327693Y-82931942D01*
X135327693Y-82931942D02*
X135280074Y-83027180D01*
X135280074Y-83027180D02*
X135232455Y-83074800D01*
X135232455Y-83074800D02*
X135137217Y-83122419D01*
X135137217Y-83122419D02*
X134851503Y-83122419D01*
X134851503Y-83122419D02*
X134756265Y-83074800D01*
X134756265Y-83074800D02*
X134708646Y-83027180D01*
X133530074Y-108122419D02*
X133530074Y-107122419D01*
X133530074Y-107122419D02*
X133744360Y-107122419D01*
X133744360Y-107122419D02*
X133872931Y-107170038D01*
X133872931Y-107170038D02*
X133958646Y-107265276D01*
X133958646Y-107265276D02*
X134001503Y-107360514D01*
X134001503Y-107360514D02*
X134044360Y-107550990D01*
X134044360Y-107550990D02*
X134044360Y-107693847D01*
X134044360Y-107693847D02*
X134001503Y-107884323D01*
X134001503Y-107884323D02*
X133958646Y-107979561D01*
X133958646Y-107979561D02*
X133872931Y-108074800D01*
X133872931Y-108074800D02*
X133744360Y-108122419D01*
X133744360Y-108122419D02*
X133530074Y-108122419D01*
X134901503Y-108122419D02*
X134387217Y-108122419D01*
X134644360Y-108122419D02*
X134644360Y-107122419D01*
X134644360Y-107122419D02*
X134558646Y-107265276D01*
X134558646Y-107265276D02*
X134472931Y-107360514D01*
X134472931Y-107360514D02*
X134387217Y-107408133D01*
X135201503Y-107122419D02*
X135758646Y-107122419D01*
X135758646Y-107122419D02*
X135458646Y-107503371D01*
X135458646Y-107503371D02*
X135587217Y-107503371D01*
X135587217Y-107503371D02*
X135672932Y-107550990D01*
X135672932Y-107550990D02*
X135715789Y-107598609D01*
X135715789Y-107598609D02*
X135758646Y-107693847D01*
X135758646Y-107693847D02*
X135758646Y-107931942D01*
X135758646Y-107931942D02*
X135715789Y-108027180D01*
X135715789Y-108027180D02*
X135672932Y-108074800D01*
X135672932Y-108074800D02*
X135587217Y-108122419D01*
X135587217Y-108122419D02*
X135330074Y-108122419D01*
X135330074Y-108122419D02*
X135244360Y-108074800D01*
X135244360Y-108074800D02*
X135201503Y-108027180D01*
X136787217Y-107074800D02*
X136015789Y-108360514D01*
X137044360Y-108074800D02*
X137172932Y-108122419D01*
X137172932Y-108122419D02*
X137387217Y-108122419D01*
X137387217Y-108122419D02*
X137472932Y-108074800D01*
X137472932Y-108074800D02*
X137515789Y-108027180D01*
X137515789Y-108027180D02*
X137558646Y-107931942D01*
X137558646Y-107931942D02*
X137558646Y-107836704D01*
X137558646Y-107836704D02*
X137515789Y-107741466D01*
X137515789Y-107741466D02*
X137472932Y-107693847D01*
X137472932Y-107693847D02*
X137387217Y-107646228D01*
X137387217Y-107646228D02*
X137215789Y-107598609D01*
X137215789Y-107598609D02*
X137130074Y-107550990D01*
X137130074Y-107550990D02*
X137087217Y-107503371D01*
X137087217Y-107503371D02*
X137044360Y-107408133D01*
X137044360Y-107408133D02*
X137044360Y-107312895D01*
X137044360Y-107312895D02*
X137087217Y-107217657D01*
X137087217Y-107217657D02*
X137130074Y-107170038D01*
X137130074Y-107170038D02*
X137215789Y-107122419D01*
X137215789Y-107122419D02*
X137430074Y-107122419D01*
X137430074Y-107122419D02*
X137558646Y-107170038D01*
X138458646Y-108027180D02*
X138415789Y-108074800D01*
X138415789Y-108074800D02*
X138287217Y-108122419D01*
X138287217Y-108122419D02*
X138201503Y-108122419D01*
X138201503Y-108122419D02*
X138072932Y-108074800D01*
X138072932Y-108074800D02*
X137987217Y-107979561D01*
X137987217Y-107979561D02*
X137944360Y-107884323D01*
X137944360Y-107884323D02*
X137901503Y-107693847D01*
X137901503Y-107693847D02*
X137901503Y-107550990D01*
X137901503Y-107550990D02*
X137944360Y-107360514D01*
X137944360Y-107360514D02*
X137987217Y-107265276D01*
X137987217Y-107265276D02*
X138072932Y-107170038D01*
X138072932Y-107170038D02*
X138201503Y-107122419D01*
X138201503Y-107122419D02*
X138287217Y-107122419D01*
X138287217Y-107122419D02*
X138415789Y-107170038D01*
X138415789Y-107170038D02*
X138458646Y-107217657D01*
X138844360Y-108122419D02*
X138844360Y-107122419D01*
X139358646Y-108122419D02*
X138972932Y-107550990D01*
X139358646Y-107122419D02*
X138844360Y-107693847D01*
X133803884Y-88122419D02*
X133803884Y-87122419D01*
X133803884Y-87122419D02*
X134041979Y-87122419D01*
X134041979Y-87122419D02*
X134184836Y-87170038D01*
X134184836Y-87170038D02*
X134280074Y-87265276D01*
X134280074Y-87265276D02*
X134327693Y-87360514D01*
X134327693Y-87360514D02*
X134375312Y-87550990D01*
X134375312Y-87550990D02*
X134375312Y-87693847D01*
X134375312Y-87693847D02*
X134327693Y-87884323D01*
X134327693Y-87884323D02*
X134280074Y-87979561D01*
X134280074Y-87979561D02*
X134184836Y-88074800D01*
X134184836Y-88074800D02*
X134041979Y-88122419D01*
X134041979Y-88122419D02*
X133803884Y-88122419D01*
X135280074Y-87122419D02*
X134803884Y-87122419D01*
X134803884Y-87122419D02*
X134756265Y-87598609D01*
X134756265Y-87598609D02*
X134803884Y-87550990D01*
X134803884Y-87550990D02*
X134899122Y-87503371D01*
X134899122Y-87503371D02*
X135137217Y-87503371D01*
X135137217Y-87503371D02*
X135232455Y-87550990D01*
X135232455Y-87550990D02*
X135280074Y-87598609D01*
X135280074Y-87598609D02*
X135327693Y-87693847D01*
X135327693Y-87693847D02*
X135327693Y-87931942D01*
X135327693Y-87931942D02*
X135280074Y-88027180D01*
X135280074Y-88027180D02*
X135232455Y-88074800D01*
X135232455Y-88074800D02*
X135137217Y-88122419D01*
X135137217Y-88122419D02*
X134899122Y-88122419D01*
X134899122Y-88122419D02*
X134803884Y-88074800D01*
X134803884Y-88074800D02*
X134756265Y-88027180D01*
X133803884Y-98372419D02*
X133803884Y-97372419D01*
X133803884Y-97372419D02*
X134041979Y-97372419D01*
X134041979Y-97372419D02*
X134184836Y-97420038D01*
X134184836Y-97420038D02*
X134280074Y-97515276D01*
X134280074Y-97515276D02*
X134327693Y-97610514D01*
X134327693Y-97610514D02*
X134375312Y-97800990D01*
X134375312Y-97800990D02*
X134375312Y-97943847D01*
X134375312Y-97943847D02*
X134327693Y-98134323D01*
X134327693Y-98134323D02*
X134280074Y-98229561D01*
X134280074Y-98229561D02*
X134184836Y-98324800D01*
X134184836Y-98324800D02*
X134041979Y-98372419D01*
X134041979Y-98372419D02*
X133803884Y-98372419D01*
X134851503Y-98372419D02*
X135041979Y-98372419D01*
X135041979Y-98372419D02*
X135137217Y-98324800D01*
X135137217Y-98324800D02*
X135184836Y-98277180D01*
X135184836Y-98277180D02*
X135280074Y-98134323D01*
X135280074Y-98134323D02*
X135327693Y-97943847D01*
X135327693Y-97943847D02*
X135327693Y-97562895D01*
X135327693Y-97562895D02*
X135280074Y-97467657D01*
X135280074Y-97467657D02*
X135232455Y-97420038D01*
X135232455Y-97420038D02*
X135137217Y-97372419D01*
X135137217Y-97372419D02*
X134946741Y-97372419D01*
X134946741Y-97372419D02*
X134851503Y-97420038D01*
X134851503Y-97420038D02*
X134803884Y-97467657D01*
X134803884Y-97467657D02*
X134756265Y-97562895D01*
X134756265Y-97562895D02*
X134756265Y-97800990D01*
X134756265Y-97800990D02*
X134803884Y-97896228D01*
X134803884Y-97896228D02*
X134851503Y-97943847D01*
X134851503Y-97943847D02*
X134946741Y-97991466D01*
X134946741Y-97991466D02*
X135137217Y-97991466D01*
X135137217Y-97991466D02*
X135232455Y-97943847D01*
X135232455Y-97943847D02*
X135280074Y-97896228D01*
X135280074Y-97896228D02*
X135327693Y-97800990D01*
X133803884Y-90622419D02*
X133803884Y-89622419D01*
X133803884Y-89622419D02*
X134041979Y-89622419D01*
X134041979Y-89622419D02*
X134184836Y-89670038D01*
X134184836Y-89670038D02*
X134280074Y-89765276D01*
X134280074Y-89765276D02*
X134327693Y-89860514D01*
X134327693Y-89860514D02*
X134375312Y-90050990D01*
X134375312Y-90050990D02*
X134375312Y-90193847D01*
X134375312Y-90193847D02*
X134327693Y-90384323D01*
X134327693Y-90384323D02*
X134280074Y-90479561D01*
X134280074Y-90479561D02*
X134184836Y-90574800D01*
X134184836Y-90574800D02*
X134041979Y-90622419D01*
X134041979Y-90622419D02*
X133803884Y-90622419D01*
X135232455Y-89622419D02*
X135041979Y-89622419D01*
X135041979Y-89622419D02*
X134946741Y-89670038D01*
X134946741Y-89670038D02*
X134899122Y-89717657D01*
X134899122Y-89717657D02*
X134803884Y-89860514D01*
X134803884Y-89860514D02*
X134756265Y-90050990D01*
X134756265Y-90050990D02*
X134756265Y-90431942D01*
X134756265Y-90431942D02*
X134803884Y-90527180D01*
X134803884Y-90527180D02*
X134851503Y-90574800D01*
X134851503Y-90574800D02*
X134946741Y-90622419D01*
X134946741Y-90622419D02*
X135137217Y-90622419D01*
X135137217Y-90622419D02*
X135232455Y-90574800D01*
X135232455Y-90574800D02*
X135280074Y-90527180D01*
X135280074Y-90527180D02*
X135327693Y-90431942D01*
X135327693Y-90431942D02*
X135327693Y-90193847D01*
X135327693Y-90193847D02*
X135280074Y-90098609D01*
X135280074Y-90098609D02*
X135232455Y-90050990D01*
X135232455Y-90050990D02*
X135137217Y-90003371D01*
X135137217Y-90003371D02*
X134946741Y-90003371D01*
X134946741Y-90003371D02*
X134851503Y-90050990D01*
X134851503Y-90050990D02*
X134803884Y-90098609D01*
X134803884Y-90098609D02*
X134756265Y-90193847D01*
X163006265Y-101311704D02*
X163482455Y-101311704D01*
X162911027Y-101597419D02*
X163244360Y-100597419D01*
X163244360Y-100597419D02*
X163577693Y-101597419D01*
X163863408Y-100692657D02*
X163911027Y-100645038D01*
X163911027Y-100645038D02*
X164006265Y-100597419D01*
X164006265Y-100597419D02*
X164244360Y-100597419D01*
X164244360Y-100597419D02*
X164339598Y-100645038D01*
X164339598Y-100645038D02*
X164387217Y-100692657D01*
X164387217Y-100692657D02*
X164434836Y-100787895D01*
X164434836Y-100787895D02*
X164434836Y-100883133D01*
X164434836Y-100883133D02*
X164387217Y-101025990D01*
X164387217Y-101025990D02*
X163815789Y-101597419D01*
X163815789Y-101597419D02*
X164434836Y-101597419D01*
X162661027Y-75372419D02*
X162994360Y-76372419D01*
X162994360Y-76372419D02*
X163327693Y-75372419D01*
X163661027Y-76372419D02*
X163661027Y-75705752D01*
X163661027Y-75372419D02*
X163613408Y-75420038D01*
X163613408Y-75420038D02*
X163661027Y-75467657D01*
X163661027Y-75467657D02*
X163708646Y-75420038D01*
X163708646Y-75420038D02*
X163661027Y-75372419D01*
X163661027Y-75372419D02*
X163661027Y-75467657D01*
X164137217Y-75705752D02*
X164137217Y-76372419D01*
X164137217Y-75800990D02*
X164184836Y-75753371D01*
X164184836Y-75753371D02*
X164280074Y-75705752D01*
X164280074Y-75705752D02*
X164422931Y-75705752D01*
X164422931Y-75705752D02*
X164518169Y-75753371D01*
X164518169Y-75753371D02*
X164565788Y-75848609D01*
X164565788Y-75848609D02*
X164565788Y-76372419D01*
X159506265Y-96086704D02*
X159982455Y-96086704D01*
X159411027Y-96372419D02*
X159744360Y-95372419D01*
X159744360Y-95372419D02*
X160077693Y-96372419D01*
X160839598Y-95705752D02*
X160839598Y-96372419D01*
X160601503Y-95324800D02*
X160363408Y-96039085D01*
X160363408Y-96039085D02*
X160982455Y-96039085D01*
X162077693Y-95324800D02*
X161220551Y-96610514D01*
X162363408Y-96324800D02*
X162506265Y-96372419D01*
X162506265Y-96372419D02*
X162744360Y-96372419D01*
X162744360Y-96372419D02*
X162839598Y-96324800D01*
X162839598Y-96324800D02*
X162887217Y-96277180D01*
X162887217Y-96277180D02*
X162934836Y-96181942D01*
X162934836Y-96181942D02*
X162934836Y-96086704D01*
X162934836Y-96086704D02*
X162887217Y-95991466D01*
X162887217Y-95991466D02*
X162839598Y-95943847D01*
X162839598Y-95943847D02*
X162744360Y-95896228D01*
X162744360Y-95896228D02*
X162553884Y-95848609D01*
X162553884Y-95848609D02*
X162458646Y-95800990D01*
X162458646Y-95800990D02*
X162411027Y-95753371D01*
X162411027Y-95753371D02*
X162363408Y-95658133D01*
X162363408Y-95658133D02*
X162363408Y-95562895D01*
X162363408Y-95562895D02*
X162411027Y-95467657D01*
X162411027Y-95467657D02*
X162458646Y-95420038D01*
X162458646Y-95420038D02*
X162553884Y-95372419D01*
X162553884Y-95372419D02*
X162791979Y-95372419D01*
X162791979Y-95372419D02*
X162934836Y-95420038D01*
X163363408Y-96372419D02*
X163363408Y-95372419D01*
X163363408Y-95372419D02*
X163601503Y-95372419D01*
X163601503Y-95372419D02*
X163744360Y-95420038D01*
X163744360Y-95420038D02*
X163839598Y-95515276D01*
X163839598Y-95515276D02*
X163887217Y-95610514D01*
X163887217Y-95610514D02*
X163934836Y-95800990D01*
X163934836Y-95800990D02*
X163934836Y-95943847D01*
X163934836Y-95943847D02*
X163887217Y-96134323D01*
X163887217Y-96134323D02*
X163839598Y-96229561D01*
X163839598Y-96229561D02*
X163744360Y-96324800D01*
X163744360Y-96324800D02*
X163601503Y-96372419D01*
X163601503Y-96372419D02*
X163363408Y-96372419D01*
X164315789Y-96086704D02*
X164791979Y-96086704D01*
X164220551Y-96372419D02*
X164553884Y-95372419D01*
X164553884Y-95372419D02*
X164887217Y-96372419D01*
X162756265Y-98586704D02*
X163232455Y-98586704D01*
X162661027Y-98872419D02*
X162994360Y-97872419D01*
X162994360Y-97872419D02*
X163327693Y-98872419D01*
X163565789Y-97872419D02*
X164184836Y-97872419D01*
X164184836Y-97872419D02*
X163851503Y-98253371D01*
X163851503Y-98253371D02*
X163994360Y-98253371D01*
X163994360Y-98253371D02*
X164089598Y-98300990D01*
X164089598Y-98300990D02*
X164137217Y-98348609D01*
X164137217Y-98348609D02*
X164184836Y-98443847D01*
X164184836Y-98443847D02*
X164184836Y-98681942D01*
X164184836Y-98681942D02*
X164137217Y-98777180D01*
X164137217Y-98777180D02*
X164089598Y-98824800D01*
X164089598Y-98824800D02*
X163994360Y-98872419D01*
X163994360Y-98872419D02*
X163708646Y-98872419D01*
X163708646Y-98872419D02*
X163613408Y-98824800D01*
X163613408Y-98824800D02*
X163565789Y-98777180D01*
X162553884Y-89122419D02*
X162553884Y-88122419D01*
X162553884Y-88122419D02*
X163125312Y-89122419D01*
X163125312Y-89122419D02*
X163125312Y-88122419D01*
X164172931Y-89027180D02*
X164125312Y-89074800D01*
X164125312Y-89074800D02*
X163982455Y-89122419D01*
X163982455Y-89122419D02*
X163887217Y-89122419D01*
X163887217Y-89122419D02*
X163744360Y-89074800D01*
X163744360Y-89074800D02*
X163649122Y-88979561D01*
X163649122Y-88979561D02*
X163601503Y-88884323D01*
X163601503Y-88884323D02*
X163553884Y-88693847D01*
X163553884Y-88693847D02*
X163553884Y-88550990D01*
X163553884Y-88550990D02*
X163601503Y-88360514D01*
X163601503Y-88360514D02*
X163649122Y-88265276D01*
X163649122Y-88265276D02*
X163744360Y-88170038D01*
X163744360Y-88170038D02*
X163887217Y-88122419D01*
X163887217Y-88122419D02*
X163982455Y-88122419D01*
X163982455Y-88122419D02*
X164125312Y-88170038D01*
X164125312Y-88170038D02*
X164172931Y-88217657D01*
X163256265Y-103836704D02*
X163732455Y-103836704D01*
X163161027Y-104122419D02*
X163494360Y-103122419D01*
X163494360Y-103122419D02*
X163827693Y-104122419D01*
X164684836Y-104122419D02*
X164113408Y-104122419D01*
X164399122Y-104122419D02*
X164399122Y-103122419D01*
X164399122Y-103122419D02*
X164303884Y-103265276D01*
X164303884Y-103265276D02*
X164208646Y-103360514D01*
X164208646Y-103360514D02*
X164113408Y-103408133D01*
X133803884Y-100622419D02*
X133803884Y-99622419D01*
X133803884Y-99622419D02*
X134041979Y-99622419D01*
X134041979Y-99622419D02*
X134184836Y-99670038D01*
X134184836Y-99670038D02*
X134280074Y-99765276D01*
X134280074Y-99765276D02*
X134327693Y-99860514D01*
X134327693Y-99860514D02*
X134375312Y-100050990D01*
X134375312Y-100050990D02*
X134375312Y-100193847D01*
X134375312Y-100193847D02*
X134327693Y-100384323D01*
X134327693Y-100384323D02*
X134280074Y-100479561D01*
X134280074Y-100479561D02*
X134184836Y-100574800D01*
X134184836Y-100574800D02*
X134041979Y-100622419D01*
X134041979Y-100622419D02*
X133803884Y-100622419D01*
X135327693Y-100622419D02*
X134756265Y-100622419D01*
X135041979Y-100622419D02*
X135041979Y-99622419D01*
X135041979Y-99622419D02*
X134946741Y-99765276D01*
X134946741Y-99765276D02*
X134851503Y-99860514D01*
X134851503Y-99860514D02*
X134756265Y-99908133D01*
X135946741Y-99622419D02*
X136041979Y-99622419D01*
X136041979Y-99622419D02*
X136137217Y-99670038D01*
X136137217Y-99670038D02*
X136184836Y-99717657D01*
X136184836Y-99717657D02*
X136232455Y-99812895D01*
X136232455Y-99812895D02*
X136280074Y-100003371D01*
X136280074Y-100003371D02*
X136280074Y-100241466D01*
X136280074Y-100241466D02*
X136232455Y-100431942D01*
X136232455Y-100431942D02*
X136184836Y-100527180D01*
X136184836Y-100527180D02*
X136137217Y-100574800D01*
X136137217Y-100574800D02*
X136041979Y-100622419D01*
X136041979Y-100622419D02*
X135946741Y-100622419D01*
X135946741Y-100622419D02*
X135851503Y-100574800D01*
X135851503Y-100574800D02*
X135803884Y-100527180D01*
X135803884Y-100527180D02*
X135756265Y-100431942D01*
X135756265Y-100431942D02*
X135708646Y-100241466D01*
X135708646Y-100241466D02*
X135708646Y-100003371D01*
X135708646Y-100003371D02*
X135756265Y-99812895D01*
X135756265Y-99812895D02*
X135803884Y-99717657D01*
X135803884Y-99717657D02*
X135851503Y-99670038D01*
X135851503Y-99670038D02*
X135946741Y-99622419D01*
X162827693Y-83170038D02*
X162732455Y-83122419D01*
X162732455Y-83122419D02*
X162589598Y-83122419D01*
X162589598Y-83122419D02*
X162446741Y-83170038D01*
X162446741Y-83170038D02*
X162351503Y-83265276D01*
X162351503Y-83265276D02*
X162303884Y-83360514D01*
X162303884Y-83360514D02*
X162256265Y-83550990D01*
X162256265Y-83550990D02*
X162256265Y-83693847D01*
X162256265Y-83693847D02*
X162303884Y-83884323D01*
X162303884Y-83884323D02*
X162351503Y-83979561D01*
X162351503Y-83979561D02*
X162446741Y-84074800D01*
X162446741Y-84074800D02*
X162589598Y-84122419D01*
X162589598Y-84122419D02*
X162684836Y-84122419D01*
X162684836Y-84122419D02*
X162827693Y-84074800D01*
X162827693Y-84074800D02*
X162875312Y-84027180D01*
X162875312Y-84027180D02*
X162875312Y-83693847D01*
X162875312Y-83693847D02*
X162684836Y-83693847D01*
X163303884Y-84122419D02*
X163303884Y-83122419D01*
X163303884Y-83122419D02*
X163875312Y-84122419D01*
X163875312Y-84122419D02*
X163875312Y-83122419D01*
X164351503Y-84122419D02*
X164351503Y-83122419D01*
X164351503Y-83122419D02*
X164589598Y-83122419D01*
X164589598Y-83122419D02*
X164732455Y-83170038D01*
X164732455Y-83170038D02*
X164827693Y-83265276D01*
X164827693Y-83265276D02*
X164875312Y-83360514D01*
X164875312Y-83360514D02*
X164922931Y-83550990D01*
X164922931Y-83550990D02*
X164922931Y-83693847D01*
X164922931Y-83693847D02*
X164875312Y-83884323D01*
X164875312Y-83884323D02*
X164827693Y-83979561D01*
X164827693Y-83979561D02*
X164732455Y-84074800D01*
X164732455Y-84074800D02*
X164589598Y-84122419D01*
X164589598Y-84122419D02*
X164351503Y-84122419D01*
X133803884Y-95872419D02*
X133803884Y-94872419D01*
X133803884Y-94872419D02*
X134041979Y-94872419D01*
X134041979Y-94872419D02*
X134184836Y-94920038D01*
X134184836Y-94920038D02*
X134280074Y-95015276D01*
X134280074Y-95015276D02*
X134327693Y-95110514D01*
X134327693Y-95110514D02*
X134375312Y-95300990D01*
X134375312Y-95300990D02*
X134375312Y-95443847D01*
X134375312Y-95443847D02*
X134327693Y-95634323D01*
X134327693Y-95634323D02*
X134280074Y-95729561D01*
X134280074Y-95729561D02*
X134184836Y-95824800D01*
X134184836Y-95824800D02*
X134041979Y-95872419D01*
X134041979Y-95872419D02*
X133803884Y-95872419D01*
X134946741Y-95300990D02*
X134851503Y-95253371D01*
X134851503Y-95253371D02*
X134803884Y-95205752D01*
X134803884Y-95205752D02*
X134756265Y-95110514D01*
X134756265Y-95110514D02*
X134756265Y-95062895D01*
X134756265Y-95062895D02*
X134803884Y-94967657D01*
X134803884Y-94967657D02*
X134851503Y-94920038D01*
X134851503Y-94920038D02*
X134946741Y-94872419D01*
X134946741Y-94872419D02*
X135137217Y-94872419D01*
X135137217Y-94872419D02*
X135232455Y-94920038D01*
X135232455Y-94920038D02*
X135280074Y-94967657D01*
X135280074Y-94967657D02*
X135327693Y-95062895D01*
X135327693Y-95062895D02*
X135327693Y-95110514D01*
X135327693Y-95110514D02*
X135280074Y-95205752D01*
X135280074Y-95205752D02*
X135232455Y-95253371D01*
X135232455Y-95253371D02*
X135137217Y-95300990D01*
X135137217Y-95300990D02*
X134946741Y-95300990D01*
X134946741Y-95300990D02*
X134851503Y-95348609D01*
X134851503Y-95348609D02*
X134803884Y-95396228D01*
X134803884Y-95396228D02*
X134756265Y-95491466D01*
X134756265Y-95491466D02*
X134756265Y-95681942D01*
X134756265Y-95681942D02*
X134803884Y-95777180D01*
X134803884Y-95777180D02*
X134851503Y-95824800D01*
X134851503Y-95824800D02*
X134946741Y-95872419D01*
X134946741Y-95872419D02*
X135137217Y-95872419D01*
X135137217Y-95872419D02*
X135232455Y-95824800D01*
X135232455Y-95824800D02*
X135280074Y-95777180D01*
X135280074Y-95777180D02*
X135327693Y-95681942D01*
X135327693Y-95681942D02*
X135327693Y-95491466D01*
X135327693Y-95491466D02*
X135280074Y-95396228D01*
X135280074Y-95396228D02*
X135232455Y-95348609D01*
X135232455Y-95348609D02*
X135137217Y-95300990D01*
X159506265Y-93836704D02*
X159982455Y-93836704D01*
X159411027Y-94122419D02*
X159744360Y-93122419D01*
X159744360Y-93122419D02*
X160077693Y-94122419D01*
X160887217Y-93122419D02*
X160411027Y-93122419D01*
X160411027Y-93122419D02*
X160363408Y-93598609D01*
X160363408Y-93598609D02*
X160411027Y-93550990D01*
X160411027Y-93550990D02*
X160506265Y-93503371D01*
X160506265Y-93503371D02*
X160744360Y-93503371D01*
X160744360Y-93503371D02*
X160839598Y-93550990D01*
X160839598Y-93550990D02*
X160887217Y-93598609D01*
X160887217Y-93598609D02*
X160934836Y-93693847D01*
X160934836Y-93693847D02*
X160934836Y-93931942D01*
X160934836Y-93931942D02*
X160887217Y-94027180D01*
X160887217Y-94027180D02*
X160839598Y-94074800D01*
X160839598Y-94074800D02*
X160744360Y-94122419D01*
X160744360Y-94122419D02*
X160506265Y-94122419D01*
X160506265Y-94122419D02*
X160411027Y-94074800D01*
X160411027Y-94074800D02*
X160363408Y-94027180D01*
X162077693Y-93074800D02*
X161220551Y-94360514D01*
X162363408Y-94074800D02*
X162506265Y-94122419D01*
X162506265Y-94122419D02*
X162744360Y-94122419D01*
X162744360Y-94122419D02*
X162839598Y-94074800D01*
X162839598Y-94074800D02*
X162887217Y-94027180D01*
X162887217Y-94027180D02*
X162934836Y-93931942D01*
X162934836Y-93931942D02*
X162934836Y-93836704D01*
X162934836Y-93836704D02*
X162887217Y-93741466D01*
X162887217Y-93741466D02*
X162839598Y-93693847D01*
X162839598Y-93693847D02*
X162744360Y-93646228D01*
X162744360Y-93646228D02*
X162553884Y-93598609D01*
X162553884Y-93598609D02*
X162458646Y-93550990D01*
X162458646Y-93550990D02*
X162411027Y-93503371D01*
X162411027Y-93503371D02*
X162363408Y-93408133D01*
X162363408Y-93408133D02*
X162363408Y-93312895D01*
X162363408Y-93312895D02*
X162411027Y-93217657D01*
X162411027Y-93217657D02*
X162458646Y-93170038D01*
X162458646Y-93170038D02*
X162553884Y-93122419D01*
X162553884Y-93122419D02*
X162791979Y-93122419D01*
X162791979Y-93122419D02*
X162934836Y-93170038D01*
X163934836Y-94027180D02*
X163887217Y-94074800D01*
X163887217Y-94074800D02*
X163744360Y-94122419D01*
X163744360Y-94122419D02*
X163649122Y-94122419D01*
X163649122Y-94122419D02*
X163506265Y-94074800D01*
X163506265Y-94074800D02*
X163411027Y-93979561D01*
X163411027Y-93979561D02*
X163363408Y-93884323D01*
X163363408Y-93884323D02*
X163315789Y-93693847D01*
X163315789Y-93693847D02*
X163315789Y-93550990D01*
X163315789Y-93550990D02*
X163363408Y-93360514D01*
X163363408Y-93360514D02*
X163411027Y-93265276D01*
X163411027Y-93265276D02*
X163506265Y-93170038D01*
X163506265Y-93170038D02*
X163649122Y-93122419D01*
X163649122Y-93122419D02*
X163744360Y-93122419D01*
X163744360Y-93122419D02*
X163887217Y-93170038D01*
X163887217Y-93170038D02*
X163934836Y-93217657D01*
X164839598Y-94122419D02*
X164363408Y-94122419D01*
X164363408Y-94122419D02*
X164363408Y-93122419D01*
D12*
X141833333Y-88609580D02*
X141785714Y-88657200D01*
X141785714Y-88657200D02*
X141642857Y-88704819D01*
X141642857Y-88704819D02*
X141547619Y-88704819D01*
X141547619Y-88704819D02*
X141404762Y-88657200D01*
X141404762Y-88657200D02*
X141309524Y-88561961D01*
X141309524Y-88561961D02*
X141261905Y-88466723D01*
X141261905Y-88466723D02*
X141214286Y-88276247D01*
X141214286Y-88276247D02*
X141214286Y-88133390D01*
X141214286Y-88133390D02*
X141261905Y-87942914D01*
X141261905Y-87942914D02*
X141309524Y-87847676D01*
X141309524Y-87847676D02*
X141404762Y-87752438D01*
X141404762Y-87752438D02*
X141547619Y-87704819D01*
X141547619Y-87704819D02*
X141642857Y-87704819D01*
X141642857Y-87704819D02*
X141785714Y-87752438D01*
X141785714Y-87752438D02*
X141833333Y-87800057D01*
X142214286Y-87800057D02*
X142261905Y-87752438D01*
X142261905Y-87752438D02*
X142357143Y-87704819D01*
X142357143Y-87704819D02*
X142595238Y-87704819D01*
X142595238Y-87704819D02*
X142690476Y-87752438D01*
X142690476Y-87752438D02*
X142738095Y-87800057D01*
X142738095Y-87800057D02*
X142785714Y-87895295D01*
X142785714Y-87895295D02*
X142785714Y-87990533D01*
X142785714Y-87990533D02*
X142738095Y-88133390D01*
X142738095Y-88133390D02*
X142166667Y-88704819D01*
X142166667Y-88704819D02*
X142785714Y-88704819D01*
X142333333Y-69554819D02*
X142000000Y-69078628D01*
X141761905Y-69554819D02*
X141761905Y-68554819D01*
X141761905Y-68554819D02*
X142142857Y-68554819D01*
X142142857Y-68554819D02*
X142238095Y-68602438D01*
X142238095Y-68602438D02*
X142285714Y-68650057D01*
X142285714Y-68650057D02*
X142333333Y-68745295D01*
X142333333Y-68745295D02*
X142333333Y-68888152D01*
X142333333Y-68888152D02*
X142285714Y-68983390D01*
X142285714Y-68983390D02*
X142238095Y-69031009D01*
X142238095Y-69031009D02*
X142142857Y-69078628D01*
X142142857Y-69078628D02*
X141761905Y-69078628D01*
X143285714Y-69554819D02*
X142714286Y-69554819D01*
X143000000Y-69554819D02*
X143000000Y-68554819D01*
X143000000Y-68554819D02*
X142904762Y-68697676D01*
X142904762Y-68697676D02*
X142809524Y-68792914D01*
X142809524Y-68792914D02*
X142714286Y-68840533D01*
X156359580Y-105366666D02*
X156407200Y-105414285D01*
X156407200Y-105414285D02*
X156454819Y-105557142D01*
X156454819Y-105557142D02*
X156454819Y-105652380D01*
X156454819Y-105652380D02*
X156407200Y-105795237D01*
X156407200Y-105795237D02*
X156311961Y-105890475D01*
X156311961Y-105890475D02*
X156216723Y-105938094D01*
X156216723Y-105938094D02*
X156026247Y-105985713D01*
X156026247Y-105985713D02*
X155883390Y-105985713D01*
X155883390Y-105985713D02*
X155692914Y-105938094D01*
X155692914Y-105938094D02*
X155597676Y-105890475D01*
X155597676Y-105890475D02*
X155502438Y-105795237D01*
X155502438Y-105795237D02*
X155454819Y-105652380D01*
X155454819Y-105652380D02*
X155454819Y-105557142D01*
X155454819Y-105557142D02*
X155502438Y-105414285D01*
X155502438Y-105414285D02*
X155550057Y-105366666D01*
X155454819Y-105033332D02*
X155454819Y-104366666D01*
X155454819Y-104366666D02*
X156454819Y-104795237D01*
X142383333Y-77609580D02*
X142335714Y-77657200D01*
X142335714Y-77657200D02*
X142192857Y-77704819D01*
X142192857Y-77704819D02*
X142097619Y-77704819D01*
X142097619Y-77704819D02*
X141954762Y-77657200D01*
X141954762Y-77657200D02*
X141859524Y-77561961D01*
X141859524Y-77561961D02*
X141811905Y-77466723D01*
X141811905Y-77466723D02*
X141764286Y-77276247D01*
X141764286Y-77276247D02*
X141764286Y-77133390D01*
X141764286Y-77133390D02*
X141811905Y-76942914D01*
X141811905Y-76942914D02*
X141859524Y-76847676D01*
X141859524Y-76847676D02*
X141954762Y-76752438D01*
X141954762Y-76752438D02*
X142097619Y-76704819D01*
X142097619Y-76704819D02*
X142192857Y-76704819D01*
X142192857Y-76704819D02*
X142335714Y-76752438D01*
X142335714Y-76752438D02*
X142383333Y-76800057D01*
X143240476Y-77038152D02*
X143240476Y-77704819D01*
X143002381Y-76657200D02*
X142764286Y-77371485D01*
X142764286Y-77371485D02*
X143383333Y-77371485D01*
X141845833Y-95612295D02*
X141512500Y-95231342D01*
X141274405Y-95612295D02*
X141274405Y-94812295D01*
X141274405Y-94812295D02*
X141655357Y-94812295D01*
X141655357Y-94812295D02*
X141750595Y-94850390D01*
X141750595Y-94850390D02*
X141798214Y-94888485D01*
X141798214Y-94888485D02*
X141845833Y-94964676D01*
X141845833Y-94964676D02*
X141845833Y-95078961D01*
X141845833Y-95078961D02*
X141798214Y-95155152D01*
X141798214Y-95155152D02*
X141750595Y-95193247D01*
X141750595Y-95193247D02*
X141655357Y-95231342D01*
X141655357Y-95231342D02*
X141274405Y-95231342D01*
X142226786Y-94888485D02*
X142274405Y-94850390D01*
X142274405Y-94850390D02*
X142369643Y-94812295D01*
X142369643Y-94812295D02*
X142607738Y-94812295D01*
X142607738Y-94812295D02*
X142702976Y-94850390D01*
X142702976Y-94850390D02*
X142750595Y-94888485D01*
X142750595Y-94888485D02*
X142798214Y-94964676D01*
X142798214Y-94964676D02*
X142798214Y-95040866D01*
X142798214Y-95040866D02*
X142750595Y-95155152D01*
X142750595Y-95155152D02*
X142179167Y-95612295D01*
X142179167Y-95612295D02*
X142798214Y-95612295D01*
X156109580Y-96166666D02*
X156157200Y-96214285D01*
X156157200Y-96214285D02*
X156204819Y-96357142D01*
X156204819Y-96357142D02*
X156204819Y-96452380D01*
X156204819Y-96452380D02*
X156157200Y-96595237D01*
X156157200Y-96595237D02*
X156061961Y-96690475D01*
X156061961Y-96690475D02*
X155966723Y-96738094D01*
X155966723Y-96738094D02*
X155776247Y-96785713D01*
X155776247Y-96785713D02*
X155633390Y-96785713D01*
X155633390Y-96785713D02*
X155442914Y-96738094D01*
X155442914Y-96738094D02*
X155347676Y-96690475D01*
X155347676Y-96690475D02*
X155252438Y-96595237D01*
X155252438Y-96595237D02*
X155204819Y-96452380D01*
X155204819Y-96452380D02*
X155204819Y-96357142D01*
X155204819Y-96357142D02*
X155252438Y-96214285D01*
X155252438Y-96214285D02*
X155300057Y-96166666D01*
X155633390Y-95595237D02*
X155585771Y-95690475D01*
X155585771Y-95690475D02*
X155538152Y-95738094D01*
X155538152Y-95738094D02*
X155442914Y-95785713D01*
X155442914Y-95785713D02*
X155395295Y-95785713D01*
X155395295Y-95785713D02*
X155300057Y-95738094D01*
X155300057Y-95738094D02*
X155252438Y-95690475D01*
X155252438Y-95690475D02*
X155204819Y-95595237D01*
X155204819Y-95595237D02*
X155204819Y-95404761D01*
X155204819Y-95404761D02*
X155252438Y-95309523D01*
X155252438Y-95309523D02*
X155300057Y-95261904D01*
X155300057Y-95261904D02*
X155395295Y-95214285D01*
X155395295Y-95214285D02*
X155442914Y-95214285D01*
X155442914Y-95214285D02*
X155538152Y-95261904D01*
X155538152Y-95261904D02*
X155585771Y-95309523D01*
X155585771Y-95309523D02*
X155633390Y-95404761D01*
X155633390Y-95404761D02*
X155633390Y-95595237D01*
X155633390Y-95595237D02*
X155681009Y-95690475D01*
X155681009Y-95690475D02*
X155728628Y-95738094D01*
X155728628Y-95738094D02*
X155823866Y-95785713D01*
X155823866Y-95785713D02*
X156014342Y-95785713D01*
X156014342Y-95785713D02*
X156109580Y-95738094D01*
X156109580Y-95738094D02*
X156157200Y-95690475D01*
X156157200Y-95690475D02*
X156204819Y-95595237D01*
X156204819Y-95595237D02*
X156204819Y-95404761D01*
X156204819Y-95404761D02*
X156157200Y-95309523D01*
X156157200Y-95309523D02*
X156109580Y-95261904D01*
X156109580Y-95261904D02*
X156014342Y-95214285D01*
X156014342Y-95214285D02*
X155823866Y-95214285D01*
X155823866Y-95214285D02*
X155728628Y-95261904D01*
X155728628Y-95261904D02*
X155681009Y-95309523D01*
X155681009Y-95309523D02*
X155633390Y-95404761D01*
X142083333Y-91859580D02*
X142035714Y-91907200D01*
X142035714Y-91907200D02*
X141892857Y-91954819D01*
X141892857Y-91954819D02*
X141797619Y-91954819D01*
X141797619Y-91954819D02*
X141654762Y-91907200D01*
X141654762Y-91907200D02*
X141559524Y-91811961D01*
X141559524Y-91811961D02*
X141511905Y-91716723D01*
X141511905Y-91716723D02*
X141464286Y-91526247D01*
X141464286Y-91526247D02*
X141464286Y-91383390D01*
X141464286Y-91383390D02*
X141511905Y-91192914D01*
X141511905Y-91192914D02*
X141559524Y-91097676D01*
X141559524Y-91097676D02*
X141654762Y-91002438D01*
X141654762Y-91002438D02*
X141797619Y-90954819D01*
X141797619Y-90954819D02*
X141892857Y-90954819D01*
X141892857Y-90954819D02*
X142035714Y-91002438D01*
X142035714Y-91002438D02*
X142083333Y-91050057D01*
X143035714Y-91954819D02*
X142464286Y-91954819D01*
X142750000Y-91954819D02*
X142750000Y-90954819D01*
X142750000Y-90954819D02*
X142654762Y-91097676D01*
X142654762Y-91097676D02*
X142559524Y-91192914D01*
X142559524Y-91192914D02*
X142464286Y-91240533D01*
X142283333Y-82859580D02*
X142235714Y-82907200D01*
X142235714Y-82907200D02*
X142092857Y-82954819D01*
X142092857Y-82954819D02*
X141997619Y-82954819D01*
X141997619Y-82954819D02*
X141854762Y-82907200D01*
X141854762Y-82907200D02*
X141759524Y-82811961D01*
X141759524Y-82811961D02*
X141711905Y-82716723D01*
X141711905Y-82716723D02*
X141664286Y-82526247D01*
X141664286Y-82526247D02*
X141664286Y-82383390D01*
X141664286Y-82383390D02*
X141711905Y-82192914D01*
X141711905Y-82192914D02*
X141759524Y-82097676D01*
X141759524Y-82097676D02*
X141854762Y-82002438D01*
X141854762Y-82002438D02*
X141997619Y-81954819D01*
X141997619Y-81954819D02*
X142092857Y-81954819D01*
X142092857Y-81954819D02*
X142235714Y-82002438D01*
X142235714Y-82002438D02*
X142283333Y-82050057D01*
X143140476Y-81954819D02*
X142950000Y-81954819D01*
X142950000Y-81954819D02*
X142854762Y-82002438D01*
X142854762Y-82002438D02*
X142807143Y-82050057D01*
X142807143Y-82050057D02*
X142711905Y-82192914D01*
X142711905Y-82192914D02*
X142664286Y-82383390D01*
X142664286Y-82383390D02*
X142664286Y-82764342D01*
X142664286Y-82764342D02*
X142711905Y-82859580D01*
X142711905Y-82859580D02*
X142759524Y-82907200D01*
X142759524Y-82907200D02*
X142854762Y-82954819D01*
X142854762Y-82954819D02*
X143045238Y-82954819D01*
X143045238Y-82954819D02*
X143140476Y-82907200D01*
X143140476Y-82907200D02*
X143188095Y-82859580D01*
X143188095Y-82859580D02*
X143235714Y-82764342D01*
X143235714Y-82764342D02*
X143235714Y-82526247D01*
X143235714Y-82526247D02*
X143188095Y-82431009D01*
X143188095Y-82431009D02*
X143140476Y-82383390D01*
X143140476Y-82383390D02*
X143045238Y-82335771D01*
X143045238Y-82335771D02*
X142854762Y-82335771D01*
X142854762Y-82335771D02*
X142759524Y-82383390D01*
X142759524Y-82383390D02*
X142711905Y-82431009D01*
X142711905Y-82431009D02*
X142664286Y-82526247D01*
X142383333Y-74179580D02*
X142335714Y-74227200D01*
X142335714Y-74227200D02*
X142192857Y-74274819D01*
X142192857Y-74274819D02*
X142097619Y-74274819D01*
X142097619Y-74274819D02*
X141954762Y-74227200D01*
X141954762Y-74227200D02*
X141859524Y-74131961D01*
X141859524Y-74131961D02*
X141811905Y-74036723D01*
X141811905Y-74036723D02*
X141764286Y-73846247D01*
X141764286Y-73846247D02*
X141764286Y-73703390D01*
X141764286Y-73703390D02*
X141811905Y-73512914D01*
X141811905Y-73512914D02*
X141859524Y-73417676D01*
X141859524Y-73417676D02*
X141954762Y-73322438D01*
X141954762Y-73322438D02*
X142097619Y-73274819D01*
X142097619Y-73274819D02*
X142192857Y-73274819D01*
X142192857Y-73274819D02*
X142335714Y-73322438D01*
X142335714Y-73322438D02*
X142383333Y-73370057D01*
X142716667Y-73274819D02*
X143335714Y-73274819D01*
X143335714Y-73274819D02*
X143002381Y-73655771D01*
X143002381Y-73655771D02*
X143145238Y-73655771D01*
X143145238Y-73655771D02*
X143240476Y-73703390D01*
X143240476Y-73703390D02*
X143288095Y-73751009D01*
X143288095Y-73751009D02*
X143335714Y-73846247D01*
X143335714Y-73846247D02*
X143335714Y-74084342D01*
X143335714Y-74084342D02*
X143288095Y-74179580D01*
X143288095Y-74179580D02*
X143240476Y-74227200D01*
X143240476Y-74227200D02*
X143145238Y-74274819D01*
X143145238Y-74274819D02*
X142859524Y-74274819D01*
X142859524Y-74274819D02*
X142764286Y-74227200D01*
X142764286Y-74227200D02*
X142716667Y-74179580D01*
X155833333Y-69789580D02*
X155785714Y-69837200D01*
X155785714Y-69837200D02*
X155642857Y-69884819D01*
X155642857Y-69884819D02*
X155547619Y-69884819D01*
X155547619Y-69884819D02*
X155404762Y-69837200D01*
X155404762Y-69837200D02*
X155309524Y-69741961D01*
X155309524Y-69741961D02*
X155261905Y-69646723D01*
X155261905Y-69646723D02*
X155214286Y-69456247D01*
X155214286Y-69456247D02*
X155214286Y-69313390D01*
X155214286Y-69313390D02*
X155261905Y-69122914D01*
X155261905Y-69122914D02*
X155309524Y-69027676D01*
X155309524Y-69027676D02*
X155404762Y-68932438D01*
X155404762Y-68932438D02*
X155547619Y-68884819D01*
X155547619Y-68884819D02*
X155642857Y-68884819D01*
X155642857Y-68884819D02*
X155785714Y-68932438D01*
X155785714Y-68932438D02*
X155833333Y-68980057D01*
X156738095Y-68884819D02*
X156261905Y-68884819D01*
X156261905Y-68884819D02*
X156214286Y-69361009D01*
X156214286Y-69361009D02*
X156261905Y-69313390D01*
X156261905Y-69313390D02*
X156357143Y-69265771D01*
X156357143Y-69265771D02*
X156595238Y-69265771D01*
X156595238Y-69265771D02*
X156690476Y-69313390D01*
X156690476Y-69313390D02*
X156738095Y-69361009D01*
X156738095Y-69361009D02*
X156785714Y-69456247D01*
X156785714Y-69456247D02*
X156785714Y-69694342D01*
X156785714Y-69694342D02*
X156738095Y-69789580D01*
X156738095Y-69789580D02*
X156690476Y-69837200D01*
X156690476Y-69837200D02*
X156595238Y-69884819D01*
X156595238Y-69884819D02*
X156357143Y-69884819D01*
X156357143Y-69884819D02*
X156261905Y-69837200D01*
X156261905Y-69837200D02*
X156214286Y-69789580D01*
X141261905Y-98612295D02*
X141261905Y-97812295D01*
X141261905Y-97812295D02*
X141500000Y-97812295D01*
X141500000Y-97812295D02*
X141642857Y-97850390D01*
X141642857Y-97850390D02*
X141738095Y-97926580D01*
X141738095Y-97926580D02*
X141785714Y-98002771D01*
X141785714Y-98002771D02*
X141833333Y-98155152D01*
X141833333Y-98155152D02*
X141833333Y-98269438D01*
X141833333Y-98269438D02*
X141785714Y-98421819D01*
X141785714Y-98421819D02*
X141738095Y-98498009D01*
X141738095Y-98498009D02*
X141642857Y-98574200D01*
X141642857Y-98574200D02*
X141500000Y-98612295D01*
X141500000Y-98612295D02*
X141261905Y-98612295D01*
X142785714Y-98612295D02*
X142214286Y-98612295D01*
X142500000Y-98612295D02*
X142500000Y-97812295D01*
X142500000Y-97812295D02*
X142404762Y-97926580D01*
X142404762Y-97926580D02*
X142309524Y-98002771D01*
X142309524Y-98002771D02*
X142214286Y-98040866D01*
D13*
%TO.C,G\u002A\u002A\u002A*%
G36*
X158174883Y-84793879D02*
G01*
X158236364Y-84804450D01*
X158305314Y-84818500D01*
X158471215Y-84865526D01*
X158608143Y-84932677D01*
X158717701Y-85021070D01*
X158801493Y-85131823D01*
X158828372Y-85183100D01*
X158861017Y-85280583D01*
X158877314Y-85391195D01*
X158877056Y-85502945D01*
X158860034Y-85603840D01*
X158836685Y-85664162D01*
X158769296Y-85759489D01*
X158677549Y-85835790D01*
X158558859Y-85894555D01*
X158410639Y-85937275D01*
X158339291Y-85950736D01*
X158270518Y-85962065D01*
X158448620Y-86146976D01*
X158600987Y-86319126D01*
X158719340Y-86484160D01*
X158804641Y-86643501D01*
X158833304Y-86716017D01*
X158855209Y-86789457D01*
X158868091Y-86864234D01*
X158873837Y-86953910D01*
X158874636Y-87013041D01*
X158868668Y-87143784D01*
X158847915Y-87248927D01*
X158809058Y-87337001D01*
X158748772Y-87416535D01*
X158698142Y-87466235D01*
X158606079Y-87549340D01*
X158831097Y-87538648D01*
X159006804Y-87523824D01*
X159204525Y-87494639D01*
X159371139Y-87462759D01*
X159484171Y-87440327D01*
X159595466Y-87419950D01*
X159695962Y-87403168D01*
X159776593Y-87391518D01*
X159815814Y-87387283D01*
X159889159Y-87383268D01*
X159942053Y-87386930D01*
X159989671Y-87400749D01*
X160040832Y-87424055D01*
X160111933Y-87468125D01*
X160167534Y-87519461D01*
X160178892Y-87534406D01*
X160215078Y-87613037D01*
X160229144Y-87700795D01*
X160219371Y-87783076D01*
X160210867Y-87805995D01*
X160163099Y-87875137D01*
X160092373Y-87934511D01*
X160011719Y-87973393D01*
X160005130Y-87975324D01*
X159956563Y-87986580D01*
X159906220Y-87992580D01*
X159849373Y-87992715D01*
X159781288Y-87986378D01*
X159697235Y-87972958D01*
X159592482Y-87951847D01*
X159462298Y-87922436D01*
X159308134Y-87885616D01*
X159191647Y-87859289D01*
X159068600Y-87834748D01*
X158951308Y-87814245D01*
X158852087Y-87800034D01*
X158823470Y-87796922D01*
X158768330Y-87793461D01*
X158679536Y-87790280D01*
X158559436Y-87787407D01*
X158410378Y-87784868D01*
X158234709Y-87782691D01*
X158034778Y-87780903D01*
X157812932Y-87779532D01*
X157571520Y-87778604D01*
X157312889Y-87778146D01*
X157198842Y-87778101D01*
X155770856Y-87778101D01*
X155770856Y-87508080D01*
X155770856Y-87238058D01*
X156779645Y-87238058D01*
X157031197Y-87237820D01*
X157249536Y-87236994D01*
X157437447Y-87235417D01*
X157597719Y-87232922D01*
X157733136Y-87229345D01*
X157846487Y-87224521D01*
X157940557Y-87218285D01*
X158018133Y-87210472D01*
X158082002Y-87200917D01*
X158134951Y-87189455D01*
X158179766Y-87175920D01*
X158219233Y-87160148D01*
X158237048Y-87151759D01*
X158342839Y-87081936D01*
X158419920Y-86992212D01*
X158467714Y-86885153D01*
X158485647Y-86763321D01*
X158473141Y-86629282D01*
X158429621Y-86485600D01*
X158401127Y-86421281D01*
X158361095Y-86348808D01*
X158308180Y-86267169D01*
X158247974Y-86183582D01*
X158186066Y-86105264D01*
X158128046Y-86039433D01*
X158079506Y-85993305D01*
X158058235Y-85978601D01*
X158031554Y-85974212D01*
X157969200Y-85970402D01*
X157871498Y-85967174D01*
X157738773Y-85964535D01*
X157571350Y-85962488D01*
X157369555Y-85961041D01*
X157133711Y-85960197D01*
X156897128Y-85959958D01*
X155770856Y-85959958D01*
X155770856Y-85690721D01*
X155770856Y-85421484D01*
X157053457Y-85416199D01*
X157305550Y-85415190D01*
X157524181Y-85414250D01*
X157711887Y-85413175D01*
X157871207Y-85411759D01*
X158004679Y-85409800D01*
X158114843Y-85407092D01*
X158204237Y-85403432D01*
X158275399Y-85398615D01*
X158330868Y-85392438D01*
X158373183Y-85384695D01*
X158404882Y-85375183D01*
X158428505Y-85363697D01*
X158446588Y-85350034D01*
X158461672Y-85333989D01*
X158476294Y-85315357D01*
X158487480Y-85300838D01*
X158522123Y-85233848D01*
X158522819Y-85167471D01*
X158491576Y-85104186D01*
X158430404Y-85046476D01*
X158341310Y-84996819D01*
X158226302Y-84957698D01*
X158205547Y-84952562D01*
X158151118Y-84938589D01*
X158123038Y-84924219D01*
X158112586Y-84900917D01*
X158111040Y-84860148D01*
X158111040Y-84860076D01*
X158111962Y-84824628D01*
X158118819Y-84802655D01*
X158137747Y-84792843D01*
X158174883Y-84793879D01*
G37*
D14*
%TO.C,J3*%
X165370000Y-104930000D02*
X165370000Y-71800000D01*
X168130000Y-71800000D02*
X165370000Y-71800000D01*
X168130000Y-104930000D02*
X165370000Y-104930000D01*
X168130000Y-104930000D02*
X168130000Y-71800000D01*
X168130000Y-106200000D02*
X168130000Y-107580000D01*
X168130000Y-107580000D02*
X166750000Y-107580000D01*
%TO.C,C2*%
X141738748Y-89515000D02*
X142261252Y-89515000D01*
X141738748Y-90985000D02*
X142261252Y-90985000D01*
%TO.C,R1*%
X142272936Y-70015000D02*
X142727064Y-70015000D01*
X142272936Y-71485000D02*
X142727064Y-71485000D01*
%TO.C,U1*%
X147040000Y-69270000D02*
X147040000Y-104950000D01*
X147040000Y-104950000D02*
X152340000Y-104950000D01*
X148690000Y-69270000D02*
X147040000Y-69270000D01*
X152340000Y-69270000D02*
X150690000Y-69270000D01*
X152340000Y-104950000D02*
X152340000Y-69270000D01*
X150690000Y-69270000D02*
G75*
G02*
X148690000Y-69270000I-1000000J0D01*
G01*
%TO.C,U2*%
X156940000Y-100750000D02*
X156940000Y-98800000D01*
X156940000Y-100750000D02*
X156940000Y-102700000D01*
X162060000Y-100750000D02*
X162060000Y-98800000D01*
X162060000Y-100750000D02*
X162060000Y-102700000D01*
X157035000Y-103450000D02*
X156705000Y-103690000D01*
X156705000Y-103210000D01*
X157035000Y-103450000D01*
G36*
X157035000Y-103450000D02*
G01*
X156705000Y-103690000D01*
X156705000Y-103210000D01*
X157035000Y-103450000D01*
G37*
%TO.C,C7*%
X155015000Y-102488748D02*
X155015000Y-103011252D01*
X156485000Y-102488748D02*
X156485000Y-103011252D01*
%TO.C,C4*%
X141788748Y-78265000D02*
X142311252Y-78265000D01*
X141788748Y-79735000D02*
X142311252Y-79735000D01*
%TO.C,Y1*%
X156815000Y-79260000D02*
X156815000Y-72860000D01*
X161685000Y-79260000D02*
X161685000Y-72860000D01*
X156815000Y-72860000D02*
G75*
G02*
X161685000Y-72860000I2435000J0D01*
G01*
X161685000Y-79260000D02*
G75*
G02*
X156815000Y-79260000I-2435000J0D01*
G01*
%TO.C,R2*%
X141785436Y-96015000D02*
X142239564Y-96015000D01*
X141785436Y-97485000D02*
X142239564Y-97485000D01*
%TO.C,J1*%
X140960000Y-109880000D02*
X140960000Y-108500000D01*
X142340000Y-109880000D02*
X140960000Y-109880000D01*
X143610000Y-107120000D02*
X156420000Y-107120000D01*
X143610000Y-109880000D02*
X143610000Y-107120000D01*
X143610000Y-109880000D02*
X156420000Y-109880000D01*
X156420000Y-109880000D02*
X156420000Y-107120000D01*
%TO.C,J2*%
X130120000Y-73540000D02*
X131500000Y-73540000D01*
X130120000Y-74920000D02*
X130120000Y-73540000D01*
X130120000Y-76190000D02*
X130120000Y-109320000D01*
X130120000Y-76190000D02*
X132880000Y-76190000D01*
X130120000Y-109320000D02*
X132880000Y-109320000D01*
X132880000Y-76190000D02*
X132880000Y-109320000D01*
%TO.C,C8*%
X155015000Y-99011252D02*
X155015000Y-98488748D01*
X156485000Y-99011252D02*
X156485000Y-98488748D01*
%TO.C,C1*%
X141738748Y-92515000D02*
X142261252Y-92515000D01*
X141738748Y-93985000D02*
X142261252Y-93985000D01*
%TO.C,SW1*%
X133500000Y-65250000D02*
X133500000Y-69750000D01*
X136000000Y-71000000D02*
X137500000Y-71000000D01*
X137500000Y-64000000D02*
X136000000Y-64000000D01*
X140000000Y-69750000D02*
X140000000Y-65250000D01*
%TO.C,C6*%
X141938748Y-83265000D02*
X142461252Y-83265000D01*
X141938748Y-84735000D02*
X142461252Y-84735000D01*
%TO.C,J5*%
X142960000Y-65880000D02*
X142960000Y-64500000D01*
X144340000Y-65880000D02*
X142960000Y-65880000D01*
X145610000Y-63120000D02*
X158420000Y-63120000D01*
X145610000Y-65880000D02*
X145610000Y-63120000D01*
X145610000Y-65880000D02*
X158420000Y-65880000D01*
X158420000Y-65880000D02*
X158420000Y-63120000D01*
%TO.C,C3*%
X142288748Y-74765000D02*
X142811252Y-74765000D01*
X142288748Y-76235000D02*
X142811252Y-76235000D01*
%TO.C,C5*%
X156261252Y-67015000D02*
X155738748Y-67015000D01*
X156261252Y-68485000D02*
X155738748Y-68485000D01*
%TO.C,D1*%
X139552500Y-98865000D02*
X139552500Y-101135000D01*
X139552500Y-101135000D02*
X143612500Y-101135000D01*
X143612500Y-98865000D02*
X139552500Y-98865000D01*
%TD*%
M02*
