%TF.GenerationSoftware,KiCad,Pcbnew,9.0.2*%
%TF.CreationDate,2025-07-07T19:43:34+05:30*%
%TF.ProjectId,Atmega328p_based,41746d65-6761-4333-9238-705f62617365,rev?*%
%TF.SameCoordinates,Original*%
%TF.FileFunction,AssemblyDrawing,Top*%
%FSLAX46Y46*%
G04 Gerber Fmt 4.6, Leading zero omitted, Abs format (unit mm)*
G04 Created by KiCad (PCBNEW 9.0.2) date 2025-07-07 19:43:34*
%MOMM*%
%LPD*%
G01*
G04 APERTURE LIST*
%ADD10C,0.150000*%
%ADD11C,0.080000*%
%ADD12C,0.120000*%
%ADD13C,0.100000*%
G04 APERTURE END LIST*
D10*
X158511904Y-71207200D02*
X158654761Y-71254819D01*
X158654761Y-71254819D02*
X158892856Y-71254819D01*
X158892856Y-71254819D02*
X158988094Y-71207200D01*
X158988094Y-71207200D02*
X159035713Y-71159580D01*
X159035713Y-71159580D02*
X159083332Y-71064342D01*
X159083332Y-71064342D02*
X159083332Y-70969104D01*
X159083332Y-70969104D02*
X159035713Y-70873866D01*
X159035713Y-70873866D02*
X158988094Y-70826247D01*
X158988094Y-70826247D02*
X158892856Y-70778628D01*
X158892856Y-70778628D02*
X158702380Y-70731009D01*
X158702380Y-70731009D02*
X158607142Y-70683390D01*
X158607142Y-70683390D02*
X158559523Y-70635771D01*
X158559523Y-70635771D02*
X158511904Y-70540533D01*
X158511904Y-70540533D02*
X158511904Y-70445295D01*
X158511904Y-70445295D02*
X158559523Y-70350057D01*
X158559523Y-70350057D02*
X158607142Y-70302438D01*
X158607142Y-70302438D02*
X158702380Y-70254819D01*
X158702380Y-70254819D02*
X158940475Y-70254819D01*
X158940475Y-70254819D02*
X159083332Y-70302438D01*
X159940475Y-71207200D02*
X159845237Y-71254819D01*
X159845237Y-71254819D02*
X159654761Y-71254819D01*
X159654761Y-71254819D02*
X159559523Y-71207200D01*
X159559523Y-71207200D02*
X159511904Y-71159580D01*
X159511904Y-71159580D02*
X159464285Y-71064342D01*
X159464285Y-71064342D02*
X159464285Y-70778628D01*
X159464285Y-70778628D02*
X159511904Y-70683390D01*
X159511904Y-70683390D02*
X159559523Y-70635771D01*
X159559523Y-70635771D02*
X159654761Y-70588152D01*
X159654761Y-70588152D02*
X159845237Y-70588152D01*
X159845237Y-70588152D02*
X159940475Y-70635771D01*
X160369047Y-71254819D02*
X160369047Y-70588152D01*
X160369047Y-70778628D02*
X160416666Y-70683390D01*
X160416666Y-70683390D02*
X160464285Y-70635771D01*
X160464285Y-70635771D02*
X160559523Y-70588152D01*
X160559523Y-70588152D02*
X160654761Y-70588152D01*
X161369047Y-71207200D02*
X161273809Y-71254819D01*
X161273809Y-71254819D02*
X161083333Y-71254819D01*
X161083333Y-71254819D02*
X160988095Y-71207200D01*
X160988095Y-71207200D02*
X160940476Y-71111961D01*
X160940476Y-71111961D02*
X160940476Y-70731009D01*
X160940476Y-70731009D02*
X160988095Y-70635771D01*
X160988095Y-70635771D02*
X161083333Y-70588152D01*
X161083333Y-70588152D02*
X161273809Y-70588152D01*
X161273809Y-70588152D02*
X161369047Y-70635771D01*
X161369047Y-70635771D02*
X161416666Y-70731009D01*
X161416666Y-70731009D02*
X161416666Y-70826247D01*
X161416666Y-70826247D02*
X160940476Y-70921485D01*
X161750000Y-70588152D02*
X161940476Y-71254819D01*
X161940476Y-71254819D02*
X162130952Y-70778628D01*
X162130952Y-70778628D02*
X162321428Y-71254819D01*
X162321428Y-71254819D02*
X162511904Y-70588152D01*
X162654762Y-71350057D02*
X163416666Y-71350057D01*
X163511905Y-70254819D02*
X164083333Y-70254819D01*
X163797619Y-71254819D02*
X163797619Y-70254819D01*
X164797619Y-71207200D02*
X164702381Y-71254819D01*
X164702381Y-71254819D02*
X164511905Y-71254819D01*
X164511905Y-71254819D02*
X164416667Y-71207200D01*
X164416667Y-71207200D02*
X164369048Y-71111961D01*
X164369048Y-71111961D02*
X164369048Y-70731009D01*
X164369048Y-70731009D02*
X164416667Y-70635771D01*
X164416667Y-70635771D02*
X164511905Y-70588152D01*
X164511905Y-70588152D02*
X164702381Y-70588152D01*
X164702381Y-70588152D02*
X164797619Y-70635771D01*
X164797619Y-70635771D02*
X164845238Y-70731009D01*
X164845238Y-70731009D02*
X164845238Y-70826247D01*
X164845238Y-70826247D02*
X164369048Y-70921485D01*
X165273810Y-71254819D02*
X165273810Y-70588152D01*
X165273810Y-70778628D02*
X165321429Y-70683390D01*
X165321429Y-70683390D02*
X165369048Y-70635771D01*
X165369048Y-70635771D02*
X165464286Y-70588152D01*
X165464286Y-70588152D02*
X165559524Y-70588152D01*
X165892858Y-71254819D02*
X165892858Y-70588152D01*
X165892858Y-70683390D02*
X165940477Y-70635771D01*
X165940477Y-70635771D02*
X166035715Y-70588152D01*
X166035715Y-70588152D02*
X166178572Y-70588152D01*
X166178572Y-70588152D02*
X166273810Y-70635771D01*
X166273810Y-70635771D02*
X166321429Y-70731009D01*
X166321429Y-70731009D02*
X166321429Y-71254819D01*
X166321429Y-70731009D02*
X166369048Y-70635771D01*
X166369048Y-70635771D02*
X166464286Y-70588152D01*
X166464286Y-70588152D02*
X166607143Y-70588152D01*
X166607143Y-70588152D02*
X166702382Y-70635771D01*
X166702382Y-70635771D02*
X166750001Y-70731009D01*
X166750001Y-70731009D02*
X166750001Y-71254819D01*
X167226191Y-71254819D02*
X167226191Y-70588152D01*
X167226191Y-70254819D02*
X167178572Y-70302438D01*
X167178572Y-70302438D02*
X167226191Y-70350057D01*
X167226191Y-70350057D02*
X167273810Y-70302438D01*
X167273810Y-70302438D02*
X167226191Y-70254819D01*
X167226191Y-70254819D02*
X167226191Y-70350057D01*
X167702381Y-70588152D02*
X167702381Y-71254819D01*
X167702381Y-70683390D02*
X167750000Y-70635771D01*
X167750000Y-70635771D02*
X167845238Y-70588152D01*
X167845238Y-70588152D02*
X167988095Y-70588152D01*
X167988095Y-70588152D02*
X168083333Y-70635771D01*
X168083333Y-70635771D02*
X168130952Y-70731009D01*
X168130952Y-70731009D02*
X168130952Y-71254819D01*
X169035714Y-71254819D02*
X169035714Y-70731009D01*
X169035714Y-70731009D02*
X168988095Y-70635771D01*
X168988095Y-70635771D02*
X168892857Y-70588152D01*
X168892857Y-70588152D02*
X168702381Y-70588152D01*
X168702381Y-70588152D02*
X168607143Y-70635771D01*
X169035714Y-71207200D02*
X168940476Y-71254819D01*
X168940476Y-71254819D02*
X168702381Y-71254819D01*
X168702381Y-71254819D02*
X168607143Y-71207200D01*
X168607143Y-71207200D02*
X168559524Y-71111961D01*
X168559524Y-71111961D02*
X168559524Y-71016723D01*
X168559524Y-71016723D02*
X168607143Y-70921485D01*
X168607143Y-70921485D02*
X168702381Y-70873866D01*
X168702381Y-70873866D02*
X168940476Y-70873866D01*
X168940476Y-70873866D02*
X169035714Y-70826247D01*
X169654762Y-71254819D02*
X169559524Y-71207200D01*
X169559524Y-71207200D02*
X169511905Y-71111961D01*
X169511905Y-71111961D02*
X169511905Y-70254819D01*
X169797620Y-71350057D02*
X170559524Y-71350057D01*
X170988096Y-70254819D02*
X171083334Y-70254819D01*
X171083334Y-70254819D02*
X171178572Y-70302438D01*
X171178572Y-70302438D02*
X171226191Y-70350057D01*
X171226191Y-70350057D02*
X171273810Y-70445295D01*
X171273810Y-70445295D02*
X171321429Y-70635771D01*
X171321429Y-70635771D02*
X171321429Y-70873866D01*
X171321429Y-70873866D02*
X171273810Y-71064342D01*
X171273810Y-71064342D02*
X171226191Y-71159580D01*
X171226191Y-71159580D02*
X171178572Y-71207200D01*
X171178572Y-71207200D02*
X171083334Y-71254819D01*
X171083334Y-71254819D02*
X170988096Y-71254819D01*
X170988096Y-71254819D02*
X170892858Y-71207200D01*
X170892858Y-71207200D02*
X170845239Y-71159580D01*
X170845239Y-71159580D02*
X170797620Y-71064342D01*
X170797620Y-71064342D02*
X170750001Y-70873866D01*
X170750001Y-70873866D02*
X170750001Y-70635771D01*
X170750001Y-70635771D02*
X170797620Y-70445295D01*
X170797620Y-70445295D02*
X170845239Y-70350057D01*
X170845239Y-70350057D02*
X170892858Y-70302438D01*
X170892858Y-70302438D02*
X170988096Y-70254819D01*
X172273810Y-71254819D02*
X171702382Y-71254819D01*
X171988096Y-71254819D02*
X171988096Y-70254819D01*
X171988096Y-70254819D02*
X171892858Y-70397676D01*
X171892858Y-70397676D02*
X171797620Y-70492914D01*
X171797620Y-70492914D02*
X171702382Y-70540533D01*
X172607144Y-71254819D02*
X173130953Y-70588152D01*
X172607144Y-70588152D02*
X173130953Y-71254819D01*
X174035715Y-71254819D02*
X173464287Y-71254819D01*
X173750001Y-71254819D02*
X173750001Y-70254819D01*
X173750001Y-70254819D02*
X173654763Y-70397676D01*
X173654763Y-70397676D02*
X173559525Y-70492914D01*
X173559525Y-70492914D02*
X173464287Y-70540533D01*
X174892858Y-70588152D02*
X174892858Y-71254819D01*
X174654763Y-70207200D02*
X174416668Y-70921485D01*
X174416668Y-70921485D02*
X175035715Y-70921485D01*
X166204819Y-90023333D02*
X166919104Y-90023333D01*
X166919104Y-90023333D02*
X167061961Y-90070952D01*
X167061961Y-90070952D02*
X167157200Y-90166190D01*
X167157200Y-90166190D02*
X167204819Y-90309047D01*
X167204819Y-90309047D02*
X167204819Y-90404285D01*
X166204819Y-89642380D02*
X166204819Y-89023333D01*
X166204819Y-89023333D02*
X166585771Y-89356666D01*
X166585771Y-89356666D02*
X166585771Y-89213809D01*
X166585771Y-89213809D02*
X166633390Y-89118571D01*
X166633390Y-89118571D02*
X166681009Y-89070952D01*
X166681009Y-89070952D02*
X166776247Y-89023333D01*
X166776247Y-89023333D02*
X167014342Y-89023333D01*
X167014342Y-89023333D02*
X167109580Y-89070952D01*
X167109580Y-89070952D02*
X167157200Y-89118571D01*
X167157200Y-89118571D02*
X167204819Y-89213809D01*
X167204819Y-89213809D02*
X167204819Y-89499523D01*
X167204819Y-89499523D02*
X167157200Y-89594761D01*
X167157200Y-89594761D02*
X167109580Y-89642380D01*
X140785714Y-91480057D02*
X140833333Y-91432438D01*
X140833333Y-91432438D02*
X140928571Y-91384819D01*
X140928571Y-91384819D02*
X141166666Y-91384819D01*
X141166666Y-91384819D02*
X141261904Y-91432438D01*
X141261904Y-91432438D02*
X141309523Y-91480057D01*
X141309523Y-91480057D02*
X141357142Y-91575295D01*
X141357142Y-91575295D02*
X141357142Y-91670533D01*
X141357142Y-91670533D02*
X141309523Y-91813390D01*
X141309523Y-91813390D02*
X140738095Y-92384819D01*
X140738095Y-92384819D02*
X141357142Y-92384819D01*
X141738095Y-91480057D02*
X141785714Y-91432438D01*
X141785714Y-91432438D02*
X141880952Y-91384819D01*
X141880952Y-91384819D02*
X142119047Y-91384819D01*
X142119047Y-91384819D02*
X142214285Y-91432438D01*
X142214285Y-91432438D02*
X142261904Y-91480057D01*
X142261904Y-91480057D02*
X142309523Y-91575295D01*
X142309523Y-91575295D02*
X142309523Y-91670533D01*
X142309523Y-91670533D02*
X142261904Y-91813390D01*
X142261904Y-91813390D02*
X141690476Y-92384819D01*
X141690476Y-92384819D02*
X142309523Y-92384819D01*
X142738095Y-91718152D02*
X142738095Y-92718152D01*
X142738095Y-91765771D02*
X142833333Y-91718152D01*
X142833333Y-91718152D02*
X143023809Y-91718152D01*
X143023809Y-91718152D02*
X143119047Y-91765771D01*
X143119047Y-91765771D02*
X143166666Y-91813390D01*
X143166666Y-91813390D02*
X143214285Y-91908628D01*
X143214285Y-91908628D02*
X143214285Y-92194342D01*
X143214285Y-92194342D02*
X143166666Y-92289580D01*
X143166666Y-92289580D02*
X143119047Y-92337200D01*
X143119047Y-92337200D02*
X143023809Y-92384819D01*
X143023809Y-92384819D02*
X142833333Y-92384819D01*
X142833333Y-92384819D02*
X142738095Y-92337200D01*
D11*
X141916666Y-90429530D02*
X141892857Y-90453340D01*
X141892857Y-90453340D02*
X141821428Y-90477149D01*
X141821428Y-90477149D02*
X141773809Y-90477149D01*
X141773809Y-90477149D02*
X141702381Y-90453340D01*
X141702381Y-90453340D02*
X141654762Y-90405720D01*
X141654762Y-90405720D02*
X141630952Y-90358101D01*
X141630952Y-90358101D02*
X141607143Y-90262863D01*
X141607143Y-90262863D02*
X141607143Y-90191435D01*
X141607143Y-90191435D02*
X141630952Y-90096197D01*
X141630952Y-90096197D02*
X141654762Y-90048578D01*
X141654762Y-90048578D02*
X141702381Y-90000959D01*
X141702381Y-90000959D02*
X141773809Y-89977149D01*
X141773809Y-89977149D02*
X141821428Y-89977149D01*
X141821428Y-89977149D02*
X141892857Y-90000959D01*
X141892857Y-90000959D02*
X141916666Y-90024768D01*
X142107143Y-90024768D02*
X142130952Y-90000959D01*
X142130952Y-90000959D02*
X142178571Y-89977149D01*
X142178571Y-89977149D02*
X142297619Y-89977149D01*
X142297619Y-89977149D02*
X142345238Y-90000959D01*
X142345238Y-90000959D02*
X142369047Y-90024768D01*
X142369047Y-90024768D02*
X142392857Y-90072387D01*
X142392857Y-90072387D02*
X142392857Y-90120006D01*
X142392857Y-90120006D02*
X142369047Y-90191435D01*
X142369047Y-90191435D02*
X142083333Y-90477149D01*
X142083333Y-90477149D02*
X142392857Y-90477149D01*
D10*
X141809523Y-72854819D02*
X141238095Y-72854819D01*
X141523809Y-72854819D02*
X141523809Y-71854819D01*
X141523809Y-71854819D02*
X141428571Y-71997676D01*
X141428571Y-71997676D02*
X141333333Y-72092914D01*
X141333333Y-72092914D02*
X141238095Y-72140533D01*
X142428571Y-71854819D02*
X142523809Y-71854819D01*
X142523809Y-71854819D02*
X142619047Y-71902438D01*
X142619047Y-71902438D02*
X142666666Y-71950057D01*
X142666666Y-71950057D02*
X142714285Y-72045295D01*
X142714285Y-72045295D02*
X142761904Y-72235771D01*
X142761904Y-72235771D02*
X142761904Y-72473866D01*
X142761904Y-72473866D02*
X142714285Y-72664342D01*
X142714285Y-72664342D02*
X142666666Y-72759580D01*
X142666666Y-72759580D02*
X142619047Y-72807200D01*
X142619047Y-72807200D02*
X142523809Y-72854819D01*
X142523809Y-72854819D02*
X142428571Y-72854819D01*
X142428571Y-72854819D02*
X142333333Y-72807200D01*
X142333333Y-72807200D02*
X142285714Y-72759580D01*
X142285714Y-72759580D02*
X142238095Y-72664342D01*
X142238095Y-72664342D02*
X142190476Y-72473866D01*
X142190476Y-72473866D02*
X142190476Y-72235771D01*
X142190476Y-72235771D02*
X142238095Y-72045295D01*
X142238095Y-72045295D02*
X142285714Y-71950057D01*
X142285714Y-71950057D02*
X142333333Y-71902438D01*
X142333333Y-71902438D02*
X142428571Y-71854819D01*
X143190476Y-72854819D02*
X143190476Y-71854819D01*
X143761904Y-72854819D02*
X143333333Y-72283390D01*
X143761904Y-71854819D02*
X143190476Y-72426247D01*
D11*
X142416666Y-70977149D02*
X142250000Y-70739054D01*
X142130952Y-70977149D02*
X142130952Y-70477149D01*
X142130952Y-70477149D02*
X142321428Y-70477149D01*
X142321428Y-70477149D02*
X142369047Y-70500959D01*
X142369047Y-70500959D02*
X142392857Y-70524768D01*
X142392857Y-70524768D02*
X142416666Y-70572387D01*
X142416666Y-70572387D02*
X142416666Y-70643816D01*
X142416666Y-70643816D02*
X142392857Y-70691435D01*
X142392857Y-70691435D02*
X142369047Y-70715244D01*
X142369047Y-70715244D02*
X142321428Y-70739054D01*
X142321428Y-70739054D02*
X142130952Y-70739054D01*
X142892857Y-70977149D02*
X142607143Y-70977149D01*
X142750000Y-70977149D02*
X142750000Y-70477149D01*
X142750000Y-70477149D02*
X142702381Y-70548578D01*
X142702381Y-70548578D02*
X142654762Y-70596197D01*
X142654762Y-70596197D02*
X142607143Y-70620006D01*
D10*
X149144819Y-87871904D02*
X149954342Y-87871904D01*
X149954342Y-87871904D02*
X150049580Y-87824285D01*
X150049580Y-87824285D02*
X150097200Y-87776666D01*
X150097200Y-87776666D02*
X150144819Y-87681428D01*
X150144819Y-87681428D02*
X150144819Y-87490952D01*
X150144819Y-87490952D02*
X150097200Y-87395714D01*
X150097200Y-87395714D02*
X150049580Y-87348095D01*
X150049580Y-87348095D02*
X149954342Y-87300476D01*
X149954342Y-87300476D02*
X149144819Y-87300476D01*
X150144819Y-86300476D02*
X150144819Y-86871904D01*
X150144819Y-86586190D02*
X149144819Y-86586190D01*
X149144819Y-86586190D02*
X149287676Y-86681428D01*
X149287676Y-86681428D02*
X149382914Y-86776666D01*
X149382914Y-86776666D02*
X149430533Y-86871904D01*
X158965566Y-101496666D02*
X159758900Y-101496666D01*
X159758900Y-101496666D02*
X159852233Y-101450000D01*
X159852233Y-101450000D02*
X159898900Y-101403333D01*
X159898900Y-101403333D02*
X159945566Y-101310000D01*
X159945566Y-101310000D02*
X159945566Y-101123333D01*
X159945566Y-101123333D02*
X159898900Y-101030000D01*
X159898900Y-101030000D02*
X159852233Y-100983333D01*
X159852233Y-100983333D02*
X159758900Y-100936666D01*
X159758900Y-100936666D02*
X158965566Y-100936666D01*
X159058900Y-100516666D02*
X159012233Y-100469999D01*
X159012233Y-100469999D02*
X158965566Y-100376666D01*
X158965566Y-100376666D02*
X158965566Y-100143333D01*
X158965566Y-100143333D02*
X159012233Y-100049999D01*
X159012233Y-100049999D02*
X159058900Y-100003333D01*
X159058900Y-100003333D02*
X159152233Y-99956666D01*
X159152233Y-99956666D02*
X159245566Y-99956666D01*
X159245566Y-99956666D02*
X159385566Y-100003333D01*
X159385566Y-100003333D02*
X159945566Y-100563333D01*
X159945566Y-100563333D02*
X159945566Y-99956666D01*
D11*
X157929530Y-102833333D02*
X157953340Y-102857142D01*
X157953340Y-102857142D02*
X157977149Y-102928571D01*
X157977149Y-102928571D02*
X157977149Y-102976190D01*
X157977149Y-102976190D02*
X157953340Y-103047618D01*
X157953340Y-103047618D02*
X157905720Y-103095237D01*
X157905720Y-103095237D02*
X157858101Y-103119047D01*
X157858101Y-103119047D02*
X157762863Y-103142856D01*
X157762863Y-103142856D02*
X157691435Y-103142856D01*
X157691435Y-103142856D02*
X157596197Y-103119047D01*
X157596197Y-103119047D02*
X157548578Y-103095237D01*
X157548578Y-103095237D02*
X157500959Y-103047618D01*
X157500959Y-103047618D02*
X157477149Y-102976190D01*
X157477149Y-102976190D02*
X157477149Y-102928571D01*
X157477149Y-102928571D02*
X157500959Y-102857142D01*
X157500959Y-102857142D02*
X157524768Y-102833333D01*
X157477149Y-102666666D02*
X157477149Y-102333333D01*
X157477149Y-102333333D02*
X157977149Y-102547618D01*
D10*
X140502380Y-81134819D02*
X139930952Y-81134819D01*
X140216666Y-81134819D02*
X140216666Y-80134819D01*
X140216666Y-80134819D02*
X140121428Y-80277676D01*
X140121428Y-80277676D02*
X140026190Y-80372914D01*
X140026190Y-80372914D02*
X139930952Y-80420533D01*
X141121428Y-80134819D02*
X141216666Y-80134819D01*
X141216666Y-80134819D02*
X141311904Y-80182438D01*
X141311904Y-80182438D02*
X141359523Y-80230057D01*
X141359523Y-80230057D02*
X141407142Y-80325295D01*
X141407142Y-80325295D02*
X141454761Y-80515771D01*
X141454761Y-80515771D02*
X141454761Y-80753866D01*
X141454761Y-80753866D02*
X141407142Y-80944342D01*
X141407142Y-80944342D02*
X141359523Y-81039580D01*
X141359523Y-81039580D02*
X141311904Y-81087200D01*
X141311904Y-81087200D02*
X141216666Y-81134819D01*
X141216666Y-81134819D02*
X141121428Y-81134819D01*
X141121428Y-81134819D02*
X141026190Y-81087200D01*
X141026190Y-81087200D02*
X140978571Y-81039580D01*
X140978571Y-81039580D02*
X140930952Y-80944342D01*
X140930952Y-80944342D02*
X140883333Y-80753866D01*
X140883333Y-80753866D02*
X140883333Y-80515771D01*
X140883333Y-80515771D02*
X140930952Y-80325295D01*
X140930952Y-80325295D02*
X140978571Y-80230057D01*
X140978571Y-80230057D02*
X141026190Y-80182438D01*
X141026190Y-80182438D02*
X141121428Y-80134819D01*
X142073809Y-80134819D02*
X142169047Y-80134819D01*
X142169047Y-80134819D02*
X142264285Y-80182438D01*
X142264285Y-80182438D02*
X142311904Y-80230057D01*
X142311904Y-80230057D02*
X142359523Y-80325295D01*
X142359523Y-80325295D02*
X142407142Y-80515771D01*
X142407142Y-80515771D02*
X142407142Y-80753866D01*
X142407142Y-80753866D02*
X142359523Y-80944342D01*
X142359523Y-80944342D02*
X142311904Y-81039580D01*
X142311904Y-81039580D02*
X142264285Y-81087200D01*
X142264285Y-81087200D02*
X142169047Y-81134819D01*
X142169047Y-81134819D02*
X142073809Y-81134819D01*
X142073809Y-81134819D02*
X141978571Y-81087200D01*
X141978571Y-81087200D02*
X141930952Y-81039580D01*
X141930952Y-81039580D02*
X141883333Y-80944342D01*
X141883333Y-80944342D02*
X141835714Y-80753866D01*
X141835714Y-80753866D02*
X141835714Y-80515771D01*
X141835714Y-80515771D02*
X141883333Y-80325295D01*
X141883333Y-80325295D02*
X141930952Y-80230057D01*
X141930952Y-80230057D02*
X141978571Y-80182438D01*
X141978571Y-80182438D02*
X142073809Y-80134819D01*
X142835714Y-80468152D02*
X142835714Y-81134819D01*
X142835714Y-80563390D02*
X142883333Y-80515771D01*
X142883333Y-80515771D02*
X142978571Y-80468152D01*
X142978571Y-80468152D02*
X143121428Y-80468152D01*
X143121428Y-80468152D02*
X143216666Y-80515771D01*
X143216666Y-80515771D02*
X143264285Y-80611009D01*
X143264285Y-80611009D02*
X143264285Y-81134819D01*
X144073809Y-80611009D02*
X143740476Y-80611009D01*
X143740476Y-81134819D02*
X143740476Y-80134819D01*
X143740476Y-80134819D02*
X144216666Y-80134819D01*
D11*
X141966666Y-79179530D02*
X141942857Y-79203340D01*
X141942857Y-79203340D02*
X141871428Y-79227149D01*
X141871428Y-79227149D02*
X141823809Y-79227149D01*
X141823809Y-79227149D02*
X141752381Y-79203340D01*
X141752381Y-79203340D02*
X141704762Y-79155720D01*
X141704762Y-79155720D02*
X141680952Y-79108101D01*
X141680952Y-79108101D02*
X141657143Y-79012863D01*
X141657143Y-79012863D02*
X141657143Y-78941435D01*
X141657143Y-78941435D02*
X141680952Y-78846197D01*
X141680952Y-78846197D02*
X141704762Y-78798578D01*
X141704762Y-78798578D02*
X141752381Y-78750959D01*
X141752381Y-78750959D02*
X141823809Y-78727149D01*
X141823809Y-78727149D02*
X141871428Y-78727149D01*
X141871428Y-78727149D02*
X141942857Y-78750959D01*
X141942857Y-78750959D02*
X141966666Y-78774768D01*
X142395238Y-78893816D02*
X142395238Y-79227149D01*
X142276190Y-78703340D02*
X142157143Y-79060482D01*
X142157143Y-79060482D02*
X142466666Y-79060482D01*
D10*
X157214285Y-112854819D02*
X157214285Y-111854819D01*
X157214285Y-111854819D02*
X157547618Y-112569104D01*
X157547618Y-112569104D02*
X157880951Y-111854819D01*
X157880951Y-111854819D02*
X157880951Y-112854819D01*
X158499999Y-112854819D02*
X158404761Y-112807200D01*
X158404761Y-112807200D02*
X158357142Y-112759580D01*
X158357142Y-112759580D02*
X158309523Y-112664342D01*
X158309523Y-112664342D02*
X158309523Y-112378628D01*
X158309523Y-112378628D02*
X158357142Y-112283390D01*
X158357142Y-112283390D02*
X158404761Y-112235771D01*
X158404761Y-112235771D02*
X158499999Y-112188152D01*
X158499999Y-112188152D02*
X158642856Y-112188152D01*
X158642856Y-112188152D02*
X158738094Y-112235771D01*
X158738094Y-112235771D02*
X158785713Y-112283390D01*
X158785713Y-112283390D02*
X158833332Y-112378628D01*
X158833332Y-112378628D02*
X158833332Y-112664342D01*
X158833332Y-112664342D02*
X158785713Y-112759580D01*
X158785713Y-112759580D02*
X158738094Y-112807200D01*
X158738094Y-112807200D02*
X158642856Y-112854819D01*
X158642856Y-112854819D02*
X158499999Y-112854819D01*
X159690475Y-112188152D02*
X159690475Y-112854819D01*
X159261904Y-112188152D02*
X159261904Y-112711961D01*
X159261904Y-112711961D02*
X159309523Y-112807200D01*
X159309523Y-112807200D02*
X159404761Y-112854819D01*
X159404761Y-112854819D02*
X159547618Y-112854819D01*
X159547618Y-112854819D02*
X159642856Y-112807200D01*
X159642856Y-112807200D02*
X159690475Y-112759580D01*
X160166666Y-112188152D02*
X160166666Y-112854819D01*
X160166666Y-112283390D02*
X160214285Y-112235771D01*
X160214285Y-112235771D02*
X160309523Y-112188152D01*
X160309523Y-112188152D02*
X160452380Y-112188152D01*
X160452380Y-112188152D02*
X160547618Y-112235771D01*
X160547618Y-112235771D02*
X160595237Y-112331009D01*
X160595237Y-112331009D02*
X160595237Y-112854819D01*
X160928571Y-112188152D02*
X161309523Y-112188152D01*
X161071428Y-111854819D02*
X161071428Y-112711961D01*
X161071428Y-112711961D02*
X161119047Y-112807200D01*
X161119047Y-112807200D02*
X161214285Y-112854819D01*
X161214285Y-112854819D02*
X161309523Y-112854819D01*
X161642857Y-112854819D02*
X161642857Y-112188152D01*
X161642857Y-111854819D02*
X161595238Y-111902438D01*
X161595238Y-111902438D02*
X161642857Y-111950057D01*
X161642857Y-111950057D02*
X161690476Y-111902438D01*
X161690476Y-111902438D02*
X161642857Y-111854819D01*
X161642857Y-111854819D02*
X161642857Y-111950057D01*
X162119047Y-112188152D02*
X162119047Y-112854819D01*
X162119047Y-112283390D02*
X162166666Y-112235771D01*
X162166666Y-112235771D02*
X162261904Y-112188152D01*
X162261904Y-112188152D02*
X162404761Y-112188152D01*
X162404761Y-112188152D02*
X162499999Y-112235771D01*
X162499999Y-112235771D02*
X162547618Y-112331009D01*
X162547618Y-112331009D02*
X162547618Y-112854819D01*
X163452380Y-112188152D02*
X163452380Y-112997676D01*
X163452380Y-112997676D02*
X163404761Y-113092914D01*
X163404761Y-113092914D02*
X163357142Y-113140533D01*
X163357142Y-113140533D02*
X163261904Y-113188152D01*
X163261904Y-113188152D02*
X163119047Y-113188152D01*
X163119047Y-113188152D02*
X163023809Y-113140533D01*
X163452380Y-112807200D02*
X163357142Y-112854819D01*
X163357142Y-112854819D02*
X163166666Y-112854819D01*
X163166666Y-112854819D02*
X163071428Y-112807200D01*
X163071428Y-112807200D02*
X163023809Y-112759580D01*
X163023809Y-112759580D02*
X162976190Y-112664342D01*
X162976190Y-112664342D02*
X162976190Y-112378628D01*
X162976190Y-112378628D02*
X163023809Y-112283390D01*
X163023809Y-112283390D02*
X163071428Y-112235771D01*
X163071428Y-112235771D02*
X163166666Y-112188152D01*
X163166666Y-112188152D02*
X163357142Y-112188152D01*
X163357142Y-112188152D02*
X163452380Y-112235771D01*
X163928571Y-112854819D02*
X163928571Y-111854819D01*
X163928571Y-112331009D02*
X164499999Y-112331009D01*
X164499999Y-112854819D02*
X164499999Y-111854819D01*
X165119047Y-112854819D02*
X165023809Y-112807200D01*
X165023809Y-112807200D02*
X164976190Y-112759580D01*
X164976190Y-112759580D02*
X164928571Y-112664342D01*
X164928571Y-112664342D02*
X164928571Y-112378628D01*
X164928571Y-112378628D02*
X164976190Y-112283390D01*
X164976190Y-112283390D02*
X165023809Y-112235771D01*
X165023809Y-112235771D02*
X165119047Y-112188152D01*
X165119047Y-112188152D02*
X165261904Y-112188152D01*
X165261904Y-112188152D02*
X165357142Y-112235771D01*
X165357142Y-112235771D02*
X165404761Y-112283390D01*
X165404761Y-112283390D02*
X165452380Y-112378628D01*
X165452380Y-112378628D02*
X165452380Y-112664342D01*
X165452380Y-112664342D02*
X165404761Y-112759580D01*
X165404761Y-112759580D02*
X165357142Y-112807200D01*
X165357142Y-112807200D02*
X165261904Y-112854819D01*
X165261904Y-112854819D02*
X165119047Y-112854819D01*
X166023809Y-112854819D02*
X165928571Y-112807200D01*
X165928571Y-112807200D02*
X165880952Y-112711961D01*
X165880952Y-112711961D02*
X165880952Y-111854819D01*
X166785714Y-112807200D02*
X166690476Y-112854819D01*
X166690476Y-112854819D02*
X166500000Y-112854819D01*
X166500000Y-112854819D02*
X166404762Y-112807200D01*
X166404762Y-112807200D02*
X166357143Y-112711961D01*
X166357143Y-112711961D02*
X166357143Y-112331009D01*
X166357143Y-112331009D02*
X166404762Y-112235771D01*
X166404762Y-112235771D02*
X166500000Y-112188152D01*
X166500000Y-112188152D02*
X166690476Y-112188152D01*
X166690476Y-112188152D02*
X166785714Y-112235771D01*
X166785714Y-112235771D02*
X166833333Y-112331009D01*
X166833333Y-112331009D02*
X166833333Y-112426247D01*
X166833333Y-112426247D02*
X166357143Y-112521485D01*
X161238095Y-109704819D02*
X161238095Y-108704819D01*
X161238095Y-109181009D02*
X161809523Y-109181009D01*
X161809523Y-109704819D02*
X161809523Y-108704819D01*
X162714285Y-109038152D02*
X162714285Y-109704819D01*
X162476190Y-108657200D02*
X162238095Y-109371485D01*
X162238095Y-109371485D02*
X162857142Y-109371485D01*
X159228628Y-76536190D02*
X159704819Y-76536190D01*
X158704819Y-76869523D02*
X159228628Y-76536190D01*
X159228628Y-76536190D02*
X158704819Y-76202857D01*
X159704819Y-75345714D02*
X159704819Y-75917142D01*
X159704819Y-75631428D02*
X158704819Y-75631428D01*
X158704819Y-75631428D02*
X158847676Y-75726666D01*
X158847676Y-75726666D02*
X158942914Y-75821904D01*
X158942914Y-75821904D02*
X158990533Y-75917142D01*
X158714285Y-68604819D02*
X158714285Y-67604819D01*
X158714285Y-67604819D02*
X159047618Y-68319104D01*
X159047618Y-68319104D02*
X159380951Y-67604819D01*
X159380951Y-67604819D02*
X159380951Y-68604819D01*
X159999999Y-68604819D02*
X159904761Y-68557200D01*
X159904761Y-68557200D02*
X159857142Y-68509580D01*
X159857142Y-68509580D02*
X159809523Y-68414342D01*
X159809523Y-68414342D02*
X159809523Y-68128628D01*
X159809523Y-68128628D02*
X159857142Y-68033390D01*
X159857142Y-68033390D02*
X159904761Y-67985771D01*
X159904761Y-67985771D02*
X159999999Y-67938152D01*
X159999999Y-67938152D02*
X160142856Y-67938152D01*
X160142856Y-67938152D02*
X160238094Y-67985771D01*
X160238094Y-67985771D02*
X160285713Y-68033390D01*
X160285713Y-68033390D02*
X160333332Y-68128628D01*
X160333332Y-68128628D02*
X160333332Y-68414342D01*
X160333332Y-68414342D02*
X160285713Y-68509580D01*
X160285713Y-68509580D02*
X160238094Y-68557200D01*
X160238094Y-68557200D02*
X160142856Y-68604819D01*
X160142856Y-68604819D02*
X159999999Y-68604819D01*
X161190475Y-67938152D02*
X161190475Y-68604819D01*
X160761904Y-67938152D02*
X160761904Y-68461961D01*
X160761904Y-68461961D02*
X160809523Y-68557200D01*
X160809523Y-68557200D02*
X160904761Y-68604819D01*
X160904761Y-68604819D02*
X161047618Y-68604819D01*
X161047618Y-68604819D02*
X161142856Y-68557200D01*
X161142856Y-68557200D02*
X161190475Y-68509580D01*
X161666666Y-67938152D02*
X161666666Y-68604819D01*
X161666666Y-68033390D02*
X161714285Y-67985771D01*
X161714285Y-67985771D02*
X161809523Y-67938152D01*
X161809523Y-67938152D02*
X161952380Y-67938152D01*
X161952380Y-67938152D02*
X162047618Y-67985771D01*
X162047618Y-67985771D02*
X162095237Y-68081009D01*
X162095237Y-68081009D02*
X162095237Y-68604819D01*
X162428571Y-67938152D02*
X162809523Y-67938152D01*
X162571428Y-67604819D02*
X162571428Y-68461961D01*
X162571428Y-68461961D02*
X162619047Y-68557200D01*
X162619047Y-68557200D02*
X162714285Y-68604819D01*
X162714285Y-68604819D02*
X162809523Y-68604819D01*
X163142857Y-68604819D02*
X163142857Y-67938152D01*
X163142857Y-67604819D02*
X163095238Y-67652438D01*
X163095238Y-67652438D02*
X163142857Y-67700057D01*
X163142857Y-67700057D02*
X163190476Y-67652438D01*
X163190476Y-67652438D02*
X163142857Y-67604819D01*
X163142857Y-67604819D02*
X163142857Y-67700057D01*
X163619047Y-67938152D02*
X163619047Y-68604819D01*
X163619047Y-68033390D02*
X163666666Y-67985771D01*
X163666666Y-67985771D02*
X163761904Y-67938152D01*
X163761904Y-67938152D02*
X163904761Y-67938152D01*
X163904761Y-67938152D02*
X163999999Y-67985771D01*
X163999999Y-67985771D02*
X164047618Y-68081009D01*
X164047618Y-68081009D02*
X164047618Y-68604819D01*
X164952380Y-67938152D02*
X164952380Y-68747676D01*
X164952380Y-68747676D02*
X164904761Y-68842914D01*
X164904761Y-68842914D02*
X164857142Y-68890533D01*
X164857142Y-68890533D02*
X164761904Y-68938152D01*
X164761904Y-68938152D02*
X164619047Y-68938152D01*
X164619047Y-68938152D02*
X164523809Y-68890533D01*
X164952380Y-68557200D02*
X164857142Y-68604819D01*
X164857142Y-68604819D02*
X164666666Y-68604819D01*
X164666666Y-68604819D02*
X164571428Y-68557200D01*
X164571428Y-68557200D02*
X164523809Y-68509580D01*
X164523809Y-68509580D02*
X164476190Y-68414342D01*
X164476190Y-68414342D02*
X164476190Y-68128628D01*
X164476190Y-68128628D02*
X164523809Y-68033390D01*
X164523809Y-68033390D02*
X164571428Y-67985771D01*
X164571428Y-67985771D02*
X164666666Y-67938152D01*
X164666666Y-67938152D02*
X164857142Y-67938152D01*
X164857142Y-67938152D02*
X164952380Y-67985771D01*
X165428571Y-68604819D02*
X165428571Y-67604819D01*
X165428571Y-68081009D02*
X165999999Y-68081009D01*
X165999999Y-68604819D02*
X165999999Y-67604819D01*
X166619047Y-68604819D02*
X166523809Y-68557200D01*
X166523809Y-68557200D02*
X166476190Y-68509580D01*
X166476190Y-68509580D02*
X166428571Y-68414342D01*
X166428571Y-68414342D02*
X166428571Y-68128628D01*
X166428571Y-68128628D02*
X166476190Y-68033390D01*
X166476190Y-68033390D02*
X166523809Y-67985771D01*
X166523809Y-67985771D02*
X166619047Y-67938152D01*
X166619047Y-67938152D02*
X166761904Y-67938152D01*
X166761904Y-67938152D02*
X166857142Y-67985771D01*
X166857142Y-67985771D02*
X166904761Y-68033390D01*
X166904761Y-68033390D02*
X166952380Y-68128628D01*
X166952380Y-68128628D02*
X166952380Y-68414342D01*
X166952380Y-68414342D02*
X166904761Y-68509580D01*
X166904761Y-68509580D02*
X166857142Y-68557200D01*
X166857142Y-68557200D02*
X166761904Y-68604819D01*
X166761904Y-68604819D02*
X166619047Y-68604819D01*
X167523809Y-68604819D02*
X167428571Y-68557200D01*
X167428571Y-68557200D02*
X167380952Y-68461961D01*
X167380952Y-68461961D02*
X167380952Y-67604819D01*
X168285714Y-68557200D02*
X168190476Y-68604819D01*
X168190476Y-68604819D02*
X168000000Y-68604819D01*
X168000000Y-68604819D02*
X167904762Y-68557200D01*
X167904762Y-68557200D02*
X167857143Y-68461961D01*
X167857143Y-68461961D02*
X167857143Y-68081009D01*
X167857143Y-68081009D02*
X167904762Y-67985771D01*
X167904762Y-67985771D02*
X168000000Y-67938152D01*
X168000000Y-67938152D02*
X168190476Y-67938152D01*
X168190476Y-67938152D02*
X168285714Y-67985771D01*
X168285714Y-67985771D02*
X168333333Y-68081009D01*
X168333333Y-68081009D02*
X168333333Y-68176247D01*
X168333333Y-68176247D02*
X167857143Y-68271485D01*
X162738095Y-65454819D02*
X162738095Y-64454819D01*
X162738095Y-64931009D02*
X163309523Y-64931009D01*
X163309523Y-65454819D02*
X163309523Y-64454819D01*
X164309523Y-65454819D02*
X163738095Y-65454819D01*
X164023809Y-65454819D02*
X164023809Y-64454819D01*
X164023809Y-64454819D02*
X163928571Y-64597676D01*
X163928571Y-64597676D02*
X163833333Y-64692914D01*
X163833333Y-64692914D02*
X163738095Y-64740533D01*
X140726786Y-97854819D02*
X141345833Y-97854819D01*
X141345833Y-97854819D02*
X141012500Y-98235771D01*
X141012500Y-98235771D02*
X141155357Y-98235771D01*
X141155357Y-98235771D02*
X141250595Y-98283390D01*
X141250595Y-98283390D02*
X141298214Y-98331009D01*
X141298214Y-98331009D02*
X141345833Y-98426247D01*
X141345833Y-98426247D02*
X141345833Y-98664342D01*
X141345833Y-98664342D02*
X141298214Y-98759580D01*
X141298214Y-98759580D02*
X141250595Y-98807200D01*
X141250595Y-98807200D02*
X141155357Y-98854819D01*
X141155357Y-98854819D02*
X140869643Y-98854819D01*
X140869643Y-98854819D02*
X140774405Y-98807200D01*
X140774405Y-98807200D02*
X140726786Y-98759580D01*
X141679167Y-97854819D02*
X142298214Y-97854819D01*
X142298214Y-97854819D02*
X141964881Y-98235771D01*
X141964881Y-98235771D02*
X142107738Y-98235771D01*
X142107738Y-98235771D02*
X142202976Y-98283390D01*
X142202976Y-98283390D02*
X142250595Y-98331009D01*
X142250595Y-98331009D02*
X142298214Y-98426247D01*
X142298214Y-98426247D02*
X142298214Y-98664342D01*
X142298214Y-98664342D02*
X142250595Y-98759580D01*
X142250595Y-98759580D02*
X142202976Y-98807200D01*
X142202976Y-98807200D02*
X142107738Y-98854819D01*
X142107738Y-98854819D02*
X141822024Y-98854819D01*
X141822024Y-98854819D02*
X141726786Y-98807200D01*
X141726786Y-98807200D02*
X141679167Y-98759580D01*
X142917262Y-97854819D02*
X143012500Y-97854819D01*
X143012500Y-97854819D02*
X143107738Y-97902438D01*
X143107738Y-97902438D02*
X143155357Y-97950057D01*
X143155357Y-97950057D02*
X143202976Y-98045295D01*
X143202976Y-98045295D02*
X143250595Y-98235771D01*
X143250595Y-98235771D02*
X143250595Y-98473866D01*
X143250595Y-98473866D02*
X143202976Y-98664342D01*
X143202976Y-98664342D02*
X143155357Y-98759580D01*
X143155357Y-98759580D02*
X143107738Y-98807200D01*
X143107738Y-98807200D02*
X143012500Y-98854819D01*
X143012500Y-98854819D02*
X142917262Y-98854819D01*
X142917262Y-98854819D02*
X142822024Y-98807200D01*
X142822024Y-98807200D02*
X142774405Y-98759580D01*
X142774405Y-98759580D02*
X142726786Y-98664342D01*
X142726786Y-98664342D02*
X142679167Y-98473866D01*
X142679167Y-98473866D02*
X142679167Y-98235771D01*
X142679167Y-98235771D02*
X142726786Y-98045295D01*
X142726786Y-98045295D02*
X142774405Y-97950057D01*
X142774405Y-97950057D02*
X142822024Y-97902438D01*
X142822024Y-97902438D02*
X142917262Y-97854819D01*
D11*
X141929166Y-96977149D02*
X141762500Y-96739054D01*
X141643452Y-96977149D02*
X141643452Y-96477149D01*
X141643452Y-96477149D02*
X141833928Y-96477149D01*
X141833928Y-96477149D02*
X141881547Y-96500959D01*
X141881547Y-96500959D02*
X141905357Y-96524768D01*
X141905357Y-96524768D02*
X141929166Y-96572387D01*
X141929166Y-96572387D02*
X141929166Y-96643816D01*
X141929166Y-96643816D02*
X141905357Y-96691435D01*
X141905357Y-96691435D02*
X141881547Y-96715244D01*
X141881547Y-96715244D02*
X141833928Y-96739054D01*
X141833928Y-96739054D02*
X141643452Y-96739054D01*
X142119643Y-96524768D02*
X142143452Y-96500959D01*
X142143452Y-96500959D02*
X142191071Y-96477149D01*
X142191071Y-96477149D02*
X142310119Y-96477149D01*
X142310119Y-96477149D02*
X142357738Y-96500959D01*
X142357738Y-96500959D02*
X142381547Y-96524768D01*
X142381547Y-96524768D02*
X142405357Y-96572387D01*
X142405357Y-96572387D02*
X142405357Y-96620006D01*
X142405357Y-96620006D02*
X142381547Y-96691435D01*
X142381547Y-96691435D02*
X142095833Y-96977149D01*
X142095833Y-96977149D02*
X142405357Y-96977149D01*
D10*
X148356666Y-107954819D02*
X148356666Y-108669104D01*
X148356666Y-108669104D02*
X148309047Y-108811961D01*
X148309047Y-108811961D02*
X148213809Y-108907200D01*
X148213809Y-108907200D02*
X148070952Y-108954819D01*
X148070952Y-108954819D02*
X147975714Y-108954819D01*
X149356666Y-108954819D02*
X148785238Y-108954819D01*
X149070952Y-108954819D02*
X149070952Y-107954819D01*
X149070952Y-107954819D02*
X148975714Y-108097676D01*
X148975714Y-108097676D02*
X148880476Y-108192914D01*
X148880476Y-108192914D02*
X148785238Y-108240533D01*
X131714285Y-112854819D02*
X131714285Y-111854819D01*
X131714285Y-111854819D02*
X132047618Y-112569104D01*
X132047618Y-112569104D02*
X132380951Y-111854819D01*
X132380951Y-111854819D02*
X132380951Y-112854819D01*
X132999999Y-112854819D02*
X132904761Y-112807200D01*
X132904761Y-112807200D02*
X132857142Y-112759580D01*
X132857142Y-112759580D02*
X132809523Y-112664342D01*
X132809523Y-112664342D02*
X132809523Y-112378628D01*
X132809523Y-112378628D02*
X132857142Y-112283390D01*
X132857142Y-112283390D02*
X132904761Y-112235771D01*
X132904761Y-112235771D02*
X132999999Y-112188152D01*
X132999999Y-112188152D02*
X133142856Y-112188152D01*
X133142856Y-112188152D02*
X133238094Y-112235771D01*
X133238094Y-112235771D02*
X133285713Y-112283390D01*
X133285713Y-112283390D02*
X133333332Y-112378628D01*
X133333332Y-112378628D02*
X133333332Y-112664342D01*
X133333332Y-112664342D02*
X133285713Y-112759580D01*
X133285713Y-112759580D02*
X133238094Y-112807200D01*
X133238094Y-112807200D02*
X133142856Y-112854819D01*
X133142856Y-112854819D02*
X132999999Y-112854819D01*
X134190475Y-112188152D02*
X134190475Y-112854819D01*
X133761904Y-112188152D02*
X133761904Y-112711961D01*
X133761904Y-112711961D02*
X133809523Y-112807200D01*
X133809523Y-112807200D02*
X133904761Y-112854819D01*
X133904761Y-112854819D02*
X134047618Y-112854819D01*
X134047618Y-112854819D02*
X134142856Y-112807200D01*
X134142856Y-112807200D02*
X134190475Y-112759580D01*
X134666666Y-112188152D02*
X134666666Y-112854819D01*
X134666666Y-112283390D02*
X134714285Y-112235771D01*
X134714285Y-112235771D02*
X134809523Y-112188152D01*
X134809523Y-112188152D02*
X134952380Y-112188152D01*
X134952380Y-112188152D02*
X135047618Y-112235771D01*
X135047618Y-112235771D02*
X135095237Y-112331009D01*
X135095237Y-112331009D02*
X135095237Y-112854819D01*
X135428571Y-112188152D02*
X135809523Y-112188152D01*
X135571428Y-111854819D02*
X135571428Y-112711961D01*
X135571428Y-112711961D02*
X135619047Y-112807200D01*
X135619047Y-112807200D02*
X135714285Y-112854819D01*
X135714285Y-112854819D02*
X135809523Y-112854819D01*
X136142857Y-112854819D02*
X136142857Y-112188152D01*
X136142857Y-111854819D02*
X136095238Y-111902438D01*
X136095238Y-111902438D02*
X136142857Y-111950057D01*
X136142857Y-111950057D02*
X136190476Y-111902438D01*
X136190476Y-111902438D02*
X136142857Y-111854819D01*
X136142857Y-111854819D02*
X136142857Y-111950057D01*
X136619047Y-112188152D02*
X136619047Y-112854819D01*
X136619047Y-112283390D02*
X136666666Y-112235771D01*
X136666666Y-112235771D02*
X136761904Y-112188152D01*
X136761904Y-112188152D02*
X136904761Y-112188152D01*
X136904761Y-112188152D02*
X136999999Y-112235771D01*
X136999999Y-112235771D02*
X137047618Y-112331009D01*
X137047618Y-112331009D02*
X137047618Y-112854819D01*
X137952380Y-112188152D02*
X137952380Y-112997676D01*
X137952380Y-112997676D02*
X137904761Y-113092914D01*
X137904761Y-113092914D02*
X137857142Y-113140533D01*
X137857142Y-113140533D02*
X137761904Y-113188152D01*
X137761904Y-113188152D02*
X137619047Y-113188152D01*
X137619047Y-113188152D02*
X137523809Y-113140533D01*
X137952380Y-112807200D02*
X137857142Y-112854819D01*
X137857142Y-112854819D02*
X137666666Y-112854819D01*
X137666666Y-112854819D02*
X137571428Y-112807200D01*
X137571428Y-112807200D02*
X137523809Y-112759580D01*
X137523809Y-112759580D02*
X137476190Y-112664342D01*
X137476190Y-112664342D02*
X137476190Y-112378628D01*
X137476190Y-112378628D02*
X137523809Y-112283390D01*
X137523809Y-112283390D02*
X137571428Y-112235771D01*
X137571428Y-112235771D02*
X137666666Y-112188152D01*
X137666666Y-112188152D02*
X137857142Y-112188152D01*
X137857142Y-112188152D02*
X137952380Y-112235771D01*
X138428571Y-112854819D02*
X138428571Y-111854819D01*
X138428571Y-112331009D02*
X138999999Y-112331009D01*
X138999999Y-112854819D02*
X138999999Y-111854819D01*
X139619047Y-112854819D02*
X139523809Y-112807200D01*
X139523809Y-112807200D02*
X139476190Y-112759580D01*
X139476190Y-112759580D02*
X139428571Y-112664342D01*
X139428571Y-112664342D02*
X139428571Y-112378628D01*
X139428571Y-112378628D02*
X139476190Y-112283390D01*
X139476190Y-112283390D02*
X139523809Y-112235771D01*
X139523809Y-112235771D02*
X139619047Y-112188152D01*
X139619047Y-112188152D02*
X139761904Y-112188152D01*
X139761904Y-112188152D02*
X139857142Y-112235771D01*
X139857142Y-112235771D02*
X139904761Y-112283390D01*
X139904761Y-112283390D02*
X139952380Y-112378628D01*
X139952380Y-112378628D02*
X139952380Y-112664342D01*
X139952380Y-112664342D02*
X139904761Y-112759580D01*
X139904761Y-112759580D02*
X139857142Y-112807200D01*
X139857142Y-112807200D02*
X139761904Y-112854819D01*
X139761904Y-112854819D02*
X139619047Y-112854819D01*
X140523809Y-112854819D02*
X140428571Y-112807200D01*
X140428571Y-112807200D02*
X140380952Y-112711961D01*
X140380952Y-112711961D02*
X140380952Y-111854819D01*
X141285714Y-112807200D02*
X141190476Y-112854819D01*
X141190476Y-112854819D02*
X141000000Y-112854819D01*
X141000000Y-112854819D02*
X140904762Y-112807200D01*
X140904762Y-112807200D02*
X140857143Y-112711961D01*
X140857143Y-112711961D02*
X140857143Y-112331009D01*
X140857143Y-112331009D02*
X140904762Y-112235771D01*
X140904762Y-112235771D02*
X141000000Y-112188152D01*
X141000000Y-112188152D02*
X141190476Y-112188152D01*
X141190476Y-112188152D02*
X141285714Y-112235771D01*
X141285714Y-112235771D02*
X141333333Y-112331009D01*
X141333333Y-112331009D02*
X141333333Y-112426247D01*
X141333333Y-112426247D02*
X140857143Y-112521485D01*
X135738095Y-109704819D02*
X135738095Y-108704819D01*
X135738095Y-109181009D02*
X136309523Y-109181009D01*
X136309523Y-109704819D02*
X136309523Y-108704819D01*
X136690476Y-108704819D02*
X137309523Y-108704819D01*
X137309523Y-108704819D02*
X136976190Y-109085771D01*
X136976190Y-109085771D02*
X137119047Y-109085771D01*
X137119047Y-109085771D02*
X137214285Y-109133390D01*
X137214285Y-109133390D02*
X137261904Y-109181009D01*
X137261904Y-109181009D02*
X137309523Y-109276247D01*
X137309523Y-109276247D02*
X137309523Y-109514342D01*
X137309523Y-109514342D02*
X137261904Y-109609580D01*
X137261904Y-109609580D02*
X137214285Y-109657200D01*
X137214285Y-109657200D02*
X137119047Y-109704819D01*
X137119047Y-109704819D02*
X136833333Y-109704819D01*
X136833333Y-109704819D02*
X136738095Y-109657200D01*
X136738095Y-109657200D02*
X136690476Y-109609580D01*
X125714285Y-62054819D02*
X125714285Y-61054819D01*
X125714285Y-61054819D02*
X126047618Y-61769104D01*
X126047618Y-61769104D02*
X126380951Y-61054819D01*
X126380951Y-61054819D02*
X126380951Y-62054819D01*
X126999999Y-62054819D02*
X126904761Y-62007200D01*
X126904761Y-62007200D02*
X126857142Y-61959580D01*
X126857142Y-61959580D02*
X126809523Y-61864342D01*
X126809523Y-61864342D02*
X126809523Y-61578628D01*
X126809523Y-61578628D02*
X126857142Y-61483390D01*
X126857142Y-61483390D02*
X126904761Y-61435771D01*
X126904761Y-61435771D02*
X126999999Y-61388152D01*
X126999999Y-61388152D02*
X127142856Y-61388152D01*
X127142856Y-61388152D02*
X127238094Y-61435771D01*
X127238094Y-61435771D02*
X127285713Y-61483390D01*
X127285713Y-61483390D02*
X127333332Y-61578628D01*
X127333332Y-61578628D02*
X127333332Y-61864342D01*
X127333332Y-61864342D02*
X127285713Y-61959580D01*
X127285713Y-61959580D02*
X127238094Y-62007200D01*
X127238094Y-62007200D02*
X127142856Y-62054819D01*
X127142856Y-62054819D02*
X126999999Y-62054819D01*
X128190475Y-61388152D02*
X128190475Y-62054819D01*
X127761904Y-61388152D02*
X127761904Y-61911961D01*
X127761904Y-61911961D02*
X127809523Y-62007200D01*
X127809523Y-62007200D02*
X127904761Y-62054819D01*
X127904761Y-62054819D02*
X128047618Y-62054819D01*
X128047618Y-62054819D02*
X128142856Y-62007200D01*
X128142856Y-62007200D02*
X128190475Y-61959580D01*
X128666666Y-61388152D02*
X128666666Y-62054819D01*
X128666666Y-61483390D02*
X128714285Y-61435771D01*
X128714285Y-61435771D02*
X128809523Y-61388152D01*
X128809523Y-61388152D02*
X128952380Y-61388152D01*
X128952380Y-61388152D02*
X129047618Y-61435771D01*
X129047618Y-61435771D02*
X129095237Y-61531009D01*
X129095237Y-61531009D02*
X129095237Y-62054819D01*
X129428571Y-61388152D02*
X129809523Y-61388152D01*
X129571428Y-61054819D02*
X129571428Y-61911961D01*
X129571428Y-61911961D02*
X129619047Y-62007200D01*
X129619047Y-62007200D02*
X129714285Y-62054819D01*
X129714285Y-62054819D02*
X129809523Y-62054819D01*
X130142857Y-62054819D02*
X130142857Y-61388152D01*
X130142857Y-61054819D02*
X130095238Y-61102438D01*
X130095238Y-61102438D02*
X130142857Y-61150057D01*
X130142857Y-61150057D02*
X130190476Y-61102438D01*
X130190476Y-61102438D02*
X130142857Y-61054819D01*
X130142857Y-61054819D02*
X130142857Y-61150057D01*
X130619047Y-61388152D02*
X130619047Y-62054819D01*
X130619047Y-61483390D02*
X130666666Y-61435771D01*
X130666666Y-61435771D02*
X130761904Y-61388152D01*
X130761904Y-61388152D02*
X130904761Y-61388152D01*
X130904761Y-61388152D02*
X130999999Y-61435771D01*
X130999999Y-61435771D02*
X131047618Y-61531009D01*
X131047618Y-61531009D02*
X131047618Y-62054819D01*
X131952380Y-61388152D02*
X131952380Y-62197676D01*
X131952380Y-62197676D02*
X131904761Y-62292914D01*
X131904761Y-62292914D02*
X131857142Y-62340533D01*
X131857142Y-62340533D02*
X131761904Y-62388152D01*
X131761904Y-62388152D02*
X131619047Y-62388152D01*
X131619047Y-62388152D02*
X131523809Y-62340533D01*
X131952380Y-62007200D02*
X131857142Y-62054819D01*
X131857142Y-62054819D02*
X131666666Y-62054819D01*
X131666666Y-62054819D02*
X131571428Y-62007200D01*
X131571428Y-62007200D02*
X131523809Y-61959580D01*
X131523809Y-61959580D02*
X131476190Y-61864342D01*
X131476190Y-61864342D02*
X131476190Y-61578628D01*
X131476190Y-61578628D02*
X131523809Y-61483390D01*
X131523809Y-61483390D02*
X131571428Y-61435771D01*
X131571428Y-61435771D02*
X131666666Y-61388152D01*
X131666666Y-61388152D02*
X131857142Y-61388152D01*
X131857142Y-61388152D02*
X131952380Y-61435771D01*
X132428571Y-62054819D02*
X132428571Y-61054819D01*
X132428571Y-61531009D02*
X132999999Y-61531009D01*
X132999999Y-62054819D02*
X132999999Y-61054819D01*
X133619047Y-62054819D02*
X133523809Y-62007200D01*
X133523809Y-62007200D02*
X133476190Y-61959580D01*
X133476190Y-61959580D02*
X133428571Y-61864342D01*
X133428571Y-61864342D02*
X133428571Y-61578628D01*
X133428571Y-61578628D02*
X133476190Y-61483390D01*
X133476190Y-61483390D02*
X133523809Y-61435771D01*
X133523809Y-61435771D02*
X133619047Y-61388152D01*
X133619047Y-61388152D02*
X133761904Y-61388152D01*
X133761904Y-61388152D02*
X133857142Y-61435771D01*
X133857142Y-61435771D02*
X133904761Y-61483390D01*
X133904761Y-61483390D02*
X133952380Y-61578628D01*
X133952380Y-61578628D02*
X133952380Y-61864342D01*
X133952380Y-61864342D02*
X133904761Y-61959580D01*
X133904761Y-61959580D02*
X133857142Y-62007200D01*
X133857142Y-62007200D02*
X133761904Y-62054819D01*
X133761904Y-62054819D02*
X133619047Y-62054819D01*
X134523809Y-62054819D02*
X134428571Y-62007200D01*
X134428571Y-62007200D02*
X134380952Y-61911961D01*
X134380952Y-61911961D02*
X134380952Y-61054819D01*
X135285714Y-62007200D02*
X135190476Y-62054819D01*
X135190476Y-62054819D02*
X135000000Y-62054819D01*
X135000000Y-62054819D02*
X134904762Y-62007200D01*
X134904762Y-62007200D02*
X134857143Y-61911961D01*
X134857143Y-61911961D02*
X134857143Y-61531009D01*
X134857143Y-61531009D02*
X134904762Y-61435771D01*
X134904762Y-61435771D02*
X135000000Y-61388152D01*
X135000000Y-61388152D02*
X135190476Y-61388152D01*
X135190476Y-61388152D02*
X135285714Y-61435771D01*
X135285714Y-61435771D02*
X135333333Y-61531009D01*
X135333333Y-61531009D02*
X135333333Y-61626247D01*
X135333333Y-61626247D02*
X134857143Y-61721485D01*
X129738095Y-65204819D02*
X129738095Y-64204819D01*
X129738095Y-64681009D02*
X130309523Y-64681009D01*
X130309523Y-65204819D02*
X130309523Y-64204819D01*
X130738095Y-64300057D02*
X130785714Y-64252438D01*
X130785714Y-64252438D02*
X130880952Y-64204819D01*
X130880952Y-64204819D02*
X131119047Y-64204819D01*
X131119047Y-64204819D02*
X131214285Y-64252438D01*
X131214285Y-64252438D02*
X131261904Y-64300057D01*
X131261904Y-64300057D02*
X131309523Y-64395295D01*
X131309523Y-64395295D02*
X131309523Y-64490533D01*
X131309523Y-64490533D02*
X131261904Y-64633390D01*
X131261904Y-64633390D02*
X130690476Y-65204819D01*
X130690476Y-65204819D02*
X131309523Y-65204819D01*
X123261904Y-110727200D02*
X123404761Y-110774819D01*
X123404761Y-110774819D02*
X123642856Y-110774819D01*
X123642856Y-110774819D02*
X123738094Y-110727200D01*
X123738094Y-110727200D02*
X123785713Y-110679580D01*
X123785713Y-110679580D02*
X123833332Y-110584342D01*
X123833332Y-110584342D02*
X123833332Y-110489104D01*
X123833332Y-110489104D02*
X123785713Y-110393866D01*
X123785713Y-110393866D02*
X123738094Y-110346247D01*
X123738094Y-110346247D02*
X123642856Y-110298628D01*
X123642856Y-110298628D02*
X123452380Y-110251009D01*
X123452380Y-110251009D02*
X123357142Y-110203390D01*
X123357142Y-110203390D02*
X123309523Y-110155771D01*
X123309523Y-110155771D02*
X123261904Y-110060533D01*
X123261904Y-110060533D02*
X123261904Y-109965295D01*
X123261904Y-109965295D02*
X123309523Y-109870057D01*
X123309523Y-109870057D02*
X123357142Y-109822438D01*
X123357142Y-109822438D02*
X123452380Y-109774819D01*
X123452380Y-109774819D02*
X123690475Y-109774819D01*
X123690475Y-109774819D02*
X123833332Y-109822438D01*
X124690475Y-110727200D02*
X124595237Y-110774819D01*
X124595237Y-110774819D02*
X124404761Y-110774819D01*
X124404761Y-110774819D02*
X124309523Y-110727200D01*
X124309523Y-110727200D02*
X124261904Y-110679580D01*
X124261904Y-110679580D02*
X124214285Y-110584342D01*
X124214285Y-110584342D02*
X124214285Y-110298628D01*
X124214285Y-110298628D02*
X124261904Y-110203390D01*
X124261904Y-110203390D02*
X124309523Y-110155771D01*
X124309523Y-110155771D02*
X124404761Y-110108152D01*
X124404761Y-110108152D02*
X124595237Y-110108152D01*
X124595237Y-110108152D02*
X124690475Y-110155771D01*
X125119047Y-110774819D02*
X125119047Y-110108152D01*
X125119047Y-110298628D02*
X125166666Y-110203390D01*
X125166666Y-110203390D02*
X125214285Y-110155771D01*
X125214285Y-110155771D02*
X125309523Y-110108152D01*
X125309523Y-110108152D02*
X125404761Y-110108152D01*
X126119047Y-110727200D02*
X126023809Y-110774819D01*
X126023809Y-110774819D02*
X125833333Y-110774819D01*
X125833333Y-110774819D02*
X125738095Y-110727200D01*
X125738095Y-110727200D02*
X125690476Y-110631961D01*
X125690476Y-110631961D02*
X125690476Y-110251009D01*
X125690476Y-110251009D02*
X125738095Y-110155771D01*
X125738095Y-110155771D02*
X125833333Y-110108152D01*
X125833333Y-110108152D02*
X126023809Y-110108152D01*
X126023809Y-110108152D02*
X126119047Y-110155771D01*
X126119047Y-110155771D02*
X126166666Y-110251009D01*
X126166666Y-110251009D02*
X126166666Y-110346247D01*
X126166666Y-110346247D02*
X125690476Y-110441485D01*
X126500000Y-110108152D02*
X126690476Y-110774819D01*
X126690476Y-110774819D02*
X126880952Y-110298628D01*
X126880952Y-110298628D02*
X127071428Y-110774819D01*
X127071428Y-110774819D02*
X127261904Y-110108152D01*
X127404762Y-110870057D02*
X128166666Y-110870057D01*
X128261905Y-109774819D02*
X128833333Y-109774819D01*
X128547619Y-110774819D02*
X128547619Y-109774819D01*
X129547619Y-110727200D02*
X129452381Y-110774819D01*
X129452381Y-110774819D02*
X129261905Y-110774819D01*
X129261905Y-110774819D02*
X129166667Y-110727200D01*
X129166667Y-110727200D02*
X129119048Y-110631961D01*
X129119048Y-110631961D02*
X129119048Y-110251009D01*
X129119048Y-110251009D02*
X129166667Y-110155771D01*
X129166667Y-110155771D02*
X129261905Y-110108152D01*
X129261905Y-110108152D02*
X129452381Y-110108152D01*
X129452381Y-110108152D02*
X129547619Y-110155771D01*
X129547619Y-110155771D02*
X129595238Y-110251009D01*
X129595238Y-110251009D02*
X129595238Y-110346247D01*
X129595238Y-110346247D02*
X129119048Y-110441485D01*
X130023810Y-110774819D02*
X130023810Y-110108152D01*
X130023810Y-110298628D02*
X130071429Y-110203390D01*
X130071429Y-110203390D02*
X130119048Y-110155771D01*
X130119048Y-110155771D02*
X130214286Y-110108152D01*
X130214286Y-110108152D02*
X130309524Y-110108152D01*
X130642858Y-110774819D02*
X130642858Y-110108152D01*
X130642858Y-110203390D02*
X130690477Y-110155771D01*
X130690477Y-110155771D02*
X130785715Y-110108152D01*
X130785715Y-110108152D02*
X130928572Y-110108152D01*
X130928572Y-110108152D02*
X131023810Y-110155771D01*
X131023810Y-110155771D02*
X131071429Y-110251009D01*
X131071429Y-110251009D02*
X131071429Y-110774819D01*
X131071429Y-110251009D02*
X131119048Y-110155771D01*
X131119048Y-110155771D02*
X131214286Y-110108152D01*
X131214286Y-110108152D02*
X131357143Y-110108152D01*
X131357143Y-110108152D02*
X131452382Y-110155771D01*
X131452382Y-110155771D02*
X131500001Y-110251009D01*
X131500001Y-110251009D02*
X131500001Y-110774819D01*
X131976191Y-110774819D02*
X131976191Y-110108152D01*
X131976191Y-109774819D02*
X131928572Y-109822438D01*
X131928572Y-109822438D02*
X131976191Y-109870057D01*
X131976191Y-109870057D02*
X132023810Y-109822438D01*
X132023810Y-109822438D02*
X131976191Y-109774819D01*
X131976191Y-109774819D02*
X131976191Y-109870057D01*
X132452381Y-110108152D02*
X132452381Y-110774819D01*
X132452381Y-110203390D02*
X132500000Y-110155771D01*
X132500000Y-110155771D02*
X132595238Y-110108152D01*
X132595238Y-110108152D02*
X132738095Y-110108152D01*
X132738095Y-110108152D02*
X132833333Y-110155771D01*
X132833333Y-110155771D02*
X132880952Y-110251009D01*
X132880952Y-110251009D02*
X132880952Y-110774819D01*
X133785714Y-110774819D02*
X133785714Y-110251009D01*
X133785714Y-110251009D02*
X133738095Y-110155771D01*
X133738095Y-110155771D02*
X133642857Y-110108152D01*
X133642857Y-110108152D02*
X133452381Y-110108152D01*
X133452381Y-110108152D02*
X133357143Y-110155771D01*
X133785714Y-110727200D02*
X133690476Y-110774819D01*
X133690476Y-110774819D02*
X133452381Y-110774819D01*
X133452381Y-110774819D02*
X133357143Y-110727200D01*
X133357143Y-110727200D02*
X133309524Y-110631961D01*
X133309524Y-110631961D02*
X133309524Y-110536723D01*
X133309524Y-110536723D02*
X133357143Y-110441485D01*
X133357143Y-110441485D02*
X133452381Y-110393866D01*
X133452381Y-110393866D02*
X133690476Y-110393866D01*
X133690476Y-110393866D02*
X133785714Y-110346247D01*
X134404762Y-110774819D02*
X134309524Y-110727200D01*
X134309524Y-110727200D02*
X134261905Y-110631961D01*
X134261905Y-110631961D02*
X134261905Y-109774819D01*
X134547620Y-110870057D02*
X135309524Y-110870057D01*
X135738096Y-109774819D02*
X135833334Y-109774819D01*
X135833334Y-109774819D02*
X135928572Y-109822438D01*
X135928572Y-109822438D02*
X135976191Y-109870057D01*
X135976191Y-109870057D02*
X136023810Y-109965295D01*
X136023810Y-109965295D02*
X136071429Y-110155771D01*
X136071429Y-110155771D02*
X136071429Y-110393866D01*
X136071429Y-110393866D02*
X136023810Y-110584342D01*
X136023810Y-110584342D02*
X135976191Y-110679580D01*
X135976191Y-110679580D02*
X135928572Y-110727200D01*
X135928572Y-110727200D02*
X135833334Y-110774819D01*
X135833334Y-110774819D02*
X135738096Y-110774819D01*
X135738096Y-110774819D02*
X135642858Y-110727200D01*
X135642858Y-110727200D02*
X135595239Y-110679580D01*
X135595239Y-110679580D02*
X135547620Y-110584342D01*
X135547620Y-110584342D02*
X135500001Y-110393866D01*
X135500001Y-110393866D02*
X135500001Y-110155771D01*
X135500001Y-110155771D02*
X135547620Y-109965295D01*
X135547620Y-109965295D02*
X135595239Y-109870057D01*
X135595239Y-109870057D02*
X135642858Y-109822438D01*
X135642858Y-109822438D02*
X135738096Y-109774819D01*
X137023810Y-110774819D02*
X136452382Y-110774819D01*
X136738096Y-110774819D02*
X136738096Y-109774819D01*
X136738096Y-109774819D02*
X136642858Y-109917676D01*
X136642858Y-109917676D02*
X136547620Y-110012914D01*
X136547620Y-110012914D02*
X136452382Y-110060533D01*
X137357144Y-110774819D02*
X137880953Y-110108152D01*
X137357144Y-110108152D02*
X137880953Y-110774819D01*
X138785715Y-110774819D02*
X138214287Y-110774819D01*
X138500001Y-110774819D02*
X138500001Y-109774819D01*
X138500001Y-109774819D02*
X138404763Y-109917676D01*
X138404763Y-109917676D02*
X138309525Y-110012914D01*
X138309525Y-110012914D02*
X138214287Y-110060533D01*
X139642858Y-110108152D02*
X139642858Y-110774819D01*
X139404763Y-109727200D02*
X139166668Y-110441485D01*
X139166668Y-110441485D02*
X139785715Y-110441485D01*
X130954819Y-91763333D02*
X131669104Y-91763333D01*
X131669104Y-91763333D02*
X131811961Y-91810952D01*
X131811961Y-91810952D02*
X131907200Y-91906190D01*
X131907200Y-91906190D02*
X131954819Y-92049047D01*
X131954819Y-92049047D02*
X131954819Y-92144285D01*
X131050057Y-91334761D02*
X131002438Y-91287142D01*
X131002438Y-91287142D02*
X130954819Y-91191904D01*
X130954819Y-91191904D02*
X130954819Y-90953809D01*
X130954819Y-90953809D02*
X131002438Y-90858571D01*
X131002438Y-90858571D02*
X131050057Y-90810952D01*
X131050057Y-90810952D02*
X131145295Y-90763333D01*
X131145295Y-90763333D02*
X131240533Y-90763333D01*
X131240533Y-90763333D02*
X131383390Y-90810952D01*
X131383390Y-90810952D02*
X131954819Y-91382380D01*
X131954819Y-91382380D02*
X131954819Y-90763333D01*
D11*
X155929530Y-98833333D02*
X155953340Y-98857142D01*
X155953340Y-98857142D02*
X155977149Y-98928571D01*
X155977149Y-98928571D02*
X155977149Y-98976190D01*
X155977149Y-98976190D02*
X155953340Y-99047618D01*
X155953340Y-99047618D02*
X155905720Y-99095237D01*
X155905720Y-99095237D02*
X155858101Y-99119047D01*
X155858101Y-99119047D02*
X155762863Y-99142856D01*
X155762863Y-99142856D02*
X155691435Y-99142856D01*
X155691435Y-99142856D02*
X155596197Y-99119047D01*
X155596197Y-99119047D02*
X155548578Y-99095237D01*
X155548578Y-99095237D02*
X155500959Y-99047618D01*
X155500959Y-99047618D02*
X155477149Y-98976190D01*
X155477149Y-98976190D02*
X155477149Y-98928571D01*
X155477149Y-98928571D02*
X155500959Y-98857142D01*
X155500959Y-98857142D02*
X155524768Y-98833333D01*
X155691435Y-98547618D02*
X155667625Y-98595237D01*
X155667625Y-98595237D02*
X155643816Y-98619047D01*
X155643816Y-98619047D02*
X155596197Y-98642856D01*
X155596197Y-98642856D02*
X155572387Y-98642856D01*
X155572387Y-98642856D02*
X155524768Y-98619047D01*
X155524768Y-98619047D02*
X155500959Y-98595237D01*
X155500959Y-98595237D02*
X155477149Y-98547618D01*
X155477149Y-98547618D02*
X155477149Y-98452380D01*
X155477149Y-98452380D02*
X155500959Y-98404761D01*
X155500959Y-98404761D02*
X155524768Y-98380952D01*
X155524768Y-98380952D02*
X155572387Y-98357142D01*
X155572387Y-98357142D02*
X155596197Y-98357142D01*
X155596197Y-98357142D02*
X155643816Y-98380952D01*
X155643816Y-98380952D02*
X155667625Y-98404761D01*
X155667625Y-98404761D02*
X155691435Y-98452380D01*
X155691435Y-98452380D02*
X155691435Y-98547618D01*
X155691435Y-98547618D02*
X155715244Y-98595237D01*
X155715244Y-98595237D02*
X155739054Y-98619047D01*
X155739054Y-98619047D02*
X155786673Y-98642856D01*
X155786673Y-98642856D02*
X155881911Y-98642856D01*
X155881911Y-98642856D02*
X155929530Y-98619047D01*
X155929530Y-98619047D02*
X155953340Y-98595237D01*
X155953340Y-98595237D02*
X155977149Y-98547618D01*
X155977149Y-98547618D02*
X155977149Y-98452380D01*
X155977149Y-98452380D02*
X155953340Y-98404761D01*
X155953340Y-98404761D02*
X155929530Y-98380952D01*
X155929530Y-98380952D02*
X155881911Y-98357142D01*
X155881911Y-98357142D02*
X155786673Y-98357142D01*
X155786673Y-98357142D02*
X155739054Y-98380952D01*
X155739054Y-98380952D02*
X155715244Y-98404761D01*
X155715244Y-98404761D02*
X155691435Y-98452380D01*
D10*
X140785714Y-94480057D02*
X140833333Y-94432438D01*
X140833333Y-94432438D02*
X140928571Y-94384819D01*
X140928571Y-94384819D02*
X141166666Y-94384819D01*
X141166666Y-94384819D02*
X141261904Y-94432438D01*
X141261904Y-94432438D02*
X141309523Y-94480057D01*
X141309523Y-94480057D02*
X141357142Y-94575295D01*
X141357142Y-94575295D02*
X141357142Y-94670533D01*
X141357142Y-94670533D02*
X141309523Y-94813390D01*
X141309523Y-94813390D02*
X140738095Y-95384819D01*
X140738095Y-95384819D02*
X141357142Y-95384819D01*
X141738095Y-94480057D02*
X141785714Y-94432438D01*
X141785714Y-94432438D02*
X141880952Y-94384819D01*
X141880952Y-94384819D02*
X142119047Y-94384819D01*
X142119047Y-94384819D02*
X142214285Y-94432438D01*
X142214285Y-94432438D02*
X142261904Y-94480057D01*
X142261904Y-94480057D02*
X142309523Y-94575295D01*
X142309523Y-94575295D02*
X142309523Y-94670533D01*
X142309523Y-94670533D02*
X142261904Y-94813390D01*
X142261904Y-94813390D02*
X141690476Y-95384819D01*
X141690476Y-95384819D02*
X142309523Y-95384819D01*
X142738095Y-94718152D02*
X142738095Y-95718152D01*
X142738095Y-94765771D02*
X142833333Y-94718152D01*
X142833333Y-94718152D02*
X143023809Y-94718152D01*
X143023809Y-94718152D02*
X143119047Y-94765771D01*
X143119047Y-94765771D02*
X143166666Y-94813390D01*
X143166666Y-94813390D02*
X143214285Y-94908628D01*
X143214285Y-94908628D02*
X143214285Y-95194342D01*
X143214285Y-95194342D02*
X143166666Y-95289580D01*
X143166666Y-95289580D02*
X143119047Y-95337200D01*
X143119047Y-95337200D02*
X143023809Y-95384819D01*
X143023809Y-95384819D02*
X142833333Y-95384819D01*
X142833333Y-95384819D02*
X142738095Y-95337200D01*
D11*
X141916666Y-93429530D02*
X141892857Y-93453340D01*
X141892857Y-93453340D02*
X141821428Y-93477149D01*
X141821428Y-93477149D02*
X141773809Y-93477149D01*
X141773809Y-93477149D02*
X141702381Y-93453340D01*
X141702381Y-93453340D02*
X141654762Y-93405720D01*
X141654762Y-93405720D02*
X141630952Y-93358101D01*
X141630952Y-93358101D02*
X141607143Y-93262863D01*
X141607143Y-93262863D02*
X141607143Y-93191435D01*
X141607143Y-93191435D02*
X141630952Y-93096197D01*
X141630952Y-93096197D02*
X141654762Y-93048578D01*
X141654762Y-93048578D02*
X141702381Y-93000959D01*
X141702381Y-93000959D02*
X141773809Y-92977149D01*
X141773809Y-92977149D02*
X141821428Y-92977149D01*
X141821428Y-92977149D02*
X141892857Y-93000959D01*
X141892857Y-93000959D02*
X141916666Y-93024768D01*
X142392857Y-93477149D02*
X142107143Y-93477149D01*
X142250000Y-93477149D02*
X142250000Y-92977149D01*
X142250000Y-92977149D02*
X142202381Y-93048578D01*
X142202381Y-93048578D02*
X142154762Y-93096197D01*
X142154762Y-93096197D02*
X142107143Y-93120006D01*
D10*
X141607200Y-70047618D02*
X141654819Y-69904761D01*
X141654819Y-69904761D02*
X141654819Y-69666666D01*
X141654819Y-69666666D02*
X141607200Y-69571428D01*
X141607200Y-69571428D02*
X141559580Y-69523809D01*
X141559580Y-69523809D02*
X141464342Y-69476190D01*
X141464342Y-69476190D02*
X141369104Y-69476190D01*
X141369104Y-69476190D02*
X141273866Y-69523809D01*
X141273866Y-69523809D02*
X141226247Y-69571428D01*
X141226247Y-69571428D02*
X141178628Y-69666666D01*
X141178628Y-69666666D02*
X141131009Y-69857142D01*
X141131009Y-69857142D02*
X141083390Y-69952380D01*
X141083390Y-69952380D02*
X141035771Y-69999999D01*
X141035771Y-69999999D02*
X140940533Y-70047618D01*
X140940533Y-70047618D02*
X140845295Y-70047618D01*
X140845295Y-70047618D02*
X140750057Y-69999999D01*
X140750057Y-69999999D02*
X140702438Y-69952380D01*
X140702438Y-69952380D02*
X140654819Y-69857142D01*
X140654819Y-69857142D02*
X140654819Y-69619047D01*
X140654819Y-69619047D02*
X140702438Y-69476190D01*
X140654819Y-69142856D02*
X141654819Y-68904761D01*
X141654819Y-68904761D02*
X140940533Y-68714285D01*
X140940533Y-68714285D02*
X141654819Y-68523809D01*
X141654819Y-68523809D02*
X140654819Y-68285714D01*
X141750057Y-68142857D02*
X141750057Y-67380952D01*
X141654819Y-67142856D02*
X140654819Y-67142856D01*
X140654819Y-67142856D02*
X140654819Y-66761904D01*
X140654819Y-66761904D02*
X140702438Y-66666666D01*
X140702438Y-66666666D02*
X140750057Y-66619047D01*
X140750057Y-66619047D02*
X140845295Y-66571428D01*
X140845295Y-66571428D02*
X140988152Y-66571428D01*
X140988152Y-66571428D02*
X141083390Y-66619047D01*
X141083390Y-66619047D02*
X141131009Y-66666666D01*
X141131009Y-66666666D02*
X141178628Y-66761904D01*
X141178628Y-66761904D02*
X141178628Y-67142856D01*
X140988152Y-65714285D02*
X141654819Y-65714285D01*
X140988152Y-66142856D02*
X141511961Y-66142856D01*
X141511961Y-66142856D02*
X141607200Y-66095237D01*
X141607200Y-66095237D02*
X141654819Y-65999999D01*
X141654819Y-65999999D02*
X141654819Y-65857142D01*
X141654819Y-65857142D02*
X141607200Y-65761904D01*
X141607200Y-65761904D02*
X141559580Y-65714285D01*
X141607200Y-65285713D02*
X141654819Y-65190475D01*
X141654819Y-65190475D02*
X141654819Y-64999999D01*
X141654819Y-64999999D02*
X141607200Y-64904761D01*
X141607200Y-64904761D02*
X141511961Y-64857142D01*
X141511961Y-64857142D02*
X141464342Y-64857142D01*
X141464342Y-64857142D02*
X141369104Y-64904761D01*
X141369104Y-64904761D02*
X141321485Y-64999999D01*
X141321485Y-64999999D02*
X141321485Y-65142856D01*
X141321485Y-65142856D02*
X141273866Y-65238094D01*
X141273866Y-65238094D02*
X141178628Y-65285713D01*
X141178628Y-65285713D02*
X141131009Y-65285713D01*
X141131009Y-65285713D02*
X141035771Y-65238094D01*
X141035771Y-65238094D02*
X140988152Y-65142856D01*
X140988152Y-65142856D02*
X140988152Y-64999999D01*
X140988152Y-64999999D02*
X141035771Y-64904761D01*
X141654819Y-64428570D02*
X140654819Y-64428570D01*
X141654819Y-63999999D02*
X141131009Y-63999999D01*
X141131009Y-63999999D02*
X141035771Y-64047618D01*
X141035771Y-64047618D02*
X140988152Y-64142856D01*
X140988152Y-64142856D02*
X140988152Y-64285713D01*
X140988152Y-64285713D02*
X141035771Y-64380951D01*
X141035771Y-64380951D02*
X141083390Y-64428570D01*
X137157200Y-68833332D02*
X137204819Y-68690475D01*
X137204819Y-68690475D02*
X137204819Y-68452380D01*
X137204819Y-68452380D02*
X137157200Y-68357142D01*
X137157200Y-68357142D02*
X137109580Y-68309523D01*
X137109580Y-68309523D02*
X137014342Y-68261904D01*
X137014342Y-68261904D02*
X136919104Y-68261904D01*
X136919104Y-68261904D02*
X136823866Y-68309523D01*
X136823866Y-68309523D02*
X136776247Y-68357142D01*
X136776247Y-68357142D02*
X136728628Y-68452380D01*
X136728628Y-68452380D02*
X136681009Y-68642856D01*
X136681009Y-68642856D02*
X136633390Y-68738094D01*
X136633390Y-68738094D02*
X136585771Y-68785713D01*
X136585771Y-68785713D02*
X136490533Y-68833332D01*
X136490533Y-68833332D02*
X136395295Y-68833332D01*
X136395295Y-68833332D02*
X136300057Y-68785713D01*
X136300057Y-68785713D02*
X136252438Y-68738094D01*
X136252438Y-68738094D02*
X136204819Y-68642856D01*
X136204819Y-68642856D02*
X136204819Y-68404761D01*
X136204819Y-68404761D02*
X136252438Y-68261904D01*
X136204819Y-67928570D02*
X137204819Y-67690475D01*
X137204819Y-67690475D02*
X136490533Y-67499999D01*
X136490533Y-67499999D02*
X137204819Y-67309523D01*
X137204819Y-67309523D02*
X136204819Y-67071428D01*
X137204819Y-66166666D02*
X137204819Y-66738094D01*
X137204819Y-66452380D02*
X136204819Y-66452380D01*
X136204819Y-66452380D02*
X136347676Y-66547618D01*
X136347676Y-66547618D02*
X136442914Y-66642856D01*
X136442914Y-66642856D02*
X136490533Y-66738094D01*
X140652380Y-86134819D02*
X140080952Y-86134819D01*
X140366666Y-86134819D02*
X140366666Y-85134819D01*
X140366666Y-85134819D02*
X140271428Y-85277676D01*
X140271428Y-85277676D02*
X140176190Y-85372914D01*
X140176190Y-85372914D02*
X140080952Y-85420533D01*
X141271428Y-85134819D02*
X141366666Y-85134819D01*
X141366666Y-85134819D02*
X141461904Y-85182438D01*
X141461904Y-85182438D02*
X141509523Y-85230057D01*
X141509523Y-85230057D02*
X141557142Y-85325295D01*
X141557142Y-85325295D02*
X141604761Y-85515771D01*
X141604761Y-85515771D02*
X141604761Y-85753866D01*
X141604761Y-85753866D02*
X141557142Y-85944342D01*
X141557142Y-85944342D02*
X141509523Y-86039580D01*
X141509523Y-86039580D02*
X141461904Y-86087200D01*
X141461904Y-86087200D02*
X141366666Y-86134819D01*
X141366666Y-86134819D02*
X141271428Y-86134819D01*
X141271428Y-86134819D02*
X141176190Y-86087200D01*
X141176190Y-86087200D02*
X141128571Y-86039580D01*
X141128571Y-86039580D02*
X141080952Y-85944342D01*
X141080952Y-85944342D02*
X141033333Y-85753866D01*
X141033333Y-85753866D02*
X141033333Y-85515771D01*
X141033333Y-85515771D02*
X141080952Y-85325295D01*
X141080952Y-85325295D02*
X141128571Y-85230057D01*
X141128571Y-85230057D02*
X141176190Y-85182438D01*
X141176190Y-85182438D02*
X141271428Y-85134819D01*
X142223809Y-85134819D02*
X142319047Y-85134819D01*
X142319047Y-85134819D02*
X142414285Y-85182438D01*
X142414285Y-85182438D02*
X142461904Y-85230057D01*
X142461904Y-85230057D02*
X142509523Y-85325295D01*
X142509523Y-85325295D02*
X142557142Y-85515771D01*
X142557142Y-85515771D02*
X142557142Y-85753866D01*
X142557142Y-85753866D02*
X142509523Y-85944342D01*
X142509523Y-85944342D02*
X142461904Y-86039580D01*
X142461904Y-86039580D02*
X142414285Y-86087200D01*
X142414285Y-86087200D02*
X142319047Y-86134819D01*
X142319047Y-86134819D02*
X142223809Y-86134819D01*
X142223809Y-86134819D02*
X142128571Y-86087200D01*
X142128571Y-86087200D02*
X142080952Y-86039580D01*
X142080952Y-86039580D02*
X142033333Y-85944342D01*
X142033333Y-85944342D02*
X141985714Y-85753866D01*
X141985714Y-85753866D02*
X141985714Y-85515771D01*
X141985714Y-85515771D02*
X142033333Y-85325295D01*
X142033333Y-85325295D02*
X142080952Y-85230057D01*
X142080952Y-85230057D02*
X142128571Y-85182438D01*
X142128571Y-85182438D02*
X142223809Y-85134819D01*
X142985714Y-85468152D02*
X142985714Y-86134819D01*
X142985714Y-85563390D02*
X143033333Y-85515771D01*
X143033333Y-85515771D02*
X143128571Y-85468152D01*
X143128571Y-85468152D02*
X143271428Y-85468152D01*
X143271428Y-85468152D02*
X143366666Y-85515771D01*
X143366666Y-85515771D02*
X143414285Y-85611009D01*
X143414285Y-85611009D02*
X143414285Y-86134819D01*
X144223809Y-85611009D02*
X143890476Y-85611009D01*
X143890476Y-86134819D02*
X143890476Y-85134819D01*
X143890476Y-85134819D02*
X144366666Y-85134819D01*
D11*
X142116666Y-84179530D02*
X142092857Y-84203340D01*
X142092857Y-84203340D02*
X142021428Y-84227149D01*
X142021428Y-84227149D02*
X141973809Y-84227149D01*
X141973809Y-84227149D02*
X141902381Y-84203340D01*
X141902381Y-84203340D02*
X141854762Y-84155720D01*
X141854762Y-84155720D02*
X141830952Y-84108101D01*
X141830952Y-84108101D02*
X141807143Y-84012863D01*
X141807143Y-84012863D02*
X141807143Y-83941435D01*
X141807143Y-83941435D02*
X141830952Y-83846197D01*
X141830952Y-83846197D02*
X141854762Y-83798578D01*
X141854762Y-83798578D02*
X141902381Y-83750959D01*
X141902381Y-83750959D02*
X141973809Y-83727149D01*
X141973809Y-83727149D02*
X142021428Y-83727149D01*
X142021428Y-83727149D02*
X142092857Y-83750959D01*
X142092857Y-83750959D02*
X142116666Y-83774768D01*
X142545238Y-83727149D02*
X142450000Y-83727149D01*
X142450000Y-83727149D02*
X142402381Y-83750959D01*
X142402381Y-83750959D02*
X142378571Y-83774768D01*
X142378571Y-83774768D02*
X142330952Y-83846197D01*
X142330952Y-83846197D02*
X142307143Y-83941435D01*
X142307143Y-83941435D02*
X142307143Y-84131911D01*
X142307143Y-84131911D02*
X142330952Y-84179530D01*
X142330952Y-84179530D02*
X142354762Y-84203340D01*
X142354762Y-84203340D02*
X142402381Y-84227149D01*
X142402381Y-84227149D02*
X142497619Y-84227149D01*
X142497619Y-84227149D02*
X142545238Y-84203340D01*
X142545238Y-84203340D02*
X142569047Y-84179530D01*
X142569047Y-84179530D02*
X142592857Y-84131911D01*
X142592857Y-84131911D02*
X142592857Y-84012863D01*
X142592857Y-84012863D02*
X142569047Y-83965244D01*
X142569047Y-83965244D02*
X142545238Y-83941435D01*
X142545238Y-83941435D02*
X142497619Y-83917625D01*
X142497619Y-83917625D02*
X142402381Y-83917625D01*
X142402381Y-83917625D02*
X142354762Y-83941435D01*
X142354762Y-83941435D02*
X142330952Y-83965244D01*
X142330952Y-83965244D02*
X142307143Y-84012863D01*
D10*
X150356666Y-63954819D02*
X150356666Y-64669104D01*
X150356666Y-64669104D02*
X150309047Y-64811961D01*
X150309047Y-64811961D02*
X150213809Y-64907200D01*
X150213809Y-64907200D02*
X150070952Y-64954819D01*
X150070952Y-64954819D02*
X149975714Y-64954819D01*
X151309047Y-63954819D02*
X150832857Y-63954819D01*
X150832857Y-63954819D02*
X150785238Y-64431009D01*
X150785238Y-64431009D02*
X150832857Y-64383390D01*
X150832857Y-64383390D02*
X150928095Y-64335771D01*
X150928095Y-64335771D02*
X151166190Y-64335771D01*
X151166190Y-64335771D02*
X151261428Y-64383390D01*
X151261428Y-64383390D02*
X151309047Y-64431009D01*
X151309047Y-64431009D02*
X151356666Y-64526247D01*
X151356666Y-64526247D02*
X151356666Y-64764342D01*
X151356666Y-64764342D02*
X151309047Y-64859580D01*
X151309047Y-64859580D02*
X151261428Y-64907200D01*
X151261428Y-64907200D02*
X151166190Y-64954819D01*
X151166190Y-64954819D02*
X150928095Y-64954819D01*
X150928095Y-64954819D02*
X150832857Y-64907200D01*
X150832857Y-64907200D02*
X150785238Y-64859580D01*
X141002380Y-77634819D02*
X140430952Y-77634819D01*
X140716666Y-77634819D02*
X140716666Y-76634819D01*
X140716666Y-76634819D02*
X140621428Y-76777676D01*
X140621428Y-76777676D02*
X140526190Y-76872914D01*
X140526190Y-76872914D02*
X140430952Y-76920533D01*
X141621428Y-76634819D02*
X141716666Y-76634819D01*
X141716666Y-76634819D02*
X141811904Y-76682438D01*
X141811904Y-76682438D02*
X141859523Y-76730057D01*
X141859523Y-76730057D02*
X141907142Y-76825295D01*
X141907142Y-76825295D02*
X141954761Y-77015771D01*
X141954761Y-77015771D02*
X141954761Y-77253866D01*
X141954761Y-77253866D02*
X141907142Y-77444342D01*
X141907142Y-77444342D02*
X141859523Y-77539580D01*
X141859523Y-77539580D02*
X141811904Y-77587200D01*
X141811904Y-77587200D02*
X141716666Y-77634819D01*
X141716666Y-77634819D02*
X141621428Y-77634819D01*
X141621428Y-77634819D02*
X141526190Y-77587200D01*
X141526190Y-77587200D02*
X141478571Y-77539580D01*
X141478571Y-77539580D02*
X141430952Y-77444342D01*
X141430952Y-77444342D02*
X141383333Y-77253866D01*
X141383333Y-77253866D02*
X141383333Y-77015771D01*
X141383333Y-77015771D02*
X141430952Y-76825295D01*
X141430952Y-76825295D02*
X141478571Y-76730057D01*
X141478571Y-76730057D02*
X141526190Y-76682438D01*
X141526190Y-76682438D02*
X141621428Y-76634819D01*
X142573809Y-76634819D02*
X142669047Y-76634819D01*
X142669047Y-76634819D02*
X142764285Y-76682438D01*
X142764285Y-76682438D02*
X142811904Y-76730057D01*
X142811904Y-76730057D02*
X142859523Y-76825295D01*
X142859523Y-76825295D02*
X142907142Y-77015771D01*
X142907142Y-77015771D02*
X142907142Y-77253866D01*
X142907142Y-77253866D02*
X142859523Y-77444342D01*
X142859523Y-77444342D02*
X142811904Y-77539580D01*
X142811904Y-77539580D02*
X142764285Y-77587200D01*
X142764285Y-77587200D02*
X142669047Y-77634819D01*
X142669047Y-77634819D02*
X142573809Y-77634819D01*
X142573809Y-77634819D02*
X142478571Y-77587200D01*
X142478571Y-77587200D02*
X142430952Y-77539580D01*
X142430952Y-77539580D02*
X142383333Y-77444342D01*
X142383333Y-77444342D02*
X142335714Y-77253866D01*
X142335714Y-77253866D02*
X142335714Y-77015771D01*
X142335714Y-77015771D02*
X142383333Y-76825295D01*
X142383333Y-76825295D02*
X142430952Y-76730057D01*
X142430952Y-76730057D02*
X142478571Y-76682438D01*
X142478571Y-76682438D02*
X142573809Y-76634819D01*
X143335714Y-76968152D02*
X143335714Y-77634819D01*
X143335714Y-77063390D02*
X143383333Y-77015771D01*
X143383333Y-77015771D02*
X143478571Y-76968152D01*
X143478571Y-76968152D02*
X143621428Y-76968152D01*
X143621428Y-76968152D02*
X143716666Y-77015771D01*
X143716666Y-77015771D02*
X143764285Y-77111009D01*
X143764285Y-77111009D02*
X143764285Y-77634819D01*
X144573809Y-77111009D02*
X144240476Y-77111009D01*
X144240476Y-77634819D02*
X144240476Y-76634819D01*
X144240476Y-76634819D02*
X144716666Y-76634819D01*
D11*
X142466666Y-75679530D02*
X142442857Y-75703340D01*
X142442857Y-75703340D02*
X142371428Y-75727149D01*
X142371428Y-75727149D02*
X142323809Y-75727149D01*
X142323809Y-75727149D02*
X142252381Y-75703340D01*
X142252381Y-75703340D02*
X142204762Y-75655720D01*
X142204762Y-75655720D02*
X142180952Y-75608101D01*
X142180952Y-75608101D02*
X142157143Y-75512863D01*
X142157143Y-75512863D02*
X142157143Y-75441435D01*
X142157143Y-75441435D02*
X142180952Y-75346197D01*
X142180952Y-75346197D02*
X142204762Y-75298578D01*
X142204762Y-75298578D02*
X142252381Y-75250959D01*
X142252381Y-75250959D02*
X142323809Y-75227149D01*
X142323809Y-75227149D02*
X142371428Y-75227149D01*
X142371428Y-75227149D02*
X142442857Y-75250959D01*
X142442857Y-75250959D02*
X142466666Y-75274768D01*
X142633333Y-75227149D02*
X142942857Y-75227149D01*
X142942857Y-75227149D02*
X142776190Y-75417625D01*
X142776190Y-75417625D02*
X142847619Y-75417625D01*
X142847619Y-75417625D02*
X142895238Y-75441435D01*
X142895238Y-75441435D02*
X142919047Y-75465244D01*
X142919047Y-75465244D02*
X142942857Y-75512863D01*
X142942857Y-75512863D02*
X142942857Y-75631911D01*
X142942857Y-75631911D02*
X142919047Y-75679530D01*
X142919047Y-75679530D02*
X142895238Y-75703340D01*
X142895238Y-75703340D02*
X142847619Y-75727149D01*
X142847619Y-75727149D02*
X142704762Y-75727149D01*
X142704762Y-75727149D02*
X142657143Y-75703340D01*
X142657143Y-75703340D02*
X142633333Y-75679530D01*
D10*
X156309523Y-66429580D02*
X156261904Y-66477200D01*
X156261904Y-66477200D02*
X156119047Y-66524819D01*
X156119047Y-66524819D02*
X156023809Y-66524819D01*
X156023809Y-66524819D02*
X155880952Y-66477200D01*
X155880952Y-66477200D02*
X155785714Y-66381961D01*
X155785714Y-66381961D02*
X155738095Y-66286723D01*
X155738095Y-66286723D02*
X155690476Y-66096247D01*
X155690476Y-66096247D02*
X155690476Y-65953390D01*
X155690476Y-65953390D02*
X155738095Y-65762914D01*
X155738095Y-65762914D02*
X155785714Y-65667676D01*
X155785714Y-65667676D02*
X155880952Y-65572438D01*
X155880952Y-65572438D02*
X156023809Y-65524819D01*
X156023809Y-65524819D02*
X156119047Y-65524819D01*
X156119047Y-65524819D02*
X156261904Y-65572438D01*
X156261904Y-65572438D02*
X156309523Y-65620057D01*
D11*
X155916666Y-67929530D02*
X155892857Y-67953340D01*
X155892857Y-67953340D02*
X155821428Y-67977149D01*
X155821428Y-67977149D02*
X155773809Y-67977149D01*
X155773809Y-67977149D02*
X155702381Y-67953340D01*
X155702381Y-67953340D02*
X155654762Y-67905720D01*
X155654762Y-67905720D02*
X155630952Y-67858101D01*
X155630952Y-67858101D02*
X155607143Y-67762863D01*
X155607143Y-67762863D02*
X155607143Y-67691435D01*
X155607143Y-67691435D02*
X155630952Y-67596197D01*
X155630952Y-67596197D02*
X155654762Y-67548578D01*
X155654762Y-67548578D02*
X155702381Y-67500959D01*
X155702381Y-67500959D02*
X155773809Y-67477149D01*
X155773809Y-67477149D02*
X155821428Y-67477149D01*
X155821428Y-67477149D02*
X155892857Y-67500959D01*
X155892857Y-67500959D02*
X155916666Y-67524768D01*
X156369047Y-67477149D02*
X156130952Y-67477149D01*
X156130952Y-67477149D02*
X156107143Y-67715244D01*
X156107143Y-67715244D02*
X156130952Y-67691435D01*
X156130952Y-67691435D02*
X156178571Y-67667625D01*
X156178571Y-67667625D02*
X156297619Y-67667625D01*
X156297619Y-67667625D02*
X156345238Y-67691435D01*
X156345238Y-67691435D02*
X156369047Y-67715244D01*
X156369047Y-67715244D02*
X156392857Y-67762863D01*
X156392857Y-67762863D02*
X156392857Y-67881911D01*
X156392857Y-67881911D02*
X156369047Y-67929530D01*
X156369047Y-67929530D02*
X156345238Y-67953340D01*
X156345238Y-67953340D02*
X156297619Y-67977149D01*
X156297619Y-67977149D02*
X156178571Y-67977149D01*
X156178571Y-67977149D02*
X156130952Y-67953340D01*
X156130952Y-67953340D02*
X156107143Y-67929530D01*
D12*
X141422024Y-100363855D02*
X141422024Y-99563855D01*
X141422024Y-99563855D02*
X141612500Y-99563855D01*
X141612500Y-99563855D02*
X141726786Y-99601950D01*
X141726786Y-99601950D02*
X141802976Y-99678140D01*
X141802976Y-99678140D02*
X141841071Y-99754331D01*
X141841071Y-99754331D02*
X141879167Y-99906712D01*
X141879167Y-99906712D02*
X141879167Y-100020998D01*
X141879167Y-100020998D02*
X141841071Y-100173379D01*
X141841071Y-100173379D02*
X141802976Y-100249569D01*
X141802976Y-100249569D02*
X141726786Y-100325760D01*
X141726786Y-100325760D02*
X141612500Y-100363855D01*
X141612500Y-100363855D02*
X141422024Y-100363855D01*
X142641071Y-100363855D02*
X142183928Y-100363855D01*
X142412500Y-100363855D02*
X142412500Y-99563855D01*
X142412500Y-99563855D02*
X142336309Y-99678140D01*
X142336309Y-99678140D02*
X142260119Y-99754331D01*
X142260119Y-99754331D02*
X142183928Y-99792426D01*
D13*
%TO.C,J3*%
X165480000Y-71910000D02*
X168020000Y-71910000D01*
X165480000Y-107470000D02*
X165480000Y-71910000D01*
X167385000Y-107470000D02*
X165480000Y-107470000D01*
X168020000Y-71910000D02*
X168020000Y-106835000D01*
X168020000Y-106835000D02*
X167385000Y-107470000D01*
%TO.C,C2*%
X141000000Y-89625000D02*
X143000000Y-89625000D01*
X141000000Y-90875000D02*
X141000000Y-89625000D01*
X143000000Y-89625000D02*
X143000000Y-90875000D01*
X143000000Y-90875000D02*
X141000000Y-90875000D01*
%TO.C,R1*%
X141500000Y-70125000D02*
X143500000Y-70125000D01*
X141500000Y-71375000D02*
X141500000Y-70125000D01*
X143500000Y-70125000D02*
X143500000Y-71375000D01*
X143500000Y-71375000D02*
X141500000Y-71375000D01*
%TO.C,U1*%
X146515000Y-70330000D02*
X147515000Y-69330000D01*
X146515000Y-104890000D02*
X146515000Y-70330000D01*
X147515000Y-69330000D02*
X152865000Y-69330000D01*
X152865000Y-69330000D02*
X152865000Y-104890000D01*
X152865000Y-104890000D02*
X146515000Y-104890000D01*
%TO.C,U2*%
X157050000Y-98800000D02*
X161950000Y-98800000D01*
X157050000Y-101725000D02*
X157050000Y-98800000D01*
X158025000Y-102700000D02*
X157050000Y-101725000D01*
X161950000Y-98800000D02*
X161950000Y-102700000D01*
X161950000Y-102700000D02*
X158025000Y-102700000D01*
%TO.C,C7*%
X155125000Y-101750000D02*
X156375000Y-101750000D01*
X155125000Y-103750000D02*
X155125000Y-101750000D01*
X156375000Y-101750000D02*
X156375000Y-103750000D01*
X156375000Y-103750000D02*
X155125000Y-103750000D01*
%TO.C,C4*%
X141050000Y-78375000D02*
X143050000Y-78375000D01*
X141050000Y-79625000D02*
X141050000Y-78375000D01*
X143050000Y-78375000D02*
X143050000Y-79625000D01*
X143050000Y-79625000D02*
X141050000Y-79625000D01*
%TO.C,Y1*%
X156925000Y-79260000D02*
X156925000Y-72860000D01*
X161575000Y-79260000D02*
X161575000Y-72860000D01*
X156925000Y-72860000D02*
G75*
G02*
X161575000Y-72860000I2325000J0D01*
G01*
X161575000Y-79260000D02*
G75*
G02*
X156925000Y-79260000I-2325000J0D01*
G01*
%TO.C,R2*%
X141012500Y-96125000D02*
X143012500Y-96125000D01*
X141012500Y-97375000D02*
X141012500Y-96125000D01*
X143012500Y-96125000D02*
X143012500Y-97375000D01*
X143012500Y-97375000D02*
X141012500Y-97375000D01*
%TO.C,J1*%
X141070000Y-107230000D02*
X156310000Y-107230000D01*
X141070000Y-109135000D02*
X141070000Y-107230000D01*
X141705000Y-109770000D02*
X141070000Y-109135000D01*
X156310000Y-107230000D02*
X156310000Y-109770000D01*
X156310000Y-109770000D02*
X141705000Y-109770000D01*
%TO.C,J2*%
X130230000Y-74285000D02*
X130865000Y-73650000D01*
X130230000Y-109210000D02*
X130230000Y-74285000D01*
X130865000Y-73650000D02*
X132770000Y-73650000D01*
X132770000Y-73650000D02*
X132770000Y-109210000D01*
X132770000Y-109210000D02*
X130230000Y-109210000D01*
%TO.C,C8*%
X155125000Y-97750000D02*
X156375000Y-97750000D01*
X155125000Y-99750000D02*
X155125000Y-97750000D01*
X156375000Y-97750000D02*
X156375000Y-99750000D01*
X156375000Y-99750000D02*
X155125000Y-99750000D01*
%TO.C,C1*%
X141000000Y-92625000D02*
X143000000Y-92625000D01*
X141000000Y-93875000D02*
X141000000Y-92625000D01*
X143000000Y-92625000D02*
X143000000Y-93875000D01*
X143000000Y-93875000D02*
X141000000Y-93875000D01*
%TO.C,SW1*%
X133750000Y-64500000D02*
X139750000Y-64500000D01*
X133750000Y-67500000D02*
X133750000Y-64500000D01*
X133750000Y-70500000D02*
X133750000Y-67500000D01*
X139750000Y-64500000D02*
X139750000Y-70500000D01*
X139750000Y-70500000D02*
X133750000Y-70500000D01*
X138765564Y-67500000D02*
G75*
G02*
X134734436Y-67500000I-2015564J0D01*
G01*
X134734436Y-67500000D02*
G75*
G02*
X138765564Y-67500000I2015564J0D01*
G01*
%TO.C,C6*%
X141200000Y-83375000D02*
X143200000Y-83375000D01*
X141200000Y-84625000D02*
X141200000Y-83375000D01*
X143200000Y-83375000D02*
X143200000Y-84625000D01*
X143200000Y-84625000D02*
X141200000Y-84625000D01*
%TO.C,J5*%
X143070000Y-63230000D02*
X158310000Y-63230000D01*
X143070000Y-65135000D02*
X143070000Y-63230000D01*
X143705000Y-65770000D02*
X143070000Y-65135000D01*
X158310000Y-63230000D02*
X158310000Y-65770000D01*
X158310000Y-65770000D02*
X143705000Y-65770000D01*
%TO.C,C3*%
X141550000Y-74875000D02*
X143550000Y-74875000D01*
X141550000Y-76125000D02*
X141550000Y-74875000D01*
X143550000Y-74875000D02*
X143550000Y-76125000D01*
X143550000Y-76125000D02*
X141550000Y-76125000D01*
%TO.C,C5*%
X155000000Y-67125000D02*
X157000000Y-67125000D01*
X155000000Y-68375000D02*
X155000000Y-67125000D01*
X157000000Y-67125000D02*
X157000000Y-68375000D01*
X157000000Y-68375000D02*
X155000000Y-68375000D01*
%TO.C,D1*%
X140412500Y-99600000D02*
X140412500Y-100800000D01*
X140412500Y-100800000D02*
X143612500Y-100800000D01*
X140812500Y-99200000D02*
X140412500Y-99600000D01*
X143612500Y-99200000D02*
X140812500Y-99200000D01*
X143612500Y-100800000D02*
X143612500Y-99200000D01*
%TD*%
M02*
