%TF.GenerationSoftware,KiCad,Pcbnew,9.0.2*%
%TF.CreationDate,2025-07-07T19:43:33+05:30*%
%TF.ProjectId,Atmega328p_based,41746d65-6761-4333-9238-705f62617365,rev?*%
%TF.SameCoordinates,Original*%
%TF.FileFunction,Copper,L2,Bot*%
%TF.FilePolarity,Positive*%
%FSLAX46Y46*%
G04 Gerber Fmt 4.6, Leading zero omitted, Abs format (unit mm)*
G04 Created by KiCad (PCBNEW 9.0.2) date 2025-07-07 19:43:33*
%MOMM*%
%LPD*%
G01*
G04 APERTURE LIST*
G04 Aperture macros list*
%AMRoundRect*
0 Rectangle with rounded corners*
0 $1 Rounding radius*
0 $2 $3 $4 $5 $6 $7 $8 $9 X,Y pos of 4 corners*
0 Add a 4 corners polygon primitive as box body*
4,1,4,$2,$3,$4,$5,$6,$7,$8,$9,$2,$3,0*
0 Add four circle primitives for the rounded corners*
1,1,$1+$1,$2,$3*
1,1,$1+$1,$4,$5*
1,1,$1+$1,$6,$7*
1,1,$1+$1,$8,$9*
0 Add four rect primitives between the rounded corners*
20,1,$1+$1,$2,$3,$4,$5,0*
20,1,$1+$1,$4,$5,$6,$7,0*
20,1,$1+$1,$6,$7,$8,$9,0*
20,1,$1+$1,$8,$9,$2,$3,0*%
G04 Aperture macros list end*
%TA.AperFunction,ComponentPad*%
%ADD10R,1.700000X1.700000*%
%TD*%
%TA.AperFunction,ComponentPad*%
%ADD11C,1.700000*%
%TD*%
%TA.AperFunction,ComponentPad*%
%ADD12RoundRect,0.250000X-0.550000X-0.550000X0.550000X-0.550000X0.550000X0.550000X-0.550000X0.550000X0*%
%TD*%
%TA.AperFunction,ComponentPad*%
%ADD13C,1.600000*%
%TD*%
%TA.AperFunction,ComponentPad*%
%ADD14C,1.500000*%
%TD*%
%TA.AperFunction,ComponentPad*%
%ADD15C,2.000000*%
%TD*%
%TA.AperFunction,ViaPad*%
%ADD16C,0.600000*%
%TD*%
%TA.AperFunction,Conductor*%
%ADD17C,0.500000*%
%TD*%
%TA.AperFunction,Conductor*%
%ADD18C,0.300000*%
%TD*%
%TA.AperFunction,Conductor*%
%ADD19C,0.200000*%
%TD*%
G04 APERTURE END LIST*
D10*
%TO.P,J3,1,Pin_1*%
%TO.N,/A0*%
X166750000Y-106200000D03*
D11*
%TO.P,J3,2,Pin_2*%
%TO.N,/A1*%
X166750000Y-103660000D03*
%TO.P,J3,3,Pin_3*%
%TO.N,/A2*%
X166750000Y-101120000D03*
%TO.P,J3,4,Pin_4*%
%TO.N,/A3*%
X166750000Y-98580000D03*
%TO.P,J3,5,Pin_5*%
%TO.N,/A4*%
X166750000Y-96040000D03*
%TO.P,J3,6,Pin_6*%
%TO.N,/A5*%
X166750000Y-93500000D03*
%TO.P,J3,7,Pin_7*%
%TO.N,/AREF*%
X166750000Y-90960000D03*
%TO.P,J3,8,Pin_8*%
%TO.N,unconnected-(J3-Pin_8-Pad8)*%
X166750000Y-88420000D03*
%TO.P,J3,9,Pin_9*%
%TO.N,unconnected-(J3-Pin_9-Pad9)*%
X166750000Y-85880000D03*
%TO.P,J3,10,Pin_10*%
%TO.N,GND*%
X166750000Y-83340000D03*
%TO.P,J3,11,Pin_11*%
X166750000Y-80800000D03*
%TO.P,J3,12,Pin_12*%
%TO.N,+5V*%
X166750000Y-78260000D03*
%TO.P,J3,13,Pin_13*%
%TO.N,Vin*%
X166750000Y-75720000D03*
%TO.P,J3,14,Pin_14*%
%TO.N,/RST *%
X166750000Y-73180000D03*
%TD*%
D12*
%TO.P,U1,1,~{RESET}/PC6*%
%TO.N,/RST *%
X145880000Y-70600000D03*
D13*
%TO.P,U1,2,PD0*%
%TO.N,/RX*%
X145880000Y-73140000D03*
%TO.P,U1,3,PD1*%
%TO.N,/TX*%
X145880000Y-75680000D03*
%TO.P,U1,4,PD2*%
%TO.N,/D2*%
X145880000Y-78220000D03*
%TO.P,U1,5,PD3*%
%TO.N,/D3*%
X145880000Y-80760000D03*
%TO.P,U1,6,PD4*%
%TO.N,/D4*%
X145880000Y-83300000D03*
%TO.P,U1,7,VCC*%
%TO.N,+5V*%
X145880000Y-85840000D03*
%TO.P,U1,8,GND*%
%TO.N,GND*%
X145880000Y-88380000D03*
%TO.P,U1,9,XTAL1/PB6*%
%TO.N,/PB6*%
X145880000Y-90920000D03*
%TO.P,U1,10,XTAL2/PB7*%
%TO.N,/PB7*%
X145880000Y-93460000D03*
%TO.P,U1,11,PD5*%
%TO.N,/D5*%
X145880000Y-96000000D03*
%TO.P,U1,12,PD6*%
%TO.N,/D6*%
X145880000Y-98540000D03*
%TO.P,U1,13,PD7*%
%TO.N,/D7*%
X145880000Y-101080000D03*
%TO.P,U1,14,PB0*%
%TO.N,/D8*%
X145880000Y-103620000D03*
%TO.P,U1,15,PB1*%
%TO.N,/D9*%
X153500000Y-103620000D03*
%TO.P,U1,16,PB2*%
%TO.N,/D10*%
X153500000Y-101080000D03*
%TO.P,U1,17,PB3*%
%TO.N,/ MOSI*%
X153500000Y-98540000D03*
%TO.P,U1,18,PB4*%
%TO.N,/MISO*%
X153500000Y-96000000D03*
%TO.P,U1,19,PB5*%
%TO.N,/SCK*%
X153500000Y-93460000D03*
%TO.P,U1,20,AVCC*%
%TO.N,+5V*%
X153500000Y-90920000D03*
%TO.P,U1,21,AREF*%
%TO.N,/AREF*%
X153500000Y-88380000D03*
%TO.P,U1,22,GND*%
%TO.N,GND*%
X153500000Y-85840000D03*
%TO.P,U1,23,PC0*%
%TO.N,/A0*%
X153500000Y-83300000D03*
%TO.P,U1,24,PC1*%
%TO.N,/A1*%
X153500000Y-80760000D03*
%TO.P,U1,25,PC2*%
%TO.N,/A2*%
X153500000Y-78220000D03*
%TO.P,U1,26,PC3*%
%TO.N,/A3*%
X153500000Y-75680000D03*
%TO.P,U1,27,PC4*%
%TO.N,/SDA*%
X153500000Y-73140000D03*
%TO.P,U1,28,PC5*%
%TO.N,/SCL*%
X153500000Y-70600000D03*
%TD*%
D14*
%TO.P,Y1,1,1*%
%TO.N,/PB7*%
X159250000Y-78500000D03*
%TO.P,Y1,2,2*%
%TO.N,/PB6*%
X159250000Y-73620000D03*
%TD*%
D10*
%TO.P,J1,1,MISO*%
%TO.N,/MISO*%
X142340000Y-108500000D03*
D11*
%TO.P,J1,2,VCC*%
%TO.N,+5V*%
X144880000Y-108500000D03*
%TO.P,J1,3,SCK*%
%TO.N,/SCK*%
X147420000Y-108500000D03*
%TO.P,J1,4,MOSI*%
%TO.N,/ MOSI*%
X149960000Y-108500000D03*
%TO.P,J1,5,~{RST}*%
%TO.N,/RST *%
X152500000Y-108500000D03*
%TO.P,J1,6,GND*%
%TO.N,GND*%
X155040000Y-108500000D03*
%TD*%
D10*
%TO.P,J2,1,Pin_1*%
%TO.N,/RX*%
X131500000Y-74920000D03*
D11*
%TO.P,J2,2,Pin_2*%
%TO.N,/TX*%
X131500000Y-77460000D03*
%TO.P,J2,3,Pin_3*%
%TO.N,/D2*%
X131500000Y-80000000D03*
%TO.P,J2,4,Pin_4*%
%TO.N,/D3*%
X131500000Y-82540000D03*
%TO.P,J2,5,Pin_5*%
%TO.N,/D4*%
X131500000Y-85080000D03*
%TO.P,J2,6,Pin_6*%
%TO.N,/D5*%
X131500000Y-87620000D03*
%TO.P,J2,7,Pin_7*%
%TO.N,/D6*%
X131500000Y-90160000D03*
%TO.P,J2,8,Pin_8*%
%TO.N,/D7*%
X131500000Y-92700000D03*
%TO.P,J2,9,Pin_9*%
%TO.N,/D8*%
X131500000Y-95240000D03*
%TO.P,J2,10,Pin_10*%
%TO.N,/D9*%
X131500000Y-97780000D03*
%TO.P,J2,11,Pin_11*%
%TO.N,/D10*%
X131500000Y-100320000D03*
%TO.P,J2,12,Pin_12*%
%TO.N,/ MOSI*%
X131500000Y-102860000D03*
%TO.P,J2,13,Pin_13*%
%TO.N,/ MISO*%
X131500000Y-105400000D03*
%TO.P,J2,14,Pin_14*%
%TO.N,/SCK*%
X131500000Y-107940000D03*
%TD*%
D15*
%TO.P,SW1,1,1*%
%TO.N,/RST *%
X134500000Y-70750000D03*
X134500000Y-64250000D03*
%TO.P,SW1,2,2*%
%TO.N,GND*%
X139000000Y-70750000D03*
X139000000Y-64250000D03*
%TD*%
D10*
%TO.P,J5,1,Pin_1*%
%TO.N,GND*%
X144340000Y-64500000D03*
D11*
%TO.P,J5,2,Pin_2*%
%TO.N,+5V*%
X146880000Y-64500000D03*
%TO.P,J5,3,Pin_3*%
%TO.N,/RX*%
X149420000Y-64500000D03*
%TO.P,J5,4,Pin_4*%
%TO.N,/TX*%
X151960000Y-64500000D03*
%TO.P,J5,5,Pin_5*%
%TO.N,/CTS - AVR*%
X154500000Y-64500000D03*
%TO.P,J5,6,Pin_6*%
%TO.N,/DTR - AVR*%
X157040000Y-64500000D03*
%TD*%
D16*
%TO.N,GND*%
X163945700Y-85840000D03*
X144168300Y-72129800D03*
%TO.N,+5V*%
X151352000Y-87426400D03*
X163224600Y-83994500D03*
X139497000Y-88732100D03*
X159221200Y-94836100D03*
%TO.N,/RST *%
X157875000Y-106125000D03*
%TO.N,/AREF*%
X144168800Y-87018200D03*
%TO.N,/D7*%
X147840300Y-95181900D03*
%TO.N,/D8*%
X142734400Y-98287500D03*
%TO.N,/A3*%
X164654200Y-80736100D03*
%TO.N,/A0*%
X164434500Y-82786900D03*
%TO.N,/A2*%
X154346000Y-100077300D03*
%TO.N,/A1*%
X162089500Y-101974200D03*
%TO.N,Vin*%
X161212200Y-100950700D03*
X156019000Y-100763100D03*
%TO.N,/PB7*%
X151509200Y-79166300D03*
%TD*%
D17*
%TO.N,GND*%
X139250000Y-64500000D02*
X139000000Y-64250000D01*
X145880000Y-88380000D02*
X151461500Y-88380000D01*
X164250000Y-85840000D02*
X166750000Y-83340000D01*
X139000000Y-70750000D02*
X142788500Y-70750000D01*
X151461500Y-88380000D02*
X153500000Y-86341500D01*
X153500000Y-86341500D02*
X153500000Y-85840000D01*
X144340000Y-64500000D02*
X139250000Y-64500000D01*
X153500000Y-85840000D02*
X163945700Y-85840000D01*
X142788500Y-70750000D02*
X144168300Y-72129800D01*
X163945700Y-85840000D02*
X164250000Y-85840000D01*
%TO.N,+5V*%
X152919400Y-84570000D02*
X150707500Y-86781900D01*
X139497000Y-88732100D02*
X142389100Y-85840000D01*
X159221200Y-94836100D02*
X157416100Y-94836100D01*
X151352000Y-87426400D02*
X150707500Y-86781900D01*
X163224600Y-83994500D02*
X162649100Y-84570000D01*
X150707500Y-86781900D02*
X149765600Y-85840000D01*
X162649100Y-84570000D02*
X152919400Y-84570000D01*
X149765600Y-85840000D02*
X145880000Y-85840000D01*
X142389100Y-85840000D02*
X145880000Y-85840000D01*
X157416100Y-94836100D02*
X153500000Y-90920000D01*
D18*
%TO.N,/RST *%
X154875000Y-106125000D02*
X152500000Y-108500000D01*
X145880000Y-70600000D02*
X144649500Y-69369500D01*
X135880500Y-69369500D02*
X134500000Y-70750000D01*
X165440000Y-71870000D02*
X147150000Y-71870000D01*
X166750000Y-73180000D02*
X165440000Y-71870000D01*
X147150000Y-71870000D02*
X145880000Y-70600000D01*
X157875000Y-106125000D02*
X154875000Y-106125000D01*
X144649500Y-69369500D02*
X135880500Y-69369500D01*
%TO.N,/AREF*%
X152298800Y-89581200D02*
X145437600Y-89581200D01*
X144168800Y-88312400D02*
X144168800Y-87018200D01*
X153500000Y-88380000D02*
X156080000Y-90960000D01*
X156080000Y-90960000D02*
X166750000Y-90960000D01*
X153500000Y-88380000D02*
X152298800Y-89581200D01*
X145437600Y-89581200D02*
X144168800Y-88312400D01*
%TO.N,/D10*%
X131500000Y-100320000D02*
X131946300Y-99873700D01*
X152293700Y-99873700D02*
X153500000Y-101080000D01*
X131946300Y-99873700D02*
X152293700Y-99873700D01*
D19*
%TO.N,/D6*%
X130301100Y-91358900D02*
X130301100Y-93142900D01*
X141310000Y-93970000D02*
X145880000Y-98540000D01*
X130301100Y-93142900D02*
X131128200Y-93970000D01*
X131500000Y-90160000D02*
X130301100Y-91358900D01*
X131128200Y-93970000D02*
X141310000Y-93970000D01*
D18*
%TO.N,/D2*%
X131500000Y-80000000D02*
X144100000Y-80000000D01*
X144100000Y-80000000D02*
X145880000Y-78220000D01*
%TO.N,/D5*%
X137463400Y-87620000D02*
X145843400Y-96000000D01*
X145843400Y-96000000D02*
X145880000Y-96000000D01*
X131500000Y-87620000D02*
X137463400Y-87620000D01*
%TO.N,/D4*%
X145880000Y-83300000D02*
X144100000Y-85080000D01*
X144100000Y-85080000D02*
X131500000Y-85080000D01*
%TO.N,/D7*%
X147840300Y-95741000D02*
X147840300Y-95181900D01*
X145283800Y-97168700D02*
X146412600Y-97168700D01*
X140815100Y-92700000D02*
X145283800Y-97168700D01*
X131500000Y-92700000D02*
X140815100Y-92700000D01*
X146412600Y-97168700D02*
X147840300Y-95741000D01*
%TO.N,/D3*%
X145880000Y-80760000D02*
X133280000Y-80760000D01*
X133280000Y-80760000D02*
X131500000Y-82540000D01*
%TO.N,/D9*%
X130294500Y-100855100D02*
X130965600Y-101526200D01*
X138213800Y-101526200D02*
X139037600Y-102350000D01*
X130294500Y-98985500D02*
X130294500Y-100855100D01*
X139037600Y-102350000D02*
X152230000Y-102350000D01*
X152230000Y-102350000D02*
X153500000Y-103620000D01*
X130965600Y-101526200D02*
X138213800Y-101526200D01*
X131500000Y-97780000D02*
X130294500Y-98985500D01*
%TO.N,/D8*%
X134547500Y-98287500D02*
X131500000Y-95240000D01*
X142734400Y-98287500D02*
X134547500Y-98287500D01*
%TO.N,/A3*%
X159598100Y-75680000D02*
X164654200Y-80736100D01*
X153500000Y-75680000D02*
X159598100Y-75680000D01*
%TO.N,/A0*%
X153500000Y-83300000D02*
X154013100Y-82786900D01*
X154013100Y-82786900D02*
X164434500Y-82786900D01*
%TO.N,/A2*%
X154346000Y-100077300D02*
X165707300Y-100077300D01*
X165707300Y-100077300D02*
X166750000Y-101120000D01*
%TO.N,/A1*%
X163775300Y-103660000D02*
X166750000Y-103660000D01*
X162089500Y-101974200D02*
X163775300Y-103660000D01*
D17*
%TO.N,Vin*%
X156206600Y-100950700D02*
X156019000Y-100763100D01*
X161212200Y-100950700D02*
X156206600Y-100950700D01*
D18*
%TO.N,/PB7*%
X151752000Y-79409100D02*
X158340900Y-79409100D01*
X158340900Y-79409100D02*
X159250000Y-78500000D01*
X151509200Y-79166300D02*
X151752000Y-79409100D01*
%TO.N,/SCK*%
X132199100Y-107240900D02*
X146160900Y-107240900D01*
X146160900Y-107240900D02*
X147420000Y-108500000D01*
X131500000Y-107940000D02*
X132199100Y-107240900D01*
%TO.N,/ MOSI*%
X134851900Y-106211900D02*
X147671900Y-106211900D01*
X131500000Y-102860000D02*
X134851900Y-106211900D01*
X147671900Y-106211900D02*
X149960000Y-108500000D01*
%TO.N,/TX*%
X144100000Y-77460000D02*
X145880000Y-75680000D01*
X131500000Y-77460000D02*
X144100000Y-77460000D01*
%TO.N,/RX*%
X145880000Y-73140000D02*
X144100000Y-74920000D01*
X144100000Y-74920000D02*
X131500000Y-74920000D01*
%TD*%
%TA.AperFunction,Conductor*%
%TO.N,GND*%
G36*
X168442539Y-62520185D02*
G01*
X168488294Y-62572989D01*
X168499500Y-62624500D01*
X168499500Y-110375500D01*
X168479815Y-110442539D01*
X168427011Y-110488294D01*
X168375500Y-110499500D01*
X162959029Y-110499500D01*
X162891990Y-110479815D01*
X162846235Y-110427011D01*
X162836291Y-110357853D01*
X162865316Y-110294297D01*
X162878493Y-110281214D01*
X162879789Y-110280106D01*
X162879788Y-110280106D01*
X162879792Y-110280104D01*
X163030104Y-110129792D01*
X163030106Y-110129788D01*
X163030109Y-110129786D01*
X163155048Y-109957820D01*
X163155047Y-109957820D01*
X163155051Y-109957816D01*
X163251557Y-109768412D01*
X163317246Y-109566243D01*
X163350500Y-109356287D01*
X163350500Y-109143713D01*
X163317246Y-108933757D01*
X163251557Y-108731588D01*
X163155051Y-108542184D01*
X163155049Y-108542181D01*
X163155048Y-108542179D01*
X163030109Y-108370213D01*
X162879786Y-108219890D01*
X162707820Y-108094951D01*
X162518414Y-107998444D01*
X162518413Y-107998443D01*
X162518412Y-107998443D01*
X162316243Y-107932754D01*
X162316241Y-107932753D01*
X162316240Y-107932753D01*
X162125897Y-107902606D01*
X162106287Y-107899500D01*
X161893713Y-107899500D01*
X161874103Y-107902606D01*
X161683760Y-107932753D01*
X161481585Y-107998444D01*
X161292179Y-108094951D01*
X161120213Y-108219890D01*
X160969890Y-108370213D01*
X160844951Y-108542179D01*
X160748444Y-108731585D01*
X160682753Y-108933760D01*
X160669346Y-109018412D01*
X160649500Y-109143713D01*
X160649500Y-109356287D01*
X160656087Y-109397873D01*
X160669146Y-109480330D01*
X160682754Y-109566243D01*
X160742966Y-109751557D01*
X160748444Y-109768414D01*
X160844951Y-109957820D01*
X160969890Y-110129786D01*
X161120210Y-110280106D01*
X161121507Y-110281214D01*
X161121862Y-110281758D01*
X161123653Y-110283549D01*
X161123276Y-110283925D01*
X161159698Y-110339723D01*
X161160193Y-110409591D01*
X161122836Y-110468635D01*
X161059488Y-110498110D01*
X161040971Y-110499500D01*
X137459029Y-110499500D01*
X137391990Y-110479815D01*
X137346235Y-110427011D01*
X137336291Y-110357853D01*
X137365316Y-110294297D01*
X137378493Y-110281214D01*
X137379789Y-110280106D01*
X137379788Y-110280106D01*
X137379792Y-110280104D01*
X137530104Y-110129792D01*
X137530106Y-110129788D01*
X137530109Y-110129786D01*
X137655048Y-109957820D01*
X137655047Y-109957820D01*
X137655051Y-109957816D01*
X137751557Y-109768412D01*
X137817246Y-109566243D01*
X137850500Y-109356287D01*
X137850500Y-109143713D01*
X137817246Y-108933757D01*
X137751557Y-108731588D01*
X137655051Y-108542184D01*
X137655049Y-108542181D01*
X137655048Y-108542179D01*
X137530109Y-108370213D01*
X137379792Y-108219896D01*
X137330205Y-108183869D01*
X137236402Y-108115717D01*
X137193737Y-108060389D01*
X137187758Y-107990775D01*
X137220363Y-107928980D01*
X137281202Y-107894623D01*
X137309288Y-107891400D01*
X140865500Y-107891400D01*
X140932539Y-107911085D01*
X140978294Y-107963889D01*
X140989500Y-108015400D01*
X140989500Y-109397870D01*
X140989501Y-109397876D01*
X140995908Y-109457483D01*
X141046202Y-109592328D01*
X141046206Y-109592335D01*
X141132452Y-109707544D01*
X141132455Y-109707547D01*
X141247664Y-109793793D01*
X141247671Y-109793797D01*
X141382517Y-109844091D01*
X141382516Y-109844091D01*
X141389444Y-109844835D01*
X141442127Y-109850500D01*
X143237872Y-109850499D01*
X143297483Y-109844091D01*
X143432331Y-109793796D01*
X143547546Y-109707546D01*
X143633796Y-109592331D01*
X143682810Y-109460916D01*
X143724681Y-109404984D01*
X143790145Y-109380566D01*
X143858418Y-109395417D01*
X143886673Y-109416569D01*
X144000213Y-109530109D01*
X144172179Y-109655048D01*
X144172181Y-109655049D01*
X144172184Y-109655051D01*
X144361588Y-109751557D01*
X144563757Y-109817246D01*
X144773713Y-109850500D01*
X144773714Y-109850500D01*
X144986286Y-109850500D01*
X144986287Y-109850500D01*
X145196243Y-109817246D01*
X145398412Y-109751557D01*
X145587816Y-109655051D01*
X145674138Y-109592335D01*
X145759786Y-109530109D01*
X145759788Y-109530106D01*
X145759792Y-109530104D01*
X145910104Y-109379792D01*
X145910106Y-109379788D01*
X145910109Y-109379786D01*
X146035048Y-109207820D01*
X146035047Y-109207820D01*
X146035051Y-109207816D01*
X146039514Y-109199054D01*
X146087488Y-109148259D01*
X146155308Y-109131463D01*
X146221444Y-109153999D01*
X146260486Y-109199056D01*
X146264951Y-109207820D01*
X146389890Y-109379786D01*
X146540213Y-109530109D01*
X146712179Y-109655048D01*
X146712181Y-109655049D01*
X146712184Y-109655051D01*
X146901588Y-109751557D01*
X147103757Y-109817246D01*
X147313713Y-109850500D01*
X147313714Y-109850500D01*
X147526286Y-109850500D01*
X147526287Y-109850500D01*
X147736243Y-109817246D01*
X147938412Y-109751557D01*
X148127816Y-109655051D01*
X148214138Y-109592335D01*
X148299786Y-109530109D01*
X148299788Y-109530106D01*
X148299792Y-109530104D01*
X148450104Y-109379792D01*
X148450106Y-109379788D01*
X148450109Y-109379786D01*
X148575048Y-109207820D01*
X148575047Y-109207820D01*
X148575051Y-109207816D01*
X148579514Y-109199054D01*
X148627488Y-109148259D01*
X148695308Y-109131463D01*
X148761444Y-109153999D01*
X148800486Y-109199056D01*
X148804951Y-109207820D01*
X148929890Y-109379786D01*
X149080213Y-109530109D01*
X149252179Y-109655048D01*
X149252181Y-109655049D01*
X149252184Y-109655051D01*
X149441588Y-109751557D01*
X149643757Y-109817246D01*
X149853713Y-109850500D01*
X149853714Y-109850500D01*
X150066286Y-109850500D01*
X150066287Y-109850500D01*
X150276243Y-109817246D01*
X150478412Y-109751557D01*
X150667816Y-109655051D01*
X150754138Y-109592335D01*
X150839786Y-109530109D01*
X150839788Y-109530106D01*
X150839792Y-109530104D01*
X150990104Y-109379792D01*
X150990106Y-109379788D01*
X150990109Y-109379786D01*
X151115048Y-109207820D01*
X151115047Y-109207820D01*
X151115051Y-109207816D01*
X151119514Y-109199054D01*
X151167488Y-109148259D01*
X151235308Y-109131463D01*
X151301444Y-109153999D01*
X151340486Y-109199056D01*
X151344951Y-109207820D01*
X151469890Y-109379786D01*
X151620213Y-109530109D01*
X151792179Y-109655048D01*
X151792181Y-109655049D01*
X151792184Y-109655051D01*
X151981588Y-109751557D01*
X152183757Y-109817246D01*
X152393713Y-109850500D01*
X152393714Y-109850500D01*
X152606286Y-109850500D01*
X152606287Y-109850500D01*
X152816243Y-109817246D01*
X153018412Y-109751557D01*
X153207816Y-109655051D01*
X153294138Y-109592335D01*
X153379786Y-109530109D01*
X153379788Y-109530106D01*
X153379792Y-109530104D01*
X153530104Y-109379792D01*
X153530106Y-109379788D01*
X153530109Y-109379786D01*
X153615890Y-109261717D01*
X153655051Y-109207816D01*
X153659793Y-109198508D01*
X153707763Y-109147711D01*
X153775583Y-109130911D01*
X153841719Y-109153445D01*
X153880763Y-109198500D01*
X153885373Y-109207547D01*
X153924728Y-109261716D01*
X154557037Y-108629408D01*
X154574075Y-108692993D01*
X154639901Y-108807007D01*
X154732993Y-108900099D01*
X154847007Y-108965925D01*
X154910590Y-108982962D01*
X154278282Y-109615269D01*
X154278282Y-109615270D01*
X154332449Y-109654624D01*
X154521782Y-109751095D01*
X154723870Y-109816757D01*
X154933754Y-109850000D01*
X155146246Y-109850000D01*
X155356127Y-109816757D01*
X155356130Y-109816757D01*
X155558217Y-109751095D01*
X155747554Y-109654622D01*
X155801716Y-109615270D01*
X155801717Y-109615270D01*
X155169408Y-108982962D01*
X155232993Y-108965925D01*
X155347007Y-108900099D01*
X155440099Y-108807007D01*
X155505925Y-108692993D01*
X155522962Y-108629408D01*
X156155270Y-109261717D01*
X156155270Y-109261716D01*
X156194622Y-109207554D01*
X156291095Y-109018217D01*
X156356757Y-108816130D01*
X156356757Y-108816127D01*
X156390000Y-108606246D01*
X156390000Y-108393753D01*
X156356757Y-108183872D01*
X156356757Y-108183869D01*
X156291095Y-107981782D01*
X156194624Y-107792449D01*
X156155270Y-107738282D01*
X156155269Y-107738282D01*
X155522962Y-108370590D01*
X155505925Y-108307007D01*
X155440099Y-108192993D01*
X155347007Y-108099901D01*
X155232993Y-108034075D01*
X155169408Y-108017037D01*
X155801716Y-107384728D01*
X155747550Y-107345375D01*
X155558217Y-107248904D01*
X155356129Y-107183242D01*
X155146246Y-107150000D01*
X155069306Y-107150000D01*
X155048060Y-107143761D01*
X155025972Y-107142182D01*
X155015188Y-107134109D01*
X155002267Y-107130315D01*
X154987767Y-107113581D01*
X154970039Y-107100310D01*
X154965331Y-107087689D01*
X154956512Y-107077511D01*
X154953360Y-107055593D01*
X154945622Y-107034846D01*
X154948484Y-107021685D01*
X154946568Y-107008353D01*
X154955767Y-106988209D01*
X154960474Y-106966573D01*
X154973743Y-106948846D01*
X154975593Y-106944797D01*
X154981599Y-106938345D01*
X155108128Y-106811816D01*
X155169449Y-106778334D01*
X155195807Y-106775500D01*
X157370065Y-106775500D01*
X157437104Y-106795185D01*
X157438909Y-106796366D01*
X157495821Y-106834394D01*
X157495823Y-106834395D01*
X157495827Y-106834397D01*
X157610958Y-106882085D01*
X157641503Y-106894737D01*
X157796153Y-106925499D01*
X157796156Y-106925500D01*
X157796158Y-106925500D01*
X157953844Y-106925500D01*
X157953845Y-106925499D01*
X158108497Y-106894737D01*
X158254179Y-106834394D01*
X158385289Y-106746789D01*
X158496789Y-106635289D01*
X158584394Y-106504179D01*
X158644737Y-106358497D01*
X158675500Y-106203842D01*
X158675500Y-106046158D01*
X158675500Y-106046155D01*
X158675499Y-106046153D01*
X158650090Y-105918414D01*
X158644737Y-105891503D01*
X158644735Y-105891498D01*
X158584397Y-105745827D01*
X158584390Y-105745814D01*
X158496789Y-105614711D01*
X158496786Y-105614707D01*
X158385292Y-105503213D01*
X158385288Y-105503210D01*
X158254185Y-105415609D01*
X158254172Y-105415602D01*
X158108501Y-105355264D01*
X158108489Y-105355261D01*
X157953845Y-105324500D01*
X157953842Y-105324500D01*
X157796158Y-105324500D01*
X157796155Y-105324500D01*
X157641510Y-105355261D01*
X157641498Y-105355264D01*
X157495827Y-105415602D01*
X157495820Y-105415606D01*
X157474566Y-105429808D01*
X157438955Y-105453602D01*
X157372279Y-105474480D01*
X157370065Y-105474500D01*
X154810929Y-105474500D01*
X154690072Y-105498541D01*
X154690066Y-105498542D01*
X154685260Y-105499497D01*
X154685257Y-105499498D01*
X154566875Y-105548533D01*
X154566866Y-105548538D01*
X154460331Y-105619723D01*
X154460327Y-105619726D01*
X152930711Y-107149342D01*
X152869388Y-107182827D01*
X152821244Y-107182317D01*
X152821055Y-107183516D01*
X152656689Y-107157483D01*
X152606287Y-107149500D01*
X152393713Y-107149500D01*
X152345042Y-107157208D01*
X152183760Y-107182753D01*
X151981585Y-107248444D01*
X151792179Y-107344951D01*
X151620213Y-107469890D01*
X151469890Y-107620213D01*
X151344949Y-107792182D01*
X151340484Y-107800946D01*
X151292509Y-107851742D01*
X151224688Y-107868536D01*
X151158553Y-107845998D01*
X151119516Y-107800946D01*
X151115050Y-107792182D01*
X150990109Y-107620213D01*
X150839786Y-107469890D01*
X150667820Y-107344951D01*
X150478414Y-107248444D01*
X150478413Y-107248443D01*
X150478412Y-107248443D01*
X150276243Y-107182754D01*
X150276241Y-107182753D01*
X150276240Y-107182753D01*
X150114957Y-107157208D01*
X150066287Y-107149500D01*
X149853713Y-107149500D01*
X149803311Y-107157483D01*
X149638945Y-107183516D01*
X149638686Y-107181882D01*
X149576094Y-107178730D01*
X149529288Y-107149342D01*
X148086574Y-105706627D01*
X148086573Y-105706626D01*
X148086569Y-105706623D01*
X147980027Y-105635435D01*
X147942102Y-105619726D01*
X147861644Y-105586399D01*
X147861638Y-105586397D01*
X147735971Y-105561400D01*
X147735969Y-105561400D01*
X135172708Y-105561400D01*
X135105669Y-105541715D01*
X135085027Y-105525081D01*
X132850657Y-103290711D01*
X132817172Y-103229388D01*
X132817689Y-103181245D01*
X132816484Y-103181055D01*
X132843656Y-103009500D01*
X132850500Y-102966287D01*
X132850500Y-102753713D01*
X132817246Y-102543757D01*
X132751557Y-102341588D01*
X132750722Y-102339018D01*
X132748727Y-102269177D01*
X132784807Y-102209344D01*
X132847508Y-102178516D01*
X132868653Y-102176700D01*
X137892992Y-102176700D01*
X137960031Y-102196385D01*
X137980673Y-102213019D01*
X138268139Y-102500484D01*
X138532324Y-102764669D01*
X138622931Y-102855276D01*
X138622932Y-102855277D01*
X138729466Y-102926461D01*
X138729472Y-102926464D01*
X138729473Y-102926465D01*
X138847856Y-102975501D01*
X138847860Y-102975501D01*
X138847861Y-102975502D01*
X138973528Y-103000500D01*
X138973531Y-103000500D01*
X144543190Y-103000500D01*
X144610229Y-103020185D01*
X144655984Y-103072989D01*
X144665928Y-103142147D01*
X144661121Y-103162818D01*
X144611523Y-103315461D01*
X144611523Y-103315464D01*
X144579500Y-103517648D01*
X144579500Y-103722351D01*
X144611522Y-103924534D01*
X144674781Y-104119223D01*
X144767715Y-104301613D01*
X144888028Y-104467213D01*
X145032786Y-104611971D01*
X145174113Y-104714649D01*
X145198390Y-104732287D01*
X145300552Y-104784341D01*
X145380776Y-104825218D01*
X145380778Y-104825218D01*
X145380781Y-104825220D01*
X145485137Y-104859127D01*
X145575465Y-104888477D01*
X145676557Y-104904488D01*
X145777648Y-104920500D01*
X145777649Y-104920500D01*
X145982351Y-104920500D01*
X145982352Y-104920500D01*
X146184534Y-104888477D01*
X146379219Y-104825220D01*
X146561610Y-104732287D01*
X146654590Y-104664732D01*
X146727213Y-104611971D01*
X146727215Y-104611968D01*
X146727219Y-104611966D01*
X146871966Y-104467219D01*
X146871968Y-104467215D01*
X146871971Y-104467213D01*
X146971526Y-104330185D01*
X146992287Y-104301610D01*
X147085220Y-104119219D01*
X147148477Y-103924534D01*
X147180500Y-103722352D01*
X147180500Y-103517648D01*
X147148477Y-103315466D01*
X147148476Y-103315462D01*
X147148476Y-103315461D01*
X147098879Y-103162818D01*
X147096884Y-103092977D01*
X147132964Y-103033144D01*
X147195665Y-103002316D01*
X147216810Y-103000500D01*
X151909192Y-103000500D01*
X151976231Y-103020185D01*
X151996873Y-103036819D01*
X152192862Y-103232808D01*
X152226347Y-103294131D01*
X152227654Y-103339886D01*
X152199500Y-103517647D01*
X152199500Y-103722351D01*
X152231522Y-103924534D01*
X152294781Y-104119223D01*
X152387715Y-104301613D01*
X152508028Y-104467213D01*
X152652786Y-104611971D01*
X152794113Y-104714649D01*
X152818390Y-104732287D01*
X152920552Y-104784341D01*
X153000776Y-104825218D01*
X153000778Y-104825218D01*
X153000781Y-104825220D01*
X153105137Y-104859127D01*
X153195465Y-104888477D01*
X153296557Y-104904488D01*
X153397648Y-104920500D01*
X153397649Y-104920500D01*
X153602351Y-104920500D01*
X153602352Y-104920500D01*
X153804534Y-104888477D01*
X153999219Y-104825220D01*
X154181610Y-104732287D01*
X154274590Y-104664732D01*
X154347213Y-104611971D01*
X154347215Y-104611968D01*
X154347219Y-104611966D01*
X154491966Y-104467219D01*
X154491968Y-104467215D01*
X154491971Y-104467213D01*
X154591526Y-104330185D01*
X154612287Y-104301610D01*
X154705220Y-104119219D01*
X154768477Y-103924534D01*
X154800500Y-103722352D01*
X154800500Y-103517648D01*
X154778447Y-103378412D01*
X154768477Y-103315465D01*
X154723239Y-103176239D01*
X154705220Y-103120781D01*
X154705218Y-103120778D01*
X154705218Y-103120776D01*
X154662439Y-103036819D01*
X154612287Y-102938390D01*
X154603620Y-102926461D01*
X154491971Y-102772786D01*
X154347213Y-102628028D01*
X154181614Y-102507715D01*
X154136028Y-102484488D01*
X154088917Y-102460483D01*
X154038123Y-102412511D01*
X154021328Y-102344690D01*
X154043865Y-102278555D01*
X154088917Y-102239516D01*
X154181610Y-102192287D01*
X154203064Y-102176700D01*
X154347213Y-102071971D01*
X154347215Y-102071968D01*
X154347219Y-102071966D01*
X154491966Y-101927219D01*
X154491968Y-101927215D01*
X154491971Y-101927213D01*
X154577168Y-101809947D01*
X154612287Y-101761610D01*
X154705220Y-101579219D01*
X154768477Y-101384534D01*
X154800500Y-101182352D01*
X154800500Y-100977648D01*
X154784353Y-100875700D01*
X154783640Y-100871198D01*
X154786035Y-100852658D01*
X154783375Y-100834153D01*
X154790421Y-100818723D01*
X154792595Y-100801904D01*
X154804633Y-100787602D01*
X154812400Y-100770597D01*
X154826668Y-100761427D01*
X154837591Y-100748452D01*
X154855451Y-100742929D01*
X154871178Y-100732823D01*
X154902883Y-100728264D01*
X154904343Y-100727813D01*
X154906113Y-100727800D01*
X155094871Y-100727800D01*
X155161910Y-100747485D01*
X155207665Y-100800289D01*
X155217283Y-100835973D01*
X155217311Y-100835968D01*
X155217393Y-100836384D01*
X155218274Y-100839650D01*
X155218500Y-100841945D01*
X155249261Y-100996589D01*
X155249264Y-100996601D01*
X155309602Y-101142272D01*
X155309609Y-101142285D01*
X155397210Y-101273388D01*
X155397213Y-101273392D01*
X155508707Y-101384886D01*
X155508711Y-101384889D01*
X155639817Y-101472492D01*
X155639821Y-101472494D01*
X155663473Y-101482291D01*
X155703702Y-101509169D01*
X155728184Y-101533651D01*
X155728185Y-101533652D01*
X155851098Y-101615780D01*
X155851111Y-101615787D01*
X155974404Y-101666856D01*
X155987687Y-101672358D01*
X155987691Y-101672358D01*
X155987692Y-101672359D01*
X156132679Y-101701200D01*
X156132682Y-101701200D01*
X160907596Y-101701200D01*
X160955044Y-101710637D01*
X160978703Y-101720437D01*
X160978708Y-101720438D01*
X160978711Y-101720439D01*
X161133353Y-101751199D01*
X161133356Y-101751200D01*
X161166580Y-101751200D01*
X161233619Y-101770885D01*
X161279374Y-101823689D01*
X161288795Y-101889214D01*
X161289597Y-101889293D01*
X161289275Y-101892554D01*
X161289318Y-101892847D01*
X161289151Y-101893821D01*
X161289000Y-101895355D01*
X161289000Y-102053046D01*
X161319761Y-102207689D01*
X161319764Y-102207701D01*
X161380102Y-102353372D01*
X161380109Y-102353385D01*
X161467710Y-102484488D01*
X161467713Y-102484492D01*
X161579207Y-102595986D01*
X161579211Y-102595989D01*
X161710314Y-102683590D01*
X161710327Y-102683597D01*
X161797730Y-102719799D01*
X161856003Y-102743937D01*
X161923081Y-102757279D01*
X161984990Y-102789663D01*
X161986570Y-102791215D01*
X163270024Y-104074669D01*
X163325355Y-104130000D01*
X163360632Y-104165277D01*
X163467166Y-104236461D01*
X163467175Y-104236466D01*
X163487655Y-104244949D01*
X163585556Y-104285501D01*
X163585560Y-104285501D01*
X163585561Y-104285502D01*
X163711228Y-104310500D01*
X163711231Y-104310500D01*
X165490382Y-104310500D01*
X165557421Y-104330185D01*
X165591099Y-104364591D01*
X165592085Y-104363875D01*
X165719890Y-104539786D01*
X165833430Y-104653326D01*
X165866915Y-104714649D01*
X165861931Y-104784341D01*
X165820059Y-104840274D01*
X165789083Y-104857189D01*
X165657669Y-104906203D01*
X165657664Y-104906206D01*
X165542455Y-104992452D01*
X165542452Y-104992455D01*
X165456206Y-105107664D01*
X165456202Y-105107671D01*
X165405908Y-105242517D01*
X165399501Y-105302116D01*
X165399501Y-105302123D01*
X165399500Y-105302135D01*
X165399500Y-107097870D01*
X165399501Y-107097876D01*
X165405908Y-107157483D01*
X165456202Y-107292328D01*
X165456206Y-107292335D01*
X165542452Y-107407544D01*
X165542455Y-107407547D01*
X165657664Y-107493793D01*
X165657671Y-107493797D01*
X165792517Y-107544091D01*
X165792516Y-107544091D01*
X165799444Y-107544835D01*
X165852127Y-107550500D01*
X167647872Y-107550499D01*
X167707483Y-107544091D01*
X167842331Y-107493796D01*
X167957546Y-107407546D01*
X168043796Y-107292331D01*
X168094091Y-107157483D01*
X168100500Y-107097873D01*
X168100499Y-105302128D01*
X168094091Y-105242517D01*
X168043796Y-105107669D01*
X168043795Y-105107668D01*
X168043793Y-105107664D01*
X167957547Y-104992455D01*
X167957544Y-104992452D01*
X167842335Y-104906206D01*
X167842328Y-104906202D01*
X167710917Y-104857189D01*
X167654983Y-104815318D01*
X167630566Y-104749853D01*
X167645418Y-104681580D01*
X167666563Y-104653332D01*
X167780104Y-104539792D01*
X167905051Y-104367816D01*
X168001557Y-104178412D01*
X168067246Y-103976243D01*
X168100500Y-103766287D01*
X168100500Y-103553713D01*
X168067246Y-103343757D01*
X168001557Y-103141588D01*
X167905051Y-102952184D01*
X167905049Y-102952181D01*
X167905048Y-102952179D01*
X167780109Y-102780213D01*
X167629786Y-102629890D01*
X167457820Y-102504951D01*
X167457115Y-102504591D01*
X167449054Y-102500485D01*
X167398259Y-102452512D01*
X167381463Y-102384692D01*
X167403999Y-102318556D01*
X167449054Y-102279515D01*
X167457816Y-102275051D01*
X167479789Y-102259086D01*
X167629786Y-102150109D01*
X167629788Y-102150106D01*
X167629792Y-102150104D01*
X167780104Y-101999792D01*
X167780106Y-101999788D01*
X167780109Y-101999786D01*
X167905048Y-101827820D01*
X167905047Y-101827820D01*
X167905051Y-101827816D01*
X168001557Y-101638412D01*
X168067246Y-101436243D01*
X168100500Y-101226287D01*
X168100500Y-101013713D01*
X168067246Y-100803757D01*
X168001557Y-100601588D01*
X167905051Y-100412184D01*
X167905049Y-100412181D01*
X167905048Y-100412179D01*
X167780109Y-100240213D01*
X167629786Y-100089890D01*
X167457820Y-99964951D01*
X167457115Y-99964591D01*
X167449054Y-99960485D01*
X167398259Y-99912512D01*
X167381463Y-99844692D01*
X167403999Y-99778556D01*
X167449054Y-99739515D01*
X167457816Y-99735051D01*
X167479789Y-99719086D01*
X167629786Y-99610109D01*
X167629788Y-99610106D01*
X167629792Y-99610104D01*
X167780104Y-99459792D01*
X167780106Y-99459788D01*
X167780109Y-99459786D01*
X167890704Y-99307563D01*
X167905051Y-99287816D01*
X168001557Y-99098412D01*
X168067246Y-98896243D01*
X168100500Y-98686287D01*
X168100500Y-98473713D01*
X168067246Y-98263757D01*
X168001557Y-98061588D01*
X167905051Y-97872184D01*
X167905049Y-97872181D01*
X167905048Y-97872179D01*
X167780109Y-97700213D01*
X167629786Y-97549890D01*
X167457820Y-97424951D01*
X167457115Y-97424591D01*
X167449054Y-97420485D01*
X167398259Y-97372512D01*
X167381463Y-97304692D01*
X167403999Y-97238556D01*
X167449054Y-97199515D01*
X167457816Y-97195051D01*
X167479789Y-97179086D01*
X167629786Y-97070109D01*
X167629788Y-97070106D01*
X167629792Y-97070104D01*
X167780104Y-96919792D01*
X167780106Y-96919788D01*
X167780109Y-96919786D01*
X167905048Y-96747820D01*
X167905047Y-96747820D01*
X167905051Y-96747816D01*
X168001557Y-96558412D01*
X168067246Y-96356243D01*
X168100500Y-96146287D01*
X168100500Y-95933713D01*
X168067246Y-95723757D01*
X168001557Y-95521588D01*
X167905051Y-95332184D01*
X167905049Y-95332181D01*
X167905048Y-95332179D01*
X167780109Y-95160213D01*
X167629786Y-95009890D01*
X167457820Y-94884951D01*
X167457115Y-94884591D01*
X167449054Y-94880485D01*
X167398259Y-94832512D01*
X167381463Y-94764692D01*
X167403999Y-94698556D01*
X167449054Y-94659515D01*
X167457816Y-94655051D01*
X167479789Y-94639086D01*
X167629786Y-94530109D01*
X167629788Y-94530106D01*
X167629792Y-94530104D01*
X167780104Y-94379792D01*
X167780106Y-94379788D01*
X167780109Y-94379786D01*
X167905048Y-94207820D01*
X167905047Y-94207820D01*
X167905051Y-94207816D01*
X168001557Y-94018412D01*
X168067246Y-93816243D01*
X168100500Y-93606287D01*
X168100500Y-93393713D01*
X168067246Y-93183757D01*
X168001557Y-92981588D01*
X167905051Y-92792184D01*
X167905049Y-92792181D01*
X167905048Y-92792179D01*
X167780109Y-92620213D01*
X167629786Y-92469890D01*
X167457820Y-92344951D01*
X167457115Y-92344591D01*
X167449054Y-92340485D01*
X167398259Y-92292512D01*
X167381463Y-92224692D01*
X167403999Y-92158556D01*
X167449054Y-92119515D01*
X167457816Y-92115051D01*
X167479789Y-92099086D01*
X167629786Y-91990109D01*
X167629788Y-91990106D01*
X167629792Y-91990104D01*
X167780104Y-91839792D01*
X167780106Y-91839788D01*
X167780109Y-91839786D01*
X167905048Y-91667820D01*
X167905047Y-91667820D01*
X167905051Y-91667816D01*
X168001557Y-91478412D01*
X168067246Y-91276243D01*
X168100500Y-91066287D01*
X168100500Y-90853713D01*
X168067246Y-90643757D01*
X168001557Y-90441588D01*
X167905051Y-90252184D01*
X167905049Y-90252181D01*
X167905048Y-90252179D01*
X167780109Y-90080213D01*
X167629786Y-89929890D01*
X167457820Y-89804951D01*
X167457115Y-89804591D01*
X167449054Y-89800485D01*
X167398259Y-89752512D01*
X167381463Y-89684692D01*
X167403999Y-89618556D01*
X167449054Y-89579515D01*
X167457816Y-89575051D01*
X167479789Y-89559086D01*
X167629786Y-89450109D01*
X167629788Y-89450106D01*
X167629792Y-89450104D01*
X167780104Y-89299792D01*
X167780106Y-89299788D01*
X167780109Y-89299786D01*
X167905048Y-89127820D01*
X167905047Y-89127820D01*
X167905051Y-89127816D01*
X168001557Y-88938412D01*
X168067246Y-88736243D01*
X168100500Y-88526287D01*
X168100500Y-88313713D01*
X168067246Y-88103757D01*
X168001557Y-87901588D01*
X167905051Y-87712184D01*
X167905049Y-87712181D01*
X167905048Y-87712179D01*
X167780109Y-87540213D01*
X167629786Y-87389890D01*
X167457820Y-87264951D01*
X167457115Y-87264591D01*
X167449054Y-87260485D01*
X167398259Y-87212512D01*
X167381463Y-87144692D01*
X167403999Y-87078556D01*
X167449054Y-87039515D01*
X167457816Y-87035051D01*
X167507114Y-86999234D01*
X167629786Y-86910109D01*
X167629788Y-86910106D01*
X167629792Y-86910104D01*
X167780104Y-86759792D01*
X167780106Y-86759788D01*
X167780109Y-86759786D01*
X167905048Y-86587820D01*
X167905047Y-86587820D01*
X167905051Y-86587816D01*
X168001557Y-86398412D01*
X168067246Y-86196243D01*
X168100500Y-85986287D01*
X168100500Y-85773713D01*
X168067246Y-85563757D01*
X168001557Y-85361588D01*
X167905051Y-85172184D01*
X167905049Y-85172181D01*
X167905048Y-85172179D01*
X167780109Y-85000213D01*
X167629786Y-84849890D01*
X167457817Y-84724949D01*
X167448504Y-84720204D01*
X167397707Y-84672230D01*
X167380912Y-84604409D01*
X167403449Y-84538274D01*
X167448507Y-84499232D01*
X167457555Y-84494622D01*
X167511716Y-84455270D01*
X167511717Y-84455270D01*
X166879408Y-83822962D01*
X166942993Y-83805925D01*
X167057007Y-83740099D01*
X167150099Y-83647007D01*
X167215925Y-83532993D01*
X167232962Y-83469409D01*
X167865270Y-84101717D01*
X167865270Y-84101716D01*
X167904622Y-84047554D01*
X168001095Y-83858217D01*
X168066757Y-83656130D01*
X168066757Y-83656127D01*
X168100000Y-83446246D01*
X168100000Y-83233753D01*
X168066757Y-83023872D01*
X168066757Y-83023869D01*
X168001095Y-82821782D01*
X167904624Y-82632449D01*
X167865270Y-82578282D01*
X167865269Y-82578282D01*
X167232962Y-83210590D01*
X167215925Y-83147007D01*
X167150099Y-83032993D01*
X167057007Y-82939901D01*
X166942993Y-82874075D01*
X166879409Y-82857037D01*
X167511716Y-82224728D01*
X167457550Y-82185375D01*
X167447954Y-82180486D01*
X167397157Y-82132512D01*
X167380361Y-82064692D01*
X167402897Y-81998556D01*
X167447954Y-81959514D01*
X167457554Y-81954622D01*
X167511716Y-81915270D01*
X167511717Y-81915270D01*
X166879408Y-81282962D01*
X166942993Y-81265925D01*
X167057007Y-81200099D01*
X167150099Y-81107007D01*
X167215925Y-80992993D01*
X167232962Y-80929409D01*
X167865270Y-81561717D01*
X167865270Y-81561716D01*
X167904622Y-81507554D01*
X168001095Y-81318217D01*
X168066757Y-81116130D01*
X168066757Y-81116127D01*
X168100000Y-80906246D01*
X168100000Y-80693753D01*
X168066757Y-80483872D01*
X168066757Y-80483869D01*
X168001095Y-80281782D01*
X167904624Y-80092449D01*
X167865270Y-80038282D01*
X167865269Y-80038282D01*
X167232962Y-80670590D01*
X167215925Y-80607007D01*
X167150099Y-80492993D01*
X167057007Y-80399901D01*
X166942993Y-80334075D01*
X166879409Y-80317037D01*
X167511716Y-79684728D01*
X167457547Y-79645373D01*
X167457547Y-79645372D01*
X167448500Y-79640763D01*
X167397706Y-79592788D01*
X167380912Y-79524966D01*
X167403451Y-79458832D01*
X167448508Y-79419793D01*
X167457816Y-79415051D01*
X167596010Y-79314648D01*
X167629786Y-79290109D01*
X167629788Y-79290106D01*
X167629792Y-79290104D01*
X167780104Y-79139792D01*
X167780106Y-79139788D01*
X167780109Y-79139786D01*
X167905048Y-78967820D01*
X167905047Y-78967820D01*
X167905051Y-78967816D01*
X168001557Y-78778412D01*
X168067246Y-78576243D01*
X168100500Y-78366287D01*
X168100500Y-78153713D01*
X168067246Y-77943757D01*
X168001557Y-77741588D01*
X167905051Y-77552184D01*
X167905049Y-77552181D01*
X167905048Y-77552179D01*
X167780109Y-77380213D01*
X167629786Y-77229890D01*
X167457820Y-77104951D01*
X167457115Y-77104591D01*
X167449054Y-77100485D01*
X167398259Y-77052512D01*
X167381463Y-76984692D01*
X167403999Y-76918556D01*
X167449054Y-76879515D01*
X167457816Y-76875051D01*
X167479789Y-76859086D01*
X167629786Y-76750109D01*
X167629788Y-76750106D01*
X167629792Y-76750104D01*
X167780104Y-76599792D01*
X167780106Y-76599788D01*
X167780109Y-76599786D01*
X167905048Y-76427820D01*
X167905047Y-76427820D01*
X167905051Y-76427816D01*
X168001557Y-76238412D01*
X168067246Y-76036243D01*
X168100500Y-75826287D01*
X168100500Y-75613713D01*
X168067246Y-75403757D01*
X168001557Y-75201588D01*
X167905051Y-75012184D01*
X167905049Y-75012181D01*
X167905048Y-75012179D01*
X167780109Y-74840213D01*
X167629786Y-74689890D01*
X167457820Y-74564951D01*
X167457115Y-74564591D01*
X167449054Y-74560485D01*
X167398259Y-74512512D01*
X167381463Y-74444692D01*
X167403999Y-74378556D01*
X167449054Y-74339515D01*
X167457816Y-74335051D01*
X167479789Y-74319086D01*
X167629786Y-74210109D01*
X167629788Y-74210106D01*
X167629792Y-74210104D01*
X167780104Y-74059792D01*
X167780106Y-74059788D01*
X167780109Y-74059786D01*
X167905048Y-73887820D01*
X167905047Y-73887820D01*
X167905051Y-73887816D01*
X168001557Y-73698412D01*
X168067246Y-73496243D01*
X168100500Y-73286287D01*
X168100500Y-73073713D01*
X168067246Y-72863757D01*
X168001557Y-72661588D01*
X167905051Y-72472184D01*
X167905049Y-72472181D01*
X167905048Y-72472179D01*
X167780109Y-72300213D01*
X167629786Y-72149890D01*
X167457820Y-72024951D01*
X167268414Y-71928444D01*
X167268413Y-71928443D01*
X167268412Y-71928443D01*
X167066243Y-71862754D01*
X167066241Y-71862753D01*
X167066240Y-71862753D01*
X166889825Y-71834812D01*
X166856287Y-71829500D01*
X166643713Y-71829500D01*
X166591827Y-71837718D01*
X166428945Y-71863516D01*
X166428686Y-71861882D01*
X166366094Y-71858730D01*
X166319288Y-71829342D01*
X165854674Y-71364727D01*
X165854673Y-71364726D01*
X165796703Y-71325992D01*
X165748127Y-71293535D01*
X165629744Y-71244499D01*
X165629738Y-71244497D01*
X165504071Y-71219500D01*
X165504069Y-71219500D01*
X154836810Y-71219500D01*
X154769771Y-71199815D01*
X154724016Y-71147011D01*
X154714072Y-71077853D01*
X154718879Y-71057182D01*
X154768476Y-70904538D01*
X154768476Y-70904537D01*
X154768477Y-70904534D01*
X154800500Y-70702352D01*
X154800500Y-70497648D01*
X154786981Y-70412292D01*
X154768477Y-70295465D01*
X154729011Y-70174003D01*
X154705220Y-70100781D01*
X154705218Y-70100778D01*
X154705218Y-70100776D01*
X154653865Y-69999992D01*
X154612287Y-69918390D01*
X154596892Y-69897200D01*
X154491971Y-69752786D01*
X154347213Y-69608028D01*
X154181613Y-69487715D01*
X154181612Y-69487714D01*
X154181610Y-69487713D01*
X154121898Y-69457288D01*
X153999223Y-69394781D01*
X153804534Y-69331522D01*
X153629995Y-69303878D01*
X153602352Y-69299500D01*
X153397648Y-69299500D01*
X153373329Y-69303351D01*
X153195465Y-69331522D01*
X153000776Y-69394781D01*
X152818386Y-69487715D01*
X152652786Y-69608028D01*
X152508028Y-69752786D01*
X152387715Y-69918386D01*
X152294781Y-70100776D01*
X152231522Y-70295465D01*
X152199500Y-70497648D01*
X152199500Y-70702351D01*
X152231523Y-70904535D01*
X152231523Y-70904538D01*
X152281121Y-71057182D01*
X152283116Y-71127023D01*
X152247036Y-71186856D01*
X152184335Y-71217684D01*
X152163190Y-71219500D01*
X147470807Y-71219500D01*
X147441366Y-71210855D01*
X147411380Y-71204332D01*
X147406364Y-71200577D01*
X147403768Y-71199815D01*
X147383126Y-71183181D01*
X147216818Y-71016873D01*
X147183333Y-70955550D01*
X147180499Y-70929192D01*
X147180499Y-69999998D01*
X147180498Y-69999981D01*
X147169999Y-69897203D01*
X147169998Y-69897200D01*
X147128672Y-69772487D01*
X147114814Y-69730666D01*
X147022712Y-69581344D01*
X146898656Y-69457288D01*
X146749334Y-69365186D01*
X146582797Y-69310001D01*
X146582795Y-69310000D01*
X146480016Y-69299500D01*
X146480009Y-69299500D01*
X145550808Y-69299500D01*
X145483769Y-69279815D01*
X145463127Y-69263181D01*
X145064174Y-68864227D01*
X145064173Y-68864226D01*
X145064169Y-68864223D01*
X144957627Y-68793035D01*
X144839244Y-68743999D01*
X144839238Y-68743997D01*
X144713571Y-68719000D01*
X144713569Y-68719000D01*
X135816431Y-68719000D01*
X135816429Y-68719000D01*
X135690761Y-68743997D01*
X135690755Y-68743999D01*
X135572374Y-68793034D01*
X135465826Y-68864226D01*
X135050193Y-69279859D01*
X134988870Y-69313344D01*
X134924194Y-69310109D01*
X134851370Y-69286447D01*
X134618097Y-69249500D01*
X134618092Y-69249500D01*
X134381908Y-69249500D01*
X134381903Y-69249500D01*
X134148631Y-69286446D01*
X133924003Y-69359433D01*
X133713566Y-69466657D01*
X133684583Y-69487715D01*
X133522490Y-69605483D01*
X133522488Y-69605485D01*
X133522487Y-69605485D01*
X133355485Y-69772487D01*
X133355485Y-69772488D01*
X133355483Y-69772490D01*
X133295862Y-69854550D01*
X133216657Y-69963566D01*
X133109433Y-70174003D01*
X133036446Y-70398631D01*
X132999500Y-70631902D01*
X132999500Y-70868097D01*
X133036446Y-71101368D01*
X133109433Y-71325996D01*
X133129168Y-71364727D01*
X133216657Y-71536433D01*
X133355483Y-71727510D01*
X133522490Y-71894517D01*
X133713567Y-72033343D01*
X133805093Y-72079978D01*
X133924003Y-72140566D01*
X133924005Y-72140566D01*
X133924008Y-72140568D01*
X133952717Y-72149896D01*
X134148631Y-72213553D01*
X134381903Y-72250500D01*
X134381908Y-72250500D01*
X134618097Y-72250500D01*
X134851368Y-72213553D01*
X134852870Y-72213065D01*
X135075992Y-72140568D01*
X135286433Y-72033343D01*
X135477510Y-71894517D01*
X135644517Y-71727510D01*
X135783343Y-71536433D01*
X135890568Y-71325992D01*
X135963553Y-71101368D01*
X135982688Y-70980554D01*
X136000500Y-70868097D01*
X136000500Y-70631902D01*
X135979235Y-70497648D01*
X135963553Y-70398632D01*
X135939888Y-70325802D01*
X135939454Y-70310590D01*
X135934136Y-70296331D01*
X135938477Y-70276375D01*
X135937894Y-70255963D01*
X135945981Y-70241876D01*
X135948988Y-70228058D01*
X135970132Y-70199812D01*
X136113628Y-70056316D01*
X136174951Y-70022834D01*
X136201308Y-70020000D01*
X137489328Y-70020000D01*
X137556367Y-70039685D01*
X137602122Y-70092489D01*
X137612066Y-70161647D01*
X137607259Y-70182319D01*
X137536934Y-70398754D01*
X137500000Y-70631947D01*
X137500000Y-70868052D01*
X137536934Y-71101247D01*
X137609897Y-71325802D01*
X137717087Y-71536174D01*
X137777338Y-71619104D01*
X137777340Y-71619105D01*
X138476212Y-70920233D01*
X138487482Y-70962292D01*
X138559890Y-71087708D01*
X138662292Y-71190110D01*
X138787708Y-71262518D01*
X138829765Y-71273787D01*
X138130893Y-71972658D01*
X138213828Y-72032914D01*
X138424197Y-72140102D01*
X138648752Y-72213065D01*
X138648751Y-72213065D01*
X138881948Y-72250000D01*
X139118052Y-72250000D01*
X139351247Y-72213065D01*
X139575802Y-72140102D01*
X139786163Y-72032918D01*
X139786169Y-72032914D01*
X139869104Y-71972658D01*
X139869105Y-71972658D01*
X139170233Y-71273787D01*
X139212292Y-71262518D01*
X139337708Y-71190110D01*
X139440110Y-71087708D01*
X139512518Y-70962292D01*
X139523787Y-70920234D01*
X140222658Y-71619105D01*
X140222658Y-71619104D01*
X140282914Y-71536169D01*
X140282918Y-71536163D01*
X140390102Y-71325802D01*
X140463065Y-71101247D01*
X140500000Y-70868052D01*
X140500000Y-70631947D01*
X140463065Y-70398754D01*
X140392741Y-70182319D01*
X140390746Y-70112477D01*
X140426826Y-70052644D01*
X140489527Y-70021816D01*
X140510672Y-70020000D01*
X144328692Y-70020000D01*
X144358132Y-70028644D01*
X144388119Y-70035168D01*
X144393134Y-70038922D01*
X144395731Y-70039685D01*
X144416372Y-70056318D01*
X144543181Y-70183127D01*
X144576666Y-70244450D01*
X144579500Y-70270808D01*
X144579500Y-71200001D01*
X144579501Y-71200019D01*
X144590000Y-71302796D01*
X144590001Y-71302799D01*
X144645185Y-71469331D01*
X144645186Y-71469334D01*
X144737288Y-71618656D01*
X144861344Y-71742712D01*
X145010666Y-71834814D01*
X145092570Y-71861954D01*
X145150015Y-71901727D01*
X145176838Y-71966243D01*
X145164523Y-72035018D01*
X145126451Y-72079978D01*
X145032787Y-72148028D01*
X145032782Y-72148032D01*
X144888028Y-72292786D01*
X144767715Y-72458386D01*
X144674781Y-72640776D01*
X144611522Y-72835465D01*
X144579500Y-73037648D01*
X144579500Y-73242351D01*
X144607654Y-73420111D01*
X144598699Y-73489405D01*
X144572862Y-73527190D01*
X143866873Y-74233181D01*
X143805550Y-74266666D01*
X143779192Y-74269500D01*
X132974499Y-74269500D01*
X132907460Y-74249815D01*
X132861705Y-74197011D01*
X132850499Y-74145500D01*
X132850499Y-74022129D01*
X132850498Y-74022123D01*
X132850497Y-74022116D01*
X132844091Y-73962517D01*
X132825557Y-73912826D01*
X132793797Y-73827671D01*
X132793793Y-73827664D01*
X132707547Y-73712455D01*
X132707544Y-73712452D01*
X132592335Y-73626206D01*
X132592328Y-73626202D01*
X132457482Y-73575908D01*
X132457483Y-73575908D01*
X132397883Y-73569501D01*
X132397881Y-73569500D01*
X132397873Y-73569500D01*
X132397864Y-73569500D01*
X130602129Y-73569500D01*
X130602123Y-73569501D01*
X130542516Y-73575908D01*
X130407671Y-73626202D01*
X130407664Y-73626206D01*
X130292455Y-73712452D01*
X130292452Y-73712455D01*
X130206206Y-73827664D01*
X130206202Y-73827671D01*
X130155908Y-73962517D01*
X130149501Y-74022116D01*
X130149501Y-74022123D01*
X130149500Y-74022135D01*
X130149500Y-75817870D01*
X130149501Y-75817876D01*
X130155908Y-75877483D01*
X130206202Y-76012328D01*
X130206206Y-76012335D01*
X130292452Y-76127544D01*
X130292455Y-76127547D01*
X130407664Y-76213793D01*
X130407671Y-76213797D01*
X130539082Y-76262810D01*
X130595016Y-76304681D01*
X130619433Y-76370145D01*
X130604582Y-76438418D01*
X130583431Y-76466673D01*
X130469889Y-76580215D01*
X130344951Y-76752179D01*
X130248444Y-76941585D01*
X130182753Y-77143760D01*
X130149500Y-77353713D01*
X130149500Y-77566286D01*
X130177264Y-77741585D01*
X130182754Y-77776243D01*
X130244175Y-77965277D01*
X130248444Y-77978414D01*
X130344951Y-78167820D01*
X130469890Y-78339786D01*
X130620213Y-78490109D01*
X130792182Y-78615050D01*
X130800946Y-78619516D01*
X130851742Y-78667491D01*
X130868536Y-78735312D01*
X130845998Y-78801447D01*
X130800946Y-78840484D01*
X130792182Y-78844949D01*
X130620213Y-78969890D01*
X130469890Y-79120213D01*
X130344951Y-79292179D01*
X130248444Y-79481585D01*
X130182753Y-79683760D01*
X130149500Y-79893713D01*
X130149500Y-80106286D01*
X130179524Y-80295854D01*
X130182754Y-80316243D01*
X130243306Y-80502603D01*
X130248444Y-80518414D01*
X130344951Y-80707820D01*
X130469890Y-80879786D01*
X130620213Y-81030109D01*
X130792182Y-81155050D01*
X130800946Y-81159516D01*
X130851742Y-81207491D01*
X130868536Y-81275312D01*
X130845998Y-81341447D01*
X130800946Y-81380484D01*
X130792182Y-81384949D01*
X130620213Y-81509890D01*
X130469890Y-81660213D01*
X130344951Y-81832179D01*
X130248444Y-82021585D01*
X130182753Y-82223760D01*
X130149500Y-82433713D01*
X130149500Y-82646286D01*
X130173969Y-82800781D01*
X130182754Y-82856243D01*
X130241360Y-83036614D01*
X130248444Y-83058414D01*
X130344951Y-83247820D01*
X130469890Y-83419786D01*
X130620213Y-83570109D01*
X130792182Y-83695050D01*
X130800946Y-83699516D01*
X130851742Y-83747491D01*
X130868536Y-83815312D01*
X130845998Y-83881447D01*
X130800946Y-83920484D01*
X130792182Y-83924949D01*
X130620213Y-84049890D01*
X130469890Y-84200213D01*
X130344951Y-84372179D01*
X130248444Y-84561585D01*
X130182753Y-84763760D01*
X130169111Y-84849896D01*
X130149500Y-84973713D01*
X130149500Y-85186287D01*
X130157229Y-85235083D01*
X130177264Y-85361585D01*
X130182754Y-85396243D01*
X130247137Y-85594394D01*
X130248444Y-85598414D01*
X130344951Y-85787820D01*
X130469890Y-85959786D01*
X130620213Y-86110109D01*
X130792182Y-86235050D01*
X130800946Y-86239516D01*
X130851742Y-86287491D01*
X130868536Y-86355312D01*
X130845998Y-86421447D01*
X130800946Y-86460484D01*
X130792182Y-86464949D01*
X130620213Y-86589890D01*
X130469890Y-86740213D01*
X130344951Y-86912179D01*
X130248444Y-87101585D01*
X130182753Y-87303760D01*
X130158919Y-87454243D01*
X130149500Y-87513713D01*
X130149500Y-87726287D01*
X130154703Y-87759136D01*
X130178924Y-87912066D01*
X130182754Y-87936243D01*
X130247593Y-88135797D01*
X130248444Y-88138414D01*
X130344951Y-88327820D01*
X130469890Y-88499786D01*
X130620213Y-88650109D01*
X130792182Y-88775050D01*
X130800946Y-88779516D01*
X130851742Y-88827491D01*
X130868536Y-88895312D01*
X130845998Y-88961447D01*
X130800946Y-89000484D01*
X130792182Y-89004949D01*
X130620213Y-89129890D01*
X130469890Y-89280213D01*
X130344951Y-89452179D01*
X130248444Y-89641585D01*
X130182753Y-89843760D01*
X130169111Y-89929896D01*
X130149500Y-90053713D01*
X130149500Y-90266287D01*
X130154391Y-90297166D01*
X130182754Y-90476244D01*
X130182754Y-90476247D01*
X130196491Y-90518523D01*
X130198486Y-90588364D01*
X130166241Y-90644522D01*
X129932386Y-90878378D01*
X129820581Y-90990182D01*
X129820577Y-90990187D01*
X129777275Y-91065190D01*
X129776642Y-91066287D01*
X129741523Y-91127115D01*
X129739937Y-91133032D01*
X129733134Y-91145394D01*
X129713016Y-91165378D01*
X129695223Y-91187460D01*
X129688552Y-91189680D01*
X129683565Y-91194635D01*
X129655835Y-91200570D01*
X129628929Y-91209527D01*
X129622117Y-91207788D01*
X129615243Y-91209260D01*
X129588703Y-91199260D01*
X129561229Y-91192249D01*
X129556439Y-91187104D01*
X129549860Y-91184626D01*
X129532938Y-91161864D01*
X129513618Y-91141113D01*
X129511803Y-91133433D01*
X129508175Y-91128553D01*
X129507171Y-91113835D01*
X129500500Y-91085606D01*
X129500500Y-65936494D01*
X129520185Y-65869455D01*
X129572989Y-65823700D01*
X129642147Y-65813756D01*
X129697385Y-65836176D01*
X129792184Y-65905051D01*
X129981588Y-66001557D01*
X130183757Y-66067246D01*
X130393713Y-66100500D01*
X130393714Y-66100500D01*
X130606286Y-66100500D01*
X130606287Y-66100500D01*
X130816243Y-66067246D01*
X131018412Y-66001557D01*
X131207816Y-65905051D01*
X131283589Y-65849999D01*
X131379786Y-65780109D01*
X131379788Y-65780106D01*
X131379792Y-65780104D01*
X131530104Y-65629792D01*
X131530106Y-65629788D01*
X131530109Y-65629786D01*
X131655048Y-65457820D01*
X131655047Y-65457820D01*
X131655051Y-65457816D01*
X131751557Y-65268412D01*
X131817246Y-65066243D01*
X131850500Y-64856287D01*
X131850500Y-64643713D01*
X131817246Y-64433757D01*
X131751557Y-64231588D01*
X131731892Y-64192993D01*
X131726969Y-64183331D01*
X131700787Y-64131947D01*
X131700764Y-64131902D01*
X132999500Y-64131902D01*
X132999500Y-64368097D01*
X133036446Y-64601368D01*
X133109433Y-64825996D01*
X133147191Y-64900099D01*
X133216657Y-65036433D01*
X133355483Y-65227510D01*
X133522490Y-65394517D01*
X133713567Y-65533343D01*
X133812991Y-65584002D01*
X133924003Y-65640566D01*
X133924005Y-65640566D01*
X133924008Y-65640568D01*
X134044412Y-65679689D01*
X134148631Y-65713553D01*
X134381903Y-65750500D01*
X134381908Y-65750500D01*
X134618097Y-65750500D01*
X134851368Y-65713553D01*
X134869012Y-65707820D01*
X135075992Y-65640568D01*
X135286433Y-65533343D01*
X135477510Y-65394517D01*
X135644517Y-65227510D01*
X135783343Y-65036433D01*
X135890568Y-64825992D01*
X135963553Y-64601368D01*
X135969182Y-64565826D01*
X136000500Y-64368097D01*
X136000500Y-64131947D01*
X137500000Y-64131947D01*
X137500000Y-64368052D01*
X137536934Y-64601247D01*
X137609897Y-64825802D01*
X137717087Y-65036174D01*
X137777338Y-65119104D01*
X137777340Y-65119105D01*
X138476212Y-64420233D01*
X138487482Y-64462292D01*
X138559890Y-64587708D01*
X138662292Y-64690110D01*
X138787708Y-64762518D01*
X138829765Y-64773787D01*
X138130893Y-65472658D01*
X138213828Y-65532914D01*
X138424197Y-65640102D01*
X138648752Y-65713065D01*
X138648751Y-65713065D01*
X138881948Y-65750000D01*
X139118052Y-65750000D01*
X139351247Y-65713065D01*
X139575802Y-65640102D01*
X139786163Y-65532918D01*
X139786169Y-65532914D01*
X139869104Y-65472658D01*
X139869105Y-65472658D01*
X139170233Y-64773787D01*
X139212292Y-64762518D01*
X139337708Y-64690110D01*
X139440110Y-64587708D01*
X139512518Y-64462292D01*
X139523787Y-64420234D01*
X140222658Y-65119105D01*
X140222658Y-65119104D01*
X140282914Y-65036169D01*
X140282918Y-65036163D01*
X140390102Y-64825802D01*
X140443872Y-64660320D01*
X140463065Y-64601248D01*
X140500000Y-64368052D01*
X140500000Y-64131947D01*
X140463065Y-63898752D01*
X140390101Y-63674194D01*
X140380397Y-63655147D01*
X140380396Y-63655146D01*
X140353396Y-63602155D01*
X142990000Y-63602155D01*
X142990000Y-64250000D01*
X143906988Y-64250000D01*
X143874075Y-64307007D01*
X143840000Y-64434174D01*
X143840000Y-64565826D01*
X143874075Y-64692993D01*
X143906988Y-64750000D01*
X142990000Y-64750000D01*
X142990000Y-65397844D01*
X142996401Y-65457372D01*
X142996403Y-65457379D01*
X143046645Y-65592086D01*
X143046649Y-65592093D01*
X143132809Y-65707187D01*
X143132812Y-65707190D01*
X143247906Y-65793350D01*
X143247913Y-65793354D01*
X143382620Y-65843596D01*
X143382627Y-65843598D01*
X143442155Y-65849999D01*
X143442172Y-65850000D01*
X144090000Y-65850000D01*
X144090000Y-64933012D01*
X144147007Y-64965925D01*
X144274174Y-65000000D01*
X144405826Y-65000000D01*
X144532993Y-64965925D01*
X144590000Y-64933012D01*
X144590000Y-65850000D01*
X145237828Y-65850000D01*
X145237844Y-65849999D01*
X145297372Y-65843598D01*
X145297379Y-65843596D01*
X145432086Y-65793354D01*
X145432093Y-65793350D01*
X145547187Y-65707190D01*
X145547190Y-65707187D01*
X145633350Y-65592093D01*
X145633354Y-65592086D01*
X145682422Y-65460529D01*
X145724293Y-65404595D01*
X145789757Y-65380178D01*
X145858030Y-65395030D01*
X145886285Y-65416181D01*
X146000213Y-65530109D01*
X146172179Y-65655048D01*
X146172181Y-65655049D01*
X146172184Y-65655051D01*
X146361588Y-65751557D01*
X146563757Y-65817246D01*
X146773713Y-65850500D01*
X146773714Y-65850500D01*
X146986286Y-65850500D01*
X146986287Y-65850500D01*
X147196243Y-65817246D01*
X147398412Y-65751557D01*
X147587816Y-65655051D01*
X147674471Y-65592093D01*
X147759786Y-65530109D01*
X147759788Y-65530106D01*
X147759792Y-65530104D01*
X147910104Y-65379792D01*
X147910106Y-65379788D01*
X147910109Y-65379786D01*
X148035048Y-65207820D01*
X148035047Y-65207820D01*
X148035051Y-65207816D01*
X148039514Y-65199054D01*
X148087488Y-65148259D01*
X148155308Y-65131463D01*
X148221444Y-65153999D01*
X148260486Y-65199056D01*
X148264951Y-65207820D01*
X148389890Y-65379786D01*
X148540213Y-65530109D01*
X148712179Y-65655048D01*
X148712181Y-65655049D01*
X148712184Y-65655051D01*
X148901588Y-65751557D01*
X149103757Y-65817246D01*
X149313713Y-65850500D01*
X149313714Y-65850500D01*
X149526286Y-65850500D01*
X149526287Y-65850500D01*
X149736243Y-65817246D01*
X149938412Y-65751557D01*
X150127816Y-65655051D01*
X150214471Y-65592093D01*
X150299786Y-65530109D01*
X150299788Y-65530106D01*
X150299792Y-65530104D01*
X150450104Y-65379792D01*
X150450106Y-65379788D01*
X150450109Y-65379786D01*
X150575048Y-65207820D01*
X150575047Y-65207820D01*
X150575051Y-65207816D01*
X150579514Y-65199054D01*
X150627488Y-65148259D01*
X150695308Y-65131463D01*
X150761444Y-65153999D01*
X150800486Y-65199056D01*
X150804951Y-65207820D01*
X150929890Y-65379786D01*
X151080213Y-65530109D01*
X151252179Y-65655048D01*
X151252181Y-65655049D01*
X151252184Y-65655051D01*
X151441588Y-65751557D01*
X151643757Y-65817246D01*
X151853713Y-65850500D01*
X151853714Y-65850500D01*
X152066286Y-65850500D01*
X152066287Y-65850500D01*
X152276243Y-65817246D01*
X152478412Y-65751557D01*
X152667816Y-65655051D01*
X152754471Y-65592093D01*
X152839786Y-65530109D01*
X152839788Y-65530106D01*
X152839792Y-65530104D01*
X152990104Y-65379792D01*
X152990106Y-65379788D01*
X152990109Y-65379786D01*
X153115048Y-65207820D01*
X153115047Y-65207820D01*
X153115051Y-65207816D01*
X153119514Y-65199054D01*
X153167488Y-65148259D01*
X153235308Y-65131463D01*
X153301444Y-65153999D01*
X153340486Y-65199056D01*
X153344951Y-65207820D01*
X153469890Y-65379786D01*
X153620213Y-65530109D01*
X153792179Y-65655048D01*
X153792181Y-65655049D01*
X153792184Y-65655051D01*
X153981588Y-65751557D01*
X154183757Y-65817246D01*
X154393713Y-65850500D01*
X154393714Y-65850500D01*
X154606286Y-65850500D01*
X154606287Y-65850500D01*
X154816243Y-65817246D01*
X155018412Y-65751557D01*
X155207816Y-65655051D01*
X155294471Y-65592093D01*
X155379786Y-65530109D01*
X155379788Y-65530106D01*
X155379792Y-65530104D01*
X155530104Y-65379792D01*
X155530106Y-65379788D01*
X155530109Y-65379786D01*
X155655048Y-65207820D01*
X155655047Y-65207820D01*
X155655051Y-65207816D01*
X155659514Y-65199054D01*
X155707488Y-65148259D01*
X155775308Y-65131463D01*
X155841444Y-65153999D01*
X155880486Y-65199056D01*
X155884951Y-65207820D01*
X156009890Y-65379786D01*
X156160213Y-65530109D01*
X156332179Y-65655048D01*
X156332181Y-65655049D01*
X156332184Y-65655051D01*
X156521588Y-65751557D01*
X156723757Y-65817246D01*
X156933713Y-65850500D01*
X156933714Y-65850500D01*
X157146286Y-65850500D01*
X157146287Y-65850500D01*
X157356243Y-65817246D01*
X157558412Y-65751557D01*
X157747816Y-65655051D01*
X157834471Y-65592093D01*
X157919786Y-65530109D01*
X157919788Y-65530106D01*
X157919792Y-65530104D01*
X158070104Y-65379792D01*
X158070106Y-65379788D01*
X158070109Y-65379786D01*
X158195048Y-65207820D01*
X158195047Y-65207820D01*
X158195051Y-65207816D01*
X158291557Y-65018412D01*
X158332074Y-64893713D01*
X162149500Y-64893713D01*
X162149500Y-65106286D01*
X162175178Y-65268414D01*
X162182754Y-65316243D01*
X162228755Y-65457820D01*
X162248444Y-65518414D01*
X162344951Y-65707820D01*
X162469890Y-65879786D01*
X162620213Y-66030109D01*
X162792179Y-66155048D01*
X162792181Y-66155049D01*
X162792184Y-66155051D01*
X162981588Y-66251557D01*
X163183757Y-66317246D01*
X163393713Y-66350500D01*
X163393714Y-66350500D01*
X163606286Y-66350500D01*
X163606287Y-66350500D01*
X163816243Y-66317246D01*
X164018412Y-66251557D01*
X164207816Y-66155051D01*
X164282900Y-66100500D01*
X164379786Y-66030109D01*
X164379788Y-66030106D01*
X164379792Y-66030104D01*
X164530104Y-65879792D01*
X164530106Y-65879788D01*
X164530109Y-65879786D01*
X164655048Y-65707820D01*
X164655047Y-65707820D01*
X164655051Y-65707816D01*
X164751557Y-65518412D01*
X164817246Y-65316243D01*
X164850500Y-65106287D01*
X164850500Y-64893713D01*
X164817246Y-64683757D01*
X164751557Y-64481588D01*
X164655051Y-64292184D01*
X164655049Y-64292181D01*
X164655048Y-64292179D01*
X164530109Y-64120213D01*
X164379786Y-63969890D01*
X164207820Y-63844951D01*
X164018414Y-63748444D01*
X164018413Y-63748443D01*
X164018412Y-63748443D01*
X163816243Y-63682754D01*
X163816241Y-63682753D01*
X163816240Y-63682753D01*
X163654957Y-63657208D01*
X163606287Y-63649500D01*
X163393713Y-63649500D01*
X163345042Y-63657208D01*
X163183760Y-63682753D01*
X162981585Y-63748444D01*
X162792179Y-63844951D01*
X162620213Y-63969890D01*
X162469890Y-64120213D01*
X162344951Y-64292179D01*
X162248444Y-64481585D01*
X162182753Y-64683760D01*
X162149500Y-64893713D01*
X158332074Y-64893713D01*
X158357246Y-64816243D01*
X158390500Y-64606287D01*
X158390500Y-64393713D01*
X158357246Y-64183757D01*
X158291557Y-63981588D01*
X158195051Y-63792184D01*
X158195049Y-63792181D01*
X158195048Y-63792179D01*
X158070109Y-63620213D01*
X157919786Y-63469890D01*
X157747820Y-63344951D01*
X157558414Y-63248444D01*
X157558413Y-63248443D01*
X157558412Y-63248443D01*
X157356243Y-63182754D01*
X157356241Y-63182753D01*
X157356240Y-63182753D01*
X157194957Y-63157208D01*
X157146287Y-63149500D01*
X156933713Y-63149500D01*
X156885042Y-63157208D01*
X156723760Y-63182753D01*
X156521585Y-63248444D01*
X156332179Y-63344951D01*
X156160213Y-63469890D01*
X156009890Y-63620213D01*
X155884949Y-63792182D01*
X155880484Y-63800946D01*
X155832509Y-63851742D01*
X155764688Y-63868536D01*
X155698553Y-63845998D01*
X155659516Y-63800946D01*
X155655050Y-63792182D01*
X155530109Y-63620213D01*
X155379786Y-63469890D01*
X155207820Y-63344951D01*
X155018414Y-63248444D01*
X155018413Y-63248443D01*
X155018412Y-63248443D01*
X154816243Y-63182754D01*
X154816241Y-63182753D01*
X154816240Y-63182753D01*
X154654957Y-63157208D01*
X154606287Y-63149500D01*
X154393713Y-63149500D01*
X154345042Y-63157208D01*
X154183760Y-63182753D01*
X153981585Y-63248444D01*
X153792179Y-63344951D01*
X153620213Y-63469890D01*
X153469890Y-63620213D01*
X153344949Y-63792182D01*
X153340484Y-63800946D01*
X153292509Y-63851742D01*
X153224688Y-63868536D01*
X153158553Y-63845998D01*
X153119516Y-63800946D01*
X153115050Y-63792182D01*
X152990109Y-63620213D01*
X152839786Y-63469890D01*
X152667820Y-63344951D01*
X152478414Y-63248444D01*
X152478413Y-63248443D01*
X152478412Y-63248443D01*
X152276243Y-63182754D01*
X152276241Y-63182753D01*
X152276240Y-63182753D01*
X152114957Y-63157208D01*
X152066287Y-63149500D01*
X151853713Y-63149500D01*
X151805042Y-63157208D01*
X151643760Y-63182753D01*
X151441585Y-63248444D01*
X151252179Y-63344951D01*
X151080213Y-63469890D01*
X150929890Y-63620213D01*
X150804949Y-63792182D01*
X150800484Y-63800946D01*
X150752509Y-63851742D01*
X150684688Y-63868536D01*
X150618553Y-63845998D01*
X150579516Y-63800946D01*
X150575050Y-63792182D01*
X150450109Y-63620213D01*
X150299786Y-63469890D01*
X150127820Y-63344951D01*
X149938414Y-63248444D01*
X149938413Y-63248443D01*
X149938412Y-63248443D01*
X149736243Y-63182754D01*
X149736241Y-63182753D01*
X149736240Y-63182753D01*
X149574957Y-63157208D01*
X149526287Y-63149500D01*
X149313713Y-63149500D01*
X149265042Y-63157208D01*
X149103760Y-63182753D01*
X148901585Y-63248444D01*
X148712179Y-63344951D01*
X148540213Y-63469890D01*
X148389890Y-63620213D01*
X148264949Y-63792182D01*
X148260484Y-63800946D01*
X148212509Y-63851742D01*
X148144688Y-63868536D01*
X148078553Y-63845998D01*
X148039516Y-63800946D01*
X148035050Y-63792182D01*
X147910109Y-63620213D01*
X147759786Y-63469890D01*
X147587820Y-63344951D01*
X147398414Y-63248444D01*
X147398413Y-63248443D01*
X147398412Y-63248443D01*
X147196243Y-63182754D01*
X147196241Y-63182753D01*
X147196240Y-63182753D01*
X147034957Y-63157208D01*
X146986287Y-63149500D01*
X146773713Y-63149500D01*
X146725042Y-63157208D01*
X146563760Y-63182753D01*
X146361585Y-63248444D01*
X146172179Y-63344951D01*
X146000215Y-63469889D01*
X145886285Y-63583819D01*
X145824962Y-63617303D01*
X145755270Y-63612319D01*
X145699337Y-63570447D01*
X145682422Y-63539470D01*
X145633354Y-63407913D01*
X145633350Y-63407906D01*
X145547190Y-63292812D01*
X145547187Y-63292809D01*
X145432093Y-63206649D01*
X145432086Y-63206645D01*
X145297379Y-63156403D01*
X145297372Y-63156401D01*
X145237844Y-63150000D01*
X144590000Y-63150000D01*
X144590000Y-64066988D01*
X144532993Y-64034075D01*
X144405826Y-64000000D01*
X144274174Y-64000000D01*
X144147007Y-64034075D01*
X144090000Y-64066988D01*
X144090000Y-63150000D01*
X143442155Y-63150000D01*
X143382627Y-63156401D01*
X143382620Y-63156403D01*
X143247913Y-63206645D01*
X143247906Y-63206649D01*
X143132812Y-63292809D01*
X143132809Y-63292812D01*
X143046649Y-63407906D01*
X143046645Y-63407913D01*
X142996403Y-63542620D01*
X142996401Y-63542627D01*
X142990000Y-63602155D01*
X140353396Y-63602155D01*
X140282914Y-63463828D01*
X140222658Y-63380894D01*
X140222658Y-63380893D01*
X139523787Y-64079765D01*
X139512518Y-64037708D01*
X139440110Y-63912292D01*
X139337708Y-63809890D01*
X139212292Y-63737482D01*
X139170234Y-63726212D01*
X139869105Y-63027340D01*
X139869104Y-63027338D01*
X139786174Y-62967087D01*
X139575802Y-62859897D01*
X139351247Y-62786934D01*
X139351248Y-62786934D01*
X139118052Y-62750000D01*
X138881948Y-62750000D01*
X138648752Y-62786934D01*
X138424197Y-62859897D01*
X138213830Y-62967084D01*
X138130894Y-63027340D01*
X138829766Y-63726212D01*
X138787708Y-63737482D01*
X138662292Y-63809890D01*
X138559890Y-63912292D01*
X138487482Y-64037708D01*
X138476212Y-64079766D01*
X137777340Y-63380894D01*
X137717084Y-63463830D01*
X137609897Y-63674197D01*
X137536934Y-63898752D01*
X137500000Y-64131947D01*
X136000500Y-64131947D01*
X136000500Y-64131902D01*
X135963553Y-63898631D01*
X135899013Y-63700000D01*
X135890568Y-63674008D01*
X135890566Y-63674005D01*
X135890566Y-63674003D01*
X135822017Y-63539470D01*
X135783343Y-63463567D01*
X135644517Y-63272490D01*
X135477510Y-63105483D01*
X135286433Y-62966657D01*
X135075996Y-62859433D01*
X134851368Y-62786446D01*
X134618097Y-62749500D01*
X134618092Y-62749500D01*
X134381908Y-62749500D01*
X134381903Y-62749500D01*
X134148631Y-62786446D01*
X133924003Y-62859433D01*
X133713566Y-62966657D01*
X133630047Y-63027338D01*
X133522490Y-63105483D01*
X133522488Y-63105485D01*
X133522487Y-63105485D01*
X133355485Y-63272487D01*
X133355485Y-63272488D01*
X133355483Y-63272490D01*
X133302838Y-63344949D01*
X133216657Y-63463566D01*
X133109433Y-63674003D01*
X133036446Y-63898631D01*
X132999500Y-64131902D01*
X131700764Y-64131902D01*
X131655051Y-64042184D01*
X131611024Y-63981585D01*
X131530109Y-63870213D01*
X131379786Y-63719890D01*
X131207820Y-63594951D01*
X131018414Y-63498444D01*
X131018413Y-63498443D01*
X131018412Y-63498443D01*
X130816243Y-63432754D01*
X130816241Y-63432753D01*
X130816240Y-63432753D01*
X130654957Y-63407208D01*
X130606287Y-63399500D01*
X130393713Y-63399500D01*
X130345042Y-63407208D01*
X130183760Y-63432753D01*
X129981585Y-63498444D01*
X129792179Y-63594951D01*
X129697385Y-63663823D01*
X129631578Y-63687303D01*
X129563525Y-63671477D01*
X129514830Y-63621371D01*
X129500500Y-63563505D01*
X129500500Y-62624500D01*
X129520185Y-62557461D01*
X129572989Y-62511706D01*
X129624500Y-62500500D01*
X168375500Y-62500500D01*
X168442539Y-62520185D01*
G37*
%TD.AperFunction*%
%TA.AperFunction,Conductor*%
G36*
X165352818Y-83031828D02*
G01*
X165400429Y-83082964D01*
X165412836Y-83151724D01*
X165412019Y-83157868D01*
X165400000Y-83233753D01*
X165400000Y-83446246D01*
X165433242Y-83656127D01*
X165433242Y-83656130D01*
X165498904Y-83858217D01*
X165595375Y-84047550D01*
X165634728Y-84101716D01*
X166267037Y-83469408D01*
X166284075Y-83532993D01*
X166349901Y-83647007D01*
X166442993Y-83740099D01*
X166557007Y-83805925D01*
X166620590Y-83822962D01*
X165988282Y-84455269D01*
X165988282Y-84455270D01*
X166042452Y-84494626D01*
X166042451Y-84494626D01*
X166051495Y-84499234D01*
X166102292Y-84547208D01*
X166119087Y-84615029D01*
X166096550Y-84681164D01*
X166051499Y-84720202D01*
X166042182Y-84724949D01*
X165870213Y-84849890D01*
X165719890Y-85000213D01*
X165594951Y-85172179D01*
X165498444Y-85361585D01*
X165432753Y-85563760D01*
X165399500Y-85773713D01*
X165399500Y-85986286D01*
X165424545Y-86144417D01*
X165432754Y-86196243D01*
X165491125Y-86375891D01*
X165498444Y-86398414D01*
X165594951Y-86587820D01*
X165719890Y-86759786D01*
X165870213Y-86910109D01*
X166042182Y-87035050D01*
X166050946Y-87039516D01*
X166101742Y-87087491D01*
X166118536Y-87155312D01*
X166095998Y-87221447D01*
X166050946Y-87260484D01*
X166042182Y-87264949D01*
X165870213Y-87389890D01*
X165719890Y-87540213D01*
X165594951Y-87712179D01*
X165498444Y-87901585D01*
X165432753Y-88103760D01*
X165399500Y-88313713D01*
X165399500Y-88526286D01*
X165431301Y-88727074D01*
X165432754Y-88736243D01*
X165495937Y-88930700D01*
X165498444Y-88938414D01*
X165594951Y-89127820D01*
X165719890Y-89299786D01*
X165870213Y-89450109D01*
X166042182Y-89575050D01*
X166050946Y-89579516D01*
X166101742Y-89627491D01*
X166118536Y-89695312D01*
X166095998Y-89761447D01*
X166050946Y-89800484D01*
X166042182Y-89804949D01*
X165870213Y-89929890D01*
X165719890Y-90080213D01*
X165592085Y-90256125D01*
X165590740Y-90255148D01*
X165544295Y-90297166D01*
X165490382Y-90309500D01*
X156400808Y-90309500D01*
X156333769Y-90289815D01*
X156313127Y-90273181D01*
X154807137Y-88767191D01*
X154773652Y-88705868D01*
X154772345Y-88660112D01*
X154797739Y-88499786D01*
X154800500Y-88482352D01*
X154800500Y-88277648D01*
X154778032Y-88135790D01*
X154768477Y-88075465D01*
X154737458Y-87980000D01*
X154705220Y-87880781D01*
X154705218Y-87880778D01*
X154705218Y-87880776D01*
X154654848Y-87781921D01*
X154612287Y-87698390D01*
X154604556Y-87687749D01*
X154491971Y-87532786D01*
X154347213Y-87388028D01*
X154181611Y-87267713D01*
X154088369Y-87220203D01*
X154037574Y-87172229D01*
X154020779Y-87104407D01*
X154043317Y-87038273D01*
X154088371Y-86999234D01*
X154181346Y-86951861D01*
X154181347Y-86951861D01*
X154225921Y-86919474D01*
X153546447Y-86240000D01*
X153552661Y-86240000D01*
X153654394Y-86212741D01*
X153745606Y-86160080D01*
X153820080Y-86085606D01*
X153872741Y-85994394D01*
X153900000Y-85892661D01*
X153900000Y-85886447D01*
X154579474Y-86565921D01*
X154611859Y-86521349D01*
X154704755Y-86339031D01*
X154767990Y-86144417D01*
X154800000Y-85942317D01*
X154800000Y-85737682D01*
X154767990Y-85535582D01*
X154750846Y-85482819D01*
X154748851Y-85412977D01*
X154784931Y-85353144D01*
X154847632Y-85322316D01*
X154868777Y-85320500D01*
X162723020Y-85320500D01*
X162820562Y-85301096D01*
X162868013Y-85291658D01*
X163004595Y-85235084D01*
X163053829Y-85202186D01*
X163127516Y-85152952D01*
X163539897Y-84740569D01*
X163580124Y-84713691D01*
X163603779Y-84703894D01*
X163734889Y-84616289D01*
X163846389Y-84504789D01*
X163933994Y-84373679D01*
X163994337Y-84227997D01*
X164025100Y-84073342D01*
X164025100Y-83915658D01*
X164025100Y-83915655D01*
X164025099Y-83915653D01*
X164013674Y-83858217D01*
X163994337Y-83761003D01*
X163963912Y-83687551D01*
X163956444Y-83618085D01*
X163987719Y-83555605D01*
X164047808Y-83519953D01*
X164117633Y-83522446D01*
X164125926Y-83525540D01*
X164200998Y-83556635D01*
X164201003Y-83556637D01*
X164313665Y-83579047D01*
X164355653Y-83587399D01*
X164355656Y-83587400D01*
X164355658Y-83587400D01*
X164513344Y-83587400D01*
X164513345Y-83587399D01*
X164667997Y-83556637D01*
X164813679Y-83496294D01*
X164944789Y-83408689D01*
X165056289Y-83297189D01*
X165143894Y-83166079D01*
X165174986Y-83091015D01*
X165218825Y-83036614D01*
X165285119Y-83014549D01*
X165352818Y-83031828D01*
G37*
%TD.AperFunction*%
%TA.AperFunction,Conductor*%
G36*
X153100000Y-85892661D02*
G01*
X153127259Y-85994394D01*
X153179920Y-86085606D01*
X153254394Y-86160080D01*
X153345606Y-86212741D01*
X153447339Y-86240000D01*
X153453553Y-86240000D01*
X152774076Y-86919474D01*
X152818652Y-86951861D01*
X152911628Y-86999234D01*
X152962425Y-87047208D01*
X152979220Y-87115029D01*
X152956683Y-87181164D01*
X152911630Y-87220203D01*
X152818388Y-87267713D01*
X152652786Y-87388028D01*
X152508028Y-87532786D01*
X152387715Y-87698386D01*
X152315269Y-87840568D01*
X152315265Y-87840575D01*
X152294780Y-87880781D01*
X152284617Y-87912057D01*
X152284614Y-87912066D01*
X152231523Y-88075461D01*
X152231523Y-88075464D01*
X152212410Y-88196137D01*
X152199500Y-88277648D01*
X152199500Y-88482352D01*
X152202261Y-88499786D01*
X152227654Y-88660111D01*
X152226952Y-88665535D01*
X152228865Y-88670662D01*
X152222522Y-88699821D01*
X152218699Y-88729405D01*
X152214868Y-88735007D01*
X152214014Y-88738935D01*
X152192862Y-88767190D01*
X152065671Y-88894382D01*
X152004351Y-88927866D01*
X151977992Y-88930700D01*
X147238639Y-88930700D01*
X147171600Y-88911015D01*
X147125845Y-88858211D01*
X147115901Y-88789053D01*
X147120708Y-88768381D01*
X147147990Y-88684417D01*
X147180000Y-88482317D01*
X147180000Y-88277682D01*
X147147990Y-88075582D01*
X147084755Y-87880968D01*
X146991859Y-87698650D01*
X146959474Y-87654077D01*
X146959474Y-87654076D01*
X146280000Y-88333551D01*
X146280000Y-88327339D01*
X146252741Y-88225606D01*
X146200080Y-88134394D01*
X146125606Y-88059920D01*
X146034394Y-88007259D01*
X145932661Y-87980000D01*
X145926446Y-87980000D01*
X146605922Y-87300524D01*
X146605921Y-87300523D01*
X146561359Y-87268147D01*
X146561350Y-87268141D01*
X146468369Y-87220765D01*
X146417573Y-87172790D01*
X146400778Y-87104969D01*
X146423315Y-87038835D01*
X146468370Y-86999795D01*
X146478768Y-86994497D01*
X146561610Y-86952287D01*
X146612370Y-86915408D01*
X146727213Y-86831971D01*
X146727215Y-86831968D01*
X146727219Y-86831966D01*
X146871966Y-86687219D01*
X146892473Y-86658994D01*
X146905100Y-86641615D01*
X146960429Y-86598949D01*
X147005418Y-86590500D01*
X149403370Y-86590500D01*
X149470409Y-86610185D01*
X149491051Y-86626819D01*
X150605927Y-87741695D01*
X150632806Y-87781921D01*
X150642606Y-87805579D01*
X150642607Y-87805581D01*
X150730207Y-87936684D01*
X150730213Y-87936692D01*
X150841707Y-88048186D01*
X150841711Y-88048189D01*
X150972814Y-88135790D01*
X150972827Y-88135797D01*
X151047768Y-88166838D01*
X151118503Y-88196137D01*
X151266653Y-88225606D01*
X151273153Y-88226899D01*
X151273156Y-88226900D01*
X151273158Y-88226900D01*
X151430844Y-88226900D01*
X151430845Y-88226899D01*
X151585497Y-88196137D01*
X151731179Y-88135794D01*
X151862289Y-88048189D01*
X151973789Y-87936689D01*
X152061394Y-87805579D01*
X152121737Y-87659897D01*
X152152500Y-87505242D01*
X152152500Y-87347558D01*
X152152500Y-87347555D01*
X152152499Y-87347553D01*
X152135146Y-87260316D01*
X152121737Y-87192903D01*
X152113174Y-87172229D01*
X152061397Y-87047227D01*
X152061390Y-87047214D01*
X151973789Y-86916111D01*
X151973786Y-86916107D01*
X151891903Y-86834224D01*
X151858418Y-86772901D01*
X151863402Y-86703209D01*
X151891899Y-86658867D01*
X152146376Y-86404390D01*
X152207697Y-86370907D01*
X152277389Y-86375891D01*
X152333322Y-86417763D01*
X152344540Y-86435778D01*
X152388141Y-86521350D01*
X152388147Y-86521359D01*
X152420523Y-86565921D01*
X152420524Y-86565922D01*
X153100000Y-85886446D01*
X153100000Y-85892661D01*
G37*
%TD.AperFunction*%
%TA.AperFunction,Conductor*%
G36*
X159344331Y-76350185D02*
G01*
X159364973Y-76366819D01*
X163837183Y-80839029D01*
X163870668Y-80900352D01*
X163871119Y-80902518D01*
X163884461Y-80969591D01*
X163884463Y-80969599D01*
X163944802Y-81115272D01*
X163944809Y-81115285D01*
X164032410Y-81246388D01*
X164032413Y-81246392D01*
X164143907Y-81357886D01*
X164143911Y-81357889D01*
X164275014Y-81445490D01*
X164275027Y-81445497D01*
X164420698Y-81505835D01*
X164420703Y-81505837D01*
X164575353Y-81536599D01*
X164575356Y-81536600D01*
X164575358Y-81536600D01*
X164733044Y-81536600D01*
X164733045Y-81536599D01*
X164887697Y-81505837D01*
X165033379Y-81445494D01*
X165164489Y-81357889D01*
X165222378Y-81300000D01*
X165280297Y-81242082D01*
X165281366Y-81243151D01*
X165332942Y-81208015D01*
X165402786Y-81206140D01*
X165462557Y-81242324D01*
X165488987Y-81287694D01*
X165498904Y-81318217D01*
X165595375Y-81507550D01*
X165634728Y-81561716D01*
X166267037Y-80929408D01*
X166284075Y-80992993D01*
X166349901Y-81107007D01*
X166442993Y-81200099D01*
X166557007Y-81265925D01*
X166620591Y-81282962D01*
X166019971Y-81883581D01*
X166098711Y-82000895D01*
X166099920Y-82004729D01*
X166102844Y-82007491D01*
X166110343Y-82037778D01*
X166119727Y-82067529D01*
X166118671Y-82071408D01*
X166119638Y-82075312D01*
X166109573Y-82104844D01*
X166101383Y-82134947D01*
X166098397Y-82137640D01*
X166097100Y-82141447D01*
X166052051Y-82180483D01*
X166042440Y-82185380D01*
X165988282Y-82224727D01*
X165988282Y-82224728D01*
X166620591Y-82857037D01*
X166557007Y-82874075D01*
X166442993Y-82939901D01*
X166349901Y-83032993D01*
X166284075Y-83147007D01*
X166267037Y-83210591D01*
X165634728Y-82578282D01*
X165634727Y-82578282D01*
X165595380Y-82632439D01*
X165498904Y-82821783D01*
X165476931Y-82889410D01*
X165437494Y-82947086D01*
X165373135Y-82974284D01*
X165304289Y-82962369D01*
X165252813Y-82915125D01*
X165235000Y-82851092D01*
X165235000Y-82708055D01*
X165234999Y-82708053D01*
X165217163Y-82618386D01*
X165204237Y-82553403D01*
X165204235Y-82553398D01*
X165143897Y-82407727D01*
X165143890Y-82407714D01*
X165056289Y-82276611D01*
X165056286Y-82276607D01*
X164944792Y-82165113D01*
X164944788Y-82165110D01*
X164813685Y-82077509D01*
X164813672Y-82077502D01*
X164668001Y-82017164D01*
X164667989Y-82017161D01*
X164529573Y-81989628D01*
X164529572Y-81989628D01*
X164513344Y-81986400D01*
X164513342Y-81986400D01*
X164355658Y-81986400D01*
X164355655Y-81986400D01*
X164201010Y-82017161D01*
X164200998Y-82017164D01*
X164055327Y-82077502D01*
X164055320Y-82077506D01*
X164032864Y-82092511D01*
X163998455Y-82115502D01*
X163931779Y-82136380D01*
X163929565Y-82136400D01*
X154179757Y-82136400D01*
X154112718Y-82116715D01*
X154066963Y-82063911D01*
X154057019Y-81994753D01*
X154086044Y-81931197D01*
X154123462Y-81901915D01*
X154126042Y-81900599D01*
X154181610Y-81872287D01*
X154274590Y-81804732D01*
X154347213Y-81751971D01*
X154347215Y-81751968D01*
X154347219Y-81751966D01*
X154491966Y-81607219D01*
X154491968Y-81607215D01*
X154491971Y-81607213D01*
X154565623Y-81505838D01*
X154612287Y-81441610D01*
X154705220Y-81259219D01*
X154768477Y-81064534D01*
X154800500Y-80862352D01*
X154800500Y-80657648D01*
X154768477Y-80455466D01*
X154765546Y-80446446D01*
X154736458Y-80356921D01*
X154705220Y-80260781D01*
X154705217Y-80260777D01*
X154705217Y-80260774D01*
X154694579Y-80239896D01*
X154681682Y-80171226D01*
X154707958Y-80106486D01*
X154765064Y-80066228D01*
X154805063Y-80059600D01*
X158404971Y-80059600D01*
X158489515Y-80042782D01*
X158530644Y-80034601D01*
X158649027Y-79985565D01*
X158677765Y-79966363D01*
X158755569Y-79914377D01*
X158906509Y-79763435D01*
X158967830Y-79729951D01*
X159013587Y-79728644D01*
X159151578Y-79750500D01*
X159151583Y-79750500D01*
X159348422Y-79750500D01*
X159542826Y-79719709D01*
X159548064Y-79718007D01*
X159730025Y-79658884D01*
X159905405Y-79569524D01*
X160064646Y-79453828D01*
X160203828Y-79314646D01*
X160319524Y-79155405D01*
X160408884Y-78980025D01*
X160469709Y-78792826D01*
X160475132Y-78758587D01*
X160500500Y-78598422D01*
X160500500Y-78401577D01*
X160469709Y-78207173D01*
X160440620Y-78117648D01*
X160408884Y-78019975D01*
X160408882Y-78019972D01*
X160408882Y-78019970D01*
X160355634Y-77915465D01*
X160319524Y-77844595D01*
X160203828Y-77685354D01*
X160064646Y-77546172D01*
X159905405Y-77430476D01*
X159730029Y-77341117D01*
X159542826Y-77280290D01*
X159348422Y-77249500D01*
X159348417Y-77249500D01*
X159151583Y-77249500D01*
X159151578Y-77249500D01*
X158957173Y-77280290D01*
X158769970Y-77341117D01*
X158594594Y-77430476D01*
X158503741Y-77496485D01*
X158435354Y-77546172D01*
X158435352Y-77546174D01*
X158435351Y-77546174D01*
X158296174Y-77685351D01*
X158296174Y-77685352D01*
X158296172Y-77685354D01*
X158270433Y-77720781D01*
X158180476Y-77844594D01*
X158091117Y-78019970D01*
X158030290Y-78207173D01*
X157999500Y-78401577D01*
X157999500Y-78598419D01*
X158002158Y-78615200D01*
X157993204Y-78684494D01*
X157948209Y-78737946D01*
X157881458Y-78758587D01*
X157879685Y-78758600D01*
X154863096Y-78758600D01*
X154796057Y-78738915D01*
X154750302Y-78686111D01*
X154740358Y-78616953D01*
X154745165Y-78596281D01*
X154768477Y-78524534D01*
X154800500Y-78322351D01*
X154800500Y-78117648D01*
X154768477Y-77915465D01*
X154723239Y-77776239D01*
X154705220Y-77720781D01*
X154705218Y-77720778D01*
X154705218Y-77720776D01*
X154626501Y-77566287D01*
X154612287Y-77538390D01*
X154533884Y-77430476D01*
X154491971Y-77372786D01*
X154347213Y-77228028D01*
X154181614Y-77107715D01*
X154167422Y-77100484D01*
X154088917Y-77060483D01*
X154038123Y-77012511D01*
X154021328Y-76944690D01*
X154043865Y-76878555D01*
X154088917Y-76839516D01*
X154181610Y-76792287D01*
X154232370Y-76755408D01*
X154347213Y-76671971D01*
X154347215Y-76671968D01*
X154347219Y-76671966D01*
X154491966Y-76527219D01*
X154597753Y-76381613D01*
X154653082Y-76338949D01*
X154698071Y-76330500D01*
X159277292Y-76330500D01*
X159344331Y-76350185D01*
G37*
%TD.AperFunction*%
%TA.AperFunction,Conductor*%
G36*
X165186231Y-72540185D02*
G01*
X165206873Y-72556819D01*
X165399342Y-72749288D01*
X165432827Y-72810611D01*
X165432319Y-72858755D01*
X165433516Y-72858945D01*
X165399500Y-73073713D01*
X165399500Y-73286286D01*
X165429823Y-73477741D01*
X165432754Y-73496243D01*
X165479211Y-73639223D01*
X165498444Y-73698414D01*
X165594951Y-73887820D01*
X165719890Y-74059786D01*
X165870213Y-74210109D01*
X166042182Y-74335050D01*
X166050946Y-74339516D01*
X166101742Y-74387491D01*
X166118536Y-74455312D01*
X166095998Y-74521447D01*
X166050946Y-74560484D01*
X166042182Y-74564949D01*
X165870213Y-74689890D01*
X165719890Y-74840213D01*
X165594951Y-75012179D01*
X165498444Y-75201585D01*
X165432753Y-75403760D01*
X165399500Y-75613713D01*
X165399500Y-75826286D01*
X165429823Y-76017741D01*
X165432754Y-76036243D01*
X165479211Y-76179223D01*
X165498444Y-76238414D01*
X165594951Y-76427820D01*
X165719890Y-76599786D01*
X165870213Y-76750109D01*
X166042182Y-76875050D01*
X166050946Y-76879516D01*
X166101742Y-76927491D01*
X166118536Y-76995312D01*
X166095998Y-77061447D01*
X166050946Y-77100484D01*
X166042182Y-77104949D01*
X165870213Y-77229890D01*
X165719890Y-77380213D01*
X165594951Y-77552179D01*
X165498444Y-77741585D01*
X165432753Y-77943760D01*
X165406344Y-78110500D01*
X165399500Y-78153713D01*
X165399500Y-78366287D01*
X165405089Y-78401577D01*
X165429823Y-78557741D01*
X165432754Y-78576243D01*
X165492001Y-78758587D01*
X165498444Y-78778414D01*
X165594951Y-78967820D01*
X165719890Y-79139786D01*
X165870213Y-79290109D01*
X166042179Y-79415048D01*
X166042181Y-79415049D01*
X166042184Y-79415051D01*
X166051493Y-79419794D01*
X166102290Y-79467766D01*
X166119087Y-79535587D01*
X166096552Y-79601722D01*
X166051505Y-79640760D01*
X166042446Y-79645376D01*
X166042440Y-79645380D01*
X165988282Y-79684727D01*
X165988282Y-79684728D01*
X166620591Y-80317037D01*
X166557007Y-80334075D01*
X166442993Y-80399901D01*
X166349901Y-80492993D01*
X166284075Y-80607007D01*
X166267037Y-80670591D01*
X165634728Y-80038282D01*
X165634727Y-80038282D01*
X165595380Y-80092440D01*
X165595378Y-80092443D01*
X165514689Y-80250802D01*
X165466715Y-80301597D01*
X165398893Y-80318392D01*
X165332759Y-80295854D01*
X165301103Y-80263397D01*
X165275989Y-80225811D01*
X165275987Y-80225808D01*
X165164492Y-80114313D01*
X165164488Y-80114310D01*
X165033385Y-80026709D01*
X165033372Y-80026702D01*
X164887699Y-79966363D01*
X164887691Y-79966361D01*
X164820618Y-79953019D01*
X164758707Y-79920634D01*
X164757129Y-79919083D01*
X160012774Y-75174727D01*
X160012773Y-75174726D01*
X160012769Y-75174723D01*
X159906227Y-75103535D01*
X159787844Y-75054499D01*
X159787838Y-75054497D01*
X159691892Y-75035412D01*
X159629981Y-75003027D01*
X159595407Y-74942311D01*
X159599148Y-74872541D01*
X159640014Y-74815870D01*
X159677763Y-74795865D01*
X159730025Y-74778884D01*
X159905405Y-74689524D01*
X160064646Y-74573828D01*
X160203828Y-74434646D01*
X160319524Y-74275405D01*
X160408884Y-74100025D01*
X160469709Y-73912826D01*
X160483196Y-73827671D01*
X160500500Y-73718422D01*
X160500500Y-73521577D01*
X160469709Y-73327173D01*
X160408882Y-73139970D01*
X160319523Y-72964594D01*
X160203828Y-72805354D01*
X160130655Y-72732181D01*
X160097170Y-72670858D01*
X160102154Y-72601166D01*
X160144026Y-72545233D01*
X160209490Y-72520816D01*
X160218336Y-72520500D01*
X165119192Y-72520500D01*
X165186231Y-72540185D01*
G37*
%TD.AperFunction*%
%TD*%
M02*
