%TF.GenerationSoftware,KiCad,Pcbnew,9.0.2*%
%TF.CreationDate,2025-07-07T19:43:41+05:30*%
%TF.ProjectId,Atmega328p_based,41746d65-6761-4333-9238-705f62617365,rev?*%
%TF.SameCoordinates,Original*%
%TF.FileFunction,Plated,1,2,PTH,Drill*%
%TF.FilePolarity,Positive*%
%FSLAX46Y46*%
G04 Gerber Fmt 4.6, Leading zero omitted, Abs format (unit mm)*
G04 Created by KiCad (PCBNEW 9.0.2) date 2025-07-07 19:43:41*
%MOMM*%
%LPD*%
G01*
G04 APERTURE LIST*
%TA.AperFunction,ViaDrill*%
%ADD10C,0.300000*%
%TD*%
%TA.AperFunction,ComponentDrill*%
%ADD11C,0.800000*%
%TD*%
%TA.AperFunction,ComponentDrill*%
%ADD12C,1.000000*%
%TD*%
%TA.AperFunction,ComponentDrill*%
%ADD13C,1.100000*%
%TD*%
G04 APERTURE END LIST*
D10*
X139497000Y-88732100D03*
X142734400Y-98287500D03*
X144168300Y-72129800D03*
X144168800Y-87018200D03*
X147840300Y-95181900D03*
X151352000Y-87426400D03*
X151509200Y-79166300D03*
X154346000Y-100077300D03*
X156019000Y-100763100D03*
X157875000Y-106125000D03*
X159221200Y-94836100D03*
X161212200Y-100950700D03*
X162089500Y-101974200D03*
X163224600Y-83994500D03*
X163945700Y-85840000D03*
X164434500Y-82786900D03*
X164654200Y-80736100D03*
D11*
%TO.C,U1*%
X145880000Y-70600000D03*
X145880000Y-73140000D03*
X145880000Y-75680000D03*
X145880000Y-78220000D03*
X145880000Y-80760000D03*
X145880000Y-83300000D03*
X145880000Y-85840000D03*
X145880000Y-88380000D03*
X145880000Y-90920000D03*
X145880000Y-93460000D03*
X145880000Y-96000000D03*
X145880000Y-98540000D03*
X145880000Y-101080000D03*
X145880000Y-103620000D03*
X153500000Y-70600000D03*
X153500000Y-73140000D03*
X153500000Y-75680000D03*
X153500000Y-78220000D03*
X153500000Y-80760000D03*
X153500000Y-83300000D03*
X153500000Y-85840000D03*
X153500000Y-88380000D03*
X153500000Y-90920000D03*
X153500000Y-93460000D03*
X153500000Y-96000000D03*
X153500000Y-98540000D03*
X153500000Y-101080000D03*
X153500000Y-103620000D03*
%TO.C,Y1*%
X159250000Y-73620000D03*
X159250000Y-78500000D03*
D12*
%TO.C,J2*%
X131500000Y-74920000D03*
X131500000Y-77460000D03*
X131500000Y-80000000D03*
X131500000Y-82540000D03*
X131500000Y-85080000D03*
X131500000Y-87620000D03*
X131500000Y-90160000D03*
X131500000Y-92700000D03*
X131500000Y-95240000D03*
X131500000Y-97780000D03*
X131500000Y-100320000D03*
X131500000Y-102860000D03*
X131500000Y-105400000D03*
X131500000Y-107940000D03*
%TO.C,J1*%
X142340000Y-108500000D03*
%TO.C,J5*%
X144340000Y-64500000D03*
%TO.C,J1*%
X144880000Y-108500000D03*
%TO.C,J5*%
X146880000Y-64500000D03*
%TO.C,J1*%
X147420000Y-108500000D03*
%TO.C,J5*%
X149420000Y-64500000D03*
%TO.C,J1*%
X149960000Y-108500000D03*
%TO.C,J5*%
X151960000Y-64500000D03*
%TO.C,J1*%
X152500000Y-108500000D03*
%TO.C,J5*%
X154500000Y-64500000D03*
%TO.C,J1*%
X155040000Y-108500000D03*
%TO.C,J5*%
X157040000Y-64500000D03*
%TO.C,J3*%
X166750000Y-73180000D03*
X166750000Y-75720000D03*
X166750000Y-78260000D03*
X166750000Y-80800000D03*
X166750000Y-83340000D03*
X166750000Y-85880000D03*
X166750000Y-88420000D03*
X166750000Y-90960000D03*
X166750000Y-93500000D03*
X166750000Y-96040000D03*
X166750000Y-98580000D03*
X166750000Y-101120000D03*
X166750000Y-103660000D03*
X166750000Y-106200000D03*
D13*
%TO.C,SW1*%
X134500000Y-64250000D03*
X134500000Y-70750000D03*
X139000000Y-64250000D03*
X139000000Y-70750000D03*
M02*
